<svg class="gh__logo-container__logo__aerodata__svg" xmlns="http://www.w3.org/2000/svg" xmlns:xlink="http://www.w3.org/1999/xlink" xml:space="preserve" width="300px" height="80px" version="1.0" shape-rendering="geometricPrecision" text-rendering="geometricPrecision" image-rendering="optimizeQuality" fill-rule="evenodd" clip-rule="evenodd" viewBox="0 0 4887 842"><defs><linearGradient id="id0" gradientUnits="userSpaceOnUse" x1="867.838" y1="487.688" x2="867.838" y2="1.47901"><stop offset="0" stop-opacity="1" stop-color="#00648F"></stop><stop offset="0.988235" stop-opacity="1" stop-color="#2484C6"></stop><stop offset="1" stop-opacity="1" stop-color="#2484C6"></stop></linearGradient><linearGradient id="id1" gradientUnits="userSpaceOnUse" x1="298.079" y1="490.466" x2="298.079" y2="3.70206"><stop offset="0" stop-opacity="1" stop-color="#00648F"></stop><stop offset="0.988235" stop-opacity="1" stop-color="#2484C6"></stop><stop offset="1" stop-opacity="1" stop-color="#2484C6"></stop></linearGradient><linearGradient id="id2" gradientUnits="userSpaceOnUse" x1="1314.54" y1="487.688" x2="1314.54" y2="1.47901"><stop offset="0" stop-opacity="1" stop-color="#00648F"></stop><stop offset="0.988235" stop-opacity="1" stop-color="#2484C6"></stop><stop offset="1" stop-opacity="1" stop-color="#2484C6"></stop></linearGradient><linearGradient id="id3" gradientUnits="userSpaceOnUse" x1="1871.31" y1="515.476" x2="1871.31" y2="-0.00340133"><stop offset="0" stop-opacity="1" stop-color="#00648F"></stop><stop offset="0.988235" stop-opacity="1" stop-color="#2484C6"></stop><stop offset="1" stop-opacity="1" stop-color="#2484C6"></stop></linearGradient><linearGradient id="id4" gradientUnits="userSpaceOnUse" x1="2405.73" y1="489.911" x2="2405.73" y2="1.5717"><stop offset="0" stop-opacity="1" stop-color="#00648F"></stop><stop offset="0.988235" stop-opacity="1" stop-color="#2484C6"></stop><stop offset="1" stop-opacity="1" stop-color="#2484C6"></stop></linearGradient><linearGradient id="id5" gradientUnits="userSpaceOnUse" x1="2892.89" y1="486.854" x2="2892.89" y2="0.0895683"><stop offset="0" stop-opacity="1" stop-color="#00648F"></stop><stop offset="0.988235" stop-opacity="1" stop-color="#2484C6"></stop><stop offset="1" stop-opacity="1" stop-color="#2484C6"></stop></linearGradient><linearGradient id="id6" gradientUnits="userSpaceOnUse" x1="4199.6" y1="489.077" x2="4199.6" y2="2.31262"><stop offset="0" stop-opacity="1" stop-color="#00648F"></stop><stop offset="0.988235" stop-opacity="1" stop-color="#2484C6"></stop><stop offset="1" stop-opacity="1" stop-color="#2484C6"></stop></linearGradient><linearGradient id="id7" gradientUnits="userSpaceOnUse" x1="3490.2" y1="488.799" x2="3490.2" y2="1.47929"><stop offset="0" stop-opacity="1" stop-color="#00648F"></stop><stop offset="0.988235" stop-opacity="1" stop-color="#2484C6"></stop><stop offset="1" stop-opacity="1" stop-color="#2484C6"></stop></linearGradient><linearGradient id="id8" gradientUnits="userSpaceOnUse" x1="3998.51" y1="182.846" x2="3998.51" y2="157.651"><stop offset="0" stop-opacity="1" stop-color="#00648F"></stop><stop offset="0.988235" stop-opacity="1" stop-color="#2484C6"></stop><stop offset="1" stop-opacity="1" stop-color="#2484C6"></stop></linearGradient><linearGradient id="id9" gradientUnits="userSpaceOnUse" x1="3995.54" y1="196.185" x2="3995.54" y2="163.58"><stop offset="0" stop-opacity="1" stop-color="#00648F"></stop><stop offset="0.988235" stop-opacity="1" stop-color="#2484C6"></stop><stop offset="1" stop-opacity="1" stop-color="#2484C6"></stop></linearGradient></defs><g id="Layer_x0020_1"><metadata id="CorelCorpID_0Corel-Layer"></metadata><g id="_2380590045552"><g><polygon fill="black" points="4080,270 4080,259 179,259 171,270 "></polygon><g><polygon fill="black" points="804,20 1158,20 1101,152 954,152 934,196 1077,196 1030,321 876,321 861,361 1022,361 978,506 615,506 "></polygon><path fill="black" d="M19 509l373 -487 223 0 0 487 -225 0 18 -64 -132 0 -48 64 -209 0zm407 -291l-69 106 55 0 14 -106z"></path><path fill="black" d="M1226 20l308 0c68,0 97,70 97,108 0,9 2,154 -154,187l64 191 -224 0 -27 -143 -57 143 -198 0 191 -486zm181 215c33,-38 13,-83 -9,-83l-16 0 -39 83 64 0z"></path><path fill="black" d="M1622 276c46,-142 232,-258 362,-257 131,0 220,115 174,258 -47,142 -228,257 -359,257 -130,0 -224,-116 -177,-258zm235 93c45,0 109,-40 125,-90 16,-49 -15,-90 -61,-90 -45,0 -110,40 -126,90 -17,50 16,90 62,90z"></path><path fill="black" d="M2117 508l192 -488 272 0c137,0 317,323 -160,488l-304 0zm329 -159c120,-51 112,-168 64,-168l-68 0 -72 168 76 0z"></path><path fill="black" d="M2613 505l374 -486 222 0 0 486 -224 0 18 -64 -132 0 -49 64 -209 0zm407 -291l-68 106 55 0 13 -106z"></path><path fill="black" d="M3550 508l374 -487 962 0 0 487 -964 0 18 -65 -132 0 -49 65 -209 0zm407 -291l-68 105 55 0 13 -105z"></path><polygon fill="black" points="3268,507 3391,189 3294,189 3354,20 3750,20 3695,189 3589,189 3468,507 "></polygon></g><g><polygon fill="url(#id0)" points="785,1 1140,1 1082,133 935,133 915,177 1058,177 1012,303 858,303 843,343 1003,343 959,488 596,488 "></polygon><path fill="url(#id1)" d="M0 490l374 -486 222 0 0 486 -224 0 17 -64 -132 0 -48 64 -209 0zm407 -290l-68 105 55 0 13 -105z"></path><path fill="url(#id2)" d="M1208 1l308 0c68,0 97,71 97,108 0,9 2,154 -154,187l63 192 -224 0 -26 -143 -58 143 -197 0 191 -487zm171 215c55,-30 32,-83 10,-83l-25 0 -40 83 55 0z"></path><path fill="url(#id3)" d="M1603 257c47,-142 233,-257 363,-257 130,0 220,116 173,258 -46,142 -228,258 -358,257 -131,0 -224,-115 -178,-258zm235 94c46,0 109,-41 126,-90 16,-50 -15,-90 -61,-90 -46,-1 -111,40 -127,90 -16,49 17,90 62,90z"></path><path fill="url(#id4)" d="M2099 490l191 -488 273 0c136,0 317,323 -161,488l-303 0zm329 -159c120,-52 111,-168 64,-168l-68 0 -72 168 76 0z"></path><path fill="url(#id5)" d="M2595 487l374 -487 222 0 0 487 -224 0 17 -65 -132 0 -48 65 -209 0zm407 -291l-68 106 55 0 13 -106z"></path><path fill="url(#id6)" d="M3532 489l374 -487 961 0 0 487 -963 0 17 -64 -132 0 -48 64 -209 0zm407 -291l-68 106 55 0 13 -106z"></path><polygon fill="url(#id7)" points="3249,489 3373,171 3276,171 3335,1 3731,1 3676,171 3570,171 3449,489 "></polygon></g><polygon fill="white" points="4132,257 4132,246 179,246 161,257 "></polygon><polygon fill="white" points="4826,32 4189,284 4411,444 "></polygon><polygon fill="white" points="4773,38 4150,254 3993,171 "></polygon><polygon fill="white" points="4279,359 4185,290 4159,376 4159,253 4143,254 4143,435 "></polygon><polyline fill="none" stroke="#B3B3B3" stroke-width="13.3386" points="4831,38 4411,453 4190,293 4143,429 4143,258 3995,172 "></polyline><polygon fill="url(#id8)" points="3993,183 3992,172 4014,165 4013,158 3986,159 3983,181 "></polygon><polygon fill="url(#id9)" points="3989,196 4002,196 4002,164 3989,164 "></polygon></g><g><path fill="black" d="M2993 755l-64 0 -13 38 -30 0 62 -165 26 0 62 165 -30 0 -13 -38zm-56 -23l48 0 -24 -69 -24 69z"></path><path fill="black" d="M3238 772c-5,7 -14,13 -24,17 -11,4 -23,6 -36,6 -14,0 -26,-3 -37,-9 -11,-6 -19,-15 -24,-27 -6,-12 -9,-25 -9,-41l0 -13c0,-24 6,-44 17,-58 12,-14 29,-21 50,-21 19,0 33,5 44,14 11,9 17,22 19,39l-28 0c-3,-20 -14,-30 -34,-30 -13,0 -23,5 -29,14 -7,9 -10,23 -11,41l0 12c0,18 4,32 11,42 8,10 18,15 32,15 14,0 25,-4 31,-10l0 -33 -34 0 0 -21 62 0 0 63z"></path><path fill="black" d="M3340 793c-1,-2 -2,-6 -3,-11 -8,9 -19,13 -32,13 -12,0 -22,-3 -30,-10 -8,-7 -12,-16 -12,-26 0,-13 5,-23 15,-30 10,-7 23,-11 41,-11l17 0 0 -8c0,-6 -1,-11 -5,-15 -3,-4 -9,-6 -16,-6 -6,0 -12,2 -16,5 -4,3 -6,7 -6,12l-27 0c0,-7 2,-13 7,-19 4,-6 10,-10 18,-13 7,-4 16,-6 25,-6 15,0 26,4 35,11 8,8 12,18 13,31l0 55c0,11 1,20 4,26l0 2 -28 0 0 0zm-30 -20c6,0 11,-1 15,-4 5,-2 9,-6 11,-10l0 -23 -15 0c-10,0 -17,1 -22,5 -6,3 -8,8 -8,15 0,5 2,9 5,12 4,4 8,5 14,5z"></path><path fill="black" d="M3457 696c-4,-1 -8,-1 -12,-1 -12,0 -21,5 -25,14l0 84 -28 0 0 -122 27 0 0 13c7,-10 16,-16 28,-16 4,0 7,1 10,2l0 26z"></path><path fill="black" d="M3500 671l1 13c8,-10 20,-16 35,-16 16,0 27,7 33,19 9,-12 22,-19 38,-19 13,0 23,4 30,12 7,7 10,18 10,33l0 80 -27 0 0 -79c0,-8 -2,-14 -5,-18 -4,-3 -9,-5 -17,-5 -7,0 -12,2 -16,5 -4,3 -6,8 -8,13l0 84 -27 0 0 -80c-1,-15 -8,-22 -22,-22 -11,0 -19,4 -24,13l0 89 -27 0 0 -122 26 0z"></path><path fill="black" d="M3676 639c0,-4 1,-8 3,-11 3,-2 7,-4 12,-4 5,0 9,2 11,4 3,3 5,7 5,11 0,4 -2,8 -5,10 -2,3 -6,4 -11,4 -5,0 -9,-1 -12,-4 -2,-2 -3,-6 -3,-10zm29 154l-28 0 0 -122 28 0 0 122z"></path><path fill="black" d="M3760 671l1 14c9,-11 21,-17 35,-17 26,0 39,15 39,44l0 81 -27 0 0 -79c0,-8 -2,-14 -5,-17 -3,-4 -9,-6 -17,-6 -11,0 -19,5 -24,15l0 87 -28 0 0 -122 26 0z"></path><path fill="black" d="M4049 739c-1,18 -8,32 -19,42 -11,9 -26,14 -45,14 -13,0 -25,-3 -35,-9 -10,-6 -18,-15 -23,-27 -5,-11 -8,-24 -9,-39l0 -16c0,-15 3,-29 9,-41 5,-12 13,-21 23,-27 11,-7 23,-10 36,-10 18,0 33,5 44,15 11,10 18,24 19,42l-28 0c-2,-12 -5,-21 -11,-26 -5,-5 -13,-8 -24,-8 -12,0 -22,5 -29,14 -6,9 -10,22 -10,40l0 14c0,18 3,32 10,41 6,10 15,14 28,14 11,0 19,-2 25,-7 6,-5 9,-14 11,-25l28 0 0 -1z"></path><path fill="black" d="M4067 731c0,-12 2,-23 7,-33 5,-9 12,-17 20,-22 9,-5 19,-8 30,-8 16,0 30,6 40,16 10,11 16,25 17,43l0 6c0,12 -3,23 -7,32 -5,10 -11,17 -20,23 -9,5 -19,7 -30,7 -17,0 -31,-5 -41,-17 -11,-11 -16,-27 -16,-46l0 -1zm28 2c0,13 2,23 7,30 6,7 13,10 22,10 9,0 17,-3 22,-10 5,-8 7,-18 7,-32 0,-13 -2,-22 -7,-30 -6,-7 -13,-10 -22,-10 -9,0 -16,3 -22,10 -5,7 -7,18 -7,32z"></path><path fill="black" d="M4230 671l1 13c8,-10 20,-16 35,-16 16,0 28,7 34,19 8,-12 21,-19 37,-19 14,0 24,4 30,12 7,7 10,18 10,33l0 80 -27 0 0 -79c0,-8 -2,-14 -5,-18 -4,-3 -9,-5 -17,-5 -6,0 -12,2 -15,5 -4,3 -7,8 -9,13l0 84 -27 0 0 -80c-1,-15 -8,-22 -22,-22 -11,0 -19,4 -24,13l0 89 -27 0 0 -122 26 0z"></path><path fill="black" d="M4513 733c0,19 -5,34 -13,45 -9,12 -20,17 -35,17 -13,0 -24,-4 -32,-13l0 58 -28 0 0 -169 26 0 1 12c8,-10 19,-15 33,-15 15,0 26,6 35,17 8,11 13,27 13,46l0 2 0 0zm-28 -2c0,-12 -2,-22 -7,-29 -5,-7 -12,-11 -21,-11 -11,0 -19,5 -24,14l0 54c5,10 13,14 24,14 9,0 16,-3 21,-10 5,-7 7,-18 7,-32z"></path><path fill="black" d="M4609 793c-1,-2 -2,-6 -3,-11 -9,9 -20,13 -32,13 -13,0 -23,-3 -30,-10 -8,-7 -12,-16 -12,-26 0,-13 5,-23 14,-30 10,-7 24,-11 42,-11l17 0 0 -8c0,-6 -2,-11 -5,-15 -4,-4 -9,-6 -17,-6 -6,0 -11,2 -15,5 -4,3 -6,7 -6,12l-27 0c0,-7 2,-13 6,-19 5,-6 11,-10 18,-13 8,-4 17,-6 26,-6 14,0 26,4 34,11 9,8 13,18 13,31l0 55c0,11 2,20 5,26l0 2 -28 0 0 0zm-30 -20c5,0 10,-1 15,-4 5,-2 8,-6 11,-10l0 -23 -15 0c-10,0 -18,1 -23,5 -5,3 -8,8 -8,15 0,5 2,9 6,12 3,4 8,5 14,5z"></path><path fill="black" d="M4687 671l1 14c9,-11 21,-17 35,-17 26,0 39,15 39,44l0 81 -27 0 0 -79c0,-8 -2,-14 -5,-17 -4,-4 -9,-6 -17,-6 -11,0 -19,5 -25,15l0 87 -27 0 0 -122 26 0z"></path><path fill="black" d="M4833 754l25 -83 29 0 -49 141c-7,20 -20,30 -38,30 -4,0 -8,0 -13,-2l0 -21 5 0c7,0 12,-1 16,-3 4,-3 6,-7 8,-13l4 -11 -43 -121 30 0 26 83z"></path></g></g></g></svg>