<svg xmlns="http://www.w3.org/2000/svg" fill="currentColor" width="119" height="20" viewBox="0 0 119 20" role="img"><title>Logo MEP</title><path d="M44.309,34.286a1.32,1.32,0,0,1-.64-.165l-5.4-3a3.845,3.845,0,0,1,0-6.825l5.405-3a1.32,1.32,0,0,1,.64-.165,1.3,1.3,0,0,1,1.09.582,1.15,1.15,0,0,1-.445,1.624l-5.405,3a1.544,1.544,0,0,0,0,2.742l5.4,3a1.188,1.188,0,0,1,.579.725,1.113,1.113,0,0,1-.137.9,1.29,1.29,0,0,1-1.088.582" transform="translate(-11.833 -17.562)" fill="#008cff"></path><path d="M27.806,34.286a1.29,1.29,0,0,1-1.088-.582,1.114,1.114,0,0,1-.137-.9,1.194,1.194,0,0,1,.579-.725l5.405-3a1.545,1.545,0,0,0,0-2.745l-5.4-3a1.19,1.19,0,0,1-.582-.725,1.113,1.113,0,0,1,.137-.9,1.29,1.29,0,0,1,1.088-.582,1.337,1.337,0,0,1,.643.165l5.4,3a3.847,3.847,0,0,1,0,6.827l-5.405,3a1.32,1.32,0,0,1-.64.165" transform="translate(-26.541 -17.562)" fill="#008cff"></path><path d="M40.622,31.606l.488-.29a1.471,1.471,0,0,0,.737-1.288,1.487,1.487,0,0,0-.737-1.291l-11.133-6.61a1.243,1.243,0,0,1-.582-.773,1.265,1.265,0,0,1,1.868-1.4L42.4,26.562a4.022,4.022,0,0,1,.638,6.46Z" transform="translate(-22.203 -19.65)" fill="#008cff"></path><path d="M33.823,23.856l6.6-3.9a1.239,1.239,0,0,1,.64-.175,1.264,1.264,0,0,1,.645,2.351l-5.392,3.189Z" transform="translate(-15.442 -19.65)" fill="#008cff"></path><path d="M30.476,31.241a1.272,1.272,0,0,1-1.088-.62,1.263,1.263,0,0,1,.442-1.731L35.2,25.711l2.513,1.449-6.6,3.906a1.257,1.257,0,0,1-.64.175" transform="translate(-22.426 -11.368)" fill="#008cff"></path><path d="M45.1,35.881a1.257,1.257,0,0,1-.64-.175L34.341,29.8l-1.2-.714a4.025,4.025,0,0,1-.645-6.452l2.33,1.41-.412.3a1.5,1.5,0,0,0,.013,2.572l6.437,3.807,4.889,2.811a1.263,1.263,0,0,1,.442,1.731,1.272,1.272,0,0,1-1.088.62" transform="translate(-19.419 -16.11)" fill="#008cff"></path><path d="M52.776,30.425l-5.941-5.756v13.6a1.518,1.518,0,0,1-3.034,0V21.182a1.472,1.472,0,0,1,1.517-1.454,1.913,1.913,0,0,1,1.517.755l7.4,7.211,7.4-7.211a1.912,1.912,0,0,1,1.515-.755,1.47,1.47,0,0,1,1.517,1.454V38.271a1.517,1.517,0,0,1-3.032,0v-13.6l-5.822,5.756a1.9,1.9,0,0,1-3.032,0" transform="translate(-0.273 -19.725)"></path><path d="M77.719,19.728a6.491,6.491,0,0,1,6.61,6.335,6.493,6.493,0,0,1-6.61,6.337H69.775v5.808a1.423,1.423,0,0,1-1.515,1.4,1.471,1.471,0,0,1-1.517-1.452V21.182a1.47,1.47,0,0,1,1.517-1.454Zm-7.944,2.791v7.087h7.944a3.544,3.544,0,1,0,0-7.087Z" transform="translate(34.672 -19.725)"></path><path d="M72.184,36.693a1.4,1.4,0,1,1,0,2.788H57.63a1.469,1.469,0,0,1-1.517-1.451V21.181a1.473,1.473,0,0,1,1.517-1.454H72.184a1.4,1.4,0,1,1,0,2.79H59.147v5.461h10a1.4,1.4,0,1,1,0,2.79h-10v5.924Z" transform="translate(18.486 -19.727)"></path></svg>