<svg width="59" height="31" viewBox="0 0 59 31" fill="none" xmlns="http://www.w3.org/2000/svg">
<path d="M28.4782 23.0137H27.3246C27.1268 23.0137 27.1598 23.1783 27.1598 23.2112C27.1598 23.2441 27.6542 27.1622 26.5006 28.578C26.2039 28.9072 25.8743 29.1048 25.4458 29.1048C25.1162 29.1048 24.8196 28.9731 24.5889 28.6768C23.5011 27.3598 23.9956 23.2441 23.9956 23.2112C23.9956 23.1454 23.9956 23.0137 23.8308 23.0137H21.7872C21.6883 23.0137 21.6224 23.0466 21.6224 23.1783C21.6224 23.3429 21.2598 27.4915 22.9738 29.4999C23.633 30.2572 24.457 30.6522 25.5118 30.6522C26.2699 30.6522 26.8961 30.3559 27.3905 29.7633C29.0386 27.8207 28.676 23.3758 28.643 23.1783C28.643 23.0795 28.5771 23.0137 28.4782 23.0137Z" fill="#1D1D1D"/>
<path d="M44.5631 23.2112C44.5631 23.1454 44.5302 23.1124 44.5302 23.0795C44.4972 23.0466 44.4642 23.0137 44.3983 23.0137H42.981C42.8821 23.0137 42.8162 23.0795 42.8162 23.2112C42.8162 24.3636 42.5525 25.2855 41.9922 25.8781C41.3 26.6025 40.3771 26.6025 40.3771 26.6025C40.3441 26.6025 40.3112 26.6025 40.2782 26.6354V23.2112C40.2782 23.1124 40.2123 23.0137 40.1134 23.0137H38.3994C38.3005 23.0137 38.2346 23.0795 38.2346 23.2112V30.3888C38.2346 30.4876 38.3005 30.5864 38.3994 30.5864H40.1134C40.2123 30.5864 40.2782 30.5205 40.2782 30.3888V26.9317L42.4536 30.4876C42.4866 30.5535 42.5525 30.5535 42.5855 30.5535H44.2665C44.3324 30.5535 44.3983 30.5205 44.4313 30.4547C44.4642 30.3889 44.4642 30.323 44.4313 30.2572L42.5195 27.3268C43.4424 26.8659 44.5301 25.7135 44.5631 23.2112Z" fill="#1D1D1D"/>
<path d="M48.4526 26.1761C48.057 26.1761 47.9911 25.9785 48.1559 25.5834C48.8481 23.9372 51.7487 24.1018 51.9794 24.1347C52.0124 24.1347 52.0783 24.1347 52.1112 24.1018C52.1442 24.0689 52.1772 24.036 52.1772 23.9701L52.2431 23.1141C52.2431 23.0482 52.2431 23.0153 52.2101 22.9824C52.1772 22.9494 52.1442 22.9165 52.0783 22.9165C52.0124 22.9165 45.8487 22.5873 45.8487 26.6699C45.8487 27.4931 46.3101 27.4272 46.8045 27.4272H49.6721C50.1336 27.4272 50.2325 27.4931 50.1665 27.8223C50.1665 27.8882 50.0017 28.2833 50.0017 28.2833C49.0459 30.16 46.3431 29.271 46.1453 29.2381C46.1124 29.2381 46.0464 29.2381 46.0135 29.271C45.9805 29.3039 45.9475 29.3369 45.9475 29.4027L45.7827 30.1271C45.7498 30.2258 45.8157 30.3246 45.9146 30.3575C46.0464 30.3905 49.0459 31.3782 50.9576 30.0283C51.6827 29.5344 52.1772 28.5137 52.3749 27.5918C52.4738 27.065 52.5727 26.1761 51.7487 26.1761H48.4526Z" fill="#1D1D1D"/>
<path d="M12.5909 23.0137H6.72389C6.625 23.0137 6.55908 23.0795 6.55908 23.2112V24.2977C6.55908 24.3965 6.625 24.4953 6.72389 24.4953H8.66858V30.3559C8.66858 30.4547 8.7345 30.5535 8.83338 30.5535H10.6462C10.7451 30.5535 10.811 30.4876 10.811 30.3559V24.4953H12.5909C12.6898 24.4953 12.7557 24.3965 12.7557 24.2977V23.2112C12.7557 23.1124 12.6898 23.0137 12.5909 23.0137Z" fill="#1D1D1D"/>
<path d="M20.139 25.6169C20.139 24.9584 19.9083 24.4316 19.4469 24.0036C17.8647 22.522 14.1402 22.95 13.9754 22.95C13.8765 22.95 13.8105 23.0488 13.8105 23.1475V30.2593C13.8105 30.3581 13.8765 30.4569 13.9754 30.4569H15.6893C15.7882 30.4569 15.8541 30.391 15.8541 30.2593V24.3987C16.3156 24.3987 17.3374 24.4316 17.8647 24.9584C18.0625 25.1559 18.1284 25.3864 18.1284 25.6498C18.1284 26.6376 17.3703 26.9668 16.7111 27.0327L16.3485 27.0656C16.2826 27.0656 16.2497 27.0985 16.2167 27.1644C16.1837 27.2302 16.1837 27.2961 16.2167 27.329C16.2167 27.3619 17.667 29.7654 17.9307 30.2922C17.9636 30.3581 18.0295 30.391 18.0955 30.391H19.7765C19.8424 30.391 19.9083 30.3581 19.9413 30.2922C19.9742 30.2264 19.9742 30.1605 19.9413 30.0947L18.524 27.757C19.5787 27.4607 20.139 26.7034 20.139 25.6169Z" fill="#1D1D1D"/>
<path d="M36.389 22.7835C36.2242 22.7835 32.6974 22.7177 31.0164 24.4627C30.4561 25.0553 30.1594 25.7797 30.1594 26.6357C30.1594 27.4918 30.4561 28.2161 31.0164 28.8088C32.6645 30.5209 36.0265 30.488 36.1913 30.488C36.3561 30.488 36.3561 30.455 36.3561 30.2904C36.3561 30.1587 36.389 29.5661 36.389 29.5661C36.389 29.5002 36.3561 29.4673 36.3561 29.4344C36.3231 29.4014 36.2901 29.3685 36.2242 29.3685C36.0594 29.3685 32.5326 29.3356 32.5326 26.6357C32.5326 25.9772 32.7304 25.4504 33.1259 25.0553C34.1807 24.0347 36.2572 24.2322 36.2572 24.2322C36.2902 24.2322 36.389 24.2322 36.455 24.0676L36.5209 22.9811C36.5538 22.7835 36.422 22.7835 36.389 22.7835Z" fill="#1D1D1D"/>
<path d="M51.1883 13.9613C51.0235 13.9613 47.4967 13.8954 45.8157 15.6075C45.2554 16.2002 44.9587 16.9245 44.9587 17.7806C44.9587 18.6366 45.2554 19.361 45.8157 19.9536C47.4638 21.6657 50.8258 21.6328 50.9906 21.6328C51.1884 21.6328 51.1554 21.5999 51.1554 21.4682C51.1554 21.3365 51.1883 20.7438 51.1883 20.7438C51.1883 20.7109 51.1884 20.645 51.1224 20.6121C51.0895 20.5792 51.0565 20.5463 50.9906 20.5463C50.8258 20.5463 47.299 20.5133 47.299 17.7806C47.299 17.1221 47.4967 16.5953 47.8923 16.2002C48.947 15.1795 51.0235 15.377 51.0235 15.377C51.0565 15.377 51.1883 15.377 51.2213 15.2124L51.2872 14.1259C51.3861 13.9613 51.2543 13.9613 51.1883 13.9613Z" fill="#1D1D1D"/>
<path d="M31.4447 13.9613C31.2799 13.9613 27.7531 13.8954 26.0721 15.6075C25.5117 16.2002 25.2151 16.9245 25.2151 17.7806C25.2151 18.6366 25.5117 19.361 26.0721 19.9536C27.7201 21.6657 31.0821 21.6328 31.2469 21.6328C31.4117 21.6328 31.4117 21.5999 31.4117 21.4682C31.4117 21.3365 31.4447 20.7438 31.4447 20.7438C31.4447 20.7109 31.4117 20.645 31.3788 20.6121C31.3458 20.5792 31.3129 20.5463 31.2469 20.5463C31.0821 20.5463 27.5553 20.5133 27.5553 17.7806C27.5553 17.1221 27.7531 16.5953 28.1486 16.2002C29.2034 15.1795 31.2799 15.377 31.2799 15.377C31.3129 15.377 31.4117 15.377 31.4777 15.2124L31.5765 14.1259C31.6425 13.9613 31.4777 13.9613 31.4447 13.9613Z" fill="#1D1D1D"/>
<path d="M15.2279 21.5328C15.2609 21.5328 15.3268 21.5328 15.3597 21.4999C15.3927 21.467 15.3927 21.4011 15.3927 21.3682C15.3597 21.0719 14.3379 13.8613 11.6681 13.8613C9.03124 13.8613 6.55918 21.2694 6.55918 21.3353C6.55918 21.4011 6.4603 21.5658 6.72398 21.5658H8.86644C8.93236 21.5658 9.03124 21.4999 9.03124 21.4341C9.52566 19.3598 10.6134 16.0673 11.5692 16.0673C12.4921 16.0673 13.448 19.3269 13.8106 21.4011C13.8435 21.4999 13.9095 21.5328 13.9754 21.5328H15.2279Z" fill="#1D1D1D"/>
<path d="M38.828 15.507C38.9269 15.507 38.9928 15.4082 38.9928 15.3095V14.2229C38.9928 14.1242 38.9269 14.0254 38.828 14.0254H32.9609C32.8621 14.0254 32.7961 14.0912 32.7961 14.2229V15.3095C32.7961 15.4082 32.8621 15.507 32.9609 15.507H34.9056V21.3676C34.9056 21.4664 34.9716 21.5652 35.0704 21.5652H36.8833C36.9822 21.5652 37.0481 21.4664 37.0481 21.3676V15.507H38.828Z" fill="#1D1D1D"/>
<path d="M40.9375 21.5652H42.8492C42.9481 21.5652 43.014 21.4993 43.014 21.3676V14.2229C43.014 14.1242 42.9481 14.0254 42.8492 14.0254H40.9375C40.8386 14.0254 40.7727 14.0912 40.7727 14.2229V21.3676C40.7727 21.4664 40.8386 21.5652 40.9375 21.5652Z" fill="#1D1D1D"/>
<path d="M23.3692 21.4675C23.4022 21.4016 23.4022 21.3358 23.3692 21.2699L21.9519 18.9322C23.0067 18.5701 23.567 17.8128 23.567 16.7263C23.567 16.0678 23.3363 15.541 22.8748 15.1129C21.2927 13.6313 17.5681 14.0594 17.4033 14.0594C17.3044 14.0594 17.2385 14.1581 17.2385 14.2569V21.3687C17.2385 21.4675 17.3044 21.5662 17.4033 21.5662H19.1173C19.2162 21.5662 19.2821 21.5004 19.2821 21.3687V15.508C19.7436 15.508 20.7653 15.541 21.2927 16.0678C21.4905 16.2653 21.5564 16.4958 21.5564 16.7592C21.5564 17.7469 20.7983 18.0762 20.1391 18.175L19.7765 18.2079C19.7106 18.2079 19.6776 18.2408 19.6447 18.3067C19.6117 18.3725 19.6117 18.4384 19.6447 18.5042C19.6447 18.5371 21.0949 20.9407 21.3586 21.4675C21.3916 21.5333 21.4575 21.5662 21.5234 21.5662H23.2044C23.2704 21.5662 23.3363 21.5333 23.3692 21.4675Z" fill="#1D1D1D"/>
<path d="M29.533 2.46937C27.2587 2.46937 25.1162 3.65466 23.2045 5.99233L22.9737 6.25573L23.3363 6.22281C25.3799 6.05818 27.4564 5.99233 29.533 5.99233C31.5765 5.99233 33.686 6.05818 35.7296 6.22281L36.0922 6.25573L35.8615 5.99233C33.9168 3.65466 31.8073 2.46937 29.533 2.46937ZM59 12.0176C59 12.0505 58.967 12.0834 58.9011 12.0834H57.0553H57.0223C52.276 10.4372 46.0134 9.15312 39.3553 8.49463L39.0916 8.4617L39.1905 8.69217C40.0145 10.536 40.443 11.9517 40.443 11.9517C40.443 11.9847 40.443 12.0176 40.443 12.0505C40.4101 12.0834 40.4101 12.0834 40.3771 12.0834H39.2894C39.2564 12.0834 39.2235 12.0505 39.1905 12.0176C39.1905 12.0176 38.6302 10.3384 37.4765 8.36293L37.4436 8.29708H37.3777C34.7078 8.0666 32.071 7.96783 29.5 7.96783C26.962 7.96783 24.2922 8.0666 21.6223 8.29708H21.5564L21.5235 8.36293C20.3698 10.3055 19.8095 11.9847 19.8095 12.0176C19.8095 12.0505 19.7765 12.0834 19.7436 12.0834H18.6559C18.6229 12.0834 18.5899 12.0834 18.5899 12.0505C18.5899 12.0176 18.557 11.9847 18.5899 11.9517C18.5899 11.9517 19.0184 10.536 19.8425 8.69217L19.9413 8.4617L19.6777 8.49463C13.0196 9.15312 6.72402 10.4372 2.01061 12.0834H1.97765H0.0988837C0.0659228 12.0834 0.0329609 12.0505 0 12.0176C0 11.9847 -5.03434e-07 11.9188 0.0329604 11.9188C5.83408 9.1202 13.0525 7.24348 20.8972 6.42036H20.9631L20.9961 6.35451C21.062 6.22281 21.1279 6.12403 21.1939 5.99233C23.567 2.07427 26.4017 0 29.467 0C32.5324 0 35.367 2.07427 37.7402 5.99233C37.8061 6.09111 37.8721 6.22281 37.9709 6.35451L38.0039 6.42036H38.0698C45.9145 7.24348 53.133 9.15312 58.9011 11.8859C59 11.9517 59 11.9847 59 12.0176Z" fill="#1D1D1D"/>
</svg>
