<svg width="80" height="26" viewBox="0 0 80 26" fill="none" xmlns="http://www.w3.org/2000/svg">
<g clip-path="url(#clip0_3357_3821)">
<path d="M11.2517 7.9614V8.47269C11.2517 9.94924 10.7981 10.8916 9.78941 11.3639C11.003 11.8362 11.4774 12.923 11.4774 14.4385V15.6078C11.4774 17.8226 10.3029 19.0103 8.03927 19.0103H4.47681V4.66211H7.89419C10.2408 4.66211 11.2494 5.74888 11.2494 7.9614H11.2517ZM6.74278 6.71185V10.5041H7.62707C8.4722 10.5041 8.98573 10.1349 8.98573 8.98627V8.1861C8.98573 7.16123 8.6357 6.70955 7.83202 6.70955H6.74048L6.74278 6.71185ZM6.74278 12.5538V16.9605H8.03927C8.8015 16.9605 9.21371 16.612 9.21371 15.5459V14.2963C9.21371 12.9642 8.78078 12.5538 7.75142 12.5538H6.74278Z" fill="#F3EFE2"/>
<path d="M20.2764 19.0103H17.992L17.6005 16.408H14.821L14.4295 19.0103H12.3501L14.6552 4.66211H17.969L20.2741 19.0103H20.2764ZM15.1089 14.4614H17.292L16.2004 7.20479L15.1089 14.4614Z" fill="#F3EFE2"/>
<path d="M24.6702 4.49609C26.874 4.49609 28.0047 5.80756 28.0047 8.10491V8.55659H25.8631V7.96276C25.8631 6.93789 25.4509 6.54812 24.7301 6.54812C24.0093 6.54812 23.5971 6.93789 23.5971 7.96276C23.5971 10.9136 28.0231 11.4684 28.0231 15.5679C28.0231 17.8629 26.8694 19.1767 24.6472 19.1767C22.425 19.1767 21.2712 17.8652 21.2712 15.5679V14.6875H23.4129V15.7123C23.4129 16.7372 23.8665 17.1063 24.5873 17.1063C25.3081 17.1063 25.7617 16.7372 25.7617 15.7123C25.7617 12.7615 21.3357 12.2067 21.3357 8.1072C21.3357 5.81214 22.4687 4.49839 24.6702 4.49839V4.49609Z" fill="#F3EFE2"/>
<path d="M31.8113 10.7081H34.9201V12.7579H31.8113V16.9605H35.7238V19.0103H29.5476V4.66211H35.7238V6.71185H31.8113V10.7081Z" fill="#F3EFE2"/>
<path d="M47.5741 13.6603V15.5656C47.5741 17.8606 46.4204 19.1744 44.1982 19.1744C41.976 19.1744 40.8223 17.8629 40.8223 15.5656V8.10491C40.8223 5.80985 41.976 4.49609 44.1982 4.49609C46.4204 4.49609 47.5741 5.80756 47.5741 8.10491V9.49892H45.4325V7.96047C45.4325 6.9356 44.9789 6.54583 44.2581 6.54583C43.5373 6.54583 43.0836 6.9356 43.0836 7.96047V15.7077C43.0836 16.7326 43.5373 17.1017 44.2581 17.1017C44.9789 17.1017 45.4325 16.7326 45.4325 15.7077V13.658H47.5741V13.6603Z" fill="#F3EFE2"/>
<path d="M56.5989 19.0103H54.3145L53.923 16.408H51.1435L50.7521 19.0103H48.6726L50.9777 4.66211H54.2915L56.5966 19.0103H56.5989ZM51.4314 14.4614H53.6145L52.5229 7.20479L51.4314 14.4614Z" fill="#F3EFE2"/>
<path d="M62.7245 14.8489L64.2697 4.66211H67.4199V19.0103H65.2783V8.72031L63.7124 19.0103H61.5708L59.8828 8.86246V19.0103H57.907V4.66211H61.0572L62.7245 14.8489Z" fill="#F3EFE2"/>
<path d="M76.0002 8.20902V10.0753C76.0002 12.3704 74.8879 13.6223 72.6243 13.6223H71.5535V19.0125H69.2898V4.66211H72.6243C74.8879 4.66211 76.0002 5.91167 76.0002 8.20902ZM71.5535 6.71184V11.5702H72.6243C73.3451 11.5702 73.7365 11.2424 73.7365 10.2175V8.06458C73.7365 7.03971 73.3451 6.71184 72.6243 6.71184H71.5535Z" fill="#F3EFE2"/>
<path d="M79.5004 23.4856H74.9868V22.7726H78.7842V1.32829H1.69494V22.7726H5.48308V23.4856H0.97876V0.615234H79.5004V23.4856Z" fill="#F3EFE2"/>
<path fill-rule="evenodd" clip-rule="evenodd" d="M71.5993 24.4004L72.7254 23.4558L72.4882 23.3389C72.3892 23.2999 72.4099 23.2403 72.4491 23.1027L72.6264 22.4516L71.9747 22.5914C71.8964 22.5914 71.8549 22.5502 71.8549 22.5112L71.7559 22.2154L71.2424 22.807C71.1618 22.9055 71.0236 22.9055 71.0628 22.6877L71.2815 21.468L70.9845 21.6262C70.9062 21.6652 70.7864 21.5872 70.7864 21.5872L70.3719 20.8008L69.9574 21.5872C69.9183 21.6858 69.8377 21.6652 69.7387 21.6262L69.4416 21.468L69.6788 22.6877C69.7179 22.9032 69.5613 22.9033 69.5015 22.807L68.9672 22.2154L68.8889 22.5112C68.8889 22.5502 68.829 22.5914 68.7715 22.5914L68.1175 22.4516L68.2971 23.1027C68.3362 23.2403 68.357 23.2999 68.2579 23.3389L68.0208 23.4558L69.1468 24.4004C69.186 24.4394 69.2251 24.499 69.2067 24.5586L69.1077 24.8934C69.483 24.8544 69.84 24.8154 70.2338 24.7764C70.2545 24.7764 70.3121 24.7971 70.3121 24.8361L70.2729 25.3886H70.4525L70.4318 24.8361C70.4318 24.7971 70.471 24.7764 70.5101 24.7764C70.9062 24.8154 71.2424 24.8544 71.6362 24.8934L71.5372 24.5586C71.5164 24.5013 71.5372 24.4417 71.597 24.4004H71.5993Z" fill="#F3EFE2"/>
<path d="M9.7294 22.3385C9.62347 22.0198 9.39779 21.7951 9.04085 21.7951C8.55726 21.7951 8.2625 22.2445 8.2625 23.1295C8.25098 24.0145 8.51581 24.4639 9.06158 24.4639C9.38627 24.4639 9.58662 24.3492 9.80309 23.9044L10.4755 24.0833C10.2498 24.7367 9.75473 25.0714 9.06158 25.0714C8.09439 25.0714 7.53711 24.3653 7.53711 23.1295C7.53711 21.8937 8.09439 21.1875 9.06158 21.1875C9.78697 21.1875 10.2061 21.5131 10.3857 22.1826L9.7294 22.3385Z" fill="#F3EFE2"/>
<path d="M17.7731 25.0695C16.7392 25.0695 16.1819 24.3633 16.1819 23.1275C16.1819 21.8917 16.7392 21.1855 17.7731 21.1855C18.8071 21.1855 19.3644 21.8917 19.3644 23.1275C19.3644 24.3633 18.8071 25.0695 17.7731 25.0695ZM17.7731 21.7931C17.179 21.7931 16.9073 22.2425 16.9073 23.1275C16.8958 24.0125 17.1744 24.4619 17.7731 24.4619C18.3719 24.4619 18.639 24.0125 18.639 23.1275C18.639 22.2425 18.365 21.7931 17.7731 21.7931Z" fill="#F3EFE2"/>
<path d="M25.0686 25.0164V21.2402H25.8262L27.3185 23.815H27.33V21.2402H28.0139V25.0164H27.3162L25.7664 22.327H25.7548V25.0164H25.0709H25.0686Z" fill="#F3EFE2"/>
<path d="M33.8352 25.0164V21.2402H34.5928L36.0851 23.815H36.0966V21.2402H36.7805V25.0164H36.0828L34.533 22.327H34.5214V25.0164H33.8375H33.8352Z" fill="#F3EFE2"/>
<path d="M42.7886 25.0164V21.2402H45.301V21.8478H43.514V22.7466H44.8128V23.3542H43.514V24.4111H45.3585V25.0187H42.7886V25.0164Z" fill="#F3EFE2"/>
<path d="M53.5612 22.3385C53.4552 22.0198 53.2296 21.7951 52.8726 21.7951C52.389 21.7951 52.0943 22.2445 52.0943 23.1295C52.0828 24.0145 52.3476 24.4639 52.8934 24.4639C53.2181 24.4639 53.4184 24.3492 53.6349 23.9044L54.3073 24.0833C54.0816 24.7367 53.5865 25.0714 52.8934 25.0714C51.9262 25.0714 51.3689 24.3653 51.3689 23.1295C51.3689 21.8937 51.9262 21.1875 52.8934 21.1875C53.6188 21.1875 54.0379 21.5131 54.2175 22.1826L53.5612 22.3385Z" fill="#F3EFE2"/>
<path d="M62.9614 21.1992V21.8068H61.9689V24.9823H61.2435V21.8068H60.251V21.1992H62.9614Z" fill="#F3EFE2"/>
</g>
<defs>
<clipPath id="clip0_3357_3821">
<rect width="80" height="26" fill="white"/>
</clipPath>
</defs>
</svg>
