<svg width="78" height="14" viewBox="0 0 78 14" fill="none" xmlns="http://www.w3.org/2000/svg">
<g clip-path="url(#clip0_3357_3770)">
<mask id="mask0_3357_3770" style="mask-type:luminance" maskUnits="userSpaceOnUse" x="18" y="0" width="61" height="14">
<path d="M18.7859 0.859375H78.0316V13.8412H18.7859V0.859375Z" fill="white"/>
</mask>
<g mask="url(#mask0_3357_3770)">
<mask id="mask1_3357_3770" style="mask-type:luminance" maskUnits="userSpaceOnUse" x="18" y="0" width="61" height="14">
<path d="M18.7859 0.859375H78.0316V13.8412H18.7859V0.859375Z" fill="white"/>
</mask>
<g mask="url(#mask1_3357_3770)">
<path d="M50.3604 3.40483H51.5345V10.4366H50.3604V3.40483ZM46.0764 3.24574C45.3148 3.24574 44.6167 3.50028 44.0455 3.97756V3.40483H42.8713V10.4366H44.0455V6.45937C44.0455 5.31392 44.9657 4.42301 46.0764 4.42301C47.1871 4.42301 48.1073 5.34574 48.1073 6.45937V10.4366H49.2814V6.45937C49.2814 4.67756 47.8534 3.24574 46.0764 3.24574ZM40.5231 3.37301H41.6972V10.1503C41.6655 12.1548 40.0471 13.7776 38.0479 13.8094C36.4613 13.8412 35.0015 12.7912 34.5573 11.2639H35.8266C36.2391 12.123 37.0959 12.6639 38.0479 12.6321C39.4124 12.6003 40.4914 11.4866 40.5548 10.1185V9.54574C39.0634 10.9139 36.7469 10.8503 35.3823 9.35483C34.0178 7.85937 34.0813 5.53665 35.5727 4.16847C36.969 2.86392 39.1586 2.86392 40.5548 4.16847L40.5231 3.37301ZM40.5231 6.90483C40.5231 5.53665 39.4124 4.39119 38.0479 4.39119C36.6834 4.39119 35.541 5.50483 35.541 6.87301C35.541 8.24119 36.6517 9.38665 38.0479 9.38665C39.4124 9.38665 40.5231 8.27301 40.5231 6.90483ZM22.4352 4.39119C23.3872 4.39119 24.2757 4.96392 24.6883 5.82301H25.9259C25.3547 3.8821 23.292 2.76847 21.3563 3.37301C19.4206 3.94574 18.3099 6.01392 18.9128 7.95483C19.5158 9.89574 21.5467 11.0094 23.4824 10.4048C24.6565 10.0548 25.5768 9.1321 25.9259 7.95483H24.6883C24.1171 9.19574 22.6256 9.73665 21.388 9.16392C20.1504 8.59119 19.611 7.09574 20.1822 5.85483C20.5947 4.96392 21.4515 4.39119 22.4352 4.39119ZM33.8274 6.90483C33.8274 8.94119 32.1773 10.5639 30.1781 10.5639C28.1472 10.5639 26.5288 8.90937 26.5288 6.90483C26.5288 4.90028 28.1154 3.24574 30.1464 3.24574C32.1773 3.24574 33.8274 4.86847 33.8274 6.90483ZM32.6533 6.90483C32.6533 5.53665 31.5426 4.39119 30.1781 4.39119C28.8136 4.39119 27.6712 5.50483 27.6712 6.87301C27.6712 8.24119 28.7818 9.38665 30.1464 9.38665C31.5426 9.38665 32.6533 8.27301 32.6533 6.90483ZM70.8917 3.24574C70.1301 3.24574 69.432 3.50028 68.8608 3.97756V3.40483H67.6866V10.4366H68.8608V6.45937C68.8608 5.31392 69.781 4.39119 70.8917 4.39119C72.0341 4.39119 72.9543 5.31392 72.9543 6.42756V10.4048H74.1285V6.45937C74.0967 4.67756 72.6687 3.24574 70.8917 3.24574ZM65.3384 3.40483H66.5125V10.4366H65.3384V9.60937C63.8469 10.9776 61.5304 10.9139 60.1659 9.41847C58.8014 7.92301 58.8648 5.60028 60.3563 4.2321C61.0227 3.59574 61.9112 3.24574 62.8315 3.24574C63.7517 3.24574 64.6403 3.59574 65.3384 4.2321V3.40483ZM65.3384 6.90483C65.3384 5.53665 64.2277 4.42301 62.8315 4.42301C61.467 4.42301 60.3563 5.53665 60.3563 6.93665C60.3563 8.30483 61.467 9.41847 62.8315 9.41847C64.2277 9.38665 65.3384 8.27301 65.3384 6.90483ZM77.9999 4.55028V3.37301H76.2546V1.46392H75.0805V8.0821C75.0805 9.38665 76.1277 10.4366 77.4287 10.4366H77.9999V9.25937H77.4287C76.794 9.25937 76.2546 8.71847 76.2546 8.0821V4.55028H77.9999ZM50.9316 0.859375C50.4873 0.859375 50.17 1.20937 50.17 1.62301C50.17 2.06847 50.519 2.38665 50.9316 2.38665C51.3758 2.38665 51.6932 2.03665 51.6932 1.62301C51.7249 1.20937 51.3758 0.859375 50.9316 0.859375C50.9633 0.859375 50.9633 0.859375 50.9316 0.859375ZM58.5475 3.40483H52.7086V4.5821H57.0243L52.7086 9.25937V10.4366H58.5475V9.25937H54.2001L58.5158 4.5821L58.5475 3.40483Z" fill="#000048"/>
</g>
</g>
<mask id="mask2_3357_3770" style="mask-type:luminance" maskUnits="userSpaceOnUse" x="0" y="0" width="17" height="14">
<path d="M0 0H16.533V14H0V0Z" fill="white"/>
</mask>
<g mask="url(#mask2_3357_3770)">
<mask id="mask3_3357_3770" style="mask-type:luminance" maskUnits="userSpaceOnUse" x="0" y="7" width="10" height="7">
<path d="M0 7L4.85517 14L9.869 10.9773L7.04475 7H0Z" fill="white"/>
</mask>
<g mask="url(#mask3_3357_3770)">
<path d="M0 7H9.869V14H0V7Z" fill="url(#paint0_linear_3357_3770)"/>
</g>
<mask id="mask4_3357_3770" style="mask-type:luminance" maskUnits="userSpaceOnUse" x="4" y="7" width="13" height="7">
<path d="M4.85522 14H11.773L16.533 7L4.85522 14Z" fill="white"/>
</mask>
<g mask="url(#mask4_3357_3770)">
<path d="M4.85522 7H16.533V14H4.85522V7Z" fill="url(#paint1_linear_3357_3770)"/>
</g>
<mask id="mask5_3357_3770" style="mask-type:luminance" maskUnits="userSpaceOnUse" x="0" y="0" width="10" height="7">
<path d="M4.85517 0L0 7H7.04475L9.869 3.02273L4.85517 0Z" fill="white"/>
</mask>
<g mask="url(#mask5_3357_3770)">
<path d="M0 0H9.869V7H0V0Z" fill="url(#paint2_linear_3357_3770)"/>
</g>
<mask id="mask6_3357_3770" style="mask-type:luminance" maskUnits="userSpaceOnUse" x="4" y="0" width="13" height="7">
<path d="M4.85522 0L16.533 7L11.773 0H4.85522Z" fill="white"/>
</mask>
<g mask="url(#mask6_3357_3770)">
<path d="M4.85522 0H16.533V7H4.85522V0Z" fill="url(#paint3_linear_3357_3770)"/>
</g>
</g>
</g>
<defs>
<linearGradient id="paint0_linear_3357_3770" x1="0.00233127" y1="10.4921" x2="9.87339" y2="10.4921" gradientUnits="userSpaceOnUse">
<stop stop-color="#3D54CE"/>
<stop offset="1" stop-color="#35CACF"/>
</linearGradient>
<linearGradient id="paint1_linear_3357_3770" x1="4.85289" y1="10.4921" x2="16.5458" y2="10.4921" gradientUnits="userSpaceOnUse">
<stop stop-color="#13457D"/>
<stop offset="1" stop-color="#279698"/>
</linearGradient>
<linearGradient id="paint2_linear_3357_3770" x1="-0.00160201" y1="3.49473" x2="9.87743" y2="3.49473" gradientUnits="userSpaceOnUse">
<stop stop-color="#090086"/>
<stop offset="1" stop-color="#2F96A9"/>
</linearGradient>
<linearGradient id="paint3_linear_3357_3770" x1="4.85289" y1="3.49473" x2="16.5458" y2="3.49473" gradientUnits="userSpaceOnUse">
<stop stop-color="#3B62CA"/>
<stop offset="1" stop-color="#93DFE3"/>
</linearGradient>
<clipPath id="clip0_3357_3770">
<rect width="78" height="14" fill="white"/>
</clipPath>
</defs>
</svg>
