<svg width="86" height="33" viewBox="0 0 86 33" fill="none" xmlns="http://www.w3.org/2000/svg">
<g clip-path="url(#clip0_3357_3744)">
<path d="M12.7952 30.3281H14.0775C14.5539 30.3281 14.8201 30.6269 14.8201 30.9966C14.8201 31.3264 14.6083 31.5468 14.3672 31.5985C14.6451 31.6414 14.8716 31.921 14.8716 32.2434C14.8716 32.6486 14.601 32.9518 14.1128 32.9518H12.7952V30.3281ZM13.9834 31.4137C14.2186 31.4137 14.351 31.2717 14.351 31.075C14.351 30.8783 14.2186 30.7319 13.9834 30.7319H13.2525V31.4122H13.9834V31.4137ZM14.0025 32.5466C14.2525 32.5466 14.401 32.409 14.401 32.1813C14.401 31.9846 14.2642 31.8204 14.0025 31.8204H13.251V32.548H14.0025V32.5466Z" fill="black"/>
<path d="M17.8877 30.3281L17.176 31.4536L16.4554 30.3281H15.9319L16.9451 31.8633V32.9518H17.4024V31.8633L18.4112 30.3281H17.8877Z" fill="black"/>
<path d="M21.5198 30.3281V30.7334H22.3109V32.9518H22.7683V30.7334H23.5565V30.3281H21.5198Z" fill="black"/>
<path d="M24.9375 30.3281V32.9518H26.7257V32.5466H25.3963V31.8189H26.6977V31.4152H25.3963V30.7334H26.7257V30.3281H24.9375Z" fill="black"/>
<path d="M29.8696 30.3281L29.2005 31.2924L28.5285 30.3281H27.98L28.899 31.6074L27.9226 32.9518H28.4696L29.2005 31.9254L29.9328 32.9518H30.4799L29.5049 31.603L30.421 30.3281H29.8696Z" fill="black"/>
<path d="M31.5989 30.3281V30.7334H32.3871V32.9518H32.8459V30.7334H33.6356V30.3281H31.5989Z" fill="black"/>
<path d="M35.9266 31.9727H35.4722V32.9518H35.0149V30.3281H36.1604C36.6766 30.3281 37.0134 30.6668 37.0134 31.1504C37.0134 31.634 36.709 31.8707 36.3957 31.921L37.0339 32.9518H36.506L35.9281 31.9727H35.9266ZM36.0987 30.7334H35.4722V31.5675H36.0987C36.3575 31.5675 36.5443 31.4018 36.5443 31.1504C36.5443 30.899 36.3575 30.7334 36.0987 30.7334Z" fill="black"/>
<path d="M39.6809 30.2852C40.4633 30.2852 41.0147 30.859 41.0147 31.6428C41.0147 32.4267 40.4633 33.0005 39.6809 33.0005C38.8986 33.0005 38.3472 32.4267 38.3472 31.6428C38.3472 30.859 38.8986 30.2852 39.6809 30.2852ZM39.6809 30.6948C39.153 30.6948 38.8163 31.1001 38.8163 31.6428C38.8163 32.1856 39.153 32.5909 39.6809 32.5909C40.2089 32.5909 40.5456 32.1812 40.5456 31.6428C40.5456 31.1045 40.2045 30.6948 39.6809 30.6948Z" fill="black"/>
<path d="M44.2528 30.3281V32.1887L42.919 30.3281H42.45V32.9518H42.9073V31.041L44.2675 32.9518H44.7102V30.3281H44.2528Z" fill="black"/>
<path d="M49.2939 30.719L49.7821 32.0442H48.8042L49.2939 30.719ZM49.0086 30.3301L47.9836 32.9538H48.4836L48.6748 32.4494H49.9115L50.1027 32.9538H50.6027L49.5792 30.3301H49.0086Z" fill="black"/>
<path d="M53.5128 30.3281L52.7231 32.4534L51.9334 30.3281H51.4128L52.4378 32.9518H53.0084L54.0333 30.3281H53.5128Z" fill="black"/>
<path d="M55.7701 30.3281H55.3127V32.9518H55.7701V30.3281Z" fill="black"/>
<path d="M58.354 30.719L58.8422 32.0442H57.8643L58.3525 30.719H58.354ZM58.0687 30.3301L57.0437 32.9538H57.5437L57.7349 32.4494H58.9701L59.1613 32.9538H59.6627L58.6378 30.3301H58.0672H58.0687Z" fill="black"/>
<path d="M60.5215 30.3281V30.7334H61.3112V32.9518H61.7685V30.7334H62.5582V30.3281H60.5215Z" fill="black"/>
<path d="M64.3963 30.3281H63.939V32.9518H64.3963V30.3281Z" fill="black"/>
<path d="M67.1609 30.2852C67.9432 30.2852 68.4947 30.859 68.4947 31.6428C68.4947 32.4267 67.9432 33.0005 67.1609 33.0005C66.3786 33.0005 65.8271 32.4267 65.8271 31.6428C65.8271 30.859 66.3786 30.2852 67.1609 30.2852ZM67.1609 30.6948C66.633 30.6948 66.2962 31.1001 66.2962 31.6428C66.2962 32.1856 66.633 32.5909 67.1609 32.5909C67.6888 32.5909 68.0256 32.1812 68.0256 31.6428C68.0256 31.1045 67.6859 30.6948 67.1609 30.6948Z" fill="black"/>
<path d="M71.7328 30.3281V32.1887L70.399 30.3281H69.9299V32.9518H70.3873V31.041L71.749 32.9518H72.1901V30.3281H71.7328Z" fill="black"/>
<path d="M25.5917 1.33154C25.5917 1.62881 25.3431 1.87875 25.0432 1.87875C24.7432 1.87875 24.4902 1.63029 24.4902 1.32414C24.4902 1.018 24.7373 0.769531 25.0417 0.769531C25.3461 0.769531 25.5917 1.018 25.5917 1.33006M24.5932 1.32266C24.5932 1.57556 24.7946 1.78262 25.0432 1.78262C25.2917 1.78262 25.4887 1.57556 25.4887 1.32266C25.4887 1.06976 25.2902 0.864185 25.049 0.864185C24.7932 0.864185 24.5932 1.06532 24.5932 1.32266ZM24.9461 1.64507H24.7785V1.00025H25.0667C25.152 1.00025 25.2005 1.01208 25.2446 1.04314C25.2902 1.07568 25.3181 1.13631 25.3181 1.19547C25.3181 1.2709 25.2799 1.32858 25.2049 1.36111L25.3284 1.64507H25.1446L25.0417 1.38921H24.9476V1.64507H24.9461ZM24.9461 1.27386H25.0314C25.0843 1.27386 25.0961 1.27238 25.1137 1.26055C25.1329 1.24723 25.1461 1.21913 25.1461 1.19399C25.1461 1.17181 25.1358 1.14814 25.1196 1.13483C25.102 1.12004 25.0917 1.11709 25.0285 1.11709H24.9461V1.27386Z" fill="black"/>
<path d="M21.8521 0H5.20117V5.35531H14.5097C15.6626 5.35531 17.1434 4.91606 18.2948 3.70035L21.8521 0Z" fill="black"/>
<path d="M5.21021 8.13039H13.8643L10.413 11.6695C9.43359 12.6634 8.1704 13.5434 6.30576 13.5434H5.21168V8.12891L5.21021 8.13039Z" fill="black"/>
<path d="M15.8244 18.7648V10.0996L12.2083 13.8014C11.6113 14.4625 10.679 15.236 10.679 17.0063V18.7648H15.8258H15.8244Z" fill="black"/>
<path d="M18.5994 18.7862V9.18328C18.5994 8.18794 18.5994 7.30648 19.6361 6.20762L23.7271 1.95117V18.7862H18.5994Z" fill="black"/>
<path d="M22.0816 20.4302C21.1669 20.4302 20.4714 20.8221 20.4272 21.779H21.3007C21.3302 21.4344 21.6228 21.1474 22.0522 21.1474C22.4404 21.1474 22.7654 21.214 22.7551 21.7035C22.7478 22.0481 22.3375 22.1221 21.6434 22.2286C21.0522 22.304 20.2831 22.6397 20.0655 23.252V22.1901C20.0655 21.177 19.8626 20.5071 18.6773 20.4997C18.295 20.4997 17.867 20.6801 17.6494 20.8812H17.62L17.4891 20.6135H16.5288V23.1588C16.4141 22.5835 15.8803 22.3824 15.3009 22.2493C14.6627 22.0955 13.9583 22.0496 13.9495 21.637C13.9392 21.2155 14.4083 21.1963 14.6539 21.1963C15.0524 21.1963 15.3657 21.4092 15.4701 21.81H16.3436C16.2597 20.8043 15.5259 20.4228 14.6892 20.4228C13.8069 20.4228 12.979 20.862 12.9996 21.7523C12.9996 22.48 13.5569 22.7758 14.2069 22.9192C15.0127 23.0923 15.4701 23.215 15.4701 23.5508C15.4701 23.953 15.0612 24.1261 14.7377 24.1261C14.3025 24.1261 13.8833 23.8377 13.7039 23.3881H12.8863C12.876 22.6427 12.2863 22.4046 11.632 22.2507C10.9923 22.0969 10.2894 22.0511 10.282 21.6385C10.2717 21.217 10.7393 21.1977 10.9849 21.1977C11.3937 21.1977 11.6981 21.4107 11.8025 21.8115H12.6775C12.5922 20.8058 11.8599 20.4242 11.0202 20.4242C10.1379 20.4242 9.30998 20.8635 9.32909 21.7538C9.33792 22.4815 9.89084 22.7773 10.5379 22.9207C11.3467 23.0938 11.8143 23.2165 11.8143 23.5522C11.8143 23.9545 11.3937 24.1275 11.0717 24.1275C10.6335 24.1275 10.2129 23.8392 10.0335 23.3895H9.17763V23.3822H8.18943C8.0659 23.6676 7.71444 23.9841 7.2571 23.9841C6.63948 23.9841 6.28802 23.6587 6.25861 22.9414H9.12028C9.19821 21.6784 8.60706 20.5041 7.21887 20.5041C5.98362 20.5041 5.13659 21.4403 5.13659 22.6737C5.13659 22.7211 5.13659 22.7684 5.14541 22.8187H4.15721C3.95722 23.3614 3.61605 23.8968 2.66314 23.8968C1.55142 23.8865 1.13231 22.8527 1.13231 21.9076C1.13231 20.9626 1.55142 19.8696 2.66314 19.8696C3.67193 19.8696 3.90869 20.3695 4.04104 20.8073H5.11453C4.99248 19.6522 4.0028 19 2.66167 19C1.12055 19 0 20.2231 0 21.9076C0 23.5922 1.04408 24.8626 2.66167 24.8626C3.97486 24.8626 4.86748 24.1172 5.16306 23.0849C5.32629 24.1379 6.07479 24.8345 7.2174 24.8345C8.10266 24.8345 8.78646 24.4618 9.13057 23.5241C9.4335 24.413 10.1188 24.8345 11.0717 24.8345C11.9084 24.8345 12.7246 24.5461 12.8687 23.6868C13.1922 24.4618 13.8481 24.8345 14.7318 24.8345C15.6156 24.8345 16.3891 24.5461 16.5303 23.6957V24.7295H17.5479V22.5687C17.5479 21.7361 17.8053 21.393 18.3258 21.393C18.8464 21.393 19.0008 21.7272 19.0008 22.406V24.7295H20.0684V23.9249C20.2302 24.4041 20.7331 24.7975 21.3596 24.7975C21.8537 24.7975 22.4434 24.7029 22.8051 24.3287C22.8154 24.4618 22.8433 24.5949 22.8816 24.7295L23.7565 24.7206V21.668C23.7565 20.6845 22.9022 20.4346 22.0845 20.4346M7.19975 21.353C7.75268 21.353 7.98943 21.6592 8.09384 22.233H6.2792C6.28802 21.9076 6.49831 21.353 7.19975 21.353ZM22.7286 23.1322C22.7286 23.3718 22.6904 24.0787 21.8154 24.0787C21.4566 24.0787 21.0743 23.9737 21.0743 23.5522C21.0743 23.1307 21.4081 22.9488 21.6463 22.8645C21.8551 22.758 22.5125 22.6619 22.7286 22.6619V23.1307V23.1322Z" fill="black"/>
<path d="M37.3194 17.2454C37.1753 17.3267 36.9782 17.3696 36.7268 17.3696V17.6048H38.6164V9.17322H38.3326L36.643 9.90235L36.7297 10.139C36.9224 10.0695 37.0606 10.034 37.1488 10.034C37.2562 10.034 37.34 10.0621 37.4047 10.1198C37.4694 10.176 37.5165 10.2824 37.5473 10.4377C37.5782 10.5915 37.5929 11.124 37.5929 11.8013V16.253C37.5929 16.6272 37.5679 16.8756 37.5194 16.9984C37.4709 17.1197 37.4047 17.2025 37.3224 17.2469M44.228 11.1609C44.3236 10.1834 44.0045 9.28562 43.2295 8.4648C42.4589 7.6425 41.4678 7.11895 40.0149 6.95626C38.6091 6.79949 37.2974 7.10416 36.3297 7.80962C35.3607 8.51361 34.8151 9.43056 34.6901 10.5575C34.5974 11.402 34.7519 12.1208 35.1577 12.7183C35.5636 13.3143 36.0165 13.6412 36.5165 13.6988C36.7635 13.7269 36.9797 13.6796 37.1429 13.5361C37.2988 13.4016 37.3371 13.2093 37.3503 13.0363C37.3606 12.8898 37.3194 12.7715 37.1488 12.6325C36.9944 12.5068 36.7062 12.5024 36.3194 12.4255C35.9356 12.3471 35.5768 12.0646 35.3974 11.8235C35.2239 11.5824 35.1195 11.1447 35.2474 10.3431C35.3445 9.7234 35.9695 8.93955 36.4944 8.6127C37.19 8.17788 38.0164 7.78448 39.2635 7.88505C40.4105 7.97822 41.3075 8.33761 41.931 9.04012C42.6369 9.83432 42.7133 10.809 42.6178 11.6667C42.5501 12.279 42.2737 12.8041 41.7884 13.2433C41.4987 13.5095 40.9722 13.7314 40.484 13.761C40.4164 13.761 40.3502 13.761 40.2737 13.761C40.2678 13.761 40.2605 13.8216 40.2517 13.8822L40.2311 13.9931V13.9961C40.6972 14.1928 41.0428 14.4117 41.2634 14.6528C41.4854 14.8953 41.6119 15.1689 41.6487 15.4795C41.6957 15.8699 41.6149 16.2057 41.406 16.4837C41.2002 16.7573 40.9458 16.9097 40.6443 16.9451C39.5811 17.0295 39.6664 16.1524 39.7987 15.9335C39.9884 15.62 40.2428 15.6851 40.1296 15.3331C39.9914 14.9071 39.6267 15.0432 39.6267 15.0432C39.5267 15.0536 39.0149 15.197 39.1223 16.0933C39.2252 16.9599 39.8605 17.4791 40.5164 17.695C40.5487 17.7083 40.5796 17.7157 40.6105 17.7246C40.6296 17.7305 40.6502 17.7364 40.6693 17.7408C40.9384 17.8118 41.2134 17.8355 41.4972 17.8089C42.0251 17.7586 42.4413 17.5412 42.7398 17.1581C43.0398 16.7765 43.1545 16.2988 43.0854 15.725C43.0427 15.3627 42.9222 15.058 42.7236 14.8095C42.5075 14.533 42.1795 14.2815 41.7516 14.0523C42.1369 13.9961 42.5089 13.8704 42.8825 13.5968C43.728 12.9727 44.1251 12.1518 44.2206 11.1624M44.7089 13.5554C44.8294 12.5245 45.3206 11.8427 46.1735 11.8427C46.9058 11.8427 47.3044 12.3515 47.397 13.5554H44.7089ZM44.6824 14.0508H48.6484C48.594 12.2835 47.4382 11.3754 46.3603 11.3754C44.9486 11.3754 43.6854 12.6458 43.6854 14.7075C43.6854 16.3403 44.7236 17.7453 46.3867 17.7453C47.4779 17.7453 48.1558 17.0354 48.6205 15.833L48.3543 15.7383C47.8617 16.5414 47.4367 16.7825 46.8382 16.7825C45.5735 16.7825 44.6824 15.6318 44.6824 14.1869V14.0523V14.0508ZM49.844 13.5554C49.9646 12.5245 50.4572 11.8427 51.3086 11.8427C52.041 11.8427 52.438 12.3515 52.5321 13.5554H49.844ZM49.8175 14.0508H53.7821C53.7291 12.2835 52.5718 11.3754 51.4939 11.3754C50.0837 11.3754 48.819 12.6458 48.819 14.7075C48.819 16.3403 49.8557 17.7453 51.5204 17.7453C52.6115 17.7453 53.2895 17.0354 53.7541 15.833L53.4894 15.7383C52.9968 16.5414 52.5718 16.7825 51.9719 16.7825C50.7072 16.7825 49.816 15.6318 49.816 14.1869V14.0523L49.8175 14.0508ZM56.6835 11.3754C55.1129 11.3754 53.9556 12.8603 53.9556 14.7075C53.9556 16.5547 55.1262 17.7453 56.5908 17.7453C57.6275 17.7453 58.3599 17.0221 58.8525 15.8182L58.5996 15.7368C58.0687 16.5532 57.5893 16.7411 57.0158 16.7411C55.6864 16.7411 54.9673 15.5372 54.9673 14.1055C54.9673 12.6739 55.5923 11.8575 56.457 11.8575C57.1084 11.8575 57.1761 12.3264 57.3614 12.8603C57.482 13.2211 57.7746 13.409 58.0261 13.409C58.3716 13.409 58.6775 13.0614 58.6775 12.6473C58.6775 12.2332 58.2128 11.3769 56.682 11.3769M64.7699 17.3578C64.2641 17.3178 63.9185 17.1167 63.9185 16.3817V13.2906C63.9185 12.0335 63.2391 11.3783 62.3877 11.3783C61.7495 11.3783 61.0186 11.6327 60.3789 12.3811V8.3805L60.2069 8.29916L58.3305 8.94251V9.17027C59.0216 9.14216 59.3672 9.38471 59.3672 10.2943V16.3831C59.3672 17.1182 59.0216 17.3193 58.4481 17.3593V17.6136H61.2951V17.3726C60.8039 17.3326 60.3774 17.0649 60.3774 16.3018V12.9431C60.7363 12.4757 61.3083 12.2214 61.8009 12.2214C62.4524 12.2214 62.9038 12.6222 62.9038 13.6397V16.3033C62.9038 17.0398 62.5465 17.3341 62.0392 17.374V17.6151H64.767V17.3607L64.7699 17.3578ZM65.689 14.1055C65.689 12.7272 66.314 11.8575 67.1787 11.8575C67.8301 11.8575 67.8963 12.3264 68.0831 12.8603C68.2037 13.2211 68.4963 13.409 68.7492 13.409C69.0948 13.409 69.4007 13.0614 69.4007 12.6473C69.4007 12.2332 68.936 11.3769 67.4051 11.3769C65.8743 11.3769 64.6773 12.8617 64.6773 14.709C64.6773 16.5562 65.8478 17.7467 67.3125 17.7467C68.3507 17.7467 69.0816 17.0235 69.5757 15.8197L69.3213 15.7383C68.7889 16.5547 68.311 16.7425 67.739 16.7425C66.4081 16.7425 65.6905 15.5387 65.6905 14.107M73.9387 11.9522C73.8593 11.47 73.3667 11.2822 72.9403 11.3769C72.6211 11.4434 72.302 11.6845 72.0226 12.032C71.8491 12.2332 71.7035 12.4728 71.5844 12.7405V11.5765L71.4256 11.51L69.6948 12.1252V12.353C70.3345 12.353 70.6668 12.6872 70.6668 13.5302V16.3817C70.6668 17.1167 70.2933 17.3178 69.7227 17.3578V17.6122H72.6226V17.3711C72.3962 17.3578 72.2094 17.3045 72.0491 17.1833C71.8094 17.0235 71.6756 16.7425 71.6756 16.3003V13.1694C71.8491 12.7553 72.0623 12.5009 72.3153 12.4476C72.7285 12.3545 72.9153 12.8751 73.4461 12.7819C73.8196 12.702 74.0049 12.2997 73.9387 11.9522ZM79.0871 17.0235L78.8753 16.8505C78.7151 17.0649 78.6356 17.1182 78.4901 17.1182C78.2371 17.1182 78.1313 16.917 78.1313 16.2486V13.3986C78.1313 12.0468 77.546 11.3783 76.2019 11.3783C75.0858 11.3783 74.1667 11.859 74.1667 12.6754C74.1667 13.0644 74.4196 13.3454 74.7652 13.3454C75.1519 13.3454 75.3784 13.0511 75.3784 12.6236C75.3372 12.2628 75.124 11.7939 76.0151 11.7939C76.6945 11.7939 77.1195 12.3959 77.1195 13.2788V13.6131C74.2461 14.5759 73.7549 15.5534 73.7549 16.3698C73.7549 17.0783 74.2196 17.7482 75.2181 17.7482C75.8431 17.7482 76.8019 17.4007 76.8019 16.29C76.8019 15.5017 76.4019 15.2739 76.1504 15.2739C75.9504 15.2739 75.8181 15.3952 75.7637 15.5682C75.7225 15.7147 75.7372 15.9291 76.0034 16.1302C76.1754 16.2633 76.3622 16.3846 76.3622 16.5858C76.3622 16.8786 76.0431 17.0398 75.7505 17.0398C75.2181 17.0398 74.899 16.7588 74.899 16.1302C74.899 15.407 75.2843 14.7519 77.1195 14.0434V16.5325C77.1195 17.2957 77.4666 17.6965 78.1048 17.6965C78.5695 17.6965 78.7842 17.4953 79.0886 17.028M82.1488 12.1045V11.6357H81.0179V10.1508C81.0179 9.40098 81.2709 9.02681 81.6973 9.02681C82.1238 9.02681 82.1752 9.33443 82.309 9.6953C82.4149 10.0162 82.6679 10.1907 82.8943 10.1907C83.2267 10.1907 83.4943 9.92306 83.4943 9.58881C83.4943 9.25457 83.1355 8.55798 81.9105 8.55798C80.9532 8.55798 80.0077 9.34774 80.0077 11.1935V11.6357H79.0489V12.1045H80.0077V16.4127C80.0077 17.096 79.5944 17.3238 79.1165 17.3637V17.6181H82.0032V17.3637C81.4576 17.3371 81.0179 17.0147 81.0179 16.3195V12.1045H82.1488ZM85.4751 11.6357H84.1708V9.84171H83.8634C83.6781 10.7779 83.0928 11.6357 82.1473 11.6357L81.7502 12.1045H83.159V16.3861C83.159 17.1744 83.5722 17.7497 84.356 17.7497C84.8751 17.7497 85.2325 17.4687 85.6986 16.8401L85.4736 16.6124C85.2604 16.92 85.0193 16.9999 84.7149 16.9999C84.3678 16.9999 84.1693 16.7987 84.1693 16.1169V12.103H85.4736V11.6342L85.4751 11.6357ZM85.5545 10.2159C85.5545 10.241 85.5398 10.2706 85.5207 10.2824C85.5031 10.2943 85.4913 10.2958 85.4384 10.2958H85.3516V10.139H85.4339C85.4972 10.139 85.5089 10.1405 85.5251 10.1553C85.5413 10.17 85.5531 10.1922 85.5531 10.2144M85.7325 10.6655L85.6089 10.3815C85.6839 10.349 85.7222 10.2913 85.7222 10.2159C85.7222 10.1567 85.6942 10.0961 85.6501 10.065C85.6075 10.0325 85.5589 10.0207 85.4722 10.0207H85.1854V10.6655H85.3516V10.4096H85.4457L85.5486 10.6655H85.731H85.7325ZM85.8957 10.3431C85.8957 10.596 85.6972 10.8016 85.4501 10.8016C85.2031 10.8016 85.0001 10.596 85.0001 10.3431C85.0001 10.0902 85.2001 9.8846 85.456 9.8846C85.6957 9.8846 85.8957 10.0917 85.8957 10.3431ZM85.9986 10.3505C85.9986 10.0384 85.7545 9.78995 85.4487 9.78995C85.1428 9.78995 84.8987 10.0384 84.8987 10.3431C84.8987 10.6477 85.1443 10.8962 85.4501 10.8962C85.756 10.8962 85.9986 10.6463 85.9986 10.349" fill="black"/>
<path d="M29.2652 0H29.1343V24.7223H29.2652V0Z" fill="black"/>
</g>
<defs>
<clipPath id="clip0_3357_3744">
<rect width="86" height="33" fill="white"/>
</clipPath>
</defs>
</svg>
