<svg width="137" height="42" viewBox="0 0 137 42" fill="none" xmlns="http://www.w3.org/2000/svg">
<g clip-path="url(#clip0_3365_4186)">
<mask id="mask0_3365_4186" style="mask-type:luminance" maskUnits="userSpaceOnUse" x="-32" y="-40" width="176" height="125">
<path d="M143.192 -39.8223H-31.7344V84.4666H143.192V-39.8223Z" fill="white"/>
</mask>
<g mask="url(#mask0_3365_4186)">
<mask id="mask1_3365_4186" style="mask-type:luminance" maskUnits="userSpaceOnUse" x="-32" y="-40" width="176" height="125">
<path d="M143.192 -39.8223H-31.7344V84.4666H143.192V-39.8223Z" fill="white"/>
</mask>
<g mask="url(#mask1_3365_4186)">
<path d="M91.0237 41.2228C90.6367 41.2228 90.1723 41.2228 89.7853 41.2228C87.3859 41.1451 85.3734 40.9117 83.5158 40.5228C81.1164 40.0562 78.7943 39.3562 76.7045 38.4228C73.0666 36.7895 70.2028 34.7673 67.9582 32.1228C66.2553 30.1784 65.0943 28.0006 64.3977 25.6673V25.5895C64.3203 25.3562 64.2429 25.1228 64.3203 24.8895C64.4751 23.9562 65.0169 23.4895 65.9457 23.4895C66.2553 23.4895 66.5649 23.4895 66.7972 23.4895C67.5712 23.4895 68.3452 23.4895 69.1192 23.4895C69.8932 23.4895 70.6672 23.4895 71.4412 23.4895C71.983 23.4895 72.4474 23.4895 72.9892 23.4895C73.6859 23.4895 74.1503 23.7228 74.6147 24.2673C75.5435 25.2784 76.4723 26.3673 77.3237 27.3784C77.6333 27.6895 77.8655 28.0006 78.1751 28.3117C79.1039 29.3228 79.4909 29.7895 79.9553 30.3339C80.3424 30.7228 80.7294 31.1895 81.5034 32.0451C81.8904 32.5117 82.4322 32.7451 83.0514 32.7451C83.5158 32.7451 83.9802 32.5895 84.3672 32.2006C84.7542 31.8895 84.909 31.4228 84.9864 30.9562C84.9864 30.4117 84.8316 29.8673 84.4446 29.4006C84.0576 28.9339 83.5932 28.4673 83.2062 28.0006C82.974 27.7673 82.7418 27.5339 82.5096 27.2228C81.813 26.4451 81.5808 26.2117 81.2712 25.9006C81.039 25.5895 80.7294 25.2784 80.1101 24.5784C79.8005 24.2673 79.8779 24.0339 79.9553 23.8784C80.0327 23.6451 80.2649 23.4895 80.5745 23.4895C81.9678 23.4895 83.361 23.4895 85.1412 23.4895H85.8378C86.1474 23.4895 86.457 23.5673 86.6892 23.7228C86.9214 23.8784 87.0762 24.1117 87.3085 24.2673L87.6955 24.7339C88.9339 26.1339 90.1723 27.5339 91.4107 28.8562C91.8751 29.3228 92.4943 30.0228 93.1135 30.8006C94.1972 32.0451 95.3582 33.3673 96.0548 34.1451C96.8288 35.0006 97.6802 35.9339 98.5316 36.9451C98.9186 37.3339 99.383 37.5673 99.9248 37.5673C100.08 37.5673 100.157 37.5673 100.312 37.5673C101.008 37.4117 101.628 36.9451 101.86 36.2451C102.092 35.5451 101.937 34.8451 101.473 34.3006C100.931 33.6784 99.6152 32.2006 98.6864 31.1117C98.3768 30.8006 98.0672 30.4895 97.9124 30.2562C97.448 29.7117 96.9836 29.2451 96.5192 28.7006C95.6678 27.6895 94.8164 26.7562 93.8875 25.7451L93.7327 25.5895C93.4231 25.2006 93.0361 24.8117 92.7265 24.4228C92.4943 24.1895 92.5717 23.9562 92.6491 23.8784C92.8039 23.6451 92.9587 23.4895 93.1909 23.4895C93.2683 23.4895 93.3457 23.4895 93.4231 23.4895H93.5779C94.0423 23.4895 94.4294 23.4895 94.8938 23.4895C95.3582 23.4895 95.8226 23.4895 96.2096 23.4895C96.8288 23.4895 97.3706 23.4895 97.835 23.4895C98.5316 23.4895 99.0734 23.7228 99.4604 24.1895C100.389 25.2006 101.473 26.4451 102.556 27.6117C103.563 28.7006 104.569 29.7895 105.42 30.8006C105.807 31.2673 106.427 31.5006 106.968 31.5006C107.433 31.5006 107.897 31.3451 108.207 31.0339C108.594 30.6451 108.826 30.1784 108.826 29.7117C108.826 29.1673 108.671 28.6228 108.284 28.1562C107.897 27.7673 107.51 27.3006 107.046 26.8339C106.349 26.0562 105.575 25.2006 105.033 24.5784C104.801 24.3451 104.801 24.1117 104.879 23.8784C104.956 23.7228 105.033 23.5673 105.498 23.5673C105.653 23.5673 105.807 23.5673 106.04 23.5673C106.194 23.5673 106.349 23.5673 106.504 23.5673C106.659 23.5673 106.736 23.5673 106.891 23.5673C107.278 23.5673 107.897 23.5673 108.594 23.5673C110.374 23.5673 112.773 23.5673 114.786 23.5673C116.334 23.5673 117.495 23.5673 118.191 23.5673C119.353 23.5673 120.359 22.7117 120.591 21.4673C120.746 20.3006 120.049 19.2117 118.966 18.7451C118.579 18.5895 118.192 18.5895 117.882 18.5895H116.256C111.612 18.5895 104.104 18.5895 100.234 18.5895C99.8474 18.5895 99.6152 18.5117 99.5378 18.2784C99.383 17.9673 99.4604 17.7339 99.6926 17.4228C100.931 16.0228 102.169 14.5451 103.33 13.1451C103.717 12.6784 104.104 12.2895 104.414 11.8228C105.111 10.9673 105.033 9.80061 104.259 9.10061C103.872 8.7895 103.408 8.55616 102.943 8.55616C102.402 8.55616 101.937 8.7895 101.55 9.17839C101.241 9.4895 100.931 9.87839 100.621 10.2673L100.467 10.4228L99.8474 11.1228C97.9898 13.3006 96.0548 15.6339 94.1971 17.8895C93.7327 18.4339 93.2683 18.6673 92.5717 18.6673C92.5717 18.6673 92.5717 18.6673 92.4943 18.6673C91.1785 18.6673 89.7853 18.6673 88.4695 18.5895H88.0051C87.6181 18.5895 87.4633 18.5117 87.3085 18.2006C87.1536 17.9673 87.231 17.7339 87.4633 17.4228C87.5407 17.3451 87.6181 17.1895 87.6955 17.1117C87.8503 16.9562 88.0051 16.8006 88.1599 16.5673C89.1661 15.4784 90.4045 14.0784 91.5655 12.6784C92.7265 11.3562 93.8875 10.0339 94.8164 8.94505C94.8938 8.86727 95.0486 8.71172 95.126 8.63394C95.3582 8.40061 95.5904 8.0895 95.8226 7.85616C96.287 7.31172 96.4418 6.76727 96.3644 6.22283C96.2096 5.36727 95.7452 4.74505 94.8938 4.5895C94.739 4.51172 94.5068 4.51172 94.352 4.51172C93.8101 4.51172 93.2683 4.74505 92.8813 5.21172C92.5717 5.52283 92.2621 5.91172 92.0299 6.22283C91.7203 6.61172 91.3333 7.00061 91.0237 7.3895C89.7079 8.86727 88.1599 10.6562 86.6892 12.3673C85.0638 14.2339 83.361 16.2562 81.8904 17.8895C81.5034 18.2784 81.1164 18.5117 80.6519 18.5117C80.2649 18.5117 79.8005 18.5117 79.4135 18.5117C78.5621 18.5117 77.7107 18.5117 76.8593 18.5117H76.7045C76.4723 18.5117 76.3175 18.4339 76.2401 18.3562C76.0853 18.2006 75.9305 17.8895 76.3175 17.4228C76.9367 16.6451 77.7881 15.6339 78.6395 14.6228C79.4135 13.7673 80.1101 12.9117 80.5745 12.2895C80.652 12.1339 80.8068 12.0562 80.8842 11.9006C81.3486 11.3562 81.813 10.8117 82.2 10.2673C82.6644 9.64505 82.7418 8.94505 82.3548 8.24505C81.9678 7.54505 81.426 7.15616 80.5745 7.15616C80.5745 7.15616 80.5746 7.15616 80.4971 7.15616C79.7231 7.15616 79.1813 7.62283 78.8717 8.0895C77.4011 9.87839 75.6209 11.9784 73.9181 14.0784C72.8344 15.4006 71.7508 16.7228 70.7446 17.8895C70.3576 18.4339 69.8158 18.5895 69.1966 18.5895C67.8808 18.5895 68.0356 18.5895 58.8248 18.5895C53.3294 18.5895 48.4531 18.5895 44.7378 18.5895C42.9576 18.5895 4.02483 18.5895 4.02483 18.5895C3.79263 18.5895 3.63783 18.5895 3.40563 18.5895C3.17342 18.5895 3.01862 18.5895 2.78642 18.5895C2.63161 18.5895 2.55421 18.5895 2.39941 18.5895C2.16721 18.5895 2.01241 18.5117 1.935 18.2784C1.8576 18.0451 1.8576 17.8895 1.935 17.7339C2.01241 17.5784 2.24461 17.4228 2.47681 17.4228C3.40563 17.4228 47.1373 17.4228 52.9423 17.4228H57.9734C61.4565 17.4228 62.7723 17.4228 63.1593 17.4228C63.7785 17.4228 64.0881 17.1895 64.3203 16.5673C65.2491 14.0006 66.7198 11.5895 68.7322 9.4895C70.2028 7.93394 71.983 6.53394 73.9181 5.36727C76.3175 3.96727 78.9491 2.87839 81.7356 2.10061C83.8254 1.55616 85.9926 1.16727 88.0825 1.0895C88.2373 1.0895 88.3921 1.0895 88.4695 1.0895C88.7791 1.0895 89.0887 1.0895 89.4757 1.01172H91.8751H91.9525C92.0299 1.01172 92.1073 1.01172 92.1847 1.0895C94.9712 1.24505 97.835 1.94505 100.931 3.03394C104.027 4.20061 107.123 5.75616 110.142 7.77839C112.154 9.10061 114.089 10.6562 115.947 12.2895C117.495 13.6117 118.888 15.0895 120.281 16.5673C121.52 17.9673 122.99 19.6006 124.384 21.4673V21.7784C123.068 23.7228 121.597 25.5895 120.049 27.2228C117.882 29.6339 115.482 31.7339 112.928 33.6006C109.677 35.9339 106.117 37.8006 102.402 39.1228C100.157 39.9006 97.9124 40.5228 95.7452 40.8339C94.352 41.0673 92.6491 41.2228 91.0237 41.2228Z" fill="#1D1D1B"/>
</g>
<mask id="mask2_3365_4186" style="mask-type:luminance" maskUnits="userSpaceOnUse" x="-32" y="-40" width="176" height="125">
<path d="M143.192 -39.8223H-31.7344V84.4666H143.192V-39.8223Z" fill="white"/>
</mask>
<g mask="url(#mask2_3365_4186)">
<path d="M4.87647 3.26758H2.63184V14.7009H4.87647V3.26758Z" fill="#1D1D1B"/>
</g>
<mask id="mask3_3365_4186" style="mask-type:luminance" maskUnits="userSpaceOnUse" x="-32" y="-40" width="176" height="125">
<path d="M143.192 -39.8223H-31.7344V84.4666H143.192V-39.8223Z" fill="white"/>
</mask>
<g mask="url(#mask3_3365_4186)">
<path d="M7.43066 3.26758H10.8363L12.9261 11.0454L14.9386 3.26758H18.3442V14.6231H16.2544V5.67869L14.0098 14.6231H11.7651L9.52049 5.67869V14.6231H7.43066V3.26758Z" fill="#1D1D1B"/>
</g>
<mask id="mask4_3365_4186" style="mask-type:luminance" maskUnits="userSpaceOnUse" x="-32" y="-40" width="176" height="125">
<path d="M143.192 -39.8223H-31.7344V84.4666H143.192V-39.8223Z" fill="white"/>
</mask>
<g mask="url(#mask4_3365_4186)">
<path d="M20.6663 3.26758H24.3815C26.3939 3.26758 27.0132 3.34536 27.6324 3.65647C28.329 4.04536 29.4126 4.90091 29.4126 6.84536C29.4126 8.86758 28.2516 9.72313 27.555 10.0342C26.7809 10.4231 25.5425 10.4231 24.5363 10.4231H23.0657V14.7009H20.8211V3.26758H20.6663ZM22.9109 5.13424V8.40091H24.1493C25.3103 8.40091 26.9357 8.40091 26.9357 6.76758C26.9357 6.30091 26.7809 5.91202 26.3939 5.60091C25.8521 5.13424 25.3877 5.13424 23.9945 5.13424H22.9109Z" fill="#1D1D1B"/>
</g>
<mask id="mask5_3365_4186" style="mask-type:luminance" maskUnits="userSpaceOnUse" x="-32" y="-40" width="176" height="125">
<path d="M143.192 -39.8223H-31.7344V84.4666H143.192V-39.8223Z" fill="white"/>
</mask>
<g mask="url(#mask5_3365_4186)">
<path d="M36.6882 14.6228L35.682 12.0561H31.1154L30.1866 14.6228H27.7097L32.1216 3.18945H34.521L39.0877 14.6228H36.6882ZM34.9854 10.1117L33.4374 5.91168L31.8894 10.1117H34.9854Z" fill="#1D1D1B"/>
</g>
<mask id="mask6_3365_4186" style="mask-type:luminance" maskUnits="userSpaceOnUse" x="-32" y="-40" width="176" height="125">
<path d="M143.192 -39.8223H-31.7344V84.4666H143.192V-39.8223Z" fill="white"/>
</mask>
<g mask="url(#mask6_3365_4186)">
<path d="M48.5306 11.1217C48.2984 11.9773 47.5244 14.7773 43.8092 14.7773C40.7131 14.7773 38.6233 12.5217 38.6233 8.94397C38.6233 5.75508 40.2487 2.95508 43.8866 2.95508C44.5058 2.95508 46.1312 3.03286 47.3696 4.2773C47.9114 4.82174 48.221 5.52174 48.4532 6.29952L46.2086 6.84397C45.899 5.59952 44.9702 4.89952 43.8092 4.89952C41.0227 4.89952 41.0227 8.01063 41.0227 8.78841C41.0227 10.8106 41.5645 12.7551 43.8092 12.7551C45.3572 12.7551 46.0538 11.5884 46.286 10.344L48.5306 11.1217Z" fill="#1D1D1B"/>
</g>
<mask id="mask7_3365_4186" style="mask-type:luminance" maskUnits="userSpaceOnUse" x="-32" y="-40" width="176" height="125">
<path d="M143.192 -39.8223H-31.7344V84.4666H143.192V-39.8223Z" fill="white"/>
</mask>
<g mask="url(#mask7_3365_4186)">
<path d="M52.0909 5.13424H48.7627V3.26758H57.7412V5.13424H54.413V14.6231H52.0909V5.13424Z" fill="#1D1D1B"/>
</g>
<mask id="mask8_3365_4186" style="mask-type:luminance" maskUnits="userSpaceOnUse" x="-32" y="-40" width="176" height="125">
<path d="M143.192 -39.8223H-31.7344V84.4666H143.192V-39.8223Z" fill="white"/>
</mask>
<g mask="url(#mask8_3365_4186)">
<path d="M8.5916 23.7224C8.12719 22.4002 7.35318 21.7002 6.03736 21.7002C4.02493 21.7002 2.86391 23.1002 2.86391 25.5113C2.86391 28.078 4.02493 29.478 5.95996 29.478C7.27578 29.478 8.3594 28.7002 8.7464 27.0669L9.98482 27.378C9.44301 29.478 7.97239 30.5669 6.03736 30.5669C4.56674 30.5669 3.56053 30.178 2.78651 29.2447C2.0125 28.3113 1.5481 27.0669 1.5481 25.5113C1.5481 22.478 3.40572 20.6113 6.03736 20.6113C7.97239 20.6113 9.28821 21.6224 9.83002 23.4113L8.5916 23.7224Z" fill="#1D1D1B"/>
</g>
<mask id="mask9_3365_4186" style="mask-type:luminance" maskUnits="userSpaceOnUse" x="-32" y="-40" width="176" height="125">
<path d="M143.192 -39.8223H-31.7344V84.4666H143.192V-39.8223Z" fill="white"/>
</mask>
<g mask="url(#mask9_3365_4186)">
<path d="M14.2418 23.2559C15.248 23.2559 16.1768 23.6447 16.7961 24.4225C17.3379 25.1225 17.4927 25.9003 17.4927 26.9114C17.4927 29.3225 16.0994 30.567 14.2418 30.567C13.2356 30.567 12.3068 30.1781 11.6876 29.4003C11.1458 28.7003 10.991 27.9225 10.991 26.9114C10.991 24.5003 12.3842 23.2559 14.2418 23.2559ZM14.2418 29.5559C15.4028 29.5559 16.2542 28.6225 16.2542 26.9114C16.2542 25.2003 15.4028 24.267 14.2418 24.267C13.0034 24.267 12.2294 25.2003 12.2294 26.9114C12.152 28.6225 13.0034 29.5559 14.2418 29.5559Z" fill="#1D1D1B"/>
</g>
<mask id="mask10_3365_4186" style="mask-type:luminance" maskUnits="userSpaceOnUse" x="-32" y="-40" width="176" height="125">
<path d="M143.192 -39.8223H-31.7344V84.4666H143.192V-39.8223Z" fill="white"/>
</mask>
<g mask="url(#mask10_3365_4186)">
<path d="M24.0719 30.4118H22.9109V25.9007C22.9109 24.8895 22.6012 24.3451 21.6724 24.3451C21.0532 24.3451 20.5114 24.6562 20.2792 25.1229C20.047 25.5895 19.9696 26.134 19.9696 26.834V30.4118H18.8086V23.4895H19.8922V24.4229C20.3566 23.7229 21.1306 23.334 21.982 23.334C22.9109 23.334 23.6075 23.7229 23.9171 24.5784C24.4589 23.8007 25.1555 23.334 26.0843 23.334C27.4775 23.334 28.2515 24.1118 28.2515 25.6673V30.4118H27.0905V26.0562C27.0905 25.2007 26.9357 24.3451 25.8521 24.3451C24.9233 24.3451 24.1493 24.9673 24.1493 26.3673V30.4118H24.0719Z" fill="#1D1D1B"/>
</g>
<mask id="mask11_3365_4186" style="mask-type:luminance" maskUnits="userSpaceOnUse" x="-32" y="-40" width="176" height="125">
<path d="M143.192 -39.8223H-31.7344V84.4666H143.192V-39.8223Z" fill="white"/>
</mask>
<g mask="url(#mask11_3365_4186)">
<path d="M31.038 24.3447C31.5024 23.6447 32.1216 23.2559 33.0504 23.2559C34.8306 23.2559 35.9916 24.6559 35.9916 26.7559C35.9916 29.0892 34.6758 30.4892 32.973 30.4892C32.2764 30.4892 31.5798 30.1781 31.1928 29.6336V33.0559H30.0317V23.4114H31.1154V24.3447H31.038ZM32.8956 29.5559C33.9792 29.5559 34.8306 28.7003 34.8306 26.8336C34.8306 25.1225 34.0566 24.1892 32.973 24.1892C31.8894 24.1892 31.038 25.2781 31.038 26.9114C31.038 28.7003 31.812 29.5559 32.8956 29.5559Z" fill="#1D1D1B"/>
</g>
<mask id="mask12_3365_4186" style="mask-type:luminance" maskUnits="userSpaceOnUse" x="-32" y="-40" width="176" height="125">
<path d="M143.192 -39.8223H-31.7344V84.4666H143.192V-39.8223Z" fill="white"/>
</mask>
<g mask="url(#mask12_3365_4186)">
<path d="M41.8741 25.9777V25.7444C41.8741 24.8888 41.6419 24.1888 40.1712 24.1888C38.8554 24.1888 38.5458 24.8111 38.391 25.5111L37.23 25.3555C37.5396 23.9555 38.4684 23.1777 40.326 23.1777C41.4097 23.1777 42.1837 23.4111 42.6481 23.9555C43.0351 24.4222 43.0351 24.9666 43.0351 25.7444V28.2333C43.0351 29.0888 43.1125 29.7111 43.4221 30.3333H42.1837C42.0289 30.0222 41.9515 29.7111 41.9515 29.4777C41.1775 30.1777 40.326 30.4888 39.4746 30.4888C37.9266 30.4888 37.0752 29.6333 37.0752 28.4666C37.0752 27.3777 37.8492 26.5222 39.2424 26.3666C40.1712 26.2888 41.1775 26.2111 41.8741 25.9777ZM41.8741 26.9111C40.2486 27.5333 38.3136 27.1444 38.3136 28.5444C38.3136 29.1666 38.778 29.6333 39.7842 29.6333C40.326 29.6333 41.0227 29.4 41.4097 29.0111C41.8741 28.5444 41.9515 28 41.9515 27.3777V26.9111H41.8741Z" fill="#1D1D1B"/>
</g>
<mask id="mask13_3365_4186" style="mask-type:luminance" maskUnits="userSpaceOnUse" x="-32" y="-40" width="176" height="125">
<path d="M143.192 -39.8223H-31.7344V84.4666H143.192V-39.8223Z" fill="white"/>
</mask>
<g mask="url(#mask13_3365_4186)">
<path d="M45.899 24.4225C46.4409 23.6447 47.2149 23.2559 48.0663 23.2559C48.9951 23.2559 49.7691 23.6447 50.1561 24.267C50.4657 24.8114 50.4657 25.3559 50.4657 26.0559V30.3336H49.3047V26.1336C49.3047 25.1225 48.9951 24.267 47.8341 24.267C47.1375 24.267 46.5183 24.5781 46.2086 25.1225C45.9764 25.5114 45.9764 25.9781 45.9764 26.5225V30.3336H44.8154V23.4114H45.899V24.4225Z" fill="#1D1D1B"/>
</g>
<mask id="mask14_3365_4186" style="mask-type:luminance" maskUnits="userSpaceOnUse" x="-32" y="-40" width="176" height="125">
<path d="M143.192 -39.8223H-31.7344V84.4666H143.192V-39.8223Z" fill="white"/>
</mask>
<g mask="url(#mask14_3365_4186)">
<path d="M55.0324 30.4879C54.4132 32.1213 54.0262 33.2102 52.7103 33.2102C52.4007 33.2102 52.1685 33.1324 51.9363 33.0546L51.8589 31.9657C52.0137 32.0435 52.2459 32.0435 52.5555 32.0435C53.5618 32.0435 53.6392 31.4213 54.0262 30.4102L51.3945 23.4102H52.6329L54.1036 27.4546C54.3358 27.999 54.4906 28.5435 54.568 29.0879C54.6454 28.7768 54.8002 28.2324 55.0324 27.4546L56.503 23.4102H57.664L55.0324 30.4879Z" fill="#1D1D1B"/>
</g>
</g>
</g>
<defs>
<clipPath id="clip0_3365_4186">
<rect width="137" height="42" fill="white"/>
</clipPath>
</defs>
</svg>
