<svg width="82" height="35" viewBox="0 0 82 35" fill="none" xmlns="http://www.w3.org/2000/svg">
<path d="M26.3061 6.3849H1.75402V1.77583H26.3063L26.3061 6.3849ZM28.0602 0H0V8.15983H28.0602L28.0602 0Z" fill="#00B188"/>
<path d="M1.75396 21.6462H0V13.4863H1.75396V16.7109H4.88776V13.4863H6.64172V21.6462H4.88776V18.2646H1.75396V21.6462ZM9.29796 18.0687H11.3872C11.3482 17.4686 11.1036 17.0503 10.4198 17.0503C9.90394 17.0503 9.45253 17.2727 9.29796 18.0687ZM10.6261 21.7768C8.84655 21.7768 7.6346 20.6408 7.6346 18.7746C7.6346 16.9591 8.82099 15.706 10.3943 15.706C12.1093 15.706 12.9605 16.8679 12.9605 18.6046V19.2576H9.29796C9.50479 20.1578 10.2008 20.3925 10.8974 20.3925C11.5033 20.3925 11.9414 20.2625 12.4829 19.9225H12.548V21.2673C12.0837 21.6073 11.4255 21.7768 10.6261 21.7768ZM17.538 18.2258L16.6352 21.6462H15.1008L13.3468 15.9014V15.836H15.0235L15.9775 19.27L16.8803 15.836H18.2474L19.163 19.27L20.1303 15.836H21.7425V15.9014L19.9885 21.6462H18.4536L17.538 18.2258ZM24.5916 21.7768C23.199 21.7768 22.6315 21.2155 22.6315 19.8971V13.4869H24.3337V19.7795C24.3337 20.1842 24.4883 20.3278 24.8234 20.3278C24.9397 20.3278 25.1076 20.289 25.2105 20.2495H25.2366V21.6726C25.0948 21.7244 24.8496 21.7768 24.5916 21.7768ZM27.3774 18.0687H29.4666C29.4278 17.4686 29.1831 17.0503 28.4993 17.0503C27.9839 17.0503 27.532 17.2727 27.3774 18.0687ZM28.7055 21.7768C26.926 21.7768 25.7141 20.6408 25.7141 18.7746C25.7141 16.9591 26.9005 15.706 28.4738 15.706C30.1888 15.706 31.0399 16.8679 31.0399 18.6046V19.2576H27.3774C27.5837 20.1578 28.2803 20.3925 28.9763 20.3925C29.5829 20.3925 30.0209 20.2625 30.563 19.9225H30.6275V21.2673C30.1632 21.6073 29.5056 21.7768 28.7055 21.7768ZM38.0291 15.836H39.2927V17.2198H38.0291V19.5829C38.0291 20.0924 38.2226 20.3277 38.7385 20.3277C38.8802 20.3277 39.0609 20.3142 39.2544 20.2489H39.2927V21.6067C39.0737 21.6855 38.7385 21.7762 38.2487 21.7762C36.8683 21.7762 36.3268 21.1367 36.3268 19.6612V17.2197H34.1476V19.5829C34.1476 20.0924 34.3411 20.3277 34.8564 20.3277C34.9987 20.3277 35.1794 20.3142 35.3729 20.2489H35.4112V21.6067C35.1922 21.6855 34.8564 21.7762 34.3672 21.7762C32.9868 21.7762 32.4453 21.1367 32.4453 19.6612V17.2197H31.5681V15.836H32.4453V14.2435H34.1476V15.836H36.3268V14.2435H38.0291V15.836M45.0283 17.4945C45.9189 17.4945 46.3436 16.9856 46.3436 16.2543C46.3436 15.4966 45.9189 14.9877 45.0283 14.9877H43.9192V17.4945L45.0283 17.4945ZM48.1237 16.2543C48.1237 18.0304 46.9501 18.9958 45.17 18.9958H43.9192V21.6462H42.1664V13.4863H45.17C46.9502 13.4863 48.1237 14.4524 48.1237 16.2543ZM51.8629 19.8183V19.3224C51.6049 19.1794 51.2703 19.127 50.9217 19.127C50.3675 19.127 50.0322 19.3353 50.0322 19.8054C50.0322 20.289 50.3675 20.4978 50.87 20.4978C51.347 20.4978 51.7084 20.2495 51.8629 19.8183ZM51.9146 21.072C51.5405 21.5291 50.9868 21.7509 50.3925 21.7509C49.2712 21.7509 48.355 21.0596 48.355 19.8313C48.355 18.6958 49.2712 17.9386 50.586 17.9386C50.9985 17.9386 51.4249 18.004 51.8629 18.134V18.0304C51.8629 17.4033 51.5149 17.1297 50.5999 17.1297C50.0189 17.1297 49.4647 17.2986 48.9871 17.5733H48.9232V16.1891C49.3612 15.9284 50.1356 15.706 50.8956 15.706C52.624 15.706 53.5652 16.5415 53.5652 18.004V21.6462H51.9147V21.072M54.4291 18.7481C54.4291 16.8809 55.7322 15.7061 57.4345 15.7061C58.0404 15.7061 58.6075 15.8366 59.0334 16.1496V17.6251H58.9683C58.5941 17.338 58.1561 17.168 57.6535 17.168C56.8024 17.168 56.1575 17.7562 56.1575 18.7481C56.1575 19.7401 56.8024 20.3148 57.6535 20.3148C58.1561 20.3148 58.5942 20.1448 58.9683 19.8571H59.0334V21.3326C58.6075 21.6462 58.0404 21.7768 57.4345 21.7768C55.7322 21.7768 54.4291 20.6154 54.4291 18.7481ZM61.8052 19.0094V21.6462H60.1035V13.4863H61.8052V18.134L63.5208 15.836H65.4549V15.9014L63.3918 18.5388L65.4549 21.5808V21.6462H63.5075L61.8052 19.0094ZM69.2719 19.8183V19.3224C69.0145 19.1794 68.6787 19.127 68.3308 19.127C67.7765 19.127 67.4413 19.3353 67.4413 19.8054C67.4413 20.289 67.7765 20.4978 68.2785 20.4978C68.7566 20.4978 69.1174 20.2495 69.2719 19.8183ZM69.3237 21.072C68.9495 21.5291 68.3947 21.7509 67.8021 21.7509C66.6796 21.7509 65.7646 21.0596 65.7646 19.8313C65.7646 18.6958 66.6796 17.9386 67.9961 17.9386C68.4086 17.9386 68.8333 18.004 69.2719 18.134V18.0304C69.2719 17.4033 68.9239 17.1297 68.0083 17.1297C67.4285 17.1297 66.8731 17.2986 66.3961 17.5733H66.3316V16.1891C66.7703 15.9284 67.5441 15.706 68.3046 15.706C70.0336 15.706 70.9748 16.5415 70.9748 18.004V21.6462H69.3237V21.072M73.8372 16.7762C74.1464 16.1361 74.5983 15.7708 75.2305 15.7708C75.4623 15.7708 75.6941 15.8231 75.7836 15.8755V17.5204H75.7197C75.5262 17.4416 75.2944 17.3897 74.9719 17.3897C74.4432 17.3897 74.0308 17.7033 73.8884 18.3034V21.6462H72.1867V15.836H73.8372V16.7762ZM80.2978 19.6747V17.8075C80.0142 17.3898 79.6407 17.2074 79.2142 17.2074C78.4671 17.2074 77.964 17.7562 77.964 18.7481C77.964 19.7401 78.4671 20.2754 79.2142 20.2754C79.6407 20.2754 80.0142 20.0925 80.2978 19.6747ZM80.3489 21.0461C79.9881 21.5161 79.4205 21.7768 78.6472 21.7768C77.1767 21.7768 76.2356 20.4195 76.2356 18.7481C76.2356 17.0768 77.1767 15.7061 78.6472 15.7061C79.3949 15.7061 79.9364 15.9413 80.2978 16.3719V13.4869H82V21.6462H80.3489V21.0461ZM0 24.3111H4.97783V25.3031H1.12189V27.7963H4.61643V28.7629H1.12189V31.4785H4.97777V32.4704H0V24.3111ZM9.09119 26.6085C10.3676 26.6085 11.0769 27.4574 11.0769 28.8535V32.4704H10.0068V28.88C10.0068 28.1357 9.63266 27.6004 8.82039 27.6004C8.14997 27.6004 7.58234 28.0316 7.38889 28.6447V32.4704H6.31873V26.7262H7.38889V27.5616C7.72413 27.0262 8.2917 26.6085 9.09119 26.6085ZM13.9533 26.7262H15.4105V27.6533H13.9533V30.7473C13.9533 31.3997 14.2886 31.6221 14.8945 31.6221C15.0619 31.6221 15.2426 31.5961 15.3715 31.5438H15.4105V32.4704C15.2559 32.5357 15.0363 32.5881 14.74 32.5881C13.4113 32.5881 12.8832 31.9739 12.8832 30.852V27.6533H11.9031V26.7262H12.8832V25.1995H13.9533V26.7262ZM17.2028 29.0365H20.0269C19.9885 28.1881 19.5755 27.5357 18.6988 27.5357C17.8866 27.5357 17.3573 28.1493 17.2028 29.0365ZM18.8923 32.5881C17.2283 32.5881 16.0937 31.465 16.0937 29.6636C16.0937 27.8616 17.1511 26.6085 18.686 26.6085C20.2465 26.6085 21.0587 27.7445 21.0587 29.4283V29.9248H17.1639C17.2801 31.0867 18.0156 31.648 19.0341 31.648C19.6661 31.648 20.117 31.5044 20.6201 31.1256H20.6591V32.0792C20.1948 32.4445 19.5883 32.5881 18.8923 32.5881M23.3925 27.6139C23.6377 27.0003 24.1797 26.635 24.7979 26.635C25.0437 26.635 25.2627 26.6738 25.3527 26.7262V27.7963H25.3144C25.1593 27.7186 24.9013 27.6793 24.6434 27.6793C24.0636 27.6793 23.5732 28.0705 23.3925 28.7235V32.4704H22.3224V26.7262H23.3925V27.6139M28.8084 31.6085C29.8658 31.6085 30.4851 30.7602 30.4851 29.5978C30.4851 28.4493 29.8658 27.5881 28.8084 27.5881C28.228 27.5881 27.6866 27.9404 27.4031 28.5011V30.7084C27.6866 31.2691 28.228 31.6085 28.8084 31.6085ZM28.9891 26.6085C30.678 26.6085 31.5809 28.0057 31.5809 29.5978C31.5809 31.1914 30.678 32.5881 28.9891 32.5881C28.2925 32.5881 27.6994 32.2228 27.403 31.8304V34.6771H26.3323V26.7262H27.403V27.3786C27.6994 26.9738 28.2925 26.6085 28.9891 26.6085ZM33.9152 27.6139C34.1598 27.0003 34.7019 26.635 35.3206 26.635C35.5657 26.635 35.7848 26.6738 35.8749 26.7262V27.7963H35.8365C35.682 27.7186 35.424 27.6793 35.1661 27.6793C34.5857 27.6793 34.0959 28.0705 33.9152 28.7235V32.4704H32.8451V26.7262H33.9152V27.6139M37.4226 24.4023C37.7967 24.4023 38.1059 24.7024 38.1059 25.0813C38.1059 25.4601 37.7967 25.7601 37.4226 25.7601C37.0618 25.7601 36.7388 25.4601 36.7388 25.0813C36.7388 24.7024 37.0618 24.4023 37.4226 24.4023ZM36.8939 32.4704H37.9646V26.7262H36.8939V32.4704ZM41.7816 29.1153C42.5939 29.376 43.4962 29.7154 43.4962 30.812C43.4962 31.9874 42.5422 32.5881 41.3174 32.5881C40.5691 32.5881 39.8214 32.4051 39.3956 32.0656V31.0344H39.4473C39.9248 31.478 40.6336 31.6739 41.3041 31.6739C41.9101 31.6739 42.4521 31.4386 42.4521 30.9426C42.4521 30.4337 42.0012 30.3161 41.1107 30.016C40.3112 29.7548 39.4217 29.4542 39.4217 28.3711C39.4217 27.261 40.324 26.6085 41.472 26.6085C42.1424 26.6085 42.7356 26.7521 43.2126 27.0786V28.1234H43.1743C42.7106 27.7445 42.1681 27.5222 41.4976 27.5222C40.8271 27.5222 40.453 27.8228 40.453 28.2276C40.453 28.6847 40.8655 28.8147 41.7816 29.1153ZM45.5342 29.0365H48.3578C48.3194 28.1881 47.9069 27.5357 47.0297 27.5357C46.2174 27.5357 45.6888 28.1493 45.5342 29.0365ZM47.2231 32.5881C45.5598 32.5881 44.4251 31.465 44.4251 29.6636C44.4251 27.8616 45.4825 26.6085 47.0169 26.6085C48.5779 26.6085 49.3896 27.7445 49.3896 29.4283V29.9248H45.4953C45.6115 31.0867 46.3464 31.648 47.3649 31.648C47.9975 31.648 48.4484 31.5044 48.951 31.1256H48.9899V32.0792C48.5262 32.4445 47.9196 32.5881 47.2231 32.5881Z" fill="#231F20"/>
</svg>
