<?xml version="1.0" standalone="no"?>
<!DOCTYPE svg PUBLIC "-//W3C//DTD SVG 20010904//EN"
 "http://www.w3.org/TR/2001/REC-SVG-20010904/DTD/svg10.dtd">
<svg version="1.0" xmlns="http://www.w3.org/2000/svg"
 width="683.000000pt" height="146.000000pt" viewBox="0 0 683.000000 146.000000"
 preserveAspectRatio="xMidYMid meet">

<g transform="translate(0.000000,146.000000) scale(0.100000,-0.100000)"
fill="#000000" stroke="none">
<path d="M704 1037 c-30 -60 -34 -63 -66 -46 -11 6 -22 8 -25 6 -2 -3 3 -42
12 -87 9 -45 14 -84 11 -88 -4 -3 -23 11 -44 31 -44 43 -48 44 -55 16 -6 -21
-22 -22 -89 -3 -16 5 -16 2 -2 -46 8 -29 14 -53 12 -55 -2 -1 -11 -6 -21 -12
-15 -8 -7 -18 62 -74 45 -35 81 -67 81 -71 0 -4 -4 -18 -10 -32 -5 -14 -8 -26
-7 -26 1 0 34 6 74 14 40 7 75 11 78 8 3 -3 5 -41 5 -85 0 -58 3 -78 13 -74 8
3 11 24 9 75 -2 39 -1 75 2 80 3 5 35 4 78 -3 40 -7 74 -12 76 -10 1 1 -2 14
-7 29 -10 24 -6 30 70 93 71 58 78 67 62 76 -10 6 -19 11 -20 12 -2 1 4 23 13
49 9 26 14 49 12 51 -2 2 -23 -1 -47 -6 -44 -10 -52 -7 -65 26 -2 6 -21 -7
-43 -27 -45 -44 -56 -47 -48 -15 3 12 12 55 19 95 l14 73 -24 -16 c-13 -8 -28
-15 -33 -15 -6 0 -24 26 -40 57 l-29 58 -28 -58z"/>
</g>
</svg>
