<svg width="20" height="21" viewBox="0 0 20 21" fill="none" xmlns="http://www.w3.org/2000/svg">
<path d="M12.664 20.04L11.032 17.352C10.664 17.416 10.24 17.448 9.76 17.448C8.16 17.448 6.688 17.072 5.344 16.32C4.016 15.568 2.96 14.528 2.176 13.2C1.392 11.872 1 10.376 1 8.712C1 7.048 1.392 5.552 2.176 4.224C2.96 2.896 4.016 1.864 5.344 1.128C6.688 0.376001 8.16 0 9.76 0C11.36 0 12.824 0.376001 14.152 1.128C15.48 1.864 16.528 2.896 17.296 4.224C18.08 5.552 18.472 7.048 18.472 8.712C18.472 10.072 18.208 11.328 17.68 12.48C17.152 13.616 16.424 14.584 15.496 15.384L18.952 20.04H12.664ZM6.424 8.712C6.424 9.864 6.712 10.784 7.288 11.472C7.864 12.144 8.688 12.48 9.76 12.48C10.816 12.48 11.632 12.144 12.208 11.472C12.784 10.784 13.072 9.864 13.072 8.712C13.072 7.544 12.784 6.624 12.208 5.952C11.632 5.264 10.816 4.92 9.76 4.92C8.688 4.92 7.864 5.264 7.288 5.952C6.712 6.624 6.424 7.544 6.424 8.712Z" fill="#D99737"/>
</svg>
