<?xml version="1.0" encoding="UTF-8"?>
<svg version="1.1" xmlns="http://www.w3.org/2000/svg" width="169" height="36">
<path d="M0 0 C2.31 0 4.62 0 7 0 C7 4.62 7 9.24 7 14 C9.31 14 11.62 14 14 14 C14 9.38 14 4.76 14 0 C15.98 0 17.96 0 20 0 C20.495 6.93 20.495 6.93 21 14 C21.94875 12.06125 22.8975 10.1225 23.875 8.125 C26.75 2.25 26.75 2.25 29 0 C30.98 0 32.96 0 35 0 C37.31 4.62 39.62 9.24 42 14 C42.33 9.38 42.66 4.76 43 0 C48.10880829 -0.70466321 48.10880829 -0.70466321 51 0 C53.49126669 2.37660588 55.25736814 5.04280654 57 8 C57.144375 6.865625 57.28875 5.73125 57.4375 4.5625 C58 1 58 1 59 0 C60.78071246 -0.08726223 62.5648314 -0.10699041 64.34765625 -0.09765625 C65.42724609 -0.09443359 66.50683594 -0.09121094 67.61914062 -0.08789062 C69.32360352 -0.07532227 69.32360352 -0.07532227 71.0625 -0.0625 C72.77276367 -0.05573242 72.77276367 -0.05573242 74.51757812 -0.04882812 C77.34510351 -0.03699747 80.1725264 -0.0205141 83 0 C83 1.65 83 3.3 83 5 C81.02 5 79.04 5 77 5 C77 9.62 77 14.24 77 19 C74.69 19 72.38 19 70 19 C70 14.38 70 9.76 70 5 C68.02 5 66.04 5 64 5 C64 9.62 64 14.24 64 19 C58.1865285 19.79274611 58.1865285 19.79274611 55 19 C52.40155657 16.30706772 50.6833009 13.32699471 49 10 C48.67 12.97 48.34 15.94 48 19 C44.04 19 40.08 19 36 19 C35.505 17.02 35.505 17.02 35 15 C33.72125 15.103125 32.4425 15.20625 31.125 15.3125 C30.40570313 15.37050781 29.68640625 15.42851562 28.9453125 15.48828125 C26.60480784 15.87393036 26.60480784 15.87393036 25 19 C22.69335937 19.37231445 22.69335937 19.37231445 19.84375 19.36328125 C18.82152344 19.36263672 17.79929687 19.36199219 16.74609375 19.36132812 C15.67488281 19.34521484 14.60367188 19.32910156 13.5 19.3125 C11.89318359 19.31733398 11.89318359 19.31733398 10.25390625 19.32226562 C2.26687004 19.26687004 2.26687004 19.26687004 0 17 C-0.14517744 14.0906442 -0.18630796 11.280054 -0.125 8.375 C-0.11597656 7.57320312 -0.10695312 6.77140625 -0.09765625 5.9453125 C-0.07406223 3.96341477 -0.03819065 1.98167019 0 0 Z M30 8 C29.67 8.99 29.34 9.98 29 11 C29.99 11 30.98 11 32 11 C31.67 10.01 31.34 9.02 31 8 C30.67 8 30.34 8 30 8 Z " fill="#DEC68B" transform="translate(36,3)"/>
<path d="M0 0 C1.15371094 -0.01998047 2.30742187 -0.03996094 3.49609375 -0.06054688 C5.15318359 -0.05958008 5.15318359 -0.05958008 6.84375 -0.05859375 C7.85630859 -0.06044678 8.86886719 -0.0622998 9.91210938 -0.06420898 C12.5 0.4375 12.5 0.4375 14.33520508 2.15698242 C15.68885232 4.80724838 15.84718081 6.45828224 15.79296875 9.421875 C15.78330078 10.35644531 15.77363281 11.29101562 15.76367188 12.25390625 C15.73853516 13.22199219 15.71339844 14.19007812 15.6875 15.1875 C15.66719727 16.66283203 15.66719727 16.66283203 15.64648438 18.16796875 C15.61118726 20.59170415 15.56188054 23.01432145 15.5 25.4375 C16.82 25.7675 18.14 26.0975 19.5 26.4375 C19.5 28.4175 19.5 30.3975 19.5 32.4375 C14.99767666 32.51167023 10.49570909 32.5661105 5.99291992 32.60229492 C4.46128139 32.61737936 2.92968602 32.63784978 1.39819336 32.66381836 C-0.80365654 32.70021847 -3.00493533 32.71722913 -5.20703125 32.73046875 C-5.89150833 32.74595261 -6.57598541 32.76143646 -7.28120422 32.77738953 C-10.02438405 32.77836009 -12.04494908 32.70878146 -14.4309082 31.28637695 C-15.95331208 28.6535465 -15.88870914 26.59404243 -15.8984375 23.5625 C-15.90230469 22.41265625 -15.90617188 21.2628125 -15.91015625 20.078125 C-15.89855469 18.87671875 -15.88695312 17.6753125 -15.875 16.4375 C-15.88660156 15.23609375 -15.89820313 14.0346875 -15.91015625 12.796875 C-15.90628906 11.64703125 -15.90242187 10.4971875 -15.8984375 9.3125 C-15.89505371 8.25804687 -15.89166992 7.20359375 -15.88818359 6.1171875 C-15.5 3.4375 -15.5 3.4375 -14.32861328 1.59741211 C-10.24890007 -0.99040064 -4.67164627 -0.02870844 0 0 Z M-8.5 7.4375 C-8.5 9.0875 -8.5 10.7375 -8.5 12.4375 C-6.85 12.4375 -5.2 12.4375 -3.5 12.4375 C-3.5 11.4475 -3.5 10.4575 -3.5 9.4375 C-2.84 9.4375 -2.18 9.4375 -1.5 9.4375 C-1.5 8.7775 -1.5 8.1175 -1.5 7.4375 C-3.81 7.4375 -6.12 7.4375 -8.5 7.4375 Z M1.5 7.4375 C1.5 8.0975 1.5 8.7575 1.5 9.4375 C2.16 9.4375 2.82 9.4375 3.5 9.4375 C3.5 10.4275 3.5 11.4175 3.5 12.4375 C4.82 12.4375 6.14 12.4375 7.5 12.4375 C7.83 13.4275 8.16 14.4175 8.5 15.4375 C8.5 12.7975 8.5 10.1575 8.5 7.4375 C6.19 7.4375 3.88 7.4375 1.5 7.4375 Z M5.9375 17.8125 C4.27914204 19.32557063 4.27914204 19.32557063 4.5 21.4375 C3.51 21.4375 2.52 21.4375 1.5 21.4375 C1.5 22.7575 1.5 24.0775 1.5 25.4375 C3.81 25.4375 6.12 25.4375 8.5 25.4375 C8.5 22.4675 8.5 19.4975 8.5 16.4375 C7.27822672 16.32739535 7.27822672 16.32739535 5.9375 17.8125 Z M-8.5 17.4375 C-8.5 20.0775 -8.5 22.7175 -8.5 25.4375 C-6.19 25.4375 -3.88 25.4375 -1.5 25.4375 C-1.17 24.1175 -0.84 22.7975 -0.5 21.4375 C-1.82 21.4375 -3.14 21.4375 -4.5 21.4375 C-4.83 20.4475 -5.16 19.4575 -5.5 18.4375 C-6.49 18.1075 -7.48 17.7775 -8.5 17.4375 Z " fill="#D9BC80" transform="translate(18.5,1.5625)"/>
<path d="M0 0 C0.99 0 1.98 0 3 0 C3 0.66 3 1.32 3 2 C4.65 2 6.3 2 8 2 C8.33 1.34 8.66 0.68 9 0 C9.66 0 10.32 0 11 0 C11.66 0.66 12.32 1.32 13 2 C15.23035297 2.27741245 15.23035297 2.27741245 17.7890625 2.1953125 C19.20058594 2.18564453 19.20058594 2.18564453 20.640625 2.17578125 C21.62546875 2.15902344 22.6103125 2.14226563 23.625 2.125 C24.61757812 2.11597656 25.61015625 2.10695313 26.6328125 2.09765625 C29.08878134 2.07404116 31.54427168 2.04110799 34 2 C34 1.34 34 0.68 34 0 C35.98 0 37.96 0 40 0 C40.495 0.99 40.495 0.99 41 2 C46.61 2 52.22 2 58 2 C58 1.34 58 0.68 58 0 C58.99 0 59.98 0 61 0 C61 3.3 61 6.6 61 10 C57.37 10 53.74 10 50 10 C50 8.35 50 6.7 50 5 C49.34 5 48.68 5 48 5 C48 6.65 48 8.3 48 10 C40.74 10 33.48 10 26 10 C26 8.35 26 6.7 26 5 C25.34 5 24.68 5 24 5 C24 6.65 24 8.3 24 10 C23.34 10 22.68 10 22 10 C21.67 8.68 21.34 7.36 21 6 C20.67 7.32 20.34 8.64 20 10 C15.71 10 11.42 10 7 10 C6.67 8.68 6.34 7.36 6 6 C5.67 7.32 5.34 8.64 5 10 C3.35 10 1.7 10 0 10 C0 6.7 0 3.4 0 0 Z M11 5 C12 7 12 7 12 7 Z M37 5 C38 8 38 8 38 8 Z M42 5 C42.33 5.99 42.66 6.98 43 8 C43.33 7.01 43.66 6.02 44 5 C43.34 5 42.68 5 42 5 Z " fill="#F8ECAD" transform="translate(40,24)"/>
<path d="M0 0 C2.64 0 5.28 0 8 0 C9.65 2.97 11.3 5.94 13 9 C14.65 6.03 16.3 3.06 18 0 C20.64 0 23.28 0 26 0 C26 6.27 26 12.54 26 19 C23.69 19 21.38 19 19 19 C18.505 16.525 18.505 16.525 18 14 C17.608125 14.825 17.21625 15.65 16.8125 16.5 C16.214375 17.325 15.61625 18.15 15 19 C12.3125 19.3125 12.3125 19.3125 10 19 C8.68 16.36 7.36 13.72 6 11 C5.67 13.64 5.34 16.28 5 19 C3.35 19 1.7 19 0 19 C0 12.73 0 6.46 0 0 Z " fill="#C6A374" transform="translate(141,3)"/>
<path d="M0 0 C2.875 -0.125 2.875 -0.125 6 0 C6.66 0.66 7.32 1.32 8 2 C10.66949409 2.24315656 10.66949409 2.24315656 13.625 2.125 C14.62789062 2.10695313 15.63078125 2.08890625 16.6640625 2.0703125 C17.82035156 2.03550781 17.82035156 2.03550781 19 2 C19 2.66 19 3.32 19 4 C19.66 4 20.32 4 21 4 C21.66 2.68 22.32 1.36 23 0 C23.66 0 24.32 0 25 0 C25.33 0.66 25.66 1.32 26 2 C31.28 2 36.56 2 42 2 C42.495 5.465 42.495 5.465 43 9 C42 10 42 10 39.68334961 10.11352539 C38.68311768 10.10828857 37.68288574 10.10305176 36.65234375 10.09765625 C35.57275391 10.09443359 34.49316406 10.09121094 33.38085938 10.08789062 C32.24455078 10.07951172 31.10824219 10.07113281 29.9375 10.0625 C28.79732422 10.05798828 27.65714844 10.05347656 26.48242188 10.04882812 C23.65489649 10.03699747 20.8274736 10.0205141 18 10 C17.34 8.68 16.68 7.36 16 6 C15.67 7.32 15.34 8.64 15 10 C10.05 10 5.1 10 0 10 C-1.03903822 5.84384713 -1.06452668 3.99197507 0 0 Z M27 5 C27.33 5.99 27.66 6.98 28 8 C28.33 7.01 28.66 6.02 29 5 C28.34 5 27.68 5 27 5 Z M2 6 C2.66 6.66 3.32 7.32 4 8 C4 7.34 4 6.68 4 6 C3.34 6 2.68 6 2 6 Z " fill="#C9A672" transform="translate(103,24)"/>
<path d="M0 0 C2.31 0 4.62 0 7 0 C7 4.62 7 9.24 7 14 C9.31 14 11.62 14 14 14 C14 9.38 14 4.76 14 0 C15.98 0 17.96 0 20 0 C20.02683987 2.97922593 20.04676037 5.95821295 20.0625 8.9375 C20.07087891 9.78763672 20.07925781 10.63777344 20.08789062 11.51367188 C20.09272461 12.72700195 20.09272461 12.72700195 20.09765625 13.96484375 C20.10551147 15.08814087 20.10551147 15.08814087 20.11352539 16.23413086 C20 18 20 18 19 19 C17.66956375 19.0983721 16.33406656 19.13078592 15 19.1328125 C14.195625 19.13410156 13.39125 19.13539062 12.5625 19.13671875 C11.716875 19.13285156 10.87125 19.12898438 10 19.125 C9.154375 19.12886719 8.30875 19.13273437 7.4375 19.13671875 C6.633125 19.13542969 5.82875 19.13414063 5 19.1328125 C4.2575 19.13168457 3.515 19.13055664 2.75 19.12939453 C1 19 1 19 0 18 C-0.08631874 16.65732587 -0.10706473 15.31025678 -0.09765625 13.96484375 C-0.09443359 13.15595703 -0.09121094 12.34707031 -0.08789062 11.51367188 C-0.07951172 10.66353516 -0.07113281 9.81339844 -0.0625 8.9375 C-0.05798828 8.08349609 -0.05347656 7.22949219 -0.04882812 6.34960938 C-0.03700373 4.23304337 -0.01906769 2.11651315 0 0 Z " fill="#E5D396" transform="translate(120,3)"/>
<path d="M0 0 C6.6 0 13.2 0 20 0 C20 1.65 20 3.3 20 5 C18.02 5 16.04 5 14 5 C14 9.62 14 14.24 14 19 C11.69 19 9.38 19 7 19 C7 14.38 7 9.76 7 5 C5.02 5 3.04 5 1 5 C1 9.62 1 14.24 1 19 C0.67 19 0.34 19 0 19 C0 12.73 0 6.46 0 0 Z " fill="#C6A472" transform="translate(99,3)"/>
<path d="M0 0 C0.33 0 0.66 0 1 0 C1 6.6 1 13.2 1 20 C0.67 20 0.34 20 0 20 C-0.33 17.03 -0.66 14.06 -1 11 C-1.6496875 11.99 -1.6496875 11.99 -2.3125 13 C-2.869375 13.66 -3.42625 14.32 -4 15 C-4.99 15 -5.98 15 -7 15 C-7 16.32 -7 17.64 -7 19 C-7.99 19 -8.98 19 -10 19 C-10 18.01 -10 17.02 -10 16 C-10.99 15.67 -11.98 15.34 -13 15 C-15.1875 13.25 -15.1875 13.25 -17 11 C-17.25 8.25 -17.25 8.25 -17 6 C-15.35 6 -13.7 6 -12 6 C-12 5.01 -12 4.02 -12 3 C-11.34 3 -10.68 3 -10 3 C-10 2.34 -10 1.68 -10 1 C-9.01 1 -8.02 1 -7 1 C-7 1.66 -7 2.32 -7 3 C-6.34 3 -5.68 3 -5 3 C-5 3.99 -5 4.98 -5 6 C-3.68 6 -2.36 6 -1 6 C-0.67 4.02 -0.34 2.04 0 0 Z " fill="#DC2224" transform="translate(27,8)"/>
<path d="M0 0 C0.99 0 1.98 0 3 0 C3 0.66 3 1.32 3 2 C4.65 2 6.3 2 8 2 C8.33 1.34 8.66 0.68 9 0 C9.66 0 10.32 0 11 0 C11.66 0.66 12.32 1.32 13 2 C15.89883083 2.24339551 15.89883083 2.24339551 19.125 2.125 C20.76855469 2.09792969 20.76855469 2.09792969 22.4453125 2.0703125 C23.28835937 2.04710937 24.13140625 2.02390625 25 2 C24.67 4.64 24.34 7.28 24 10 C23.34 10 22.68 10 22 10 C21.67 8.68 21.34 7.36 21 6 C20.67 7.32 20.34 8.64 20 10 C15.71 10 11.42 10 7 10 C6.67 8.68 6.34 7.36 6 6 C5.67 7.32 5.34 8.64 5 10 C3.35 10 1.7 10 0 10 C0 6.7 0 3.4 0 0 Z M11 5 C12 7 12 7 12 7 Z " fill="#DFC589" transform="translate(40,24)"/>
<path d="M0 0 C1.98 0 3.96 0 6 0 C6 6.27 6 12.54 6 19 C3.69 19 1.38 19 -1 19 C-1.02705308 16.58325776 -1.04686438 14.1668206 -1.0625 11.75 C-1.07087891 11.06808594 -1.07925781 10.38617188 -1.08789062 9.68359375 C-1.10428392 6.30657446 -1.05628768 3.22708361 0 0 Z " fill="#98613E" transform="translate(161,3)"/>
<path d="M0 0 C1.48831242 0.00667405 2.97660807 0.01863442 4.46484375 0.03515625 C5.22345703 0.03966797 5.98207031 0.04417969 6.76367188 0.04882812 C8.64326246 0.06064945 10.52281274 0.07858547 12.40234375 0.09765625 C12.78297596 2.42374195 13.1150432 4.75820889 13.40234375 7.09765625 C12.40234375 8.09765625 12.40234375 8.09765625 8.5859375 8.1953125 C7.00387693 8.18863714 5.42183216 8.176675 3.83984375 8.16015625 C3.03353516 8.15564453 2.22722656 8.15113281 1.39648438 8.14648438 C-0.60159381 8.13466143 -2.59963408 8.11672539 -4.59765625 8.09765625 C-4.64007348 5.7647085 -4.63858562 3.43063058 -4.59765625 1.09765625 C-3.59765625 0.09765625 -3.59765625 0.09765625 0 0 Z M-2.59765625 3.09765625 C-2.26765625 4.08765625 -1.93765625 5.07765625 -1.59765625 6.09765625 C-1.26765625 5.10765625 -0.93765625 4.11765625 -0.59765625 3.09765625 C-1.25765625 3.09765625 -1.91765625 3.09765625 -2.59765625 3.09765625 Z " fill="#F8ECAB" transform="translate(132.59765625,25.90234375)"/>
<path d="M0 0 C2.64 0 5.28 0 8 0 C8 3.96 8 7.92 8 12 C7.34 11.67 6.68 11.34 6 11 C5.67 13.64 5.34 16.28 5 19 C3.35 19 1.7 19 0 19 C0 12.73 0 6.46 0 0 Z " fill="#E8D592" transform="translate(141,3)"/>
<path d="M0 0 C0.66 0 1.32 0 2 0 C2 2.64 2 5.28 2 8 C3.32 8 4.64 8 6 8 C5.690625 6.8553125 5.690625 6.8553125 5.375 5.6875 C5 3 5 3 7 0 C7.66 0 8.32 0 9 0 C9.66 0.66 10.32 1.32 11 2 C11.99 2 12.98 2 14 2 C14 1.34 14 0.68 14 0 C14.66 0 15.32 0 16 0 C16 2.31 16 4.62 16 7 C16.66 7 17.32 7 18 7 C18 7.99 18 8.98 18 10 C12.06 10 6.12 10 0 10 C0 6.7 0 3.4 0 0 Z M11 5 C11.33 5.99 11.66 6.98 12 8 C12.33 7.01 12.66 6.02 13 5 C12.34 5 11.68 5 11 5 Z " fill="#945C39" transform="translate(148,24)"/>
<path d="M0 0 C0.99 0 1.98 0 3 0 C3 3.3 3 6.6 3 10 C-0.63 10 -4.26 10 -8 10 C-8 8.35 -8 6.7 -8 5 C-8.66 5 -9.32 5 -10 5 C-10 6.65 -10 8.3 -10 10 C-10.66 10 -11.32 10 -12 10 C-12 7.36 -12 4.72 -12 2 C-8.04 2 -4.08 2 0 2 C0 1.34 0 0.68 0 0 Z " fill="#CFB27D" transform="translate(98,24)"/>
<path d="M0 0 C0.66 0 1.32 0 2 0 C1.75690081 7.40237027 1.31960155 12.86895264 -3 19 C-3.66 19 -4.32 19 -5 19 C-5 16.36 -5 13.72 -5 11 C-4.34 10.67 -3.68 10.34 -3 10 C-3.061875 9.278125 -3.12375 8.55625 -3.1875 7.8125 C-2.96253379 4.43800685 -2.00130237 2.69406089 0 0 Z " fill="#B68D5B" transform="translate(159,3)"/>
<path d="M0 0 C0.66 0 1.32 0 2 0 C2 2.64 2 5.28 2 8 C3.32 8 4.64 8 6 8 C5.690625 6.8553125 5.690625 6.8553125 5.375 5.6875 C5 3 5 3 7 0 C7.66 0 8.32 0 9 0 C9.02689216 1.47906892 9.04634621 2.95827483 9.0625 4.4375 C9.07410156 5.26121094 9.08570313 6.08492187 9.09765625 6.93359375 C9 9 9 9 8 10 C5.32941149 10.14115161 2.67567762 10.04247107 0 10 C0 6.7 0 3.4 0 0 Z " fill="#B69264" transform="translate(148,24)"/>
<path d="M0 0 C0.99 0 1.98 0 3 0 C3 6.27 3 12.54 3 19 C2.01 19 1.02 19 0 19 C0 12.73 0 6.46 0 0 Z " fill="#F2E4A0" transform="translate(141,3)"/>
<path d="M0 0 C0.99 0 1.98 0 3 0 C3 6.27 3 12.54 3 19 C2.01 19 1.02 19 0 19 C0 12.73 0 6.46 0 0 Z " fill="#8A4C2D" transform="translate(164,3)"/>
<path d="M0 0 C0.04254356 1.99954746 0.04080783 4.00041636 0 6 C-1 7 -1 7 -4.5625 7.0625 C-5.696875 7.041875 -6.83125 7.02125 -8 7 C-9.125 2.25 -9.125 2.25 -8 0 C-4.71023192 -1.09658936 -3.28696233 -0.79953138 0 0 Z M-4 2 C-3.67 2.99 -3.34 3.98 -3 5 C-2.67 4.01 -2.34 3.02 -2 2 C-2.66 2 -3.32 2 -4 2 Z " fill="#E9D79A" transform="translate(86,27)"/>
<path d="M0 0 C0.66 0 1.32 0 2 0 C2 3.3 2 6.6 2 10 C-0.31 10 -2.62 10 -5 10 C-5.33 8.68 -5.66 7.36 -6 6 C-5.34 6 -4.68 6 -4 6 C-4 5.34 -4 4.68 -4 4 C-3.34 4 -2.68 4 -2 4 C-1.34 2.68 -0.68 1.36 0 0 Z " fill="#E4C88D" transform="translate(126,24)"/>
<path d="M0 0 C0.99 0 1.98 0 3 0 C4.60355101 3.50776784 5.22036864 6.14354879 5 10 C3.35 10 1.7 10 0 10 C0 6.7 0 3.4 0 0 Z " fill="#C8A367" transform="translate(40,24)"/>
<path d="M0 0 C0.99 0 1.98 0 3 0 C3 0.99 3 1.98 3 3 C3.99 3.33 4.98 3.66 6 4 C5.34 5.32 4.68 6.64 4 8 C2.35 8 0.7 8 -1 8 C-1.04241723 5.66705225 -1.04092937 3.33297433 -1 1 C-0.67 0.67 -0.34 0.34 0 0 Z M1 3 C1.33 3.99 1.66 4.98 2 6 C2.33 5.01 2.66 4.02 3 3 C2.34 3 1.68 3 1 3 Z " fill="#EBD99C" transform="translate(129,26)"/>
<path d="M0 0 C0.99 0 1.98 0 3 0 C3 3.96 3 7.92 3 12 C0 9 0 9 -0.29296875 6.73828125 C-0.25816406 5.93777344 -0.22335938 5.13726562 -0.1875 4.3125 C-0.16042969 3.50425781 -0.13335937 2.69601563 -0.10546875 1.86328125 C-0.07066406 1.24839844 -0.03585938 0.63351563 0 0 Z " fill="#DCC389" transform="translate(146,3)"/>
<path d="M0 0 C0.66 0 1.32 0 2 0 C1.88617347 1.95901454 1.75858875 3.9172338 1.625 5.875 C1.55539063 6.96554688 1.48578125 8.05609375 1.4140625 9.1796875 C1 12 1 12 -1 14 C-2.58493084 10.83013832 -2.2940042 7.45967739 -2 4 C-1 1.5 -1 1.5 0 0 Z " fill="#A8774D" transform="translate(159,3)"/>
<path d="M0 0 C2.55337724 2.55337724 2.43261395 3.95274418 2.75 7.5 C2.84796875 8.4796875 2.9459375 9.459375 3.046875 10.46875 C3 13 3 13 1 15 C-1.80396138 10.05183286 -0.77350507 5.38317715 0 0 Z " fill="#D1B37D" transform="translate(149,5)"/>
<path d="M0 0 C0.99 0.33 1.98 0.66 3 1 C3.33 3.31 3.66 5.62 4 8 C2.35 8 0.7 8 -1 8 C-0.67 5.36 -0.34 2.72 0 0 Z " fill="#AA7B50" transform="translate(157,26)"/>
<path d="M0 0 C0.66 0 1.32 0 2 0 C2.33 3.3 2.66 6.6 3 10 C2.01 10 1.02 10 0 10 C0 6.7 0 3.4 0 0 Z " fill="#D5B881" transform="translate(148,24)"/>
<path d="M0 0 C0.99 0 1.98 0 3 0 C2.67 2.64 2.34 5.28 2 8 C1.34 8 0.68 8 0 8 C-0.38063221 5.6739143 -0.71269945 3.33944736 -1 1 C-0.67 0.67 -0.34 0.34 0 0 Z " fill="#E5D892" transform="translate(62,26)"/>
<path d="M0 0 C1.32 0.33 2.64 0.66 4 1 C4 1.66 4 2.32 4 3 C3.34 3 2.68 3 2 3 C2 4.65 2 6.3 2 8 C1.34 8 0.68 8 0 8 C0 5.36 0 2.72 0 0 Z " fill="#BCAA7A" transform="translate(86,26)"/>
<path d="M0 0 C0.66 0 1.32 0 2 0 C2 2.31 2 4.62 2 7 C1.01 7 0.02 7 -1 7 C-0.67 4.69 -0.34 2.38 0 0 Z " fill="#A09067" transform="translate(126,27)"/>
<path d="M0 0 C0.99 0.33 1.98 0.66 3 1 C3 2.65 3 4.3 3 6 C2.01 6 1.02 6 0 6 C0 4.02 0 2.04 0 0 Z " fill="#EDD699" transform="translate(143,27)"/>
</svg>
