<svg width="110" height="21" viewBox="0 0 110 21" fill="none" xmlns="http://www.w3.org/2000/svg">
<path d="M12.9 20.875L11.2 18.075C10.8167 18.1417 10.375 18.175 9.875 18.175C8.20833 18.175 6.675 17.7833 5.275 17C3.89167 16.2167 2.79167 15.1333 1.975 13.75C1.15833 12.3667 0.75 10.8083 0.75 9.075C0.75 7.34167 1.15833 5.78333 1.975 4.4C2.79167 3.01667 3.89167 1.94167 5.275 1.175C6.675 0.391666 8.20833 -7.15256e-07 9.875 -7.15256e-07C11.5417 -7.15256e-07 13.0667 0.391666 14.45 1.175C15.8333 1.94167 16.925 3.01667 17.725 4.4C18.5417 5.78333 18.95 7.34167 18.95 9.075C18.95 10.4917 18.675 11.8 18.125 13C17.575 14.1833 16.8167 15.1917 15.85 16.025L19.45 20.875H12.9ZM6.4 9.075C6.4 10.275 6.7 11.2333 7.3 11.95C7.9 12.65 8.75833 13 9.875 13C10.975 13 11.825 12.65 12.425 11.95C13.025 11.2333 13.325 10.275 13.325 9.075C13.325 7.85833 13.025 6.9 12.425 6.2C11.825 5.48333 10.975 5.125 9.875 5.125C8.75833 5.125 7.9 5.48333 7.3 6.2C6.7 6.9 6.4 7.85833 6.4 9.075Z" fill="#D99737"/>
<path d="M25.0421 3.84V11.82C25.0421 12.4733 25.1821 12.9933 25.4621 13.38C25.7555 13.7533 26.2221 13.94 26.8621 13.94C27.5021 13.94 27.9755 13.7533 28.2821 13.38C28.5888 12.9933 28.7421 12.4733 28.7421 11.82V3.84H33.1621V11.82C33.1621 13.1667 32.8821 14.32 32.3221 15.28C31.7621 16.2267 30.9955 16.94 30.0221 17.42C29.0488 17.9 27.9621 18.14 26.7621 18.14C25.5621 18.14 24.4955 17.9 23.5621 17.42C22.6421 16.94 21.9221 16.2267 21.4021 15.28C20.8821 14.3333 20.6221 13.18 20.6221 11.82V3.84H25.0421ZM44.1571 15.86H39.4371L38.7371 18H34.0771L39.2571 3.84H44.3771L49.5371 18H44.8571L44.1571 15.86ZM43.0771 12.52L41.7971 8.58L40.5171 12.52H43.0771ZM64.1259 18H59.6859L54.9859 10.88V18H50.5459V3.84H54.9859L59.6859 11.08V3.84H64.1259V18ZM77.2518 3.84V7.36H73.4918V18H69.0518V7.36H65.3318V3.84H77.2518ZM82.7961 3.84V11.82C82.7961 12.4733 82.9361 12.9933 83.2161 13.38C83.5094 13.7533 83.9761 13.94 84.6161 13.94C85.2561 13.94 85.7294 13.7533 86.0361 13.38C86.3427 12.9933 86.4961 12.4733 86.4961 11.82V3.84H90.9161V11.82C90.9161 13.1667 90.6361 14.32 90.0761 15.28C89.5161 16.2267 88.7494 16.94 87.7761 17.42C86.8027 17.9 85.7161 18.14 84.5161 18.14C83.3161 18.14 82.2494 17.9 81.3161 17.42C80.3961 16.94 79.6761 16.2267 79.1561 15.28C78.6361 14.3333 78.3761 13.18 78.3761 11.82V3.84H82.7961ZM109.851 3.84V18H105.431V10.94L103.251 18H99.4511L97.2711 10.94V18H92.8311V3.84H98.2711L101.391 12.34L104.431 3.84H109.851Z" fill="#00204E"/>
</svg>
