<svg width="50" height="20" viewBox="0 0 50 20" fill="none" xmlns="http://www.w3.org/2000/svg">
<g clip-path="url(#clip0_3363_3965)">
<path d="M4.1476 0.667969H0.594238V4.27284H4.1476V0.667969Z" fill="#00C7FD"/>
<path d="M4.05919 19.4491V6.4536H0.682861V19.4363H4.05919V19.4491ZM26.4163 19.5774V16.3959C25.9231 16.3959 25.5058 16.3702 25.2023 16.3189C24.8483 16.2676 24.5827 16.1393 24.4057 15.9597C24.2286 15.7801 24.1148 15.5235 24.0516 15.1771C24.001 14.8564 23.9757 14.4331 23.9757 13.9199V9.39138H26.4163V6.4536H23.9757V1.39908H20.5994V13.9584C20.5994 15.0232 20.6879 15.9212 20.865 16.6396C21.042 17.3452 21.3455 17.9225 21.7628 18.3587C22.1801 18.7948 22.7365 19.1027 23.4067 19.2952C24.0895 19.4876 24.9494 19.5774 25.9737 19.5774H26.4163ZM45.7385 19.4491V0.398438H42.3622V19.4491H45.7385ZM17.3495 7.73647C16.4138 6.71018 15.0986 6.19703 13.4294 6.19703C12.6201 6.19703 11.8741 6.3638 11.2165 6.69735C10.5463 7.03089 9.98989 7.49273 9.53466 8.08285L9.35762 8.3266V8.10851V6.4536H6.03187V19.4363H9.38291V12.5216V12.9963C9.38291 12.9193 9.38291 12.8423 9.38291 12.7653C9.42085 11.5466 9.71169 10.6486 10.2681 10.0713C10.8624 9.45553 11.5832 9.14764 12.4052 9.14764C13.3789 9.14764 14.1249 9.45553 14.6181 10.0456C15.0986 10.6358 15.3516 11.4696 15.3516 12.5344V12.5729V19.4363H18.7532V12.0726C18.7658 10.2252 18.2853 8.76277 17.3495 7.73647ZM40.6171 12.9321C40.6171 11.9956 40.4527 11.1233 40.1366 10.3022C39.8078 9.49401 39.3526 8.7756 38.7835 8.15982C38.2018 7.54404 37.5063 7.06938 36.697 6.723C35.8877 6.37663 34.9899 6.20986 34.0162 6.20986C33.0931 6.20986 32.2205 6.38946 31.4112 6.73583C30.6019 7.09504 29.8938 7.5697 29.2995 8.17265C28.7051 8.7756 28.2246 9.49401 27.8832 10.3151C27.5291 11.1361 27.3647 12.0213 27.3647 12.9578C27.3647 13.8943 27.5291 14.7795 27.8579 15.6005C28.1867 16.4215 28.6545 17.1399 29.2362 17.7429C29.8179 18.3458 30.5387 18.8333 31.3733 19.1797C32.2079 19.5389 33.131 19.7185 34.1174 19.7185C36.9752 19.7185 38.7456 18.3972 39.8078 17.1656L37.3799 15.2926C36.8741 15.9084 35.6601 16.7422 34.1426 16.7422C33.1942 16.7422 32.4102 16.5242 31.8159 16.0752C31.2216 15.639 30.8169 15.0232 30.6019 14.2663L30.564 14.1508H40.6171V12.9321ZM30.5893 11.739C30.5893 10.7897 31.6641 9.13481 33.9783 9.12198C36.2924 9.12198 37.3799 10.7769 37.3799 11.7262L30.5893 11.739ZM49.5827 17.807C49.5195 17.6531 49.431 17.5248 49.3172 17.4093C49.2033 17.2939 49.0769 17.2041 48.9251 17.1399C48.7734 17.0758 48.609 17.0373 48.4446 17.0373C48.2676 17.0373 48.1158 17.0758 47.9641 17.1399C47.8123 17.2041 47.6859 17.2939 47.5721 17.4093C47.4583 17.5248 47.3698 17.6531 47.3065 17.807C47.2433 17.961 47.2054 18.1278 47.2054 18.2945C47.2054 18.4741 47.2433 18.6281 47.3065 18.782C47.3698 18.936 47.4583 19.0642 47.5721 19.1797C47.6859 19.2952 47.8123 19.385 47.9641 19.4491C48.1158 19.5133 48.2802 19.5517 48.4446 19.5517C48.6217 19.5517 48.7734 19.5133 48.9251 19.4491C49.0769 19.385 49.2033 19.2952 49.3172 19.1797C49.431 19.0642 49.5195 18.936 49.5827 18.782C49.6459 18.6281 49.6839 18.4613 49.6839 18.2945C49.6839 18.1278 49.6459 17.961 49.5827 17.807ZM49.3804 18.705C49.3298 18.8333 49.2539 18.9488 49.1654 19.0386C49.0769 19.1284 48.9631 19.2054 48.8366 19.2567C48.7102 19.308 48.5837 19.3337 48.432 19.3337C48.2929 19.3337 48.1538 19.308 48.0273 19.2567C47.9009 19.2054 47.7871 19.1284 47.6985 19.0386C47.61 18.9488 47.5342 18.8333 47.4836 18.705C47.433 18.5768 47.4077 18.4485 47.4077 18.2945C47.4077 18.1534 47.433 18.0123 47.4836 17.884C47.5342 17.7557 47.61 17.6403 47.6985 17.5505C47.7871 17.4607 47.9009 17.3837 48.0273 17.3324C48.1538 17.2811 48.2802 17.2554 48.432 17.2554C48.5711 17.2554 48.7102 17.2811 48.8366 17.3324C48.9631 17.3837 49.0769 17.4607 49.1654 17.5505C49.2539 17.6403 49.3298 17.7557 49.3804 17.884C49.431 18.0123 49.4563 18.1406 49.4563 18.2945C49.4563 18.4485 49.431 18.5768 49.3804 18.705ZM48.6722 18.41C48.7734 18.3972 48.8493 18.3587 48.9125 18.2945C48.9757 18.2304 49.0137 18.1406 49.0137 18.0123C49.0137 17.8712 48.9757 17.7685 48.8872 17.6916C48.8113 17.6146 48.6722 17.5761 48.5078 17.5761H47.9515V19.0258H48.217V18.4356H48.4067L48.7608 19.0258H49.039L48.6722 18.41ZM48.5331 18.1919C48.4952 18.1919 48.4573 18.1919 48.4067 18.1919H48.217V17.7814H48.4067C48.4446 17.7814 48.4826 17.7814 48.5331 17.7814C48.5711 17.7814 48.609 17.7942 48.6469 17.807C48.6849 17.8199 48.7102 17.8455 48.7228 17.8712C48.7481 17.8968 48.7481 17.9353 48.7481 17.9866C48.7481 18.0379 48.7355 18.0764 48.7228 18.1021C48.6975 18.1278 48.6722 18.1534 48.6469 18.1662C48.609 18.1791 48.5711 18.1919 48.5331 18.1919Z" fill="white"/>
</g>
<defs>
<clipPath id="clip0_3363_3965">
<rect width="50" height="20" fill="white"/>
</clipPath>
</defs>
</svg>
