<svg width="63" height="35" viewBox="0 0 63 35" fill="none" xmlns="http://www.w3.org/2000/svg">
<path d="M62.999 15.6899V19.2783H51.0031V1.22444H55.2267V15.689H62.999V15.6899ZM7.5363 19.2774C11.8641 19.2774 15.4998 16.4076 16.5368 12.5234L27.0571 20.5009L37.5706 12.5262V19.2774H49.5666V15.689H41.7951V1.22444H37.5716V7.97376L27.4881 15.6218L25.2335 13.9112L30.0592 10.249L35.315 6.26217L32.3158 3.98408L22.2304 11.634L19.9767 9.92334L30.0601 2.27528L27.0571 0L16.5368 7.97843C15.5008 4.09421 11.8641 1.22444 7.5363 1.22444H0V19.2774H7.5363ZM4.22262 15.689V4.81282H7.5363C10.3386 4.81282 12.6096 7.24769 12.6096 10.2518C12.6096 13.256 10.3377 15.6909 7.5363 15.6909H4.22262V15.689ZM62.999 30.9235C62.999 29.8437 62.3807 29.3659 61.1458 29.1233C59.9109 28.8816 59.1692 28.763 59.1692 27.924C59.1692 27.3239 59.6634 26.9656 60.5284 26.9656C61.6409 26.9656 62.0098 27.4462 62.0098 28.0454L62.1322 28.1648H62.6272L62.7496 28.0454C62.7496 26.8461 61.7604 26.3655 60.5265 26.3655C59.1673 26.3655 58.4266 27.085 58.4266 27.9259C58.4266 28.8844 59.1673 29.365 60.4032 29.6039C61.639 29.8428 62.2574 29.9641 62.2574 30.9235C62.2574 31.5236 61.8884 32.0033 60.6517 32.0033C59.5391 32.0033 59.046 31.4032 59.046 30.6837L58.9236 30.5642H58.4295L58.3071 30.6837C58.3071 31.7635 59.1721 32.6034 60.6536 32.6034C62.2593 32.6034 63 31.8838 63 30.9235H62.999ZM57.6868 29.7262L57.8092 29.6067V29.2483C57.8092 27.5685 56.8219 26.3692 55.0919 26.3692C53.362 26.3692 52.3746 27.5685 52.3746 29.2483V29.4882C52.3746 31.1662 53.2396 32.6071 55.2162 32.6071C56.9442 32.6071 57.5626 31.5273 57.6868 30.8069L57.5645 30.6874H57.0694L56.9471 30.8069C56.7005 31.5264 56.2063 32.0061 55.219 32.0061C53.6114 32.0061 53.1192 30.567 53.1192 29.8475L53.2415 29.728H57.6878C57.6868 29.728 57.6868 29.7262 57.6868 29.7262ZM56.9461 29.1261H53.2415L53.1192 29.0066C53.1192 28.1676 53.6133 26.9684 55.0957 26.9684C56.5781 26.9684 57.0723 28.1676 57.0723 29.0066L56.9471 29.1261H56.9461ZM51.5106 32.3645V26.6072L51.3883 26.4877H50.8932L50.7708 26.6072V32.3645L50.8932 32.4839H51.3883L51.5106 32.3645ZM51.5106 25.4061V24.6866L51.3883 24.5671H50.8932L50.7708 24.6866V25.4061L50.8932 25.5256H51.3883L51.5106 25.4061ZM46.8158 32.0033C45.58 32.0033 44.8393 31.1643 44.8393 29.4844C44.8393 27.8046 45.58 26.9656 46.8158 26.9656C48.0517 26.9656 48.7924 27.8046 48.7924 29.4844C48.7924 31.1643 48.0517 32.0033 46.8158 32.0033ZM48.7924 31.6431C48.7924 33.2025 48.4206 34.4018 46.9391 34.4018C45.8266 34.4018 45.4577 33.9211 45.3334 33.322L45.2111 33.2025H44.716L44.5937 33.322C44.716 34.2805 45.4586 35 46.9401 35C48.5477 35 49.535 34.0415 49.535 31.6421V26.6044L49.4127 26.4849H49.0409L48.9185 26.6044L48.7962 27.3258H48.6739C48.4273 26.8452 47.8089 26.3646 46.6973 26.3646C44.9693 26.3646 44.1024 27.6842 44.1024 29.4835C44.1024 31.2828 44.9674 32.6025 46.6973 32.6025C47.8098 32.6025 48.4273 32.1237 48.6739 31.644H48.7962L48.7924 31.6431ZM40.7619 26.9656C41.9978 26.9656 42.8618 27.924 42.8618 29.4844C42.8618 31.0448 41.9968 32.0033 40.7619 32.0033C39.5271 32.0033 38.6621 31.0448 38.6621 29.4844C38.6621 27.924 39.5271 26.9656 40.7619 26.9656ZM40.7619 32.6034C42.3677 32.6034 43.6035 31.5236 43.6035 29.4844C43.6035 27.4453 42.3677 26.3655 40.7619 26.3655C39.1562 26.3655 37.9204 27.4453 37.9204 29.4844C37.9214 31.5236 39.1572 32.6034 40.7619 32.6034ZM37.0574 32.3645V24.2078L36.9331 24.0883H36.439L36.3166 24.2078V32.3645L36.439 32.4839H36.9331L37.0574 32.3645ZM32.6092 26.9656C33.845 26.9656 34.709 27.924 34.709 29.4844C34.709 31.0448 33.844 32.0033 32.6092 32.0033C31.3743 32.0033 30.5093 31.0448 30.5093 29.4844C30.5093 27.924 31.3743 26.9656 32.6092 26.9656ZM32.6092 32.6034C34.2149 32.6034 35.4507 31.5236 35.4507 29.4844C35.4507 27.4453 34.2149 26.3655 32.6092 26.3655C31.0035 26.3655 29.7677 27.4453 29.7677 29.4844C29.7677 31.5236 31.0044 32.6034 32.6092 32.6034ZM29.0269 32.3645V28.7658C29.0269 27.2082 28.162 26.3664 26.8038 26.3664C25.9388 26.3664 25.1962 26.7267 24.8272 27.3277H24.7049L24.5826 26.6063L24.4602 26.4868H24.0884L23.9661 26.6063V32.3635L24.0884 32.483H24.5835L24.7059 32.3635V29.1251C24.7059 27.8055 25.3243 26.9665 26.6824 26.9665C27.6697 26.9665 28.2881 27.5666 28.2881 28.7668V32.3654L28.4105 32.4849H28.9046L29.0269 32.3654V32.3645ZM22.7255 32.3645V28.7658C22.7255 27.2082 21.8605 26.3664 20.5024 26.3664C19.6374 26.3664 18.8967 26.7267 18.5258 27.3277H18.4035V24.2087L18.2811 24.0893H17.786L17.6637 24.2087V32.3654L17.786 32.4849H18.2811L18.4035 32.3654V29.127C18.4035 27.8074 19.0219 26.9684 20.38 26.9684C21.3673 26.9684 21.9857 27.5685 21.9857 28.7686V32.3682L22.1081 32.4877H22.6022L22.7245 32.3654L22.7255 32.3645ZM12.102 29.4844C12.102 27.8046 12.967 26.9656 14.2019 26.9656C15.4367 26.9656 15.9299 27.6851 16.0561 28.4047L16.1784 28.5241H16.6735L16.7959 28.4047C16.6735 27.2054 15.6833 26.3664 14.2009 26.3664C12.5952 26.3664 11.3594 27.3277 11.3594 29.4854C11.3594 31.644 12.5952 32.6043 14.2009 32.6043C15.6833 32.6043 16.6716 31.7653 16.7959 30.5661L16.6735 30.4466H16.1784L16.0561 30.5661C15.9337 31.2856 15.4377 32.0052 14.2019 32.0052C12.9661 32.0052 12.102 31.1662 12.102 29.4863V29.4844ZM10.7429 29.7252L10.8653 29.6058V29.2474C10.8653 27.5675 9.87604 26.3683 8.14799 26.3683C6.41995 26.3683 5.43072 27.5666 5.43072 29.2465V29.4863C5.43072 31.1643 6.2957 32.6053 8.27224 32.6053C10.0003 32.6053 10.6187 31.5255 10.7429 30.805L10.6206 30.6855H10.1274L10.0051 30.805C9.75848 31.5245 9.26434 32.0042 8.27702 32.0042C6.67132 32.0042 6.17718 30.5652 6.17718 29.8456L6.29952 29.7262H10.742V29.7243H10.7429V29.7252ZM10.0022 29.1251H6.29379L6.17145 29.0057C6.17145 28.1667 6.66558 26.9674 8.14799 26.9674C9.6304 26.9674 10.1245 28.1667 10.1245 29.0057L10.0022 29.1251ZM6.67228 24.5671V24.2069L6.54994 24.0874H0.122339L0 24.2087V24.569L0.122339 24.6884H2.83961L2.96195 24.8079V32.3645L3.08429 32.4839H3.57843L3.70077 32.3645V24.8079L3.8231 24.6884H6.54038L6.66558 24.569L6.67228 24.5671Z" fill="#0076CE"/>
</svg>
