<svg width="102" height="41" viewBox="0 0 102 41" fill="none" xmlns="http://www.w3.org/2000/svg">
<path d="M86.1721 24.1295H91.1894V14.9635C91.1894 12.8728 92.4116 11.3932 94.2126 11.3932C95.9493 11.3932 96.8498 12.6157 96.8498 14.3526V24.1297H101.867V13.3879C101.867 9.75309 99.6803 7.18009 96.1423 7.18009C93.8912 7.18009 92.315 8.14511 91.125 9.91396H91.0284V7.66268H86.172V24.1295H86.1721ZM76.3304 7.21223C71.0878 7.21223 67.5824 10.9752 67.5824 15.9282C67.5824 20.8493 71.088 24.6444 76.3304 24.6444C81.5728 24.6444 85.0784 20.8493 85.0784 15.9282C85.0784 10.9751 81.5728 7.21223 76.3304 7.21223ZM76.2983 20.9455C73.9179 20.9455 72.664 18.9517 72.664 15.9282C72.664 12.8728 73.9179 10.9108 76.2983 10.9108C78.6781 10.9108 79.9968 12.8726 79.9968 15.9282C79.9968 18.9517 78.6781 20.9455 76.2983 20.9455ZM53.3021 24.1295H67.3893V20.1738H59.4131V20.0769L67.0356 11.5218V7.66268H53.3021V11.6184H61.0211V11.7149L53.3021 20.3344V24.1295ZM46.869 24.1295H51.9184V7.66268H46.869V24.1295ZM35.1618 24.1295H40.1791V16.5717C40.1791 13.1301 42.2376 11.6184 45.3894 12.0367H45.486V7.69482C45.2285 7.59824 44.9393 7.5661 44.4569 7.5661C42.495 7.5661 41.1763 8.4665 40.0504 10.3962H39.9538V7.66268H35.1618V24.1295ZM25.9314 20.978C23.7121 20.978 22.3614 19.5302 22.104 17.3116H33.9718C34.004 13.7732 33.0711 10.9429 31.1092 9.17408C29.7266 7.88766 27.8929 7.17992 25.5774 7.17992C20.6247 7.17992 17.1831 10.9429 17.1831 15.8638C17.1831 20.8166 20.4637 24.6118 25.8991 24.6118C27.9576 24.6118 29.5977 24.0651 30.9485 23.1322C32.396 22.1357 33.425 20.6879 33.7142 19.2408H28.8901C28.4078 20.3344 27.4107 20.978 25.9314 20.978ZM25.674 10.7821C27.4428 10.7821 28.665 12.1011 28.858 14.0307H22.1361C22.5223 12.0685 23.5834 10.7821 25.674 10.7821ZM46.869 1.80859H51.9184V6.27934H46.869V1.80859Z" fill="#F50A23"/>
<path d="M11.3081 23.9241L5.06499 7.66211H0L6.24314 23.9241C6.29051 24.0481 6.40942 24.1293 6.5417 24.1293H11.6067C11.4744 24.1293 11.3555 24.0481 11.3081 23.9241Z" fill="url(#paint0_radial_3365_4169)"/>
<path d="M6.84006 23.9241L13.0832 7.66211H18.1482L11.905 23.9241C11.8577 24.0481 11.7388 24.1293 11.6065 24.1293H6.5415C6.67395 24.1293 6.79287 24.0481 6.84006 23.9241Z" fill="#F50A23"/>
<path d="M45.0554 38.8147C44.5207 38.5725 44.066 38.2389 43.6917 37.8147C43.3168 37.3905 43.0274 36.8943 42.8239 36.3266C42.6196 35.7593 42.5181 35.1503 42.5181 34.4998C42.5181 33.8609 42.6196 33.2575 42.8239 32.6895C43.0274 32.1221 43.3168 31.6262 43.6917 31.2019C44.0662 30.7777 44.5207 30.4441 45.0554 30.2016C45.5901 29.9593 46.188 29.8379 46.8493 29.8379C47.9183 29.8379 48.7861 30.1165 49.4531 30.6727C50.12 31.2295 50.5301 31.987 50.6847 32.9461H49.1472C49.0373 32.362 48.7893 31.9046 48.4033 31.5739C48.0176 31.2431 47.4995 31.078 46.8494 31.078C46.3975 31.078 45.9981 31.1664 45.6508 31.3425C45.3035 31.5188 45.0144 31.7615 44.783 32.07C44.5516 32.3786 44.3779 32.7424 44.2622 33.1613C44.1465 33.5803 44.0887 34.0263 44.0887 34.5001C44.0887 34.9854 44.1465 35.4342 44.2622 35.8474C44.3779 36.261 44.5516 36.6222 44.783 36.9302C45.0146 37.2391 45.3035 37.4818 45.6508 37.6577C45.9981 37.834 46.3975 37.9223 46.8494 37.9223C47.544 37.9223 48.092 37.7322 48.4946 37.3519C48.8967 36.9716 49.1252 36.4511 49.1807 35.7896H50.7016C50.6023 36.859 50.219 37.6907 49.5525 38.286C48.8855 38.8812 47.9845 39.1786 46.8494 39.1786C46.188 39.1784 45.5901 39.057 45.0554 38.8147Z" fill="#F50A23"/>
<path d="M53.983 38.8147C53.4483 38.5725 52.9936 38.2389 52.6192 37.8147C52.2444 37.3905 51.955 36.8943 51.7511 36.3266C51.5471 35.7593 51.4453 35.1503 51.4453 34.4998C51.4453 33.8609 51.5473 33.2575 51.7511 32.6895C51.9551 32.1221 52.2444 31.6262 52.6192 31.2019C52.9938 30.7777 53.4483 30.4441 53.983 30.2016C54.5173 29.9593 55.121 29.8379 55.7933 29.8379C56.4651 29.8379 57.0661 29.9593 57.5951 30.2016C58.124 30.4441 58.576 30.7777 58.9509 31.2019C59.3254 31.6262 59.6121 32.1223 59.8107 32.6895C60.0089 33.2575 60.108 33.8609 60.108 34.4998C60.108 35.1502 60.0087 35.7593 59.8107 36.3266C59.6121 36.8943 59.3254 37.3903 58.9509 37.8147C58.576 38.2389 58.124 38.5725 57.5951 38.8147C57.0661 39.057 56.4651 39.1784 55.7933 39.1784C55.1209 39.1784 54.5172 39.057 53.983 38.8147ZM56.9753 37.6576C57.3222 37.4816 57.6117 37.2391 57.8431 36.93C58.0746 36.6218 58.2482 36.2608 58.3639 35.8473C58.4796 35.434 58.5371 34.9853 58.5371 34.5C58.5371 34.0262 58.4796 33.5801 58.3639 33.1611C58.2482 32.7421 58.0745 32.3757 57.8431 32.0614C57.6115 31.7475 57.3222 31.5022 56.9753 31.3259C56.628 31.1497 56.2283 31.0614 55.7767 31.0614C55.3244 31.0614 54.925 31.1495 54.5781 31.3259C54.2308 31.5022 53.9414 31.7476 53.7099 32.0614C53.4784 32.3757 53.3052 32.7421 53.1895 33.1611C53.0738 33.5801 53.0159 34.0262 53.0159 34.5C53.0159 34.9853 53.0738 35.434 53.1895 35.8473C53.3052 36.2608 53.4785 36.622 53.7099 36.93C53.9415 37.2389 54.2308 37.4816 54.5781 37.6576C54.925 37.8338 55.3244 37.9221 55.7767 37.9221C56.2283 37.9219 56.628 37.8338 56.9753 37.6576Z" fill="#F50A23"/>
<path d="M62.9847 31.3094C63.304 30.8574 63.6895 30.4995 64.1418 30.2346C64.5933 29.97 65.1446 29.8379 65.795 29.8379C66.7314 29.8379 67.4647 30.0859 67.9937 30.5818C68.5226 31.0778 68.7872 31.7947 68.7872 32.7309V38.9304H67.2663V32.9129C67.2663 32.3399 67.0931 31.8987 66.7458 31.5902C66.3985 31.2816 65.9217 31.1272 65.3158 31.1272C64.9739 31.1272 64.6573 31.185 64.3651 31.3007C64.073 31.4164 63.822 31.5793 63.6131 31.7887C63.4033 31.998 63.2409 32.2514 63.1251 32.5493C63.0094 32.8466 62.9515 33.1721 62.9515 33.5244V38.9306H61.4141V30.0529H62.9349V31.3094H62.9847Z" fill="#F50A23"/>
<path d="M72.094 31.3094C72.4134 30.8574 72.7989 30.4995 73.2512 30.2346C73.7027 29.97 74.254 29.8379 74.9044 29.8379C75.8408 29.8379 76.5741 30.0859 77.103 30.5818C77.632 31.0778 77.8965 31.7947 77.8965 32.7309V38.9304H76.3757V32.9129C76.3757 32.3399 76.2025 31.8987 75.8552 31.5902C75.5079 31.2816 75.0311 31.1272 74.4252 31.1272C74.0833 31.1272 73.7666 31.185 73.4745 31.3007C73.1824 31.4164 72.9313 31.5793 72.7224 31.7887C72.5127 31.998 72.3503 32.2514 72.2344 32.5493C72.1187 32.8466 72.0609 33.1721 72.0609 33.5244V38.9306H70.5234V30.0529H72.0443V31.3094H72.094Z" fill="#F50A23"/>
<path d="M81.6578 38.8147C81.1231 38.5725 80.6685 38.2389 80.2936 37.8147C79.9191 37.3905 79.6351 36.8943 79.4423 36.3266C79.2494 35.7593 79.1528 35.1503 79.1528 34.4998C79.1528 33.8609 79.2548 33.2575 79.4587 32.6895C79.6627 32.1221 79.9489 31.6262 80.3185 31.2019C80.6876 30.7777 81.1341 30.4441 81.6577 30.2016C82.1809 29.9593 82.7624 29.8379 83.4016 29.8379C84.0629 29.8379 84.647 29.9593 85.1541 30.2016C85.6609 30.4441 86.0905 30.7804 86.4435 31.2101C86.8072 31.6512 87.0802 32.1802 87.2619 32.7972C87.4436 33.4143 87.5348 34.1031 87.5348 34.8636H80.7234C80.7564 35.2933 80.8391 35.6957 80.9714 36.0707C81.1037 36.4452 81.2854 36.7707 81.5169 37.0459C81.7485 37.3214 82.0295 37.5364 82.3602 37.6905C82.6905 37.845 83.0708 37.9221 83.5009 37.9221C84.118 37.9221 84.6275 37.7871 85.0299 37.5173C85.4323 37.247 85.7049 36.8752 85.8483 36.4011H87.3527C87.1545 37.2279 86.7164 37.8974 86.0384 38.4099C85.3608 38.9225 84.5094 39.1784 83.4845 39.1784C82.8008 39.1784 82.192 39.057 81.6578 38.8147ZM82.3439 31.2349C82.035 31.373 81.7705 31.5631 81.5501 31.8053C81.3297 32.0479 81.1534 32.3343 81.0211 32.6651C80.8889 32.9955 80.8007 33.3593 80.7566 33.756H85.8982C85.8537 32.8962 85.6196 32.227 85.1955 31.7475C84.7708 31.2679 84.1728 31.0284 83.4016 31.0284C83.0051 31.0282 82.6521 31.0972 82.3439 31.2349Z" fill="#F50A23"/>
<path d="M90.8991 38.8147C90.3645 38.5725 89.9098 38.2389 89.5354 37.8147C89.1606 37.3905 88.8712 36.8943 88.6672 36.3266C88.4632 35.7593 88.3613 35.1503 88.3613 34.4998C88.3613 33.8609 88.4633 33.2575 88.6672 32.6895C88.8712 32.1221 89.1604 31.6262 89.5354 31.2019C89.9099 30.7777 90.3645 30.4441 90.8991 30.2016C91.4335 29.9593 92.0315 29.8379 92.693 29.8379C93.7617 29.8379 94.6298 30.1165 95.2968 30.6727C95.9635 31.2295 96.3738 31.987 96.5284 32.9461H94.991C94.8805 32.362 94.6325 31.9046 94.247 31.5739C93.861 31.2431 93.3433 31.078 92.6932 31.078C92.2409 31.078 91.8415 31.1664 91.4946 31.3425C91.1473 31.5188 90.8579 31.7615 90.6263 32.07C90.3947 32.3786 90.2215 32.7424 90.1058 33.1613C89.9901 33.5803 89.9323 34.0263 89.9323 34.5001C89.9323 34.9854 89.9901 35.4342 90.1058 35.8474C90.2215 36.261 90.3949 36.6222 90.6263 36.9302C90.8579 37.2391 91.1473 37.4818 91.4946 37.6577C91.8415 37.834 92.2409 37.9223 92.6932 37.9223C93.3874 37.9223 93.9355 37.7322 94.3379 37.3519C94.74 36.9716 94.9688 36.4511 95.024 35.7896H96.5448C96.4455 36.859 96.0626 37.6907 95.3961 38.286C94.7288 38.8812 93.828 39.1786 92.693 39.1786C92.0313 39.1784 91.4335 39.057 90.8991 38.8147Z" fill="#F50A23"/>
<path d="M98.6112 30.0537V27.2598H100.132V30.0537H101.967V31.2439H100.132V36.8484C100.132 37.1681 100.212 37.3858 100.372 37.5012C100.532 37.6169 100.755 37.6748 101.042 37.6748C101.174 37.6748 101.314 37.6614 101.463 37.6333C101.612 37.6061 101.73 37.5812 101.819 37.5589H101.868V38.8487C101.449 38.9476 101.036 38.9974 100.628 38.9974C100.033 38.9862 99.548 38.846 99.1737 38.5757C98.7988 38.3059 98.6114 37.8454 98.6114 37.1954V31.2435H97.2227V30.0533H98.6112V30.0537Z" fill="#F50A23"/>
<defs>
<radialGradient id="paint0_radial_3365_4169" cx="0" cy="0" r="1" gradientUnits="userSpaceOnUse" gradientTransform="translate(10.5655 21.3014) rotate(-70.1479) scale(8.73742 9.45235)">
<stop stop-color="#F5FF1E"/>
<stop offset="0.257" stop-color="#F5FF1E"/>
<stop offset="0.2655" stop-color="#F5FA1E"/>
<stop offset="0.423" stop-color="#F5A620"/>
<stop offset="0.5621" stop-color="#F56321"/>
<stop offset="0.6779" stop-color="#F53322"/>
<stop offset="0.7657" stop-color="#F51523"/>
<stop offset="0.8155" stop-color="#F50A23"/>
</radialGradient>
</defs>
</svg>
