<svg width="60" height="60" viewBox="0 0 60 60" fill="none" xmlns="http://www.w3.org/2000/svg">
<ellipse cx="29.5704" cy="30" rx="29.5704" ry="30" fill="#D99737"/>
<path d="M13.35 30.75C13.35 27.31 14.01 24.6 15.33 22.62C16.67 20.64 18.82 19.65 21.78 19.65C24.74 19.65 26.88 20.64 28.2 22.62C29.54 24.6 30.21 27.31 30.21 30.75C30.21 34.23 29.54 36.96 28.2 38.94C26.88 40.92 24.74 41.91 21.78 41.91C18.82 41.91 16.67 40.92 15.33 38.94C14.01 36.96 13.35 34.23 13.35 30.75ZM25.17 30.75C25.17 28.73 24.95 27.18 24.51 26.1C24.07 25 23.16 24.45 21.78 24.45C20.4 24.45 19.49 25 19.05 26.1C18.61 27.18 18.39 28.73 18.39 30.75C18.39 32.11 18.47 33.24 18.63 34.14C18.79 35.02 19.11 35.74 19.59 36.3C20.09 36.84 20.82 37.11 21.78 37.11C22.74 37.11 23.46 36.84 23.94 36.3C24.44 35.74 24.77 35.02 24.93 34.14C25.09 33.24 25.17 32.11 25.17 30.75ZM32.3803 24.87V20.1H40.6903V42H35.3503V24.87H32.3803Z" fill="white"/>
</svg>
