<svg width="60" height="60" viewBox="0 0 60 60" fill="none" xmlns="http://www.w3.org/2000/svg">
<ellipse cx="29.5704" cy="30" rx="29.5704" ry="30" fill="#D99737"/>
<path d="M11.35 30.75C11.35 27.31 12.01 24.6 13.33 22.62C14.67 20.64 16.82 19.65 19.78 19.65C22.74 19.65 24.88 20.64 26.2 22.62C27.54 24.6 28.21 27.31 28.21 30.75C28.21 34.23 27.54 36.96 26.2 38.94C24.88 40.92 22.74 41.91 19.78 41.91C16.82 41.91 14.67 40.92 13.33 38.94C12.01 36.96 11.35 34.23 11.35 30.75ZM23.17 30.75C23.17 28.73 22.95 27.18 22.51 26.1C22.07 25 21.16 24.45 19.78 24.45C18.4 24.45 17.49 25 17.05 26.1C16.61 27.18 16.39 28.73 16.39 30.75C16.39 32.11 16.47 33.24 16.63 34.14C16.79 35.02 17.11 35.74 17.59 36.3C18.09 36.84 18.82 37.11 19.78 37.11C20.74 37.11 21.46 36.84 21.94 36.3C22.44 35.74 22.77 35.02 22.93 34.14C23.09 33.24 23.17 32.11 23.17 30.75ZM30.7403 37.89C31.4203 37.35 31.7303 37.1 31.6703 37.14C33.6303 35.52 35.1703 34.19 36.2903 33.15C37.4303 32.11 38.3903 31.02 39.1703 29.88C39.9503 28.74 40.3403 27.63 40.3403 26.55C40.3403 25.73 40.1503 25.09 39.7703 24.63C39.3903 24.17 38.8203 23.94 38.0603 23.94C37.3003 23.94 36.7003 24.23 36.2603 24.81C35.8403 25.37 35.6303 26.17 35.6303 27.21H30.6803C30.7203 25.51 31.0803 24.09 31.7603 22.95C32.4603 21.81 33.3703 20.97 34.4903 20.43C35.6303 19.89 36.8903 19.62 38.2703 19.62C40.6503 19.62 42.4403 20.23 43.6403 21.45C44.8603 22.67 45.4703 24.26 45.4703 26.22C45.4703 28.36 44.7403 30.35 43.2803 32.19C41.8203 34.01 39.9603 35.79 37.7003 37.53H45.8003V41.7H30.7403V37.89Z" fill="white"/>
</svg>
