<svg width="60" height="60" viewBox="0 0 60 60" fill="none" xmlns="http://www.w3.org/2000/svg">
<ellipse cx="29.5704" cy="30" rx="29.5704" ry="30" fill="#D99737"/>
<path d="M11.35 30.75C11.35 27.31 12.01 24.6 13.33 22.62C14.67 20.64 16.82 19.65 19.78 19.65C22.74 19.65 24.88 20.64 26.2 22.62C27.54 24.6 28.21 27.31 28.21 30.75C28.21 34.23 27.54 36.96 26.2 38.94C24.88 40.92 22.74 41.91 19.78 41.91C16.82 41.91 14.67 40.92 13.33 38.94C12.01 36.96 11.35 34.23 11.35 30.75ZM23.17 30.75C23.17 28.73 22.95 27.18 22.51 26.1C22.07 25 21.16 24.45 19.78 24.45C18.4 24.45 17.49 25 17.05 26.1C16.61 27.18 16.39 28.73 16.39 30.75C16.39 32.11 16.47 33.24 16.63 34.14C16.79 35.02 17.11 35.74 17.59 36.3C18.09 36.84 18.82 37.11 19.78 37.11C20.74 37.11 21.46 36.84 21.94 36.3C22.44 35.74 22.77 35.02 22.93 34.14C23.09 33.24 23.17 32.11 23.17 30.75ZM31.1003 26.28C31.1803 24.14 31.8803 22.49 33.2003 21.33C34.5203 20.17 36.3103 19.59 38.5703 19.59C40.0703 19.59 41.3503 19.85 42.4103 20.37C43.4903 20.89 44.3003 21.6 44.8403 22.5C45.4003 23.4 45.6803 24.41 45.6803 25.53C45.6803 26.85 45.3503 27.93 44.6903 28.77C44.0303 29.59 43.2603 30.15 42.3803 30.45V30.57C43.5203 30.95 44.4203 31.58 45.0803 32.46C45.7403 33.34 46.0703 34.47 46.0703 35.85C46.0703 37.09 45.7803 38.19 45.2003 39.15C44.6403 40.09 43.8103 40.83 42.7103 41.37C41.6303 41.91 40.3403 42.18 38.8403 42.18C36.4403 42.18 34.5203 41.59 33.0803 40.41C31.6603 39.23 30.9103 37.45 30.8303 35.07H35.8103C35.8303 35.95 36.0803 36.65 36.5603 37.17C37.0403 37.67 37.7403 37.92 38.6603 37.92C39.4403 37.92 40.0403 37.7 40.4603 37.26C40.9003 36.8 41.1203 36.2 41.1203 35.46C41.1203 34.5 40.8103 33.81 40.1903 33.39C39.5903 32.95 38.6203 32.73 37.2803 32.73H36.3203V28.56H37.2803C38.3003 28.56 39.1203 28.39 39.7403 28.05C40.3803 27.69 40.7003 27.06 40.7003 26.16C40.7003 25.44 40.5003 24.88 40.1003 24.48C39.7003 24.08 39.1503 23.88 38.4503 23.88C37.6903 23.88 37.1203 24.11 36.7403 24.57C36.3803 25.03 36.1703 25.6 36.1103 26.28H31.1003Z" fill="white"/>
</svg>
