<svg width="60" height="60" viewBox="0 0 60 60" fill="none" xmlns="http://www.w3.org/2000/svg">
<ellipse cx="29.5704" cy="30" rx="29.5704" ry="30" fill="#D99737"/>
<path d="M11.35 30.75C11.35 27.31 12.01 24.6 13.33 22.62C14.67 20.64 16.82 19.65 19.78 19.65C22.74 19.65 24.88 20.64 26.2 22.62C27.54 24.6 28.21 27.31 28.21 30.75C28.21 34.23 27.54 36.96 26.2 38.94C24.88 40.92 22.74 41.91 19.78 41.91C16.82 41.91 14.67 40.92 13.33 38.94C12.01 36.96 11.35 34.23 11.35 30.75ZM23.17 30.75C23.17 28.73 22.95 27.18 22.51 26.1C22.07 25 21.16 24.45 19.78 24.45C18.4 24.45 17.49 25 17.05 26.1C16.61 27.18 16.39 28.73 16.39 30.75C16.39 32.11 16.47 33.24 16.63 34.14C16.79 35.02 17.11 35.74 17.59 36.3C18.09 36.84 18.82 37.11 19.78 37.11C20.74 37.11 21.46 36.84 21.94 36.3C22.44 35.74 22.77 35.02 22.93 34.14C23.09 33.24 23.17 32.11 23.17 30.75ZM46.3403 24.57H36.9803V28.71C37.3803 28.27 37.9403 27.91 38.6603 27.63C39.3803 27.35 40.1603 27.21 41.0003 27.21C42.5003 27.21 43.7403 27.55 44.7203 28.23C45.7203 28.91 46.4503 29.79 46.9103 30.87C47.3703 31.95 47.6003 33.12 47.6003 34.38C47.6003 36.72 46.9403 38.58 45.6203 39.96C44.3003 41.32 42.4403 42 40.0403 42C38.4403 42 37.0503 41.73 35.8703 41.19C34.6903 40.63 33.7803 39.86 33.1403 38.88C32.5003 37.9 32.1503 36.77 32.0903 35.49H37.1003C37.2203 36.11 37.5103 36.63 37.9703 37.05C38.4303 37.45 39.0603 37.65 39.8603 37.65C40.8003 37.65 41.5003 37.35 41.9603 36.75C42.4203 36.15 42.6503 35.35 42.6503 34.35C42.6503 33.37 42.4103 32.62 41.9303 32.1C41.4503 31.58 40.7503 31.32 39.8303 31.32C39.1503 31.32 38.5903 31.49 38.1503 31.83C37.7103 32.15 37.4203 32.58 37.2803 33.12H32.3303V20.07H46.3403V24.57Z" fill="white"/>
</svg>
