<svg width="60" height="60" viewBox="0 0 60 60" fill="none" xmlns="http://www.w3.org/2000/svg">
<ellipse cx="29.5704" cy="30" rx="29.5704" ry="30" fill="#D99737"/>
<path d="M11.35 30.75C11.35 27.31 12.01 24.6 13.33 22.62C14.67 20.64 16.82 19.65 19.78 19.65C22.74 19.65 24.88 20.64 26.2 22.62C27.54 24.6 28.21 27.31 28.21 30.75C28.21 34.23 27.54 36.96 26.2 38.94C24.88 40.92 22.74 41.91 19.78 41.91C16.82 41.91 14.67 40.92 13.33 38.94C12.01 36.96 11.35 34.23 11.35 30.75ZM23.17 30.75C23.17 28.73 22.95 27.18 22.51 26.1C22.07 25 21.16 24.45 19.78 24.45C18.4 24.45 17.49 25 17.05 26.1C16.61 27.18 16.39 28.73 16.39 30.75C16.39 32.11 16.47 33.24 16.63 34.14C16.79 35.02 17.11 35.74 17.59 36.3C18.09 36.84 18.82 37.11 19.78 37.11C20.74 37.11 21.46 36.84 21.94 36.3C22.44 35.74 22.77 35.02 22.93 34.14C23.09 33.24 23.17 32.11 23.17 30.75ZM41.7503 26.01C41.5903 25.27 41.3103 24.72 40.9103 24.36C40.5103 23.98 39.9403 23.79 39.2003 23.79C38.0603 23.79 37.2403 24.29 36.7403 25.29C36.2403 26.27 35.9803 27.83 35.9603 29.97C36.4003 29.27 37.0303 28.72 37.8503 28.32C38.6903 27.92 39.6103 27.72 40.6103 27.72C42.5703 27.72 44.1403 28.34 45.3203 29.58C46.5203 30.82 47.1203 32.55 47.1203 34.77C47.1203 36.23 46.8203 37.51 46.2203 38.61C45.6403 39.71 44.7803 40.57 43.6403 41.19C42.5203 41.81 41.1903 42.12 39.6503 42.12C36.5703 42.12 34.4303 41.16 33.2303 39.24C32.0303 37.3 31.4303 34.52 31.4303 30.9C31.4303 27.1 32.0603 24.28 33.3203 22.44C34.6003 20.58 36.6403 19.65 39.4403 19.65C40.9403 19.65 42.2003 19.95 43.2203 20.55C44.2603 21.13 45.0403 21.9 45.5603 22.86C46.1003 23.82 46.4203 24.87 46.5203 26.01H41.7503ZM39.3803 31.77C38.5203 31.77 37.8003 32.03 37.2203 32.55C36.6603 33.05 36.3803 33.77 36.3803 34.71C36.3803 35.67 36.6403 36.42 37.1603 36.96C37.7003 37.5 38.4603 37.77 39.4403 37.77C40.3203 37.77 41.0103 37.51 41.5103 36.99C42.0303 36.45 42.2903 35.72 42.2903 34.8C42.2903 33.86 42.0403 33.12 41.5403 32.58C41.0403 32.04 40.3203 31.77 39.3803 31.77Z" fill="white"/>
</svg>
