<svg width="60" height="60" viewBox="0 0 60 60" fill="none" xmlns="http://www.w3.org/2000/svg">
<ellipse cx="29.5704" cy="30" rx="29.5704" ry="30" fill="#D99737"/>
<path d="M11.35 30.75C11.35 27.31 12.01 24.6 13.33 22.62C14.67 20.64 16.82 19.65 19.78 19.65C22.74 19.65 24.88 20.64 26.2 22.62C27.54 24.6 28.21 27.31 28.21 30.75C28.21 34.23 27.54 36.96 26.2 38.94C24.88 40.92 22.74 41.91 19.78 41.91C16.82 41.91 14.67 40.92 13.33 38.94C12.01 36.96 11.35 34.23 11.35 30.75ZM23.17 30.75C23.17 28.73 22.95 27.18 22.51 26.1C22.07 25 21.16 24.45 19.78 24.45C18.4 24.45 17.49 25 17.05 26.1C16.61 27.18 16.39 28.73 16.39 30.75C16.39 32.11 16.47 33.24 16.63 34.14C16.79 35.02 17.11 35.74 17.59 36.3C18.09 36.84 18.82 37.11 19.78 37.11C20.74 37.11 21.46 36.84 21.94 36.3C22.44 35.74 22.77 35.02 22.93 34.14C23.09 33.24 23.17 32.11 23.17 30.75ZM34.5203 30.24C32.6403 29.24 31.7003 27.67 31.7003 25.53C31.7003 24.45 31.9803 23.47 32.5403 22.59C33.1003 21.69 33.9503 20.98 35.0903 20.46C36.2303 19.92 37.6303 19.65 39.2903 19.65C40.9503 19.65 42.3403 19.92 43.4603 20.46C44.6003 20.98 45.4503 21.69 46.0103 22.59C46.5703 23.47 46.8503 24.45 46.8503 25.53C46.8503 26.61 46.5903 27.55 46.0703 28.35C45.5703 29.15 44.8903 29.78 44.0303 30.24C45.1103 30.76 45.9403 31.48 46.5203 32.4C47.1003 33.3 47.3903 34.36 47.3903 35.58C47.3903 37 47.0303 38.23 46.3103 39.27C45.5903 40.29 44.6103 41.07 43.3703 41.61C42.1503 42.15 40.7903 42.42 39.2903 42.42C37.7903 42.42 36.4203 42.15 35.1803 41.61C33.9603 41.07 32.9903 40.29 32.2703 39.27C31.5503 38.23 31.1903 37 31.1903 35.58C31.1903 34.34 31.4803 33.27 32.0603 32.37C32.6403 31.45 33.4603 30.74 34.5203 30.24ZM41.8703 26.31C41.8703 25.49 41.6303 24.86 41.1503 24.42C40.6903 23.96 40.0703 23.73 39.2903 23.73C38.5103 23.73 37.8803 23.96 37.4003 24.42C36.9403 24.88 36.7103 25.52 36.7103 26.34C36.7103 27.12 36.9503 27.74 37.4303 28.2C37.9103 28.64 38.5303 28.86 39.2903 28.86C40.0503 28.86 40.6703 28.63 41.1503 28.17C41.6303 27.71 41.8703 27.09 41.8703 26.31ZM39.2903 32.46C38.3503 32.46 37.5903 32.72 37.0103 33.24C36.4303 33.74 36.1403 34.44 36.1403 35.34C36.1403 36.18 36.4203 36.87 36.9803 37.41C37.5603 37.95 38.3303 38.22 39.2903 38.22C40.2503 38.22 41.0003 37.95 41.5403 37.41C42.1003 36.87 42.3803 36.18 42.3803 35.34C42.3803 34.46 42.0903 33.76 41.5103 33.24C40.9503 32.72 40.2103 32.46 39.2903 32.46Z" fill="white"/>
</svg>
