<svg width="60" height="60" viewBox="0 0 60 60" fill="none" xmlns="http://www.w3.org/2000/svg">
<ellipse cx="29.5704" cy="30" rx="29.5704" ry="30" fill="#D99737"/>
<path d="M11.35 30.75C11.35 27.31 12.01 24.6 13.33 22.62C14.67 20.64 16.82 19.65 19.78 19.65C22.74 19.65 24.88 20.64 26.2 22.62C27.54 24.6 28.21 27.31 28.21 30.75C28.21 34.23 27.54 36.96 26.2 38.94C24.88 40.92 22.74 41.91 19.78 41.91C16.82 41.91 14.67 40.92 13.33 38.94C12.01 36.96 11.35 34.23 11.35 30.75ZM23.17 30.75C23.17 28.73 22.95 27.18 22.51 26.1C22.07 25 21.16 24.45 19.78 24.45C18.4 24.45 17.49 25 17.05 26.1C16.61 27.18 16.39 28.73 16.39 30.75C16.39 32.11 16.47 33.24 16.63 34.14C16.79 35.02 17.11 35.74 17.59 36.3C18.09 36.84 18.82 37.11 19.78 37.11C20.74 37.11 21.46 36.84 21.94 36.3C22.44 35.74 22.77 35.02 22.93 34.14C23.09 33.24 23.17 32.11 23.17 30.75ZM36.4403 35.58C36.7403 37.16 37.6603 37.95 39.2003 37.95C40.2603 37.95 41.0103 37.48 41.4503 36.54C41.8903 35.6 42.1103 34.07 42.1103 31.95C41.6703 32.57 41.0703 33.05 40.3103 33.39C39.5503 33.73 38.7003 33.9 37.7603 33.9C36.4803 33.9 35.3403 33.64 34.3403 33.12C33.3403 32.58 32.5503 31.79 31.9703 30.75C31.4103 29.69 31.1303 28.41 31.1303 26.91C31.1303 25.43 31.4303 24.14 32.0303 23.04C32.6503 21.94 33.5203 21.09 34.6403 20.49C35.7803 19.89 37.1203 19.59 38.6603 19.59C41.6203 19.59 43.6903 20.51 44.8703 22.35C46.0503 24.19 46.6403 26.9 46.6403 30.48C46.6403 33.08 46.4003 35.23 45.9203 36.93C45.4603 38.61 44.6703 39.89 43.5503 40.77C42.4503 41.65 40.9403 42.09 39.0203 42.09C37.5003 42.09 36.2003 41.79 35.1203 41.19C34.0603 40.59 33.2403 39.8 32.6603 38.82C32.1003 37.84 31.7803 36.76 31.7003 35.58H36.4403ZM38.9303 29.85C39.7703 29.85 40.4403 29.6 40.9403 29.1C41.4403 28.58 41.6903 27.88 41.6903 27C41.6903 26.04 41.4303 25.3 40.9103 24.78C40.3903 24.26 39.6903 24 38.8103 24C37.9303 24 37.2303 24.27 36.7103 24.81C36.2103 25.33 35.9603 26.05 35.9603 26.97C35.9603 27.83 36.2103 28.53 36.7103 29.07C37.2303 29.59 37.9703 29.85 38.9303 29.85Z" fill="white"/>
</svg>
