<svg width="50" height="50" viewBox="0 0 50 50" fill="none" xmlns="http://www.w3.org/2000/svg">
<path d="M2.1875 43.75V37.9167C2.1875 36.7708 2.48264 35.6944 3.07292 34.6875C3.66319 33.6806 4.47917 32.9167 5.52083 32.3958C7.29167 31.4931 9.28819 30.7292 11.5104 30.1042C13.7326 29.4792 16.1806 29.1667 18.8542 29.1667C21.5278 29.1667 23.9757 29.4792 26.1979 30.1042C28.4201 30.7292 30.4167 31.4931 32.1875 32.3958C33.2292 32.9167 34.0451 33.6806 34.6354 34.6875C35.2257 35.6944 35.5208 36.7708 35.5208 37.9167V43.75H2.1875ZM18.8542 27.0833C16.5625 27.0833 14.6007 26.2674 12.9687 24.6354C11.3368 23.0035 10.5208 21.0417 10.5208 18.75H10C9.6875 18.75 9.43576 18.6545 9.24479 18.4635C9.05382 18.2726 8.95833 18.0208 8.95833 17.7083C8.95833 17.3958 9.05382 17.1441 9.24479 16.9531C9.43576 16.7622 9.6875 16.6667 10 16.6667H10.5208C10.5208 15.1042 10.9028 13.6979 11.6667 12.4479C12.4306 11.1979 13.4375 10.2083 14.6875 9.47917V11.4583C14.6875 11.7708 14.783 12.0226 14.974 12.2135C15.1649 12.4045 15.4167 12.5 15.7292 12.5C16.0417 12.5 16.2934 12.4045 16.4844 12.2135C16.6753 12.0226 16.7708 11.7708 16.7708 11.4583V8.64583C17.0833 8.54167 17.4132 8.46354 17.7604 8.41146C18.1076 8.35937 18.4722 8.33333 18.8542 8.33333C19.2361 8.33333 19.6007 8.35937 19.9479 8.41146C20.2951 8.46354 20.625 8.54167 20.9375 8.64583V11.4583C20.9375 11.7708 21.033 12.0226 21.224 12.2135C21.4149 12.4045 21.6667 12.5 21.9792 12.5C22.2917 12.5 22.5434 12.4045 22.7344 12.2135C22.9253 12.0226 23.0208 11.7708 23.0208 11.4583V9.47917C24.2708 10.2083 25.2778 11.1979 26.0417 12.4479C26.8056 13.6979 27.1875 15.1042 27.1875 16.6667H27.7083C28.0208 16.6667 28.2726 16.7622 28.4635 16.9531C28.6545 17.1441 28.75 17.3958 28.75 17.7083C28.75 18.0208 28.6545 18.2726 28.4635 18.4635C28.2726 18.6545 28.0208 18.75 27.7083 18.75H27.1875C27.1875 21.0417 26.3715 23.0035 24.7396 24.6354C23.1076 26.2674 21.1458 27.0833 18.8542 27.0833ZM18.8542 22.9167C20 22.9167 20.9809 22.5087 21.7969 21.6927C22.6128 20.8767 23.0208 19.8958 23.0208 18.75H14.6875C14.6875 19.8958 15.0955 20.8767 15.9115 21.6927C16.7274 22.5087 17.7083 22.9167 18.8542 22.9167ZM34.4792 31.25L34.1667 29.6875C33.9583 29.6181 33.7587 29.5399 33.5677 29.4531C33.3767 29.3663 33.1944 29.2361 33.0208 29.0625L31.5625 29.5833L30.5208 27.7083L31.6667 26.6667V25.4167L30.5208 24.375L31.5625 22.5L33.0208 23.0208C33.1597 22.8819 33.3333 22.7604 33.5417 22.6562C33.75 22.5521 33.9583 22.4653 34.1667 22.3958L34.4792 20.8333H36.5625L36.875 22.3958C37.0833 22.4653 37.2917 22.5521 37.5 22.6562C37.7083 22.7604 37.8819 22.8819 38.0208 23.0208L39.4792 22.5L40.5208 24.375L39.375 25.4167V26.6667L40.5208 27.7083L39.4792 29.5833L38.0208 29.0625C37.8472 29.2361 37.6649 29.3663 37.474 29.4531C37.283 29.5399 37.0833 29.6181 36.875 29.6875L36.5625 31.25H34.4792ZM35.5208 27.6042C35.9375 27.6042 36.3021 27.4479 36.6146 27.1354C36.9271 26.8229 37.0833 26.4583 37.0833 26.0417C37.0833 25.625 36.9271 25.2604 36.6146 24.9479C36.3021 24.6354 35.9375 24.4792 35.5208 24.4792C35.1042 24.4792 34.7396 24.6354 34.4271 24.9479C34.1146 25.2604 33.9583 25.625 33.9583 26.0417C33.9583 26.4583 34.1146 26.8229 34.4271 27.1354C34.7396 27.4479 35.1042 27.6042 35.5208 27.6042ZM39.2708 20.8333L38.8542 18.6458C38.5417 18.5417 38.2552 18.4115 37.9948 18.2552C37.7344 18.099 37.5 17.9167 37.2917 17.7083L35.1042 18.4375L33.6458 15.9375L35.4167 14.375C35.3472 14.2014 35.3125 14.0625 35.3125 13.9583V13.125C35.3125 13.0208 35.3472 12.8819 35.4167 12.7083L33.6458 11.1458L35.1042 8.64583L37.2917 9.375C37.5 9.16667 37.7344 8.98437 37.9948 8.82812C38.2552 8.67187 38.5417 8.54167 38.8542 8.4375L39.2708 6.25H42.1875L42.6042 8.4375C42.9167 8.54167 43.2031 8.67187 43.4635 8.82812C43.724 8.98437 43.9583 9.16667 44.1667 9.375L46.3542 8.64583L47.8125 11.1458L46.0417 12.7083C46.1111 12.8819 46.1458 13.0208 46.1458 13.125V13.9583C46.1458 14.0625 46.1111 14.2014 46.0417 14.375L47.8125 15.9375L46.3542 18.4375L44.1667 17.7083C43.9583 17.9167 43.724 18.099 43.4635 18.2552C43.2031 18.4115 42.9167 18.5417 42.6042 18.6458L42.1875 20.8333H39.2708ZM40.7292 16.1458C41.4583 16.1458 42.0747 15.8941 42.5781 15.3906C43.0816 14.8872 43.3333 14.2708 43.3333 13.5417C43.3333 12.8125 43.0816 12.1962 42.5781 11.6927C42.0747 11.1892 41.4583 10.9375 40.7292 10.9375C40 10.9375 39.3837 11.1892 38.8802 11.6927C38.3767 12.1962 38.125 12.8125 38.125 13.5417C38.125 14.2708 38.3767 14.8872 38.8802 15.3906C39.3837 15.8941 40 16.1458 40.7292 16.1458Z" fill="#727D71"/>
</svg>
