<svg width="50" height="50" viewBox="0 0 50 50" fill="none" xmlns="http://www.w3.org/2000/svg">
<path d="M8.28255 43.7502V37.5002H14.7409L9.42839 20.1044C8.49089 19.5835 7.71832 18.8197 7.11068 17.8127C6.50304 16.8058 6.19922 15.7294 6.19922 14.5835C6.19922 12.8474 6.80686 11.3717 8.02214 10.1565C9.23741 8.94118 10.7131 8.33354 12.4492 8.33354C13.8034 8.33354 15.01 8.72417 16.069 9.50542C17.128 10.2867 17.8659 11.2849 18.2826 12.5002H24.9492V10.4169C24.9492 9.8266 25.1489 9.33181 25.5482 8.9325C25.9475 8.5332 26.4423 8.33354 27.0326 8.33354C27.3451 8.33354 27.6489 8.40299 27.944 8.54188C28.2392 8.68077 28.4909 8.8891 28.6992 9.16688L32.2409 5.83354C32.5534 5.52104 32.9267 5.32139 33.3607 5.23459C33.7947 5.14778 34.2201 5.20854 34.6367 5.41688L42.7617 9.16688C43.1784 9.37521 43.4648 9.67903 43.6211 10.0783C43.7773 10.4776 43.7687 10.8683 43.5951 11.2502C43.3867 11.6669 43.0829 11.936 42.6836 12.0575C42.2843 12.179 41.8937 12.153 41.5117 11.9794L34.0117 8.54188L29.1159 13.1252V16.0419L34.0117 20.521L41.5117 17.0835C41.8937 16.9099 42.293 16.8926 42.7096 17.0315C43.1263 17.1703 43.4214 17.4308 43.5951 17.8127C43.8034 18.2294 43.8207 18.6287 43.6471 19.0106C43.4735 19.3926 43.1784 19.6877 42.7617 19.896L34.6367 23.7502C34.2201 23.9585 33.7947 24.0193 33.3607 23.9325C32.9267 23.8457 32.5534 23.646 32.2409 23.3335L28.6992 20.0002C28.4909 20.2085 28.2392 20.3995 27.944 20.5731C27.6489 20.7467 27.3451 20.8335 27.0326 20.8335C26.4423 20.8335 25.9475 20.6339 25.5482 20.2346C25.1489 19.8353 24.9492 19.3405 24.9492 18.7502V16.6669H18.2826C18.1784 16.9447 18.0655 17.2051 17.944 17.4481C17.8225 17.6912 17.6576 17.9516 17.4492 18.2294L27.8659 37.5002H35.3659V43.7502H8.28255ZM12.4492 16.6669C13.0395 16.6669 13.5343 16.4672 13.9336 16.0679C14.3329 15.6686 14.5326 15.1738 14.5326 14.5835C14.5326 13.9933 14.3329 13.4985 13.9336 13.0992C13.5343 12.6999 13.0395 12.5002 12.4492 12.5002C11.8589 12.5002 11.3641 12.6999 10.9648 13.0992C10.5655 13.4985 10.3659 13.9933 10.3659 14.5835C10.3659 15.1738 10.5655 15.6686 10.9648 16.0679C11.3641 16.4672 11.8589 16.6669 12.4492 16.6669Z" fill="#00A676"/>
</svg>
