<svg width="60" height="60" viewBox="0 0 60 60" fill="none" xmlns="http://www.w3.org/2000/svg">
<path d="M53.551 27.3049C53.9985 27.1075 54.3783 26.7831 54.6433 26.3719C54.9083 25.9608 55.0468 25.4809 55.0418 24.9918C55.0367 24.5026 54.8883 24.0257 54.6148 23.6201C54.3414 23.2145 53.955 22.8981 53.5035 22.7099L32.076 12.9499C31.4246 12.6528 30.7169 12.499 30.001 12.499C29.285 12.499 28.5774 12.6528 27.926 12.9499L6.50096 22.6999C6.05588 22.8948 5.67725 23.2153 5.41138 23.622C5.1455 24.0287 5.00391 24.504 5.00391 24.9899C5.00391 25.4758 5.1455 25.9512 5.41138 26.3579C5.67725 26.7646 6.05588 27.085 6.50096 27.2799L27.926 37.0499C28.5774 37.347 29.285 37.5008 30.001 37.5008C30.7169 37.5008 31.4246 37.347 32.076 37.0499L53.551 27.3049Z" stroke="#00204E" stroke-width="2" stroke-linecap="round" stroke-linejoin="round"/>
<path d="M55 25V40" stroke="#00204E" stroke-width="2" stroke-linecap="round" stroke-linejoin="round"/>
<path d="M15 31.25V40C15 41.9891 16.5804 43.8968 19.3934 45.3033C22.2064 46.7098 26.0218 47.5 30 47.5C33.9782 47.5 37.7936 46.7098 40.6066 45.3033C43.4196 43.8968 45 41.9891 45 40V31.25" stroke="#00204E" stroke-width="2" stroke-linecap="round" stroke-linejoin="round"/>
</svg>
