<svg width="60" height="60" viewBox="0 0 60 60" fill="none" xmlns="http://www.w3.org/2000/svg">
<path d="M30 50V55" stroke="#00204E" stroke-width="2" stroke-linecap="round" stroke-linejoin="round"/>
<path d="M30 5V10" stroke="#00204E" stroke-width="2" stroke-linecap="round" stroke-linejoin="round"/>
<path d="M42.5 50V55" stroke="#00204E" stroke-width="2" stroke-linecap="round" stroke-linejoin="round"/>
<path d="M42.5 5V10" stroke="#00204E" stroke-width="2" stroke-linecap="round" stroke-linejoin="round"/>
<path d="M5 30H10" stroke="#00204E" stroke-width="2" stroke-linecap="round" stroke-linejoin="round"/>
<path d="M5 42.5H10" stroke="#00204E" stroke-width="2" stroke-linecap="round" stroke-linejoin="round"/>
<path d="M5 17.5H10" stroke="#00204E" stroke-width="2" stroke-linecap="round" stroke-linejoin="round"/>
<path d="M50 30H55" stroke="#00204E" stroke-width="2" stroke-linecap="round" stroke-linejoin="round"/>
<path d="M50 42.5H55" stroke="#00204E" stroke-width="2" stroke-linecap="round" stroke-linejoin="round"/>
<path d="M50 17.5H55" stroke="#00204E" stroke-width="2" stroke-linecap="round" stroke-linejoin="round"/>
<path d="M17.5 50V55" stroke="#00204E" stroke-width="2" stroke-linecap="round" stroke-linejoin="round"/>
<path d="M17.5 5V10" stroke="#00204E" stroke-width="2" stroke-linecap="round" stroke-linejoin="round"/>
<path d="M45 10H15C12.2386 10 10 12.2386 10 15V45C10 47.7614 12.2386 50 15 50H45C47.7614 50 50 47.7614 50 45V15C50 12.2386 47.7614 10 45 10Z" stroke="#00204E" stroke-width="2" stroke-linecap="round" stroke-linejoin="round"/>
<path d="M37.5 20H22.5C21.1193 20 20 21.1193 20 22.5V37.5C20 38.8807 21.1193 40 22.5 40H37.5C38.8807 40 40 38.8807 40 37.5V22.5C40 21.1193 38.8807 20 37.5 20Z" stroke="#00204E" stroke-width="2" stroke-linecap="round" stroke-linejoin="round"/>
</svg>
