<svg width="60" height="60" viewBox="0 0 60 60" fill="none" xmlns="http://www.w3.org/2000/svg">
<path d="M50 5H10C7.23858 5 5 7.23858 5 10V20C5 22.7614 7.23858 25 10 25H50C52.7614 25 55 22.7614 55 20V10C55 7.23858 52.7614 5 50 5Z" stroke="#00204E" stroke-width="2" stroke-linecap="round" stroke-linejoin="round"/>
<path d="M50 35H10C7.23858 35 5 37.2386 5 40V50C5 52.7614 7.23858 55 10 55H50C52.7614 55 55 52.7614 55 50V40C55 37.2386 52.7614 35 50 35Z" stroke="#00204E" stroke-width="2" stroke-linecap="round" stroke-linejoin="round"/>
<path d="M15 15H15.025" stroke="#00204E" stroke-width="2" stroke-linecap="round" stroke-linejoin="round"/>
<path d="M15 45H15.025" stroke="#00204E" stroke-width="2" stroke-linecap="round" stroke-linejoin="round"/>
</svg>
