<svg width="60" height="60" viewBox="0 0 60 60" fill="none" xmlns="http://www.w3.org/2000/svg">
<path d="M5 55H55" stroke="#00204E" stroke-width="2" stroke-linecap="round" stroke-linejoin="round"/>
<path d="M15.9 43.4998L10 42.4998L5 32.4998L7.75 31.1248C8.44789 30.7732 9.21851 30.59 10 30.59C10.7815 30.59 11.5521 30.7732 12.25 31.1248L12.675 31.3748C13.3729 31.7265 14.1435 31.9097 14.925 31.9097C15.7065 31.9097 16.4771 31.7265 17.175 31.3748L20 29.9998L12.5 14.9998L14.75 13.8748C15.5817 13.4657 16.5107 13.2958 17.4334 13.3841C18.356 13.4724 19.236 13.8154 19.975 14.3748L30.025 21.8748C30.7666 22.4391 31.6511 22.7849 32.5787 22.8733C33.5064 22.9616 34.4402 22.789 35.275 22.3748L45.75 17.2248C47.0886 16.55 48.6307 16.3985 50.075 16.7998L52.5 17.4998C53.001 17.639 53.4648 17.888 53.8575 18.2288C54.2502 18.5697 54.5621 18.9937 54.7704 19.4702C54.9787 19.9466 55.0782 20.4635 55.0617 20.9833C55.0452 21.503 54.9131 22.0125 54.675 22.4748L53.725 24.3748C53.15 25.5248 52.225 26.4748 51.05 27.0748L18.95 42.9998C18.0061 43.4673 16.9387 43.6248 15.9 43.4498V43.4998Z" stroke="#00204E" stroke-width="2" stroke-linecap="round" stroke-linejoin="round"/>
</svg>
