<svg width="60" height="60" viewBox="0 0 60 60" fill="none" xmlns="http://www.w3.org/2000/svg">
<path d="M44.5 48L40 27.5L48.75 18.75C52.5 15 53.75 10 52.5 7.5C50 6.25 45 7.5 41.25 11.25L32.5 20L12 15.5C10.75 15.25 9.75 15.75 9.25 16.75L8.5 18C8 19.25 8.25 20.5 9.25 21.25L22.5 30L17.5 37.5H10L7.5 40L15 45L20 52.5L22.5 50V42.5L30 37.5L38.75 50.75C39.5 51.75 40.75 52 42 51.5L43.25 51C44.25 50.25 44.75 49.25 44.5 48Z" stroke="#00204E" stroke-width="2" stroke-linecap="round" stroke-linejoin="round"/>
</svg>
