<svg width="50" height="50" viewBox="0 0 50 50" fill="none" xmlns="http://www.w3.org/2000/svg">
<path d="M20.6771 44.0101L15.5208 34.4268L5.9375 29.2705L9.63542 25.6247L17.1875 26.9268L22.5 21.6143L5.98958 14.583L10.3646 10.1038L30.4167 13.6455L36.875 7.18717C37.6736 6.38856 38.6632 5.98926 39.8437 5.98926C41.0243 5.98926 42.0139 6.38856 42.8125 7.18717C43.6111 7.98579 44.0104 8.96669 44.0104 10.1299C44.0104 11.2931 43.6111 12.274 42.8125 13.0726L36.3021 19.583L39.8437 39.583L35.4167 44.0101L28.3333 27.4997L23.0208 32.8122L24.375 40.3122L20.6771 44.0101Z" fill="#247BA0"/>
</svg>
