<svg width="60" height="60" viewBox="0 0 60 60" fill="none" xmlns="http://www.w3.org/2000/svg">
<g clip-path="url(#clip0_2859_3830)">
<path d="M6.92424 38H52.0758C52.5203 38 52.9589 37.9003 53.3584 37.7087C53.7579 37.517 54.1076 37.2383 54.3811 36.8937C54.6546 36.5492 54.8446 36.1479 54.9366 35.7204C55.0287 35.2928 55.0204 34.8503 54.9124 34.4264L50.5259 17.1764C50.3675 16.5547 50.0023 16.0028 49.4883 15.6085C48.9744 15.2142 48.3412 15 47.6893 15H11.3107C10.6588 15 10.0256 15.2142 9.51166 15.6085C8.99773 16.0028 8.63255 16.5547 8.47413 17.1764L4.08765 34.4264C3.97964 34.8503 3.97134 35.2928 4.06339 35.7204C4.15545 36.1479 4.34543 36.5492 4.6189 36.8937C4.89237 37.2383 5.24213 37.517 5.6416 37.7087C6.04107 37.9003 6.47973 38 6.92424 38Z" stroke="#00204E" stroke-width="1.25" stroke-linecap="round" stroke-linejoin="round"/>
<path d="M6.80078 27H52.8008" stroke="#00204E" stroke-width="1.25" stroke-linecap="round" stroke-linejoin="round"/>
<path d="M23.8008 15L20.8008 38" stroke="#00204E" stroke-width="1.25" stroke-linecap="round" stroke-linejoin="round"/>
<path d="M35.8008 15L38.8008 38" stroke="#00204E" stroke-width="1.25" stroke-linecap="round" stroke-linejoin="round"/>
<path d="M30 38V50" stroke="#00204E" stroke-width="1.25" stroke-linecap="round" stroke-linejoin="round"/>
<path d="M17.1992 50H46.1992" stroke="#00204E" stroke-width="1.25" stroke-linecap="round" stroke-linejoin="round"/>
</g>
<defs>
<clipPath id="clip0_2859_3830">
<rect width="60" height="60" fill="white"/>
</clipPath>
</defs>
</svg>
