<svg width="50" height="50" viewBox="0 0 50 50" fill="none" xmlns="http://www.w3.org/2000/svg">
<path d="M6.2513 8.33366V4.16699H12.5013V8.33366H6.2513ZM4.16797 45.8337H22.918V37.5003H5.83464L4.16797 45.8337ZM12.7617 19.4274L9.79297 16.5107L14.2201 12.0837L17.1888 15.0003L12.7617 19.4274ZM6.66797 33.3337H22.918V25.0003H8.33464L6.66797 33.3337ZM25.0013 14.5837C22.1194 14.5837 19.6628 13.568 17.6315 11.5368C15.6003 9.50553 14.5846 7.04894 14.5846 4.16699H35.418C35.418 7.04894 34.4023 9.50553 32.3711 11.5368C30.3398 13.568 27.8832 14.5837 25.0013 14.5837ZM22.918 22.917V16.667H27.0846V22.917H22.918ZM27.0846 45.8337H45.8346L44.168 37.5003H27.0846V45.8337ZM27.0846 33.3337H43.3346L41.668 25.0003H27.0846V33.3337ZM37.2409 19.4274L32.8659 15.0003L35.7826 12.0837L40.2096 16.4587L37.2409 19.4274ZM37.5013 8.33366V4.16699H43.7513V8.33366H37.5013Z" fill="#D66853"/>
</svg>
