<svg width="50" height="50" viewBox="0 0 50 50" fill="none" xmlns="http://www.w3.org/2000/svg">
<path d="M25 45.8337C22.8819 45.8337 20.7118 45.4517 18.4896 44.6878C16.2674 43.9239 14.2535 42.8823 12.4479 41.5628C10.6424 40.2434 9.15799 38.6982 7.99479 36.9274C6.8316 35.1566 6.25 33.2642 6.25 31.2503V25.0003L14.5833 31.2503L11.3542 34.4795C12.3611 36.2503 13.9583 37.7781 16.1458 39.0628C18.3333 40.3475 20.5903 41.1635 22.9167 41.5107V22.917H16.6667V18.7503H22.9167V16.3024C21.7014 15.851 20.7031 15.0958 19.9219 14.0368C19.1406 12.9778 18.75 11.7712 18.75 10.417C18.75 8.68088 19.3576 7.20519 20.5729 5.98991C21.7882 4.77463 23.2639 4.16699 25 4.16699C26.7361 4.16699 28.2118 4.77463 29.4271 5.98991C30.6424 7.20519 31.25 8.68088 31.25 10.417C31.25 11.7712 30.8594 12.9778 30.0781 14.0368C29.2969 15.0958 28.2986 15.851 27.0833 16.3024V18.7503H33.3333V22.917H27.0833V41.5107C29.4097 41.1635 31.6667 40.3475 33.8542 39.0628C36.0417 37.7781 37.6389 36.2503 38.6458 34.4795L35.4167 31.2503L43.75 25.0003V31.2503C43.75 33.2642 43.1684 35.1566 42.0052 36.9274C40.842 38.6982 39.3576 40.2434 37.5521 41.5628C35.7465 42.8823 33.7326 43.9239 31.5104 44.6878C29.2882 45.4517 27.1181 45.8337 25 45.8337ZM25 12.5003C25.5903 12.5003 26.0851 12.3007 26.4844 11.9014C26.8837 11.5021 27.0833 11.0073 27.0833 10.417C27.0833 9.82671 26.8837 9.33192 26.4844 8.93262C26.0851 8.53331 25.5903 8.33366 25 8.33366C24.4097 8.33366 23.9149 8.53331 23.5156 8.93262C23.1163 9.33192 22.9167 9.82671 22.9167 10.417C22.9167 11.0073 23.1163 11.5021 23.5156 11.9014C23.9149 12.3007 24.4097 12.5003 25 12.5003Z" fill="#247BA0"/>
</svg>
