<svg width="60" height="60" viewBox="0 0 60 60" fill="none" xmlns="http://www.w3.org/2000/svg">
<g clip-path="url(#clip0_2859_3852)">
<path d="M48.7516 33.9298L30.0016 52.4998L22.7616 45.3298M7.46914 25.0698C7.44825 22.4332 8.26162 19.8575 9.79294 17.711C11.3243 15.5646 13.4951 13.9574 15.995 13.1191C18.4949 12.2809 21.1958 12.2547 23.7116 13.0442C26.2273 13.8337 28.4289 15.3985 30.0016 17.5148C31.0355 16.1398 32.342 14.9931 33.8394 14.1463C35.3368 13.2995 36.9929 12.7709 38.704 12.5936C40.4151 12.4162 42.1443 12.594 43.7836 13.1157C45.4228 13.6375 46.9367 14.4919 48.2305 15.6257C49.5243 16.7594 50.5702 18.148 51.3027 19.7045C52.0352 21.261 52.4385 22.952 52.4874 24.6715C52.5363 26.3911 52.2298 28.1022 51.587 29.6979C50.9442 31.2935 49.9789 32.7393 48.7516 33.9448" stroke="#00204E" stroke-width="1.25" stroke-linecap="round" stroke-linejoin="round"/>
<path d="M7.5 32.5H12.5L17.5 40L22.5 25L25 32.5H32.5" stroke="#00204E" stroke-width="1.25" stroke-linecap="round" stroke-linejoin="round"/>
</g>
<defs>
<clipPath id="clip0_2859_3852">
<rect width="60" height="60" fill="white"/>
</clipPath>
</defs>
</svg>
