<svg width="50" height="50" viewBox="0 0 50 50" fill="none" xmlns="http://www.w3.org/2000/svg">
<path d="M10.2617 39.7399C8.38672 37.8302 6.90234 35.6166 5.80859 33.0993C4.71484 30.5819 4.16797 27.8823 4.16797 25.0003C4.16797 22.0837 4.71484 19.3666 5.80859 16.8493C6.90234 14.3319 8.38672 12.1357 10.2617 10.2607L13.2305 13.2295C11.7027 14.7573 10.5048 16.5281 9.63672 18.542C8.76866 20.5559 8.33464 22.7087 8.33464 25.0003C8.33464 27.3267 8.76866 29.4969 9.63672 31.5107C10.5048 33.5246 11.7027 35.2781 13.2305 36.7712L10.2617 39.7399ZM16.1471 33.8545C15.036 32.7087 14.1506 31.3805 13.4909 29.8701C12.8312 28.3597 12.5013 26.7364 12.5013 25.0003C12.5013 23.2295 12.8312 21.5889 13.4909 20.0785C14.1506 18.568 15.036 17.2573 16.1471 16.1462L19.1159 19.1149C18.352 19.8788 17.753 20.7642 17.319 21.7712C16.885 22.7781 16.668 23.8545 16.668 25.0003C16.668 26.1462 16.885 27.2225 17.319 28.2295C17.753 29.2364 18.352 30.1219 19.1159 30.8857L16.1471 33.8545ZM25.0013 29.167C23.8555 29.167 22.8746 28.759 22.0586 27.943C21.2426 27.1271 20.8346 26.1462 20.8346 25.0003C20.8346 23.8545 21.2426 22.8736 22.0586 22.0576C22.8746 21.2416 23.8555 20.8337 25.0013 20.8337C26.1471 20.8337 27.128 21.2416 27.944 22.0576C28.76 22.8736 29.168 23.8545 29.168 25.0003C29.168 26.1462 28.76 27.1271 27.944 27.943C27.128 28.759 26.1471 29.167 25.0013 29.167ZM33.8555 33.8545L30.8867 30.8857C31.6506 30.1219 32.2496 29.2364 32.6836 28.2295C33.1176 27.2225 33.3346 26.1462 33.3346 25.0003C33.3346 23.8545 33.1176 22.7781 32.6836 21.7712C32.2496 20.7642 31.6506 19.8788 30.8867 19.1149L33.8555 16.1462C34.9666 17.2573 35.852 18.568 36.5117 20.0785C37.1714 21.5889 37.5013 23.2295 37.5013 25.0003C37.5013 26.7364 37.1714 28.3597 36.5117 29.8701C35.852 31.3805 34.9666 32.7087 33.8555 33.8545ZM39.7409 39.7399L36.7721 36.7712C38.2999 35.2434 39.4978 33.4725 40.3659 31.4587C41.2339 29.4448 41.668 27.292 41.668 25.0003C41.668 22.6739 41.2339 20.5038 40.3659 18.4899C39.4978 16.476 38.2999 14.7225 36.7721 13.2295L39.7409 10.2607C41.6159 12.1357 43.1003 14.3319 44.194 16.8493C45.2878 19.3666 45.8346 22.0837 45.8346 25.0003C45.8346 27.8823 45.2878 30.5819 44.194 33.0993C43.1003 35.6166 41.6159 37.8302 39.7409 39.7399Z" fill="#247BA0"/>
</svg>
