<svg width="126" height="37" viewBox="0 0 126 37" fill="none" xmlns="http://www.w3.org/2000/svg">
<g clip-path="url(#clip0_3350_4123)">
<path fill-rule="evenodd" clip-rule="evenodd" d="M76.7868 0.622197V4.8324C76.7868 5.1435 76.5142 5.41312 76.1577 5.41312H69.5526C69.1962 5.41312 68.9236 5.68274 68.9236 5.99383V22.9798C68.9236 23.2909 68.651 23.5605 68.2945 23.5605H63.8073C63.4508 23.5605 63.1782 23.2909 63.1782 22.9798V5.97309C63.1782 5.662 62.9056 5.39238 62.5491 5.39238H55.986C55.6295 5.39238 55.3569 5.12276 55.3569 4.81166V0.580718C55.3569 0.269619 55.6295 0 55.986 0H76.1158C76.5142 0.0207399 76.7868 0.269619 76.7868 0.622197Z" fill="#E1251B"/>
<path fill-rule="evenodd" clip-rule="evenodd" d="M112.245 18.147V0.621733C112.245 0.310634 111.972 0.0410156 111.616 0.0410156H107.107C106.751 0.0410156 106.478 0.310634 106.478 0.621733V20.1173C106.478 22.0253 108.114 23.5808 110.169 23.5808H125.35C125.706 23.5808 125.979 23.3112 125.979 23.0001V18.7484C125.979 18.4373 125.706 18.1677 125.35 18.1677H112.224V18.147H112.245Z" fill="#E1251B"/>
<path fill-rule="evenodd" clip-rule="evenodd" d="M102.285 4.83193V0.621733C102.285 0.310634 102.012 0.0410156 101.656 0.0410156H84.1049C82.0919 0.0410156 80.4144 1.59651 80.4144 3.50458V20.1173C80.4144 22.0253 82.05 23.5808 84.1049 23.5808H101.656C102.012 23.5808 102.285 23.3112 102.285 23.0001V18.7277C102.285 18.4166 102.012 18.147 101.656 18.147H86.8098C86.4534 18.147 86.1808 17.8773 86.1808 17.5662V15.036C86.1808 14.7249 86.4534 14.4553 86.8098 14.4553H99.7894C100.146 14.4553 100.418 14.1856 100.418 13.8745V9.64359C100.418 9.3325 100.146 9.06288 99.7894 9.06288H86.8098C86.4534 9.06288 86.1808 8.79326 86.1808 8.48216V5.95189C86.1808 5.64079 86.4534 5.37117 86.8098 5.37117H101.656C102.012 5.39191 102.285 5.16377 102.285 4.83193Z" fill="#E1251B"/>
<path fill-rule="evenodd" clip-rule="evenodd" d="M39.9451 23.5191C46.4034 23.3739 51.4568 18.2304 51.4568 12.1328V0.580718C51.4568 0.269619 51.1842 0 50.8277 0H46.3195C45.963 0 45.6904 0.269619 45.6904 0.580718V12.2158C45.6904 15.3268 43.1533 18.0022 39.8612 18.1474C36.3385 18.2926 33.4238 15.6794 33.4238 12.3817V0.580718C33.4238 0.269619 33.1513 0 32.7948 0H28.3075C27.9511 0 27.6785 0.269619 27.6785 0.580718V12.3402C27.7414 18.6452 33.2142 23.7057 39.9451 23.5191Z" fill="#E1251B"/>
<path fill-rule="evenodd" clip-rule="evenodd" d="M11.5117 0.0206083C5.05342 0.165788 0 5.33003 0 11.4068V22.9589C0 23.27 0.272591 23.5397 0.629056 23.5397H5.13729C5.49376 23.5397 5.76635 23.27 5.76635 22.9589V11.3446C5.74538 8.23361 8.30354 5.55816 11.5746 5.41299C15.0764 5.26781 17.991 7.90177 17.991 11.1994V22.9589C17.991 23.27 18.2636 23.5397 18.6201 23.5397H23.1283C23.4848 23.5397 23.7574 23.27 23.7574 22.9589V11.1994C23.7154 4.91523 18.2217 -0.166051 11.5117 0.0206083Z" fill="#E1251B"/>
<path fill-rule="evenodd" clip-rule="evenodd" d="M11.8681 11.7598C13.4407 11.7598 14.7198 12.9627 14.7198 14.456C14.7198 15.97 13.4407 17.1521 11.8681 17.1521C10.2955 17.1521 9.01638 15.9285 9.01638 14.456C8.97445 12.9834 10.2535 11.7598 11.8681 11.7598Z" fill="#E1251B"/>
<path fill-rule="evenodd" clip-rule="evenodd" d="M32.5641 34.1163C33.6335 33.743 34.2626 32.9342 34.2626 31.8142C34.2626 30.2795 32.9625 29.3047 31.1383 29.3047H27.8462V36.8748H29.2511V34.4067H31.0124L32.9835 36.8748H34.7029L32.5641 34.1163ZM29.2721 33.1416V30.5491H31.0963C32.0818 30.5491 32.8577 31.0468 32.8577 31.835C32.8577 32.6438 32.0818 33.1208 31.0963 33.1208H29.2721V33.1416Z" fill="#383635"/>
<path fill-rule="evenodd" clip-rule="evenodd" d="M40.9095 29.1602C38.582 29.1602 36.7158 30.923 36.7158 33.08C36.7158 35.2577 38.603 36.9998 40.9095 36.9998C43.237 36.9998 45.1032 35.2369 45.1032 33.08C45.0613 30.8816 43.237 29.1602 40.9095 29.1602ZM40.9095 35.7554C39.3579 35.7554 38.1626 34.5525 38.1626 33.0593C38.1626 31.566 39.3369 30.3631 40.9095 30.3631C42.4822 30.3631 43.6564 31.566 43.6564 33.0593C43.6564 34.5525 42.5031 35.7554 40.9095 35.7554Z" fill="#383635"/>
<path fill-rule="evenodd" clip-rule="evenodd" d="M53.26 32.9346C53.9729 32.7065 54.4552 32.0221 54.4552 31.2547C54.4552 30.0518 53.4697 29.2637 51.8132 29.2637H48.0598V36.8337H51.918C53.7004 36.8337 54.8117 35.9834 54.8117 34.7805C54.8327 33.8887 54.3294 33.142 53.26 32.9346ZM49.4647 30.4666H51.6035C52.589 30.4666 53.1132 30.8192 53.1132 31.3999C53.1132 32.0636 52.5681 32.4576 51.5616 32.4576H49.4437L49.4647 30.4666ZM51.8971 35.6723H49.4647V33.6813H51.939C52.8616 33.6813 53.4697 33.9924 53.4697 34.6146C53.4697 35.1953 52.9035 35.6723 51.8971 35.6723Z" fill="#383635"/>
<path fill-rule="evenodd" clip-rule="evenodd" d="M61.4379 29.1602C59.1103 29.1602 57.2441 30.923 57.2441 33.08C57.2441 35.2577 59.1313 36.9998 61.4379 36.9998C63.7654 36.9998 65.6316 35.2369 65.6316 33.08C65.5896 30.8816 63.7444 29.1602 61.4379 29.1602ZM61.4379 35.7554C59.8862 35.7554 58.691 34.5525 58.691 33.0593C58.691 31.566 59.8652 30.3631 61.4379 30.3631C63.0105 30.3631 64.1847 31.566 64.1847 33.0593C64.1847 34.5525 63.0105 35.7554 61.4379 35.7554Z" fill="#383635"/>
<path fill-rule="evenodd" clip-rule="evenodd" d="M71.5238 30.5088V36.8345H70.056V30.5088H67.3091V29.2852H74.2916V30.5088H71.5238Z" fill="#383635"/>
<path d="M78.2126 29.2852H76.8077V36.8552H78.2126V29.2852Z" fill="#383635"/>
<path fill-rule="evenodd" clip-rule="evenodd" d="M98.1747 31.5246H96.7698C96.644 30.7572 96.0988 30.2595 95.0085 30.2595C94.0649 30.2595 93.4149 30.6743 93.4149 31.3794C93.4149 31.9601 93.8762 32.2298 94.7149 32.3749L95.7214 32.5616C97.2731 32.852 98.1328 33.4119 98.1328 34.6356C98.1328 36.0252 96.8747 36.9999 95.0294 36.9999C93.0584 36.9999 91.7374 36.0044 91.6116 34.3867H93.0165C93.1423 35.2785 93.9391 35.8385 95.1343 35.8385C96.1198 35.8385 96.7069 35.4444 96.7069 34.7808C96.7069 34.3867 96.4343 33.9927 95.5327 33.8682L94.2117 33.6401C92.66 33.3497 91.9261 32.5823 91.9261 31.5246C91.9261 30.0935 93.1213 29.1603 94.9036 29.1603C96.3295 29.1188 97.965 29.6995 98.1747 31.5246Z" fill="#383635"/>
<path fill-rule="evenodd" clip-rule="evenodd" d="M87.7324 34.0557C87.376 35.1134 86.5372 35.7149 85.3211 35.7149C83.7484 35.7149 82.5742 34.6157 82.5742 33.0394C82.5742 31.484 83.7484 30.364 85.3211 30.364C86.5163 30.364 87.355 30.9862 87.7324 32.0232H89.2002C88.7809 30.2396 87.2711 29.0781 85.342 29.0781C83.0145 29.0781 81.1483 30.7373 81.1483 32.998C81.1483 35.2586 83.0355 36.9178 85.342 36.9178C87.3131 36.9178 88.7599 35.7564 89.2002 33.9727H87.7324V34.0557Z" fill="#383635"/>
</g>
<defs>
<clipPath id="clip0_3350_4123">
<rect width="126" height="37" fill="white"/>
</clipPath>
</defs>
</svg>
