<svg width="127" height="67" viewBox="0 0 127 67" fill="none" xmlns="http://www.w3.org/2000/svg">
<g clip-path="url(#clip0_3348_3656)">
<path d="M56.0237 50.4343C44.1183 58.7317 29.2793 49.0797 29.2793 49.0797C9.94024 36.1538 14.7821 7.0847 39.9885 9.48361C45.7418 10.0198 50.6406 12.5881 54.6565 15.9748L55.2831 16.5392L55.3116 16.5674H61.0365C60.9225 15.4385 61.0649 14.3661 61.4637 13.4912C60.6947 12.6445 59.8402 11.8261 58.9573 11.0076C58.0744 10.1892 57.1629 9.42716 56.223 8.7216C54.9414 10.2456 52.7483 10.8947 50.071 10.4996C47.2513 10.1045 44.2322 8.58049 41.6974 6.26625C44.8873 8.7216 48.4475 9.87872 51.2672 9.5965C50.5552 9.45539 49.7862 9.22961 49.0172 8.89094L48.2766 8.52405C45.3145 6.94359 42.8082 4.26246 41.7543 1.412C40.5011 1.04511 39.2195 0.734661 37.9093 0.508882C36.5707 0.25488 35.2605 0.0855459 33.9503 -0.0273438C34.52 2.7949 33.694 5.30669 31.5579 7.00004C29.3078 8.77805 25.7476 9.51183 21.6177 8.94738C26.3742 9.14494 29.8774 7.59271 31.4724 5.02447C30.8458 5.41958 30.1053 5.78647 29.2508 6.01225L28.3964 6.20981C24.7792 6.80248 20.1367 5.70181 16.2062 3.10534C14.8961 3.72624 13.6429 4.46002 12.4182 5.27847C11.165 6.12514 9.99721 7.05648 8.9149 8.04427C12.703 10.8947 15.01 14.479 15.4372 18.0914C15.8644 21.7886 14.241 25.401 10.8232 28.1668C14.2979 24.5544 14.9815 20.0388 13.1587 15.9748C13.1872 16.9343 13.0732 17.9221 12.7599 18.8817C12.6175 19.1921 12.3612 19.813 12.3612 19.813C10.5668 23.3973 6.03825 26.0502 0.0855659 26.7275C-0.0568427 28.4773 -0.028361 30.2553 0.142529 32.0898C0.31342 33.9242 0.6552 35.7587 1.11091 37.5649C7.00662 37.0851 12.4751 38.3834 16.491 41.0927C20.3646 43.7174 22.7855 47.6121 23.1842 51.9866C21.988 46.963 18.143 43.0401 12.8169 41.0645C13.8707 41.8265 14.8106 42.7296 15.5796 43.7174C15.836 44.1125 16.0923 44.5076 16.3771 44.9027C16.3486 44.8463 16.2917 44.7898 16.2347 44.7334C18.6272 48.7974 18.3708 53.9057 15.4087 58.5342C16.9752 59.7477 18.6272 60.8484 20.3646 61.8926C22.1019 62.8804 23.8393 63.7553 25.6052 64.4891C28.5388 60.3686 32.6402 57.5746 36.9124 56.6715C40.9284 55.7966 44.8304 56.6433 47.8494 58.9011C44.0044 56.7279 39.2195 56.8126 34.8902 59.0139C36.058 58.7882 37.1973 58.7599 38.3365 58.8728C38.308 58.8728 38.2796 58.8728 38.2796 58.8446C38.6783 58.9011 39.0486 58.9575 39.4473 59.0139C43.4917 59.8888 46.6532 62.8522 47.9918 67.0009C49.4729 66.7187 50.9539 66.2953 52.378 65.8155C53.7736 65.3358 55.0838 64.7713 56.3654 64.1222C55.5395 60.3122 55.9952 56.4175 57.6186 53.3695C58.2452 52.2123 58.9858 51.2246 59.8402 50.4343H56.0237Z" fill="url(#paint0_radial_3348_3656)"/>
<path d="M34.3206 0.310447C35.5453 0.423336 36.7131 0.592671 37.8808 0.790227C39.0486 1.01601 40.3018 1.29823 41.555 1.6369C42.6373 4.45914 45.1437 7.16849 48.1627 8.77717L48.8748 9.11584L48.9317 9.17228H48.9887C49.1026 9.22873 49.1881 9.25695 49.302 9.31339C46.9095 9.03117 44.2607 7.90227 41.8967 6.06782L41.5265 6.49115C44.0614 8.80539 47.1659 10.3576 50.0425 10.781C50.5552 10.8656 51.0679 10.8938 51.552 10.8938C53.5458 10.8938 55.1692 10.273 56.28 9.08762C57.1629 9.79318 58.0174 10.4987 58.7864 11.2043C59.6124 11.9663 60.4099 12.7283 61.1504 13.5185C60.8086 14.3088 60.6947 15.2401 60.7516 16.2561H55.454L54.8559 15.7199C50.2988 11.8816 45.3145 9.65206 40.0169 9.17228C39.0201 9.08762 38.0517 9.03117 37.1118 9.03117C27.6844 9.03117 20.5639 13.8572 18.0575 21.9853C16.6619 26.5008 16.8898 31.6091 18.6841 36.4069C20.6209 41.5716 24.2381 46.0307 29.1369 49.3045L29.1654 49.3328C29.792 49.7279 36.884 54.0741 44.9728 54.0741C49.1311 54.0741 52.8622 52.9452 56.1091 50.7157H59.0997C58.4161 51.4495 57.818 52.2961 57.3054 53.2275C55.6819 56.2755 55.1977 60.1702 55.9952 63.952C54.8274 64.5447 53.6027 65.0527 52.2641 65.5324C50.84 66.0404 49.4444 66.4073 48.1627 66.6613C46.7956 62.7102 43.7765 59.8315 39.96 58.8437L40.0169 58.7873L39.5043 58.7308C39.134 58.6744 38.7353 58.6462 38.365 58.5615C37.9663 58.5333 37.5675 58.5051 37.1973 58.5051C37.0548 58.5051 36.9124 58.5051 36.77 58.5051C38.422 57.8842 40.1309 57.5737 41.7828 57.5737C43.9474 57.5737 45.9696 58.0817 47.7925 59.1259L51.609 61.2709L48.1058 58.6744C45.7987 56.9528 43.0075 56.0497 40.0739 56.0497C39.0486 56.0497 37.9947 56.1626 36.9409 56.3884C32.6402 57.3197 28.5103 60.142 25.5767 64.1495C23.9533 63.4722 22.3298 62.6537 20.5924 61.666C18.9405 60.7064 17.374 59.634 15.8644 58.5051C18.2854 54.5821 18.855 50.2641 17.4594 46.5105L20.4785 49.9254L16.6904 44.7607C16.5195 44.535 16.3486 44.281 16.2062 44.027H16.2632L15.9214 43.5754C15.5227 43.0392 15.067 42.5594 14.5828 42.0796C18.9689 44.1963 22.0165 47.7523 23.0418 52.0703L24.0102 56.1061L23.6115 51.9575C23.1842 47.4983 20.7633 43.5472 16.7759 40.8378C13.2726 38.4671 8.6016 37.1407 3.64578 37.1407C2.93374 37.1407 2.19321 37.1689 1.45269 37.2254C1.02546 35.5038 0.712164 33.7822 0.541273 32.0324C0.370383 30.2826 0.341901 28.5893 0.48431 26.9524C6.29458 26.2468 10.8801 23.5939 12.7599 19.8686C12.7599 19.8686 13.0163 19.2477 13.1587 18.9655V18.9372V18.909C13.3296 18.401 13.4435 17.8648 13.5005 17.3286C14.6397 21.0539 13.6998 24.8357 10.7662 27.912L7.77563 31.0729L11.165 28.3353C14.6397 25.5131 16.3201 21.8441 15.8929 18.0059C15.3518 14.4499 13.1017 10.8938 9.42757 8.01516C10.4814 7.0556 11.5352 6.23715 12.646 5.50337C13.8138 4.71314 15.0385 4.00758 16.2632 3.41491C19.4531 5.44692 23.1558 6.63227 26.4596 6.63227C27.1717 6.63227 27.8837 6.57582 28.5103 6.46293C28.5673 6.46293 28.6527 6.43471 28.966 6.37826C29.1939 6.32182 29.3078 6.2936 29.3933 6.26537C29.7635 6.15249 30.1338 6.0396 30.504 5.87026C28.7951 7.6765 25.9755 8.66428 22.5007 8.66428C22.2443 8.66428 21.9595 8.66428 21.6747 8.63606L15.5511 8.38206L21.6178 9.2005C22.5292 9.31339 23.4406 9.39806 24.3235 9.39806C27.3711 9.39806 29.9629 8.63606 31.7857 7.19671C33.8934 5.55981 34.8048 3.10446 34.3206 0.310447ZM33.9788 0C34.5485 2.82224 33.7225 5.33404 31.5864 7.02738C29.8205 8.41028 27.2856 9.14406 24.295 9.14406C23.4406 9.14406 22.5576 9.08762 21.6462 8.9465C21.931 8.9465 22.2159 8.97473 22.4722 8.97473C26.8014 8.97473 30.0199 7.45072 31.5009 5.02359C30.8743 5.4187 30.1338 5.78559 29.2793 6.01137C29.2793 6.01137 28.4534 6.20893 28.4249 6.20893C27.7698 6.32182 27.1147 6.37826 26.4027 6.37826C23.1842 6.37826 19.4531 5.24937 16.2347 3.13269C14.9245 3.75358 13.6713 4.48736 12.4466 5.30581C11.1934 6.15248 10.0257 7.08382 8.94338 8.07161C12.7315 10.9221 15.0385 14.5063 15.4657 18.1188C15.8929 21.8159 14.2695 25.4284 10.8517 28.1942C14.2979 24.5535 14.9815 20.0379 13.1587 15.9739C13.1872 16.9334 13.0732 17.9212 12.7599 18.8808C12.6175 19.1912 12.3612 19.8121 12.3612 19.8121C10.5668 23.3964 6.03825 26.0493 0.0855659 26.7266C-0.0568427 28.4764 -0.028361 30.2544 0.142529 32.0889C0.31342 33.9233 0.6552 35.7578 1.11091 37.564C1.93688 37.5076 2.73437 37.4511 3.53185 37.4511C8.51616 37.4511 13.0448 38.7494 16.491 41.0918C20.3646 43.7165 22.7855 47.6112 23.1842 51.9857C21.988 46.9621 18.143 43.0392 12.8169 41.0636C13.8707 41.8256 14.8106 42.7287 15.5796 43.7165C15.836 44.1116 16.0923 44.5067 16.3771 44.9019C16.3486 44.8454 16.2917 44.789 16.2347 44.7325C18.6272 48.7965 18.3708 53.9048 15.4087 58.5333C16.9752 59.7468 18.6272 60.8475 20.3646 61.8917C22.1019 62.8795 23.8393 63.7544 25.6052 64.4882C28.5388 60.3677 32.6402 57.5737 36.9124 56.6706C37.9378 56.4448 38.9916 56.3319 39.9885 56.3319C42.8936 56.3319 45.5994 57.235 47.8494 58.9002C45.9696 57.8559 43.862 57.3197 41.6974 57.3197C39.4473 57.3197 37.1118 57.8842 34.8902 59.0131C35.6308 58.8719 36.3998 58.8155 37.1403 58.8155C37.539 58.8155 37.9378 58.8437 38.3365 58.8719C38.308 58.8719 38.2796 58.8719 38.2796 58.8437C38.6783 58.9002 39.0486 58.9566 39.4473 59.0131C43.4917 59.888 46.6532 62.8513 47.9918 67C49.4729 66.7178 50.9539 66.2944 52.378 65.8147C53.7736 65.3349 55.0838 64.7704 56.3655 64.1213C55.5395 60.3113 55.9952 56.4166 57.6187 53.3686C58.2452 52.2115 58.9858 51.2237 59.8402 50.4334H56.0806C52.4919 52.917 48.6754 53.7919 45.0297 53.7919C36.5991 53.7919 29.3363 49.0788 29.3363 49.0788C10.7377 36.6609 14.4973 9.34162 37.1403 9.34162C38.0802 9.34162 39.0201 9.39806 40.0169 9.48273C45.7703 10.019 50.6691 12.5872 54.685 15.9739L55.3116 16.5383L55.3401 16.5666H61.0649C60.951 15.4377 61.0934 14.3652 61.4922 13.4903C60.7232 12.6436 59.8687 11.8252 58.9858 11.0067C58.1028 10.1883 57.1914 9.42628 56.2515 8.72072C55.2262 9.96251 53.5742 10.6116 51.552 10.6116C51.0963 10.6116 50.5837 10.5834 50.071 10.4987C47.2513 10.1036 44.2322 8.57961 41.6974 6.26537C44.5455 8.46672 47.7355 9.62384 50.3843 9.62384C50.6976 9.62384 50.9824 9.59562 51.2672 9.5674C50.5552 9.42629 49.7862 9.20051 49.0172 8.86184L48.2766 8.49495C45.3145 6.91449 42.8082 4.23336 41.7543 1.3829C40.5011 1.01601 39.2195 0.70556 37.9093 0.479781C36.5991 0.282224 35.289 0.11289 33.9788 0Z" fill="url(#paint1_linear_3348_3656)"/>
<path d="M26.5449 36.3512V21.6191H37.7098V24.8083H30.8741V27.3483H36.8268V30.5939H30.8741V36.323H26.5449V36.3512Z" fill="url(#paint2_linear_3348_3656)"/>
<path d="M37.5104 21.8167V24.5825H30.9026H30.6748V24.8083V27.3483V27.5741H30.9026H36.6559V30.3963H30.9026H30.6748V30.6221V36.1255H26.7443V21.8167H37.5104ZM37.7098 21.6191H26.5449V36.3512H30.8741V30.6221H36.8268V27.3483H30.8741V24.8083H37.7098V21.6191Z" fill="url(#paint3_radial_3348_3656)"/>
<path d="M39.7888 36.3512V21.6191H44.118V36.3512H39.7888Z" fill="url(#paint4_linear_3348_3656)"/>
<path d="M43.9187 21.8167V36.1255H40.0167V21.8167H43.9187ZM44.118 21.6191H39.7888V36.3512H44.118V21.6191Z" fill="url(#paint5_radial_3348_3656)"/>
<path d="M47.1372 36.3512V21.6191H53.7734C55.283 21.6191 56.5931 21.8731 57.6754 22.3529C58.7577 22.8609 59.5837 23.6512 60.1534 24.7236C60.723 25.8243 61.0078 27.2636 61.0078 29.0699C61.0078 31.6099 60.3812 33.4443 59.128 34.6014C57.8748 35.7586 56.109 36.3512 53.7734 36.3512H47.1372ZM51.4664 33.0492H53.2323C53.9443 33.0492 54.5709 32.9363 55.0551 32.7388C55.5393 32.5412 55.9381 32.1461 56.1944 31.5817C56.4507 31.0172 56.5931 30.1705 56.5931 29.0699C56.5931 27.9692 56.4792 27.1225 56.2229 26.5298C55.995 25.9372 55.6248 25.5138 55.1406 25.2598C54.6564 25.0341 54.0298 24.8929 53.2608 24.8929H51.4949V33.0492H51.4664Z" fill="url(#paint6_linear_3348_3656)"/>
<path d="M53.7734 21.8167C55.2545 21.8167 56.5362 22.0707 57.59 22.5505C58.6153 23.0303 59.4128 23.7923 59.954 24.8365C60.4951 25.8807 60.78 27.3201 60.78 29.0699C60.78 31.5252 60.1818 33.3314 58.9856 34.4603C57.7894 35.5892 56.0235 36.1537 53.7734 36.1537H47.3366V21.8167H53.7734ZM51.2671 33.2468H51.4949H53.2608C54.0013 33.2468 54.6564 33.1339 55.1691 32.9081C55.7102 32.6823 56.1374 32.259 56.4223 31.6381C56.7071 31.0454 56.821 30.1705 56.821 29.0416C56.821 27.9127 56.7071 27.0378 56.4507 26.417C56.1944 25.7678 55.7957 25.3163 55.2545 25.0341C54.7418 24.78 54.0583 24.6672 53.2608 24.6672H51.4949H51.2671V24.8929V33.0492V33.2468ZM53.7734 21.6191H47.1372V36.3512H53.7734C56.109 36.3512 57.8748 35.7586 59.128 34.6014C60.3812 33.4443 61.0078 31.6099 61.0078 29.0699C61.0078 27.2636 60.723 25.8243 60.1534 24.7236C59.5837 23.6229 58.7577 22.8327 57.6754 22.3529C56.5931 21.8449 55.3115 21.6191 53.7734 21.6191ZM51.4664 33.0492V24.8929H53.2323C54.0013 24.8929 54.6279 25.0058 55.1121 25.2598C55.5963 25.4856 55.9665 25.9089 56.1944 26.5298C56.4222 27.1225 56.5647 27.9692 56.5647 29.0699C56.5647 30.1705 56.4222 30.989 56.1659 31.5817C55.9096 32.1461 55.5393 32.5412 55.0266 32.7388C54.5425 32.9363 53.9159 33.0492 53.2038 33.0492H51.4664Z" fill="url(#paint7_radial_3348_3656)"/>
<path d="M63.5427 36.3512V21.6191H74.8215V24.9212H67.9004V27.3201H73.967V30.6503H67.9004V33.0492H74.8215V36.3512H63.5427Z" fill="url(#paint8_linear_3348_3656)"/>
<path d="M74.5936 21.8167V24.6954H67.8719H67.6441V24.9212V27.3201V27.5458H67.8719H73.7392V30.4528H67.8719H67.6441V30.6785V33.0774V33.3032H67.8719H74.5936V36.1255H63.7421V21.8167H74.5936ZM74.8215 21.6191H63.5427V36.3512H74.8215V33.0492H67.9004V30.6503H73.967V27.2918H67.9004V24.8929H74.8215V21.6191Z" fill="url(#paint9_radial_3348_3656)"/>
<path d="M77.1284 36.3512V21.6191H81.4576V33.0492H88.1508V36.3512H77.1284Z" fill="url(#paint10_linear_3348_3656)"/>
<path d="M81.2583 21.8167V33.0492V33.275H81.4861H87.98V36.1255H77.3848V21.8167H81.2583ZM81.4576 21.6191H77.1284V36.3512H88.1508V33.0492H81.4576V21.6191Z" fill="url(#paint11_radial_3348_3656)"/>
<path d="M90.2301 36.3512V21.6191H94.5593V36.3512H90.2301Z" fill="url(#paint12_linear_3348_3656)"/>
<path d="M94.3599 21.8167V36.1255H90.4579V21.8167H94.3599ZM94.5878 21.6191H90.2585V36.3512H94.5878V21.6191Z" fill="url(#paint13_radial_3348_3656)"/>
<path d="M100.825 36.3512V24.8083H96.6384V21.6191H109.341V24.8083H105.154V36.3512H100.825Z" fill="url(#paint14_linear_3348_3656)"/>
<path d="M109.142 21.8167V24.5825H105.183H104.955V24.8083V36.1255H101.053V24.8083V24.5825H100.825H96.8663V21.8167H109.142ZM109.341 21.6191H96.6384V24.8083H100.825V36.3512H105.154V24.8083H109.341V21.6191Z" fill="url(#paint15_radial_3348_3656)"/>
<path d="M116.092 36.3512V30.9608L110.737 21.6191H115.266L118.256 27.179L121.247 21.6191H125.775L120.421 30.9608V36.3512H116.092Z" fill="url(#paint16_linear_3348_3656)"/>
<path d="M125.434 21.8167L120.25 30.8479L120.221 30.9043V30.9608V36.1255H116.319V30.9325V30.8761L116.291 30.8196L111.107 21.7885H115.123L118.057 27.2354L118.256 27.5741L118.455 27.2354L121.389 21.7885H125.434M125.775 21.6191H121.247L118.256 27.179L115.266 21.6191H110.737L116.092 30.9608V36.3512H120.421V30.9608L125.775 21.6191Z" fill="url(#paint17_radial_3348_3656)"/>
<path d="M26.5451 36.3507H30.8743V30.6216H36.827V28.7871C33.2953 29.154 29.8774 29.5773 26.5166 30.0571V36.3507H26.5451Z" fill="url(#paint18_linear_3348_3656)"/>
<path d="M39.7891 36.3523H44.1183V28.1113C42.6657 28.2242 41.2131 28.3653 39.7891 28.5064V36.3523Z" fill="url(#paint19_linear_3348_3656)"/>
<path d="M56.5648 29.0706C56.5648 30.1713 56.4224 30.9897 56.1661 31.5824C55.9097 32.1468 55.5395 32.5419 55.0268 32.7395C54.5426 32.9371 53.916 33.0499 53.204 33.0499H51.4381V27.603C49.9855 27.6877 48.533 27.7724 47.1089 27.8852V36.352H53.7451C56.0806 36.352 57.8465 35.7593 59.0997 34.6022C60.3529 33.4451 60.9795 31.6106 60.9795 29.0706C60.9795 28.3933 60.951 27.7724 60.8656 27.1797C59.3845 27.2361 57.9035 27.2644 56.4224 27.349C56.5363 27.8288 56.5648 28.3933 56.5648 29.0706Z" fill="url(#paint20_linear_3348_3656)"/>
<path d="M63.5427 36.3514H74.8215V33.0494H67.9004V30.6505H73.967V27.292H67.9004V27.0098C66.4479 27.038 64.9953 27.038 63.5712 27.0944V36.3514H63.5427Z" fill="url(#paint21_linear_3348_3656)"/>
<path d="M77.1287 36.3516H88.1511V33.0496H81.4579V27.1511C80.0053 27.1228 78.5812 27.0664 77.1287 27.0664V36.3516Z" fill="url(#paint22_linear_3348_3656)"/>
<path d="M90.2302 36.3512H94.5595V27.7716C93.1354 27.6869 91.6828 27.6022 90.2302 27.5176V36.3512Z" fill="url(#paint23_linear_3348_3656)"/>
<path d="M100.825 36.3509H105.155V28.6744C103.731 28.5333 102.278 28.3922 100.825 28.2793V36.3509Z" fill="url(#paint24_linear_3348_3656)"/>
<path d="M116.092 30.9318V36.3223H120.421V30.9318L120.592 30.6214C118.911 30.3674 117.202 30.1134 115.465 29.8594L116.092 30.9318Z" fill="url(#paint25_linear_3348_3656)"/>
<path d="M49.1309 40.2734L48.0486 45.5793H47.308L48.077 41.741L45.5422 44.9301H45.2004L43.8617 41.6846L43.0643 45.5793H42.3237L43.406 40.2734H44.0326L45.5137 43.9988L48.4473 40.2734H49.1309Z" fill="white"/>
<path d="M54.1722 41.5712L53.3747 45.5788H52.6912L52.7766 45.099C52.6057 45.2683 52.3779 45.4094 52.15 45.4941C51.9222 45.5788 51.6374 45.6352 51.3525 45.6352C51.0108 45.6352 50.6975 45.5788 50.4411 45.4377C50.1848 45.2965 49.9569 45.099 49.8145 44.845C49.6721 44.591 49.5867 44.2805 49.5867 43.9137C49.5867 43.4621 49.6721 43.067 49.8715 42.7001C50.0709 42.3332 50.3557 42.051 50.6975 41.8534C51.0392 41.6559 51.438 41.543 51.8652 41.543C52.207 41.543 52.5203 41.5994 52.7481 41.7123C52.976 41.8252 53.1754 42.0227 53.3178 42.2485L53.4602 41.5712H54.1722ZM52.3209 44.7603C52.5488 44.6192 52.7481 44.4217 52.8905 44.1677C53.033 43.9137 53.0899 43.6314 53.0899 43.2928C53.0899 42.9259 52.976 42.6719 52.7766 42.4743C52.5772 42.2768 52.2639 42.1921 51.8937 42.1921C51.5804 42.1921 51.3241 42.2768 51.0962 42.4179C50.8683 42.559 50.669 42.7565 50.5266 43.0105C50.3842 43.2645 50.3272 43.5468 50.3272 43.8854C50.3272 44.2241 50.4411 44.5063 50.6405 44.7039C50.8399 44.9014 51.1532 45.0143 51.5234 45.0143C51.8082 44.9861 52.0931 44.9014 52.3209 44.7603Z" fill="white"/>
<path d="M58.7292 41.8825C58.9856 42.1083 59.128 42.447 59.128 42.8703C59.128 43.0114 59.0995 43.1807 59.071 43.3501L58.6153 45.6079H57.8748L58.3305 43.3501C58.359 43.209 58.359 43.0961 58.359 43.0114C58.359 42.7574 58.2735 42.5599 58.1311 42.4187C57.9887 42.2776 57.7324 42.193 57.4191 42.193C57.0203 42.193 56.707 42.3059 56.4507 42.5034C56.1943 42.7292 56.0235 43.0396 55.938 43.463L55.5108 45.5797H54.7703L55.5678 41.5721H56.2798L56.1943 42.0801C56.5646 41.7132 57.0488 41.5156 57.6469 41.5156C58.1026 41.5156 58.4729 41.6567 58.7292 41.8825Z" fill="white"/>
<path d="M64.5394 41.5712L63.7419 45.5788H63.0299L63.1153 45.0708C62.9445 45.2683 62.7166 45.4094 62.4603 45.4941C62.2039 45.5788 61.9476 45.6352 61.6628 45.6352C61.2071 45.6352 60.8653 45.5223 60.609 45.2683C60.3526 45.0425 60.2102 44.7039 60.2102 44.2805C60.2102 44.1394 60.2387 43.9983 60.2672 43.829L60.7229 41.5712H61.4634L61.0077 43.829C60.9792 43.9701 60.9792 44.083 60.9792 44.1677C60.9792 44.4217 61.0647 44.6192 61.2071 44.7603C61.3495 44.9014 61.6058 44.9579 61.8906 44.9579C62.2894 44.9579 62.6027 44.845 62.859 44.6192C63.1153 44.3934 63.2862 44.083 63.3717 43.6596L63.7989 41.543H64.5394V41.5712Z" fill="white"/>
<path d="M67.1028 40.6956C66.9889 40.8085 66.8749 41.006 66.818 41.26L66.761 41.5705H67.9287L67.8148 42.1632H66.6756L65.992 45.5781H65.2515L65.935 42.1632H65.2515L65.3654 41.5705H66.0774L66.1629 41.2036C66.2483 40.8085 66.4192 40.4698 66.6756 40.2723C66.9319 40.0465 67.2452 39.9336 67.6724 39.9336C67.8433 39.9336 67.9857 39.9618 68.1566 39.99C68.299 40.0465 68.4414 40.1029 68.5269 40.1876L68.2136 40.7238C68.0712 40.6109 67.9003 40.5263 67.6724 40.5263C67.4446 40.5263 67.2452 40.5827 67.1028 40.6956Z" fill="white"/>
<path d="M72.3719 41.5712L71.5744 45.5788H70.8623L70.9478 45.099C70.7769 45.2683 70.549 45.4094 70.3212 45.4941C70.0933 45.5788 69.8085 45.6352 69.5237 45.6352C69.1819 45.6352 68.8686 45.5788 68.6123 45.4377C68.3559 45.2965 68.1281 45.099 67.9857 44.845C67.8433 44.591 67.7578 44.2805 67.7578 43.9137C67.7578 43.4621 67.8433 43.067 68.0426 42.7001C68.242 42.3332 68.5268 42.051 68.8686 41.8534C69.2104 41.6559 69.6091 41.543 70.0364 41.543C70.3781 41.543 70.6914 41.5994 70.9193 41.7123C71.1471 41.8252 71.3465 42.0227 71.4889 42.2485L71.6313 41.5712H72.3719ZM70.5205 44.7603C70.7484 44.6192 70.9478 44.4217 71.0902 44.1677C71.2326 43.9137 71.2895 43.6314 71.2895 43.2928C71.2895 42.9259 71.1756 42.6719 70.9762 42.4743C70.7769 42.2768 70.4636 42.1921 70.0933 42.1921C69.78 42.1921 69.5237 42.2768 69.2958 42.4179C69.068 42.559 68.8686 42.7565 68.7262 43.0105C68.5838 43.2645 68.5268 43.5468 68.5268 43.8854C68.5268 44.2241 68.6407 44.5063 68.8401 44.7039C69.0395 44.9014 69.3528 45.0143 69.7231 45.0143C70.0079 44.9861 70.2927 44.9014 70.5205 44.7603Z" fill="white"/>
<path d="M73.8814 45.4094C73.5966 45.2683 73.3687 45.0708 73.1978 44.8168C73.0269 44.5628 72.97 44.2523 72.97 43.9137C72.97 43.4621 73.0839 43.067 73.2833 42.7001C73.4826 42.3332 73.7675 42.051 74.1377 41.8534C74.508 41.6559 74.9067 41.543 75.3624 41.543C76.1599 41.543 76.7296 41.8252 77.0144 42.4179L76.3878 42.7565C76.1599 42.3614 75.8181 42.1921 75.277 42.1921C74.9637 42.1921 74.7074 42.2768 74.451 42.4179C74.2232 42.559 74.0238 42.7565 73.8814 43.0105C73.739 43.2645 73.682 43.5468 73.682 43.8854C73.682 44.2241 73.7959 44.5063 73.9953 44.7039C74.1947 44.9014 74.508 45.0143 74.8782 45.0143C75.1346 45.0143 75.3624 44.9579 75.5618 44.8732C75.7612 44.7885 75.9605 44.6474 76.0745 44.4499L76.6156 44.8168C76.4163 45.0708 76.1884 45.2683 75.8466 45.4094C75.5333 45.5505 75.1915 45.6352 74.8213 45.6352C74.508 45.607 74.1662 45.5505 73.8814 45.4094Z" fill="white"/>
<path d="M78.4671 44.3089C78.4386 44.3935 78.4386 44.45 78.4386 44.5346C78.4386 44.704 78.4956 44.8169 78.581 44.9015C78.6664 44.9862 78.8089 45.0426 78.9797 45.0426C79.2076 45.0426 79.3785 44.9862 79.5494 44.8451L79.6918 45.4095C79.4355 45.5789 79.1222 45.6635 78.7519 45.6635C78.4386 45.6635 78.1823 45.5789 77.9829 45.3813C77.7835 45.1838 77.6981 44.958 77.6981 44.6475C77.6981 44.5346 77.6981 44.45 77.7265 44.3371L78.1538 42.1922H77.4702L77.5841 41.5995H78.2677L78.4386 40.7246H79.1791L79.0082 41.5995H80.176L80.0621 42.1922H78.8943L78.4671 44.3089Z" fill="white"/>
<path d="M85.1034 41.5712L84.3059 45.5788H83.5939L83.6793 45.0708C83.5084 45.2683 83.2806 45.4094 83.0242 45.4941C82.7679 45.5788 82.5116 45.6352 82.2267 45.6352C81.771 45.6352 81.4292 45.5223 81.1729 45.2683C80.9166 45.0425 80.7742 44.7039 80.7742 44.2805C80.7742 44.1394 80.8026 43.9983 80.8311 43.829L81.2868 41.5712H82.0274L81.5717 43.829C81.5432 43.9701 81.5432 44.083 81.5432 44.1677C81.5432 44.4217 81.6286 44.6192 81.771 44.7603C81.9134 44.9014 82.1698 44.9579 82.4546 44.9579C82.8533 44.9579 83.1666 44.845 83.423 44.6192C83.6793 44.3934 83.8502 44.083 83.9356 43.6596L84.3629 41.543H85.1034V41.5712Z" fill="white"/>
<path d="M87.752 41.6841C88.0084 41.5712 88.3217 41.543 88.6919 41.543L88.5495 42.2485C88.4925 42.2485 88.4356 42.2485 88.3501 42.2485C87.5242 42.2485 87.0115 42.7001 86.8121 43.6032L86.4134 45.607H85.6729L86.4703 41.5994H87.1824L87.0685 42.1921C87.2678 41.9381 87.4957 41.7687 87.752 41.6841Z" fill="white"/>
<path d="M89.575 41.5712H90.3155L89.518 45.5788H88.7775L89.575 41.5712ZM89.8313 40.6681C89.7458 40.5834 89.6889 40.4705 89.6889 40.3576C89.6889 40.2165 89.7458 40.1036 89.8313 39.9907C89.9167 39.9061 90.0591 39.8496 90.2016 39.8496C90.344 39.8496 90.4579 39.8778 90.5433 39.9625C90.6288 40.0472 90.6857 40.1318 90.6857 40.2729C90.6857 40.4423 90.6288 40.5552 90.5433 40.6398C90.4579 40.7245 90.3155 40.7809 90.1446 40.7809C90.0307 40.8092 89.9167 40.7527 89.8313 40.6681Z" fill="white"/>
<path d="M94.8725 41.8825C95.1289 42.1083 95.2713 42.447 95.2713 42.8703C95.2713 43.0114 95.2428 43.1807 95.2143 43.3501L94.7586 45.6079H94.0181L94.4738 43.3501C94.5023 43.209 94.5023 43.0961 94.5023 43.0114C94.5023 42.7574 94.4168 42.5599 94.2744 42.4187C94.132 42.2776 93.8757 42.193 93.5624 42.193C93.1636 42.193 92.8503 42.3059 92.594 42.5034C92.3377 42.7292 92.1668 43.0396 92.0813 43.463L91.6541 45.5797H90.9136L91.7111 41.5721H92.4231L92.3377 42.0801C92.7079 41.7132 93.1921 41.5156 93.7902 41.5156C94.2459 41.5156 94.6162 41.6567 94.8725 41.8825Z" fill="white"/>
<path d="M100.797 41.5712L100.113 45.0426C99.9708 45.7481 99.7145 46.2843 99.3157 46.5948C98.917 46.9052 98.3758 47.0746 97.6923 47.0746C97.322 47.0746 96.9517 47.0181 96.6384 46.9335C96.3251 46.8488 96.0688 46.7077 95.8409 46.5101L96.2397 45.9457C96.4106 46.0868 96.61 46.1997 96.8663 46.2843C97.1226 46.369 97.4074 46.4254 97.7207 46.4254C98.1764 46.4254 98.5467 46.3126 98.803 46.115C99.0594 45.8892 99.2303 45.5788 99.3157 45.1272L99.3727 44.845C98.9739 45.2119 98.4897 45.4094 97.9201 45.4094C97.5783 45.4094 97.2365 45.353 96.9802 45.2119C96.6954 45.0708 96.496 44.9014 96.3536 44.6474C96.2112 44.3934 96.1258 44.1112 96.1258 43.7725C96.1258 43.3492 96.2112 42.9823 96.4106 42.6436C96.6099 42.305 96.8663 42.0227 97.2365 41.8252C97.5783 41.6276 97.9771 41.543 98.4328 41.543C98.7746 41.543 99.0879 41.5994 99.3442 41.7405C99.6005 41.8816 99.7999 42.051 99.9423 42.305L100.085 41.5712H100.797ZM98.917 44.5628C99.1448 44.4217 99.3442 44.2523 99.4866 43.9983C99.629 43.7725 99.686 43.4903 99.686 43.1799C99.686 42.8694 99.572 42.6154 99.3727 42.4179C99.1733 42.2203 98.86 42.1356 98.4897 42.1356C98.1764 42.1356 97.9201 42.1921 97.6638 42.3332C97.4359 42.4743 97.2365 42.6436 97.0941 42.8976C96.9517 43.1234 96.8948 43.4056 96.8948 43.7161C96.8948 44.0548 97.0087 44.3088 97.2081 44.4781C97.4359 44.6757 97.7207 44.7603 98.091 44.7603C98.4043 44.7603 98.6606 44.7039 98.917 44.5628Z" fill="white"/>
<path d="M107.775 42.8979H108.515L108.088 44.9864C107.832 45.1839 107.547 45.3533 107.205 45.4662C106.863 45.5791 106.522 45.6355 106.151 45.6355C105.639 45.6355 105.183 45.5508 104.784 45.3533C104.414 45.1557 104.101 44.9017 103.901 44.563C103.702 44.2244 103.588 43.8293 103.588 43.4059C103.588 42.8133 103.73 42.277 103.987 41.7973C104.243 41.3175 104.642 40.9224 105.126 40.6401C105.639 40.3579 106.208 40.2168 106.863 40.2168C107.319 40.2168 107.718 40.2732 108.088 40.4426C108.43 40.5837 108.715 40.7812 108.942 41.0352L108.401 41.4868C108.23 41.2892 108.003 41.1199 107.746 41.0352C107.49 40.9506 107.205 40.8941 106.863 40.8941C106.351 40.8941 105.923 41.007 105.553 41.2328C105.183 41.4586 104.898 41.7408 104.67 42.1077C104.442 42.4746 104.357 42.8979 104.357 43.3495C104.357 43.8293 104.528 44.2244 104.841 44.5066C105.154 44.7888 105.639 44.9299 106.237 44.9299C106.692 44.9299 107.091 44.817 107.433 44.5913L107.775 42.8979Z" fill="white"/>
<path d="M111.392 41.6841C111.648 41.5712 111.962 41.543 112.332 41.543L112.189 42.2485C112.132 42.2485 112.075 42.2485 111.99 42.2485C111.164 42.2485 110.651 42.7001 110.452 43.6032L110.053 45.607H109.313L110.11 41.5994H110.822L110.708 42.1921C110.908 41.9381 111.136 41.7687 111.392 41.6841Z" fill="white"/>
<path d="M113.272 45.4103C112.987 45.2692 112.759 45.0716 112.617 44.7894C112.446 44.5354 112.389 44.225 112.389 43.8863C112.389 43.4347 112.503 43.0396 112.702 42.6727C112.901 42.3058 113.186 42.0236 113.557 41.8261C113.927 41.6285 114.326 41.5156 114.781 41.5156C115.152 41.5156 115.493 41.6003 115.778 41.7414C116.063 41.8825 116.291 42.0801 116.433 42.3341C116.576 42.5881 116.661 42.8985 116.661 43.2372C116.661 43.6887 116.547 44.0839 116.348 44.4508C116.148 44.8176 115.864 45.0999 115.493 45.2974C115.123 45.495 114.724 45.6079 114.269 45.6079C113.87 45.6079 113.557 45.5514 113.272 45.4103ZM115.123 44.7612C115.351 44.6201 115.55 44.4225 115.693 44.1685C115.835 43.9145 115.892 43.6323 115.892 43.2936C115.892 42.9267 115.778 42.6727 115.579 42.4752C115.379 42.2776 115.066 42.193 114.696 42.193C114.383 42.193 114.126 42.2776 113.898 42.4187C113.67 42.5599 113.471 42.7574 113.329 43.0114C113.186 43.2654 113.129 43.5476 113.129 43.8863C113.129 44.225 113.243 44.5072 113.443 44.7048C113.642 44.9023 113.955 45.0152 114.326 45.0152C114.61 44.987 114.895 44.9023 115.123 44.7612Z" fill="white"/>
<path d="M121.788 41.5712L120.99 45.5788H120.278L120.364 45.0708C120.193 45.2683 119.965 45.4094 119.709 45.4941C119.452 45.5788 119.196 45.6352 118.911 45.6352C118.455 45.6352 118.114 45.5223 117.857 45.2683C117.601 45.0425 117.458 44.7039 117.458 44.2805C117.458 44.1394 117.487 43.9983 117.515 43.829L117.971 41.5712H118.712L118.256 43.829C118.228 43.9701 118.228 44.083 118.228 44.1677C118.228 44.4217 118.313 44.6192 118.455 44.7603C118.598 44.9014 118.854 44.9579 119.139 44.9579C119.538 44.9579 119.851 44.845 120.107 44.6192C120.364 44.3934 120.535 44.083 120.62 43.6596L121.047 41.543H121.788V41.5712Z" fill="white"/>
<path d="M126.145 41.7401C126.402 41.8812 126.63 42.0787 126.772 42.3327C126.914 42.5867 127 42.8972 127 43.2641C127 43.7156 126.914 44.1108 126.715 44.4776C126.516 44.8445 126.231 45.1268 125.889 45.3243C125.547 45.5219 125.149 45.6348 124.721 45.6348C124.38 45.6348 124.066 45.5783 123.838 45.4372C123.611 45.2961 123.411 45.1268 123.269 44.901L122.842 47.0459H122.101L123.212 41.5707H123.924L123.838 42.0787C124.209 41.7119 124.693 41.5425 125.263 41.5425C125.547 41.5143 125.861 41.599 126.145 41.7401ZM125.49 44.7599C125.718 44.6188 125.918 44.4212 126.06 44.1672C126.202 43.9132 126.259 43.631 126.259 43.2923C126.259 42.9254 126.145 42.6714 125.946 42.4739C125.747 42.2763 125.433 42.1916 125.063 42.1916C124.75 42.1916 124.494 42.2763 124.237 42.4174C124.009 42.5585 123.81 42.7561 123.668 43.0101C123.525 43.2641 123.468 43.5463 123.468 43.885C123.468 44.2236 123.582 44.5059 123.781 44.7034C123.981 44.901 124.294 45.0139 124.664 45.0139C124.978 44.9857 125.263 44.901 125.49 44.7599Z" fill="white"/>
<path d="M29.3077 49.0795C22.5006 44.5357 18.684 37.9599 17.6872 31.4688C11.5636 32.5694 5.83878 33.8677 0.598145 35.307C0.740553 36.069 0.911444 36.8028 1.11082 37.5648C7.00653 37.085 12.475 38.3832 16.4909 41.0926C20.3645 43.7173 22.7854 47.612 23.1842 51.9864C21.9879 46.9629 18.1429 43.0399 12.8168 41.0644C13.8706 41.8264 14.8105 42.7295 15.5795 43.7173C15.8359 44.1124 16.0922 44.5075 16.377 44.9026C16.3485 44.8462 16.2916 44.7897 16.2346 44.7333C18.6271 48.7973 18.3707 53.9056 15.4086 58.534C16.9751 59.7476 18.6271 60.8483 20.3645 61.8925C22.1018 62.8803 23.8392 63.7552 25.6051 64.489C28.5387 60.3685 32.6401 57.5745 36.9123 56.6714C40.9283 55.7965 44.8303 56.6431 47.8493 58.9009C44.0043 56.7278 39.2194 56.8125 34.8901 59.0138C36.0579 58.788 37.1972 58.7598 38.3364 58.8727C38.3079 58.8727 38.2795 58.8727 38.2795 58.8445C38.6782 58.9009 39.0485 58.9574 39.4472 59.0138C43.4916 59.8887 46.6531 62.8521 47.9917 67.0008C49.4728 66.7185 50.9538 66.2952 52.3779 65.8154C53.7735 65.3356 55.0837 64.7712 56.3654 64.1221C55.5394 60.3121 55.9951 56.4174 57.6186 53.3693C58.2451 52.2122 58.9857 51.2244 59.8401 50.4342H56.0805C44.1182 58.7316 29.3077 49.0795 29.3077 49.0795Z" fill="url(#paint26_linear_3348_3656)"/>
</g>
<defs>
<radialGradient id="paint0_radial_3348_3656" cx="0" cy="0" r="1" gradientUnits="userSpaceOnUse" gradientTransform="translate(30.251 19.2297) scale(55.9067 55.3977)">
<stop offset="0.3524" stop-color="#F2F2F2"/>
<stop offset="0.4101" stop-color="#EEEEEE"/>
<stop offset="0.4732" stop-color="#E0E0E0"/>
<stop offset="0.5388" stop-color="#CBCBCB"/>
<stop offset="0.6062" stop-color="#ACACAC"/>
<stop offset="0.6749" stop-color="#858585"/>
<stop offset="0.7448" stop-color="#545454"/>
<stop offset="0.8143" stop-color="#1C1C1C"/>
<stop offset="0.8462"/>
</radialGradient>
<linearGradient id="paint1_linear_3348_3656" x1="0.000121826" y1="33.5002" x2="61.4954" y2="33.5002" gradientUnits="userSpaceOnUse">
<stop stop-color="#F2F2F2"/>
<stop offset="0.4344" stop-color="#CCCCCC"/>
<stop offset="1" stop-color="white"/>
</linearGradient>
<linearGradient id="paint2_linear_3348_3656" x1="23.1614" y1="26.4726" x2="112.34" y2="51.8372" gradientUnits="userSpaceOnUse">
<stop stop-color="white"/>
<stop offset="0.6232" stop-color="#C3C3C3"/>
</linearGradient>
<radialGradient id="paint3_radial_3348_3656" cx="0" cy="0" r="1" gradientUnits="userSpaceOnUse" gradientTransform="translate(32.1225 28.9752) scale(6.57595 6.51607)">
<stop offset="0.7418" stop-color="white"/>
<stop offset="0.7898" stop-color="#FBFBFB"/>
<stop offset="0.8422" stop-color="#EDEDED"/>
<stop offset="0.8967" stop-color="#D8D8D8"/>
<stop offset="0.9522" stop-color="#B9B9B9"/>
<stop offset="1" stop-color="#999999"/>
</radialGradient>
<linearGradient id="paint4_linear_3348_3656" x1="23.8851" y1="23.9281" x2="113.064" y2="49.2926" gradientUnits="userSpaceOnUse">
<stop stop-color="white"/>
<stop offset="0.6232" stop-color="#C3C3C3"/>
</linearGradient>
<radialGradient id="paint5_radial_3348_3656" cx="0" cy="0" r="1" gradientUnits="userSpaceOnUse" gradientTransform="translate(41.9576 28.9752) scale(5.47615 5.42629)">
<stop offset="0.7418" stop-color="white"/>
<stop offset="0.7898" stop-color="#FBFBFB"/>
<stop offset="0.8422" stop-color="#EDEDED"/>
<stop offset="0.8967" stop-color="#D8D8D8"/>
<stop offset="0.9522" stop-color="#B9B9B9"/>
<stop offset="1" stop-color="#999999"/>
</radialGradient>
<linearGradient id="paint6_linear_3348_3656" x1="24.568" y1="21.5273" x2="113.747" y2="46.8918" gradientUnits="userSpaceOnUse">
<stop stop-color="white"/>
<stop offset="0.6232" stop-color="#C3C3C3"/>
</linearGradient>
<radialGradient id="paint7_radial_3348_3656" cx="0" cy="0" r="1" gradientUnits="userSpaceOnUse" gradientTransform="translate(54.067 28.9752) scale(7.19018 7.12472)">
<stop offset="0.7418" stop-color="white"/>
<stop offset="0.7898" stop-color="#FBFBFB"/>
<stop offset="0.8422" stop-color="#EDEDED"/>
<stop offset="0.8967" stop-color="#D8D8D8"/>
<stop offset="0.9522" stop-color="#B9B9B9"/>
<stop offset="1" stop-color="#999999"/>
</radialGradient>
<linearGradient id="paint8_linear_3348_3656" x1="25.8882" y1="16.8858" x2="115.067" y2="42.2504" gradientUnits="userSpaceOnUse">
<stop stop-color="white"/>
<stop offset="0.6232" stop-color="#C3C3C3"/>
</linearGradient>
<radialGradient id="paint9_radial_3348_3656" cx="0" cy="0" r="1" gradientUnits="userSpaceOnUse" gradientTransform="translate(69.1776 28.9752) scale(6.59557 6.53552)">
<stop offset="0.7418" stop-color="white"/>
<stop offset="0.7898" stop-color="#FBFBFB"/>
<stop offset="0.8422" stop-color="#EDEDED"/>
<stop offset="0.8967" stop-color="#D8D8D8"/>
<stop offset="0.9522" stop-color="#B9B9B9"/>
<stop offset="1" stop-color="#999999"/>
</radialGradient>
<linearGradient id="paint10_linear_3348_3656" x1="26.6322" y1="14.2697" x2="115.811" y2="39.6343" gradientUnits="userSpaceOnUse">
<stop stop-color="white"/>
<stop offset="0.6232" stop-color="#C3C3C3"/>
</linearGradient>
<radialGradient id="paint11_radial_3348_3656" cx="0" cy="0" r="1" gradientUnits="userSpaceOnUse" gradientTransform="translate(82.637 28.9752) scale(6.54658 6.48698)">
<stop offset="0.7418" stop-color="white"/>
<stop offset="0.7898" stop-color="#FBFBFB"/>
<stop offset="0.8422" stop-color="#EDEDED"/>
<stop offset="0.8967" stop-color="#D8D8D8"/>
<stop offset="0.9522" stop-color="#B9B9B9"/>
<stop offset="1" stop-color="#999999"/>
</radialGradient>
<linearGradient id="paint12_linear_3348_3656" x1="27.5972" y1="10.877" x2="116.776" y2="36.2415" gradientUnits="userSpaceOnUse">
<stop stop-color="white"/>
<stop offset="0.6232" stop-color="#C3C3C3"/>
</linearGradient>
<radialGradient id="paint13_radial_3348_3656" cx="0" cy="0" r="1" gradientUnits="userSpaceOnUse" gradientTransform="translate(92.4032 28.9752) scale(5.47624 5.42638)">
<stop offset="0.7418" stop-color="white"/>
<stop offset="0.7898" stop-color="#FBFBFB"/>
<stop offset="0.8422" stop-color="#EDEDED"/>
<stop offset="0.8967" stop-color="#D8D8D8"/>
<stop offset="0.9522" stop-color="#B9B9B9"/>
<stop offset="1" stop-color="#999999"/>
</radialGradient>
<linearGradient id="paint14_linear_3348_3656" x1="28.5307" y1="7.59472" x2="117.71" y2="32.9593" gradientUnits="userSpaceOnUse">
<stop stop-color="white"/>
<stop offset="0.6214" stop-color="#CCCCCC"/>
</linearGradient>
<radialGradient id="paint15_radial_3348_3656" cx="0" cy="0" r="1" gradientUnits="userSpaceOnUse" gradientTransform="translate(103 28.9752) scale(6.91289 6.84995)">
<stop offset="0.7418" stop-color="white"/>
<stop offset="0.7898" stop-color="#FBFBFB"/>
<stop offset="0.8422" stop-color="#EDEDED"/>
<stop offset="0.8967" stop-color="#D8D8D8"/>
<stop offset="0.9522" stop-color="#B9B9B9"/>
<stop offset="1" stop-color="#999999"/>
</radialGradient>
<linearGradient id="paint16_linear_3348_3656" x1="29.6971" y1="3.49411" x2="118.876" y2="28.8586" gradientUnits="userSpaceOnUse">
<stop stop-color="white"/>
<stop offset="0.6232" stop-color="#C3C3C3"/>
</linearGradient>
<radialGradient id="paint17_radial_3348_3656" cx="0" cy="0" r="1" gradientUnits="userSpaceOnUse" gradientTransform="translate(118.262 28.9752) scale(7.48056 7.41245)">
<stop offset="0.7418" stop-color="white"/>
<stop offset="0.7898" stop-color="#FBFBFB"/>
<stop offset="0.8422" stop-color="#EDEDED"/>
<stop offset="0.8967" stop-color="#D8D8D8"/>
<stop offset="0.9522" stop-color="#B9B9B9"/>
<stop offset="1" stop-color="#999999"/>
</radialGradient>
<linearGradient id="paint18_linear_3348_3656" x1="31.6838" y1="63.671" x2="31.6838" y2="26.0597" gradientUnits="userSpaceOnUse">
<stop offset="0.7859" stop-color="white"/>
<stop offset="0.8257" stop-color="#FBFBFB"/>
<stop offset="0.8692" stop-color="#EDEDED"/>
<stop offset="0.9143" stop-color="#D8D8D8"/>
<stop offset="0.9604" stop-color="#B9B9B9"/>
<stop offset="1" stop-color="#999999"/>
</linearGradient>
<linearGradient id="paint19_linear_3348_3656" x1="41.9579" y1="63.6725" x2="41.9579" y2="26.0613" gradientUnits="userSpaceOnUse">
<stop offset="0.7935" stop-color="white"/>
<stop offset="0.8319" stop-color="#FBFBFB"/>
<stop offset="0.8738" stop-color="#EDEDED"/>
<stop offset="0.9174" stop-color="#D8D8D8"/>
<stop offset="0.9618" stop-color="#B9B9B9"/>
<stop offset="1" stop-color="#999999"/>
</linearGradient>
<linearGradient id="paint20_linear_3348_3656" x1="54.0671" y1="63.6722" x2="54.0671" y2="26.061" gradientUnits="userSpaceOnUse">
<stop offset="0.7727" stop-color="white"/>
<stop offset="0.8149" stop-color="#FBFBFB"/>
<stop offset="0.8611" stop-color="#EDEDED"/>
<stop offset="0.909" stop-color="#D8D8D8"/>
<stop offset="0.9579" stop-color="#B9B9B9"/>
<stop offset="1" stop-color="#999999"/>
</linearGradient>
<linearGradient id="paint21_linear_3348_3656" x1="69.1776" y1="63.6716" x2="69.1776" y2="26.0604" gradientUnits="userSpaceOnUse">
<stop offset="0.7187" stop-color="white"/>
<stop offset="0.771" stop-color="#FBFBFB"/>
<stop offset="0.8281" stop-color="#EDEDED"/>
<stop offset="0.8874" stop-color="#D8D8D8"/>
<stop offset="0.9479" stop-color="#B9B9B9"/>
<stop offset="1" stop-color="#999999"/>
</linearGradient>
<linearGradient id="paint22_linear_3348_3656" x1="82.6372" y1="63.6718" x2="82.6372" y2="26.0606" gradientUnits="userSpaceOnUse">
<stop offset="0.7187" stop-color="white"/>
<stop offset="0.771" stop-color="#FBFBFB"/>
<stop offset="0.8281" stop-color="#EDEDED"/>
<stop offset="0.8874" stop-color="#D8D8D8"/>
<stop offset="0.9479" stop-color="#B9B9B9"/>
<stop offset="1" stop-color="#999999"/>
</linearGradient>
<linearGradient id="paint23_linear_3348_3656" x1="92.4034" y1="63.6714" x2="92.4034" y2="26.0602" gradientUnits="userSpaceOnUse">
<stop offset="0.6757" stop-color="white"/>
<stop offset="0.736" stop-color="#FBFBFB"/>
<stop offset="0.8018" stop-color="#EDEDED"/>
<stop offset="0.8702" stop-color="#D8D8D8"/>
<stop offset="0.94" stop-color="#B9B9B9"/>
<stop offset="1" stop-color="#999999"/>
</linearGradient>
<linearGradient id="paint24_linear_3348_3656" x1="103.001" y1="63.6712" x2="103.001" y2="26.0599" gradientUnits="userSpaceOnUse">
<stop offset="0.6236" stop-color="white"/>
<stop offset="0.6936" stop-color="#FBFBFB"/>
<stop offset="0.77" stop-color="#EDEDED"/>
<stop offset="0.8494" stop-color="#D8D8D8"/>
<stop offset="0.9303" stop-color="#B9B9B9"/>
<stop offset="1" stop-color="#999999"/>
</linearGradient>
<linearGradient id="paint25_linear_3348_3656" x1="118.044" y1="63.6708" x2="118.044" y2="26.0595" gradientUnits="userSpaceOnUse">
<stop offset="0.3999" stop-color="white"/>
<stop offset="0.4979" stop-color="#FBFBFB"/>
<stop offset="0.6048" stop-color="#EDEDED"/>
<stop offset="0.716" stop-color="#D8D8D8"/>
<stop offset="0.8295" stop-color="#B9B9B9"/>
<stop offset="0.85" stop-color="#B3B3B3"/>
</linearGradient>
<linearGradient id="paint26_linear_3348_3656" x1="30.2121" y1="101.53" x2="30.2121" y2="32.1941" gradientUnits="userSpaceOnUse">
<stop offset="0.7187" stop-color="white"/>
<stop offset="0.771" stop-color="#FBFBFB"/>
<stop offset="0.8281" stop-color="#EDEDED"/>
<stop offset="0.8874" stop-color="#D8D8D8"/>
<stop offset="0.9479" stop-color="#B9B9B9"/>
<stop offset="1" stop-color="#999999"/>
</linearGradient>
<clipPath id="clip0_3348_3656">
<rect width="127" height="67" fill="white"/>
</clipPath>
</defs>
</svg>
