<svg width="246" height="19" viewBox="0 0 246 19" fill="none" xmlns="http://www.w3.org/2000/svg">
<g clip-path="url(#clip0_3350_4085)">
<path d="M231.39 12.3588L245.379 11.1713V9.98382L231.173 9.01618V6.8611C231.347 5.7176 231.737 3.12268 231.737 3.12268C231.737 0.263889 230.434 0 230.434 0C228.827 0.879632 229.131 3.12268 229.131 3.12268C229.391 5.01389 229.696 6.8611 229.696 6.8611V8.97221L215.489 9.93978V11.1273L229.478 12.3148L229.826 11.6111L229.956 15.3935L224.352 16.7129V17.3287L229.956 17.4607L230.174 16.8449V18.1643C230.347 18.4282 230.651 18.3843 230.651 18.3843H231.477C231.955 18.6921 231.955 18.2523 231.955 18.2523H230.695V16.8449L230.912 17.4167L236.517 17.2847V16.7129L230.912 15.3935L231.042 11.6111L231.39 12.3588Z" fill="white"/>
<path d="M230.347 18.5598H229.304C229.044 17.9881 228.957 18.6918 228.957 18.6918H230.217C230.391 19.1316 230.564 18.7797 230.564 18.7797C230.608 18.5158 230.347 18.5598 230.347 18.5598Z" fill="white"/>
<path d="M0 9.54462C0 15.6581 2.86739 18.6488 8.16774 18.6488H15.1624V15.4381H8.16774C4.64865 15.4381 3.17151 13.6789 3.17151 9.50064C3.17151 5.32241 4.6921 3.56315 8.16774 3.56315H15.1624V0.396484H8.16774C2.91084 0.396484 0 3.43121 0 9.54462Z" fill="white"/>
<path d="M25.3289 0.0878906C23.4172 0.0878906 22.2008 0.747612 21.5491 2.46289L15.2061 18.6481H18.6817L24.4164 4.00224C24.5903 3.56243 24.8944 3.3865 25.3289 3.3865C25.7633 3.3865 26.0674 3.56243 26.1978 4.00224L31.6718 18.6921H35.1909L29.1085 2.46289C28.4134 0.747612 27.197 0.0878906 25.3289 0.0878906Z" fill="white"/>
<path d="M55.0019 0.395761H51.8304V14.8217C51.8304 15.4374 51.4394 15.8332 50.7443 15.8332C50.136 15.8332 49.7884 15.5254 49.6147 15.0856L44.3144 3.47446C43.5758 1.40733 42.4462 0.0878906 39.9264 0.0878906C37.1024 0.0878906 35.7991 1.67122 35.7991 4.04622V18.6481H38.9705V4.22215C38.9705 3.56243 39.3616 3.1666 40.0567 3.1666C40.6215 3.1666 40.9256 3.43048 41.1863 3.95826L46.4432 15.6134C47.1818 17.6805 48.3548 18.9999 50.8311 18.9999C53.6116 18.9999 54.9584 17.4166 54.9584 14.9976V0.395761H55.0019Z" fill="white"/>
<path d="M64.6467 0.0878906C62.7351 0.0878906 61.5186 0.747612 60.867 2.46289L54.5239 18.6921H57.9996L63.6909 4.00224C63.8647 3.56243 64.1688 3.3865 64.6033 3.3865C65.0377 3.3865 65.3418 3.56243 65.4722 4.00224L70.9466 18.6921H74.4657L68.3827 2.46289C67.7312 0.747612 66.5149 0.0878906 64.6467 0.0878906Z" fill="white"/>
<path d="M82.9804 0.396484H76.6373C75.6386 0.396484 75.1606 0.880283 75.1606 1.89186V17.1974C75.1606 18.209 75.6386 18.6928 76.6373 18.6928H82.9804C88.2811 18.6928 91.1051 15.702 91.1051 9.58859C91.1051 3.38722 88.2375 0.396484 82.9804 0.396484ZM82.9804 15.4821H78.6362C78.3754 15.4821 78.2883 15.3942 78.2883 15.1742V3.915C78.2883 3.65111 78.3754 3.60714 78.6362 3.60714H82.9804C86.4994 3.60714 87.9332 5.36639 87.9332 9.54462C87.9768 13.7229 86.4994 15.4821 82.9804 15.4821Z" fill="white"/>
<path d="M96.0144 0.396484H92.8425V18.6488H96.0144V0.396484Z" fill="white"/>
<path d="M106.789 0.0878906C104.877 0.0878906 103.661 0.747612 103.009 2.46289L96.666 18.6921H100.142L105.833 4.00224C106.007 3.56243 106.311 3.3865 106.745 3.3865C107.18 3.3865 107.484 3.56243 107.614 4.00224L113.088 18.6921H116.607L110.525 2.46289C109.874 0.747612 108.657 0.0878906 106.789 0.0878906Z" fill="white"/>
<path d="M133.247 14.8657C133.247 15.4814 132.856 15.8773 132.161 15.8773C131.552 15.8773 131.205 15.5694 131.031 15.1296L125.774 3.47446C125.036 1.40733 123.906 0.0878906 121.386 0.0878906C118.563 0.0878906 117.259 1.67122 117.259 4.04622V18.6481H120.431V4.22215C120.431 3.56243 120.821 3.1666 121.517 3.1666C122.082 3.1666 122.385 3.43048 122.646 3.95826L127.903 15.6134C128.642 17.6805 129.815 18.9999 132.291 18.9999C135.071 18.9999 136.419 17.4166 136.419 14.9976V0.395761H133.247V14.8657Z" fill="white"/>
<path d="M160.183 0.396484H157.098V12.5793C157.098 14.3826 156.142 15.4381 154.144 15.4381H150.929C148.844 15.4381 147.931 14.3826 147.931 12.5793V0.396484H144.716V12.8432C144.716 16.6696 146.715 18.6488 150.538 18.6488H154.318C158.185 18.6488 160.183 16.6696 160.183 12.8432V0.396484Z" fill="white"/>
<path d="M169.784 0.0878906C167.873 0.0878906 166.657 0.747612 166.004 2.46289L159.661 18.6921H163.138L168.872 4.00224C169.046 3.56243 169.35 3.3865 169.784 3.3865C170.219 3.3865 170.523 3.56243 170.653 4.00224L176.127 18.6921H179.646L173.564 2.46289C172.913 0.747612 171.652 0.0878906 169.784 0.0878906Z" fill="white"/>
<path d="M192.984 0.396484L187.25 15.0863C187.076 15.5261 186.815 15.702 186.38 15.702C185.946 15.702 185.642 15.5261 185.512 15.0863L179.994 0.396484H176.519L182.558 16.6256C183.209 18.4289 184.599 19.0006 186.337 19.0006C188.205 19.0006 189.422 18.3409 190.117 16.6256L196.46 0.396484H192.984Z" fill="white"/>
<path d="M205.931 7.91733H201.717C199.588 7.91733 199.023 6.86175 199.023 5.76222C199.023 4.48676 199.762 3.60714 201.369 3.60714H210.623V0.396484H201.5C197.503 0.396484 195.895 2.59556 195.895 5.63028C195.895 8.18123 197.025 10.9081 201.847 10.9081H206.062C208.277 10.9081 208.886 12.0076 208.886 13.1951C208.886 14.5145 208.103 15.4821 206.409 15.4821H196.243V18.6928H206.279C210.406 18.6928 212.013 16.4057 212.013 13.327C211.97 10.6881 210.84 7.91733 205.931 7.91733Z" fill="white"/>
</g>
<defs>
<clipPath id="clip0_3350_4085">
<rect width="246" height="19" fill="white"/>
</clipPath>
</defs>
</svg>
