<svg width="130" height="26" viewBox="0 0 130 26" fill="none" xmlns="http://www.w3.org/2000/svg">
<g clip-path="url(#clip0_3309_7954)">
<path fill-rule="evenodd" clip-rule="evenodd" d="M12.6381 14.865C11.1003 14.6684 8.85123 14.912 7.48661 15.5066L10.8194 6.82813L17.2849 22.3857H22.2208L13.6989 1.89258H7.90581L0 22.3968H4.93083C5.82738 19.3453 9.7504 17.0508 13.3919 16.7263L12.6381 14.865Z" fill="white"/>
<path fill-rule="evenodd" clip-rule="evenodd" d="M39.448 19.2975V23.3095H25.103V2.68945H30.166V19.2975H39.448Z" fill="white"/>
<path fill-rule="evenodd" clip-rule="evenodd" d="M78.0001 2.68945V6.69545H71.1911V23.3095H65.9711V6.69545H59.1721V2.68945H78.0001Z" fill="white"/>
<path fill-rule="evenodd" clip-rule="evenodd" d="M129.987 1.91797V22.386H124.858V9.89397L120.054 16.513H119.317L114.515 9.89397V22.386H109.388V1.91797H113.886L119.674 9.70897L125.539 1.91797H129.987Z" fill="white"/>
<path fill-rule="evenodd" clip-rule="evenodd" d="M104.407 18.8268C106.166 15.2639 105.901 11.0007 104 7.67179L105.185 6.27506C107.201 10.0672 107.227 14.8368 105.047 18.8004L104.407 18.8268ZM85.6511 14.3958C85.6767 10.6899 88.6987 7.63538 92.5006 7.54203C96.3849 7.43332 99.6057 10.4393 99.6999 14.2519C99.7999 18.0683 96.7415 21.2328 92.8583 21.3331C90.9207 21.3832 89.1473 20.6563 87.8484 19.4543L86.8336 20.4972C82.3435 16.3192 82.1657 9.35691 86.4249 4.95677C89.8446 1.41729 95.0953 0.610263 99.3398 2.58503L99.3966 2.64379L99.9373 2.03474C94.5334 -1.1258 87.4046 -0.226446 82.8506 4.47321C77.4822 10.0206 77.7367 18.7757 83.3867 24.0371L84.4035 22.9899C86.6367 25.0552 89.2382 26.0733 92.2716 25.9951C98.3758 25.8333 103.195 20.8544 103.042 14.8599C102.965 11.8623 101.658 9.17839 99.6057 7.272L100.321 6.5184C96.7694 3.21395 90.8906 3.28519 87.4662 6.82815C85.4294 8.93272 84.4695 11.7675 84.9267 14.4218L85.6511 14.3958ZM56.6926 7.01678C50.7508 4.88697 46.9246 6.34932 46.9246 8.02154C46.9246 11.846 58.2908 9.67319 58.2759 17.1232C58.2595 22.6996 53.5746 24.2061 48.7785 24.2061C46.7722 24.2061 44.2705 23.8983 42.3523 23.2826L42.8479 18.8043C44.2863 19.4901 46.4047 19.9569 48.7785 19.9569C50.8573 19.9569 53.323 19.5504 53.4511 17.9152C53.7863 13.668 42.1379 16.3295 42.1379 8.56116C42.1379 3.38859 47.0618 1.79231 51.3932 1.79231C53.4229 1.79231 56.1044 2.48562 57.0347 2.90433L56.6926 7.01678Z" fill="white"/>
</g>
<defs>
<clipPath id="clip0_3309_7954">
<rect width="130" height="26" fill="white"/>
</clipPath>
</defs>
</svg>
