<svg width="151" height="16" viewBox="0 0 151 16" fill="none" xmlns="http://www.w3.org/2000/svg">
<g clip-path="url(#clip0_3308_7695)">
<path d="M15.9493 4.70601C15.3512 5.01884 11.6347 6.96357 10.8867 7.35277C10.8106 7.39218 10.7185 7.38725 10.6472 7.33922C9.76538 6.74065 4.07026 2.8869 1.09926 1.12322C1.09312 1.11953 1.09558 1.10844 1.09926 1.10352C0.631319 1.57276 0.284969 2.16887 0.115479 2.83271C0.117935 2.82409 0.128989 2.82163 0.13513 2.82902L5.78358 9.76674C5.86587 9.86897 5.8499 10.018 5.74796 10.1005C4.95701 10.736 1.76371 13.1205 0.488849 14.0713C0.486392 14.0725 0.472882 14.0651 0.471654 14.0663C0.647285 14.3804 0.874501 14.6785 1.12874 14.9285C1.12874 14.9285 1.12628 14.9235 1.13242 14.9198C3.89708 13.6291 11.9147 9.88129 15.9383 8.04247C15.9456 8.03878 15.953 8.0437 15.953 8.05233V8.05479V4.69739C15.953 4.69739 15.9506 4.70478 15.9469 4.70724L15.9493 4.70601Z" fill="white"/>
<path d="M1.09923 1.12201C4.07023 2.88446 9.76658 6.74067 10.6472 7.338C10.7184 7.38604 10.8105 7.39219 10.8867 7.35155C11.6334 6.96236 15.3499 5.01763 15.9493 4.7048C15.953 4.70233 15.9554 4.69987 15.9554 4.69494V3.77492C15.9554 1.69102 14.2691 0 12.1898 0H3.75458C2.71676 0 1.77719 0.422446 1.09678 1.106C1.09186 1.11092 1.09309 1.11954 1.09923 1.12324V1.12201ZM0.490048 14.0713C1.76614 13.1205 4.95944 10.736 5.74917 10.1005C5.85111 10.018 5.86707 9.86899 5.78478 9.76676L0.135101 2.82904C0.12896 2.82165 0.117906 2.82411 0.11545 2.83273C0.0687787 3.01747 0.0356176 3.20837 0.0171947 3.40297C0.0171947 3.4079 0.0110537 3.48056 0.00859734 3.51259C0.00859734 3.52121 0.00859734 3.53106 0.00736915 3.53968C0.00614096 3.56924 0 3.7663 0 3.7663V12.2374C0 12.2374 0.00245638 12.3704 0.00245638 12.3803C0.00245638 12.4098 0.00491277 12.4406 0.00736915 12.4702C0.00736915 12.4788 0.0184229 12.6069 0.0184229 12.6093C0.025792 12.6894 0.0368458 12.7682 0.0491277 12.8458C0.0491277 12.8483 0.0491277 12.8495 0.0491277 12.852C0.120363 13.288 0.266518 13.6981 0.472854 14.07C0.476538 14.0762 0.483907 14.0774 0.48882 14.0737L0.490048 14.0713ZM1.12994 14.9285C1.12994 14.9285 1.12625 14.9137 1.13239 14.91C3.89705 13.6193 11.9159 9.88007 15.9395 8.04126C15.9468 8.03756 15.9554 8.04372 15.9554 8.05111V12.2238C15.9554 14.2683 14.3342 15.9335 12.3114 15.9975H3.60106C2.64061 15.9594 1.77351 15.5566 1.12994 14.9273V14.9285Z" fill="url(#paint0_linear_3308_7695)"/>
<path d="M22.4771 16L26.056 0H30.7354L34.3352 16H31.9636L31.18 12.5662H25.6114L24.8278 16H22.4771ZM27.8774 2.17258L26.0781 10.2767H30.7145L28.9361 2.17258H27.8774Z" fill="#101820"/>
<path d="M36.4109 16V0H38.7616V16H36.4109Z" fill="#101820"/>
<path d="M44.4567 10.3001V15.9988H42.106V0H47.6119C50.8863 0 52.5247 1.69718 52.5247 5.09153C52.5247 7.3651 51.7338 8.90709 50.1531 9.71626L52.5456 16H49.9627L47.8662 10.3013H44.4567V10.3001ZM50.1113 5.11493C50.1113 3.19975 49.2786 2.24155 47.6119 2.24155H44.4567V8.05727H47.6537C48.4999 8.05727 49.1214 7.78878 49.5169 7.25179C49.9123 6.7148 50.1101 6.00169 50.1101 5.11493H50.1113Z" fill="#101820"/>
<path d="M64.1067 2.21497C62.3135 2.21497 61.4169 2.88497 61.4169 4.22621C61.4169 4.91838 61.6282 5.41226 62.0519 5.70661C62.4756 6.00097 63.4103 6.36184 64.8571 6.79167C66.3039 7.22151 67.3233 7.73263 67.9165 8.32751C68.5097 8.92361 68.8057 9.86087 68.8057 11.1405C68.8057 12.7675 68.3709 13.9843 67.5038 14.7898C66.6355 15.5965 65.454 15.9993 63.9568 15.9993C62.7569 15.9993 61.4292 15.849 59.9762 15.5473L59.2135 15.3884L59.4469 13.3772C61.353 13.6481 62.8072 13.7836 63.8094 13.7836C65.5596 13.7836 66.4353 12.9547 66.4353 11.2982C66.4353 10.6503 66.2376 10.1725 65.8421 9.86334C65.4466 9.5542 64.5574 9.2155 63.1745 8.84602C61.7915 8.47653 60.7611 7.9691 60.0831 7.32127C59.4051 6.67344 59.0674 5.64873 59.0674 4.24714C59.0674 2.84556 59.4936 1.78759 60.3484 1.07202C61.202 0.356449 62.3847 -0.00195312 63.8942 -0.00195312C64.9811 -0.00195312 66.2658 0.133525 67.7482 0.405714L68.4888 0.541192L68.2985 2.5746C66.3223 2.33443 64.9246 2.2125 64.1067 2.2125V2.21497Z" fill="#101820"/>
<path d="M73.5931 10.7126C73.5931 12.751 74.5805 13.7708 76.5579 13.7708C78.5353 13.7708 79.5215 12.7522 79.5215 10.7126V0H81.8932V10.6671C81.8932 12.5219 81.4449 13.8742 80.5496 14.724C79.653 15.5739 78.3179 16 76.5469 16C74.7758 16 73.4457 15.5751 72.5552 14.724C71.666 13.873 71.2214 12.5207 71.2214 10.6671V0H73.5931V10.7126Z" fill="#101820"/>
<path d="M90.4267 11.0242H87.4618V15.9988H85.1111V0H90.4255C93.7146 0 95.3591 1.79078 95.3591 5.37233C95.3591 7.20991 94.9464 8.6115 94.1211 9.57586C93.2945 10.5415 92.0639 11.0242 90.4267 11.0242ZM87.4618 8.78269H90.4058C92.0995 8.78269 92.947 7.64591 92.947 5.37233C92.947 4.28235 92.7418 3.48795 92.3329 2.99038C91.9226 2.49157 91.2815 2.24278 90.4058 2.24278H87.4618V8.78269Z" fill="#101820"/>
<path d="M102.941 11.0242H99.9772V15.9988H97.6265V0H102.941C106.23 0 107.874 1.79078 107.874 5.37233C107.874 7.20991 107.462 8.6115 106.635 9.57586C105.81 10.5415 104.578 11.0242 102.941 11.0242ZM99.9772 8.78269H102.92C104.614 8.78269 105.461 7.64591 105.461 5.37233C105.461 4.28235 105.256 3.48795 104.847 2.99038C104.438 2.4928 103.796 2.24278 102.92 2.24278H99.9772V8.78269Z" fill="#101820"/>
<path d="M119.997 14.0996C119.128 15.3669 117.601 16 115.413 16C113.226 16 111.693 15.3633 110.818 14.0873C109.943 12.8126 109.505 10.8099 109.505 8.07944C109.505 5.34893 109.946 3.31922 110.829 1.99153C111.711 0.663844 113.24 0 115.414 0C117.588 0 119.112 0.660149 119.988 1.98045C120.863 3.30075 121.301 5.33292 121.301 8.07944C121.301 10.826 120.867 12.8323 119.999 14.0996H119.997ZM112.659 12.4702C113.14 13.3606 114.057 13.8052 115.412 13.8052C116.767 13.8052 117.682 13.368 118.154 12.4936C118.627 11.6191 118.864 10.151 118.864 8.09175C118.864 6.03248 118.621 4.53606 118.134 3.60003C117.646 2.66523 116.74 2.19721 115.413 2.19721C114.087 2.19721 113.175 2.66523 112.682 3.60003C112.188 4.53606 111.941 6.02509 111.941 8.06959C111.941 10.1141 112.18 11.5809 112.661 12.4714L112.659 12.4702Z" fill="#101820"/>
<path d="M126.381 10.3001V15.9988H124.03V0H129.536C132.81 0 134.449 1.69718 134.449 5.09153C134.449 7.3651 133.658 8.90709 132.077 9.71626L134.47 16H131.887L129.79 10.3013H126.381V10.3001ZM132.035 5.11493C132.035 3.19975 131.203 2.24155 129.536 2.24155H126.381V8.05727H129.578C130.424 8.05727 131.045 7.78878 131.441 7.25179C131.836 6.7148 132.034 6.00169 132.034 5.11493H132.035Z" fill="#101820"/>
<path d="M135.635 2.31299V0H146.222V2.31299H142.136V16H139.764V2.31299H135.635Z" fill="#101820"/>
<path d="M149.435 3.26996C148.981 3.26996 148.604 3.11231 148.304 2.79701C148.003 2.48172 147.853 2.09376 147.853 1.6319C147.853 1.17004 148.003 0.783311 148.302 0.47048C148.6 0.157648 148.977 0 149.43 0C149.884 0 150.259 0.157648 150.557 0.472943C150.853 0.788238 151.001 1.1762 151.001 1.63806C151.001 2.09992 150.854 2.48664 150.559 2.79948C150.264 3.11354 149.89 3.26996 149.437 3.26996H149.435ZM149.427 0.257409C149.055 0.257409 148.743 0.391656 148.492 0.658918C148.242 0.92618 148.116 1.25133 148.116 1.6319C148.116 2.01247 148.242 2.33762 148.492 2.60488C148.743 2.87214 149.055 3.00639 149.427 3.00639C149.799 3.00639 150.111 2.87337 150.361 2.60858C150.612 2.34254 150.737 2.01863 150.737 1.63559C150.737 1.25256 150.612 0.927411 150.361 0.658918C150.111 0.391656 149.799 0.257409 149.427 0.257409ZM149.12 1.90409V2.54453H148.773V0.730352H149.43C149.658 0.730352 149.827 0.77469 149.941 0.862135C150.054 0.94958 150.112 1.08136 150.112 1.25749C150.112 1.43361 150.089 1.56416 150.043 1.64914C149.998 1.73536 149.919 1.80433 149.807 1.85605L150.135 2.54453H149.771L149.472 1.90409H149.12ZM149.114 1.01239V1.62328H149.466C149.574 1.62328 149.651 1.59988 149.699 1.55184C149.747 1.50381 149.771 1.42622 149.771 1.31784C149.771 1.11462 149.648 1.01239 149.401 1.01239H149.115H149.114Z" fill="#101820"/>
</g>
<defs>
<linearGradient id="paint0_linear_3308_7695" x1="10.8498" y1="0.112078" x2="5.00565" y2="16.1225" gradientUnits="userSpaceOnUse">
<stop offset="0.25" stop-color="#1B365D"/>
<stop offset="0.52" stop-color="#152841"/>
<stop offset="0.82" stop-color="#111C28"/>
<stop offset="1" stop-color="#101820"/>
</linearGradient>
<clipPath id="clip0_3308_7695">
<rect width="151" height="16" fill="white"/>
</clipPath>
</defs>
</svg>
