<svg width="212" height="40" viewBox="0 0 212 40" fill="none" xmlns="http://www.w3.org/2000/svg">
<path d="M210.826 18.2696C210.906 18.7221 211 19.9363 211 20.4688C211 26.1338 206.943 30.3346 201.218 30.3346C195.493 30.3346 190.833 25.573 190.833 19.9338C190.833 14.2688 195.493 9.66797 201.272 9.66797C204.407 9.66797 207.259 11.0905 209.144 13.3221L206.642 15.2755C205.324 13.7605 203.398 12.8338 201.272 12.8338C197.304 12.8338 194.162 15.9988 194.162 19.9346C194.162 23.8713 197.304 27.0071 201.218 27.0071C204.483 27.0071 206.549 25.3788 207.368 22.458C207.404 22.3296 207.499 21.8763 207.498 21.5988H200.83V18.2705L210.826 18.2696ZM189.167 29.9896L180.833 10.0005H177.5L169.167 30.0005H172.5L175 24.1671H183.333L185.833 29.9896H189.167ZM179.167 14.1671L182.125 21.2505H176.208L179.167 14.1671ZM151.667 10.0005V13.3338H159.167V30.0005H162.5V13.3338H170V10.0005H151.667ZM144.167 25.1146L134.167 10.0005H130V30.0005H133.333V15.0005L143.426 29.9896H147.5V10.0113H144.167V25.1146ZM120.833 25.1146L110.833 10.0005H106.667V30.0005H110V15.0005L120.093 29.9896H124.167V10.0113H120.833V25.1146ZM100.833 10.0005H87.5V30.0005H100.833V26.6671H90.8125V21.6671H99.1668V18.3338H90.8125V13.3338H100.833V10.0005ZM60 19.5838C61.1725 18.7096 61.6667 17.3396 61.6667 15.8338C61.6667 12.6871 59.1667 10.0005 55.9734 10.0005H46.6667V30.0005H56.48C60 30.0005 62.5 27.3138 62.5 24.1671C62.5 22.0421 61.3334 20.273 60 19.5838ZM58.3335 15.8338C58.3335 17.3805 57.3342 18.3338 55.841 18.3338H50V13.3338H55.841C57.3342 13.3338 58.3335 14.2871 58.3335 15.8338ZM50 26.6671V21.6671H56.3735C57.8668 21.6671 59.1667 22.6396 59.1667 24.1863C59.1667 25.733 57.8668 26.6671 56.3735 26.6671H50ZM83.3334 30.0005L77.5 22.0838C80.506 21.1146 81.6668 18.7055 81.6668 16.1646C81.6668 12.7546 79.2934 10.0005 75.6167 10.0005H66.6668V30.0005H70V22.5005H73.5418L79.1668 30.0005H83.3334ZM75.4842 13.3338C77.4017 13.3338 78.3334 14.433 78.3334 16.1646C78.3334 17.923 77.4017 19.1671 75.4842 19.1671H70V13.3338H75.4842Z" fill="#1A0033"/>
<path d="M28.7175 20.0167C27.4375 21.615 25.5525 23.1458 23.26 24.0517C24.64 25.7517 25.3367 27.645 24.8342 29.6133C24.355 31.4925 22.5583 33.3267 20.0008 33.3267H6.66667V23.3283H18.3333C24.7667 23.3283 30 18.0958 30 11.6642C30 5.2325 24.7667 0 18.3333 0H0V14.9967H6.66667V6.665H18.3333C21.0917 6.665 23.3333 8.90583 23.3333 11.6642C23.3333 14.4225 21.0917 16.6633 18.3333 16.6633H0V39.9917V40H20C26.4333 40 31.6667 34.7675 31.6667 28.3358C31.6667 25.4825 30.8642 22.2792 28.7175 20.0167Z" fill="url(#paint0_linear_3309_7970)"/>
<defs>
<linearGradient id="paint0_linear_3309_7970" x1="-3.79358" y1="36.2064" x2="27.7859" y2="4.62691" gradientUnits="userSpaceOnUse">
<stop stop-color="#C815E0"/>
<stop offset="0.8" stop-color="#0C72ED"/>
</linearGradient>
</defs>
</svg>
