<svg width="97" height="35" viewBox="0 0 97 35" fill="none" xmlns="http://www.w3.org/2000/svg">
<g clip-path="url(#clip0_3308_7621)">
<path d="M19.0987 13.1091C18.9314 11.865 17.9586 11.2169 16.6198 11.2169C14.5489 11.2169 13.754 13.0463 13.754 14.8653C13.754 16.6843 14.5489 18.5242 16.6198 18.5242C18.1155 18.5242 18.9837 17.6566 19.0987 16.2453H22.3097C22.1424 19.4233 19.81 21.2841 16.6826 21.2841C12.9591 21.2841 10.543 18.4406 10.543 14.8653C10.543 11.2901 12.9591 8.45703 16.6826 8.45703C19.3393 8.45703 22.2156 10.1506 22.3097 13.1091H19.0987Z" fill="black"/>
<path d="M27.9996 16.4443H30.7922L29.4325 12.1372H29.4011L27.9996 16.4443ZM27.7904 8.71875H31.0537L35.6558 21.0231H32.3088L31.5453 18.8173H27.257L26.483 21.0231H23.1987L27.7904 8.71875Z" fill="black"/>
<path d="M37.0156 8.71875H40.2266V18.2633H45.9688V21.0231H37.0156V8.71875Z" fill="black"/>
<path d="M51.1986 8.71875H47.9875V21.0231H51.1986V8.71875Z" fill="black"/>
<path d="M57.4009 16.4443H60.1935L58.8338 12.1372H58.8025L57.4009 16.4443ZM57.1917 8.71875H60.455L65.0571 21.0231H61.7102L60.9466 18.8173H56.6583L55.8843 21.0231H52.5896L57.1917 8.71875Z" fill="black"/>
<path d="M66.396 8.71875H69.6802L73.9686 16.2979H73.9999V8.71875H77.0122V21.0231H73.7175L69.4397 13.3499H69.4083V21.0231H66.396V8.71875Z" fill="black"/>
<path d="M49.1276 0C32.5077 0 16.9128 1.5681 3.4725 4.30705L0 5.77061C11.3693 3.98298 23.9519 2.98985 37.1934 2.98985C40.9065 2.98985 44.5777 3.06302 48.1758 3.21983L49.6505 1.3172L51.1462 3.36619C63.6974 4.0457 75.4119 5.62425 85.7457 7.91368L96.9895 4.77748C83.0681 1.74582 66.6784 0 49.1276 0Z" fill="#0F74B9"/>
<path d="M84.6161 19.5491C84.6684 19.5491 84.7207 19.5387 84.773 19.5073C84.8149 19.4655 84.8358 19.4132 84.8253 19.3505C84.8358 19.2982 84.8149 19.2355 84.773 19.2041C84.7312 19.1728 84.6684 19.1519 84.6161 19.1623H84.2814V19.5596L84.6161 19.5491ZM84.7207 18.9219C84.8253 18.9219 84.9299 18.9532 85.0136 19.0264C85.0868 19.0996 85.1391 19.1937 85.1286 19.2982C85.1391 19.455 85.0554 19.5909 84.909 19.6537C84.9508 19.6641 84.9927 19.6955 85.024 19.7268C85.0554 19.7582 85.0763 19.8 85.0868 19.8418C85.1077 19.915 85.1182 19.9882 85.1182 20.0509C85.1182 20.145 85.1286 20.2286 85.1705 20.3123H84.8672C84.8462 20.2286 84.8253 20.1554 84.8253 20.0718C84.8253 19.9882 84.8044 19.9046 84.7521 19.8209C84.7103 19.7791 84.6475 19.7582 84.5848 19.7582H84.271V20.3123H83.9677V18.9219H84.7207Z" fill="black"/>
<path d="M84.5115 18.3262C83.7689 18.3262 83.1727 18.9221 83.1727 19.6643C83.1727 20.4065 83.7689 21.0024 84.5115 21.0024C85.2541 21.0024 85.8503 20.4065 85.8503 19.6643C85.8503 18.9221 85.2541 18.3262 84.5115 18.3262ZM84.5115 18.5771C85.1077 18.5771 85.5993 19.058 85.5993 19.6538C85.5993 20.2497 85.1182 20.741 84.522 20.741C83.9258 20.741 83.4342 20.2602 83.4342 19.6643C83.4342 19.058 83.9258 18.5771 84.5115 18.5771Z" fill="black"/>
<path d="M7.88641 32.0411C7.83411 32.5533 7.64584 32.9506 7.3216 33.2433C6.99736 33.536 6.55807 33.6719 6.00372 33.6719C5.64811 33.6823 5.30295 33.5883 4.98917 33.4001C4.69631 33.2119 4.45574 32.9506 4.31977 32.6265C4.15242 32.2606 4.06874 31.8633 4.06874 31.4661V31.0166C4.05829 30.6089 4.14196 30.2012 4.30931 29.8248C4.45574 29.5007 4.69631 29.2185 4.99963 29.0303C5.31341 28.8421 5.66902 28.748 6.0351 28.748C6.56853 28.748 6.9869 28.8944 7.31114 29.1767C7.63538 29.4589 7.82365 29.8666 7.87595 30.3893H7.04966C7.00782 30.0443 6.91369 29.7934 6.74634 29.6471C6.57899 29.5007 6.34888 29.4171 6.0351 29.4171C5.71086 29.3962 5.39708 29.553 5.19835 29.8144C5.01009 30.0757 4.90549 30.4625 4.90549 30.9747V31.4034C4.90549 31.9261 4.99963 32.3129 5.18789 32.5847C5.3657 32.8565 5.67948 33.0133 6.00372 32.9924C6.32796 32.9924 6.57899 32.9192 6.74634 32.7728C6.91369 32.6265 7.01828 32.3756 7.06012 32.0411H7.88641Z" fill="black"/>
<path d="M8.87988 31.7797C8.87988 31.4557 8.94264 31.1316 9.08907 30.8389C9.21458 30.5671 9.42377 30.3475 9.67479 30.1907C9.93628 30.0339 10.2396 29.9607 10.5325 29.9607C10.9718 29.9398 11.4006 30.1071 11.7039 30.4207C12.0072 30.7343 12.1641 31.142 12.185 31.6543V31.8425C12.1955 32.1665 12.1223 32.4906 11.9863 32.7833C11.8608 33.0447 11.6621 33.2747 11.411 33.421C11.1496 33.5778 10.8462 33.651 10.5429 33.651C10.0827 33.6719 9.64341 33.4837 9.32963 33.1492C9.02631 32.8147 8.87988 32.3652 8.87988 31.8111V31.7797ZM9.68525 31.8529C9.68525 32.2188 9.75847 32.5011 9.91536 32.7101C10.1768 33.0551 10.6789 33.1283 11.024 32.8669C11.0868 32.8251 11.1391 32.7729 11.1809 32.7101C11.3274 32.5011 11.4006 32.1874 11.4006 31.7797C11.4215 31.4766 11.3378 31.1734 11.1705 30.9225C10.9195 30.5775 10.4279 30.5043 10.0827 30.7552C10.02 30.7971 9.96766 30.8598 9.91536 30.912C9.75847 31.1316 9.68525 31.4347 9.68525 31.8529Z" fill="black"/>
<path d="M14.0887 30.0346L14.1096 30.4423C14.3607 30.1286 14.7477 29.9509 15.1451 29.9614C15.8877 29.9614 16.2643 30.39 16.2747 31.2368V33.5889H15.4798V31.2786C15.4903 31.1009 15.438 30.9231 15.3334 30.7768C15.2393 30.6722 15.0719 30.6095 14.8523 30.6095C14.5489 30.5991 14.2665 30.7663 14.1306 31.0486V33.5889H13.3252V30.0241H14.0887V30.0346Z" fill="black"/>
<path d="M17.8437 33.5997V30.6308H17.2998V30.0349H17.8437V29.7108C17.8437 29.3136 17.9483 29.0104 18.1679 28.7909C18.3876 28.5713 18.6909 28.4668 19.0884 28.4668C19.2348 28.4668 19.3917 28.4877 19.5381 28.5295L19.5172 29.1568C19.4126 29.1359 19.3185 29.1254 19.2139 29.1359C18.8269 29.1359 18.6386 29.3345 18.6386 29.7213V30.0349H19.3603V30.6308H18.6386V33.5997H17.8437Z" fill="black"/>
<path d="M20.427 29.1151C20.427 29.0001 20.4688 28.8955 20.5421 28.8119C20.6362 28.7283 20.7617 28.6864 20.8768 28.6969C21.0023 28.6864 21.1173 28.7283 21.2115 28.8223C21.2951 28.906 21.337 29.0105 21.3265 29.1255C21.3265 29.2405 21.2847 29.345 21.2115 29.4287C21.1173 29.5123 21.0023 29.5541 20.8768 29.5437C20.7512 29.5541 20.6362 29.5123 20.5421 29.4287C20.4793 29.3346 20.427 29.2196 20.427 29.1151ZM21.2847 33.5998H20.4898V30.035H21.2847V33.5998Z" fill="black"/>
<path d="M22.4771 31.7903C22.4771 31.2466 22.6026 30.7971 22.8536 30.4731C23.0942 30.149 23.4707 29.9608 23.8786 29.9713C24.2238 29.9608 24.5689 30.1072 24.799 30.3685V28.5391H25.5939V33.5988H24.8722L24.8304 33.2329C24.6003 33.5152 24.2447 33.6824 23.8681 33.672C23.4707 33.6824 23.0942 33.4943 22.8536 33.1702C22.6026 32.8252 22.4771 32.3652 22.4771 31.7903ZM23.272 31.8634C23.272 32.2293 23.3452 32.5116 23.4811 32.7102C23.6171 32.9088 23.8368 33.0238 24.0773 33.0134C24.3807 33.0238 24.6631 32.8566 24.799 32.5743V31.048C24.6735 30.7762 24.3911 30.609 24.0878 30.6194C23.8472 30.609 23.6171 30.7239 23.4916 30.9226C23.3452 31.1421 23.272 31.4453 23.272 31.8634Z" fill="black"/>
<path d="M28.4703 33.6612C28.01 33.6821 27.5603 33.5043 27.2361 33.1803C26.9223 32.8562 26.7654 32.438 26.7654 31.9049V31.8108C26.7654 31.4763 26.8281 31.1522 26.9746 30.8595C27.1001 30.5877 27.2988 30.3681 27.5498 30.2113C27.8009 30.0545 28.0833 29.9709 28.3761 29.9813C28.8677 29.9813 29.2442 30.1382 29.5057 30.4413C29.7672 30.7549 29.9032 31.194 29.9032 31.7585V32.0826H27.5708C27.5812 32.3439 27.6858 32.5948 27.8636 32.783C28.031 32.9503 28.2715 33.0444 28.5121 33.0444C28.8677 33.0548 29.2024 32.8876 29.4116 32.6053L29.8404 33.013C29.694 33.2221 29.4953 33.3998 29.2652 33.5043C29.0246 33.6089 28.7527 33.6716 28.4703 33.6612ZM28.3761 30.6086C28.1774 30.5981 27.9787 30.6818 27.8427 30.8386C27.6963 31.0267 27.6021 31.2463 27.5812 31.4763H29.1083V31.4135C29.1083 31.194 29.0351 30.9745 28.8991 30.8072C28.7631 30.6713 28.5748 30.5981 28.3761 30.6086Z" fill="black"/>
<path d="M31.7442 30.0346L31.7651 30.4423C32.0162 30.1286 32.4031 29.9509 32.8006 29.9614C33.5432 29.9614 33.9197 30.39 33.9302 31.2368V33.5889H33.1248V31.2786C33.1353 31.1009 33.083 30.9231 32.9784 30.7768C32.8843 30.6722 32.7169 30.6095 32.4973 30.6095C32.194 30.5991 31.9116 30.7663 31.7756 31.0486V33.5889H30.9702V30.0241H31.7442V30.0346Z" fill="black"/>
<path d="M36.5553 33.0241C36.7331 33.0346 36.9109 32.9718 37.0574 32.8464C37.1829 32.7419 37.2561 32.585 37.2666 32.4178H38.0196C38.0092 32.6373 37.936 32.8568 37.8104 33.0346C37.6745 33.2332 37.4967 33.39 37.2875 33.4945C37.0678 33.6095 36.8168 33.6618 36.5658 33.6618C36.0637 33.6618 35.6767 33.505 35.3839 33.1809C35.091 32.8568 34.9446 32.4178 34.9446 31.8428V31.7592C34.9446 31.2156 35.091 30.787 35.3839 30.4524C35.6767 30.1283 36.0742 29.9611 36.5658 29.9611C36.9423 29.9402 37.3189 30.0761 37.6013 30.327C37.8732 30.5779 38.0196 30.9333 38.0196 31.2992H37.2666C37.2666 31.111 37.1933 30.9333 37.0574 30.7974C36.9214 30.6615 36.7436 30.5988 36.5553 30.5988C36.3252 30.5883 36.0951 30.6929 35.9591 30.881C35.8232 31.0692 35.7499 31.3515 35.7499 31.7383V31.8637C35.7499 32.2505 35.8232 32.5432 35.9591 32.7314C36.0846 32.93 36.3148 33.0346 36.5553 33.0241Z" fill="black"/>
<path d="M40.6556 33.6612C40.1953 33.6821 39.7456 33.5043 39.4214 33.1803C39.1076 32.8562 38.9507 32.438 38.9507 31.9049V31.8108C38.9507 31.4763 39.0134 31.1522 39.1599 30.8595C39.2854 30.5877 39.4841 30.3681 39.7351 30.2113C39.9862 30.0545 40.2686 29.9709 40.5614 29.9813C41.053 29.9813 41.4296 30.1382 41.691 30.4413C41.9525 30.7549 42.0885 31.194 42.0885 31.7585V32.0826H39.7561C39.7665 32.3439 39.8711 32.5948 40.0489 32.783C40.2163 32.9503 40.4568 33.0444 40.6974 33.0444C41.053 33.0548 41.3877 32.8876 41.5969 32.6053L42.0257 33.013C41.8793 33.2221 41.691 33.3998 41.4505 33.5043C41.2099 33.6089 40.938 33.6716 40.6556 33.6612ZM40.5614 30.6086C40.3627 30.5981 40.164 30.6818 40.028 30.8386C39.8816 31.0267 39.7874 31.2463 39.7665 31.4763H41.2936V31.4135C41.2936 31.194 41.2204 30.9745 41.0739 30.8072C40.9484 30.6713 40.7602 30.5981 40.5614 30.6086Z" fill="black"/>
<path d="M43.5527 32.7533C43.6783 32.7428 43.8038 32.7951 43.8979 32.8787C43.9816 32.9624 44.0234 33.0774 44.0234 33.1923C44.0234 33.3073 43.9816 33.4223 43.8979 33.506C43.6992 33.6732 43.4168 33.6732 43.218 33.506C43.1344 33.4223 43.0925 33.3073 43.0925 33.1923C43.0925 33.0774 43.1344 32.9624 43.218 32.8787C43.2913 32.7951 43.4168 32.7533 43.5527 32.7533Z" fill="black"/>
<path d="M50.4349 31.4561H48.4686V32.9301H50.7696V33.5992H47.6318V28.8008H50.7487V29.4698H48.4686V30.7975H50.4349V31.4561Z" fill="black"/>
<path d="M52.5897 30.0346L52.6106 30.4423C52.8616 30.1286 53.2486 29.9509 53.6461 29.9614C54.3887 29.9614 54.7652 30.39 54.7757 31.2368V33.5889H53.9703V31.2786C53.9808 31.1009 53.9285 30.9231 53.8239 30.7768C53.7297 30.6722 53.5624 30.6095 53.3427 30.6095C53.0394 30.5991 52.757 30.7663 52.621 31.0486V33.5889H51.8157V30.0241H52.5897V30.0346Z" fill="black"/>
<path d="M55.7902 31.7916C55.7902 31.2375 55.9157 30.7984 56.1772 30.4639C56.4177 30.1398 56.8047 29.9516 57.2126 29.9726C57.5787 29.9516 57.9343 30.1085 58.1749 30.4012L58.2063 30.0457H58.928V33.4956C58.928 33.966 58.7815 34.3319 58.4887 34.6037C58.1958 34.8755 57.8088 35.0114 57.3068 35.0114C57.0453 35.0114 56.7838 34.9591 56.5432 34.8546C56.3236 34.7605 56.1249 34.6141 55.9784 34.426L56.355 33.9451C56.5746 34.2273 56.9093 34.3841 57.2649 34.3841C57.495 34.3946 57.7147 34.3214 57.8925 34.1646C58.0598 33.9973 58.1435 33.7674 58.1226 33.5269V33.2865C57.8925 33.5478 57.5473 33.6837 57.2022 33.6733C56.8047 33.6837 56.4177 33.4956 56.1772 33.1715C55.9261 32.837 55.7902 32.377 55.7902 31.7916ZM56.5851 31.8647C56.5851 32.2202 56.6583 32.5024 56.8047 32.7115C56.9407 32.9101 57.1708 33.0251 57.4114 33.0147C57.7147 33.0251 57.9971 32.8683 58.1331 32.5965V31.0284C57.9971 30.7671 57.7147 30.6102 57.4218 30.6207C57.1813 30.6102 56.9407 30.7252 56.8047 30.9343C56.6687 31.1434 56.5955 31.457 56.5851 31.8647Z" fill="black"/>
<path d="M60.2353 29.1138C60.2353 28.9988 60.2772 28.8942 60.3504 28.8106C60.4445 28.727 60.5596 28.6852 60.6851 28.6852C60.8106 28.6747 60.9257 28.7165 61.0198 28.8106C61.1035 28.8942 61.1453 28.9988 61.1348 29.1138C61.1348 29.2288 61.093 29.3333 61.0198 29.4169C60.9257 29.5006 60.8106 29.5424 60.6851 29.5319C60.5596 29.5424 60.4445 29.5006 60.3504 29.4169C60.2667 29.3333 60.2249 29.2183 60.2353 29.1138ZM61.0825 33.5985H60.2772V30.0337H61.0825V33.5985Z" fill="black"/>
<path d="M63.1641 30.0346L63.185 30.4423C63.436 30.1286 63.823 29.9509 64.2204 29.9614C64.9631 29.9614 65.3396 30.39 65.3501 31.2368V33.5889H64.5447V31.2786C64.5551 31.1009 64.5028 30.9231 64.3983 30.7768C64.3041 30.6722 64.1368 30.6095 63.9171 30.6095C63.6138 30.5991 63.3314 30.7663 63.1954 31.0486V33.5889H62.4005V30.0241H63.1641V30.0346Z" fill="black"/>
<path d="M68.2159 33.6612C67.7556 33.6821 67.3059 33.5043 66.9817 33.1803C66.6679 32.8562 66.511 32.438 66.511 31.9049V31.8108C66.511 31.4763 66.5737 31.1522 66.7202 30.8595C66.8457 30.5877 67.0444 30.3681 67.2954 30.2113C67.5465 30.0545 67.8289 29.9709 68.1217 29.9813C68.6133 29.9813 68.9898 30.1382 69.2513 30.4413C69.5128 30.7549 69.6488 31.194 69.6488 31.7585V32.0826H67.3164C67.3268 32.3439 67.4314 32.5948 67.6092 32.783C67.7766 32.9503 68.0171 33.0444 68.2577 33.0444C68.6133 33.0548 68.948 32.8876 69.1572 32.6053L69.586 33.013C69.4396 33.2221 69.2409 33.3998 69.0108 33.5043C68.7702 33.6089 68.4983 33.6716 68.2159 33.6612ZM68.1217 30.6086C67.923 30.5981 67.7243 30.6818 67.5883 30.8386C67.4419 31.0267 67.3477 31.2463 67.3268 31.4763H68.8539V31.4135C68.8539 31.194 68.7807 30.9745 68.6447 30.8072C68.5087 30.6713 68.3204 30.5981 68.1217 30.6086Z" fill="black"/>
<path d="M72.3055 33.6612C71.8452 33.6821 71.3955 33.5043 71.0713 33.1803C70.7575 32.8562 70.6006 32.438 70.6006 31.9049V31.8108C70.6006 31.4763 70.6633 31.1522 70.8098 30.8595C70.9353 30.5877 71.134 30.3681 71.385 30.2113C71.6361 30.0545 71.9185 29.9709 72.2113 29.9813C72.7029 29.9813 73.069 30.1382 73.3409 30.4413C73.6024 30.7549 73.7384 31.1836 73.7384 31.7585V32.0826H71.406C71.4164 32.3439 71.521 32.5948 71.6988 32.783C71.8662 32.9503 72.1067 33.0444 72.3473 33.0444C72.7029 33.0548 73.0376 32.8876 73.2468 32.6053L73.6756 33.013C73.5292 33.2221 73.3409 33.3998 73.1004 33.5043C72.8598 33.6089 72.5879 33.6716 72.3055 33.6612ZM72.2113 30.6086C72.0126 30.5981 71.8139 30.6818 71.6779 30.8386C71.5315 31.0267 71.4373 31.2463 71.4164 31.4763H72.9435V31.4135C72.9435 31.194 72.8703 30.9745 72.7343 30.8072C72.6088 30.6713 72.4101 30.5981 72.2113 30.6086Z" fill="black"/>
<path d="M76.6984 30.7669C76.5938 30.746 76.4787 30.746 76.3742 30.746C76.0081 30.746 75.757 30.8924 75.6315 31.1642V33.6104H74.8262V30.0456H75.5897L75.6106 30.4428C75.7675 30.1501 76.0813 29.9724 76.416 29.9829C76.5101 29.9829 76.6043 29.9933 76.6984 30.0247V30.7669Z" fill="black"/>
<path d="M79.1878 33.6612C78.7276 33.6821 78.2778 33.5043 77.9536 33.1803C77.6398 32.8562 77.4829 32.438 77.4829 31.9049V31.8108C77.4829 31.4763 77.5457 31.1522 77.6921 30.8595C77.8176 30.5877 78.0163 30.3681 78.2674 30.2113C78.5184 30.0545 78.8008 29.9709 79.0937 29.9813C79.5852 29.9813 79.9513 30.1382 80.2233 30.4413C80.4847 30.7549 80.6207 31.1836 80.6207 31.7585V32.0826H78.2883C78.2987 32.3439 78.4033 32.5948 78.5811 32.783C78.7485 32.9503 78.9891 33.0444 79.2296 33.0444C79.5852 33.0548 79.9199 32.8876 80.1291 32.6053L80.558 33.013C80.4115 33.2221 80.2233 33.3998 79.9827 33.5043C79.7421 33.6089 79.4597 33.6716 79.1878 33.6612ZM79.0832 30.6086C78.8845 30.5981 78.6857 30.6818 78.5498 30.8386C78.4033 31.0267 78.3092 31.2463 78.2883 31.4763H79.8153V31.4135C79.8153 31.194 79.7421 30.9745 79.6062 30.8072C79.4702 30.6713 79.2819 30.5981 79.0832 30.6086Z" fill="black"/>
<path d="M81.5515 31.7903C81.5515 31.2466 81.677 30.7971 81.9385 30.4731C82.1791 30.149 82.5556 29.9608 82.9635 29.9713C83.3087 29.9608 83.6538 30.1072 83.8839 30.3685V28.5391H84.6893V33.5988H83.9676L83.9258 33.2329C83.6957 33.5152 83.3401 33.6824 82.9635 33.672C82.5661 33.6824 82.1895 33.4943 81.949 33.1702C81.6875 32.8252 81.5515 32.3652 81.5515 31.7903ZM82.3569 31.8634C82.3569 32.2293 82.4301 32.5116 82.5661 32.7102C82.702 32.9088 82.9217 33.0238 83.1622 33.0134C83.4656 33.0238 83.748 32.8566 83.8839 32.5743V31.048C83.7584 30.7762 83.476 30.609 83.1727 30.6194C82.9321 30.609 82.702 30.7239 82.5765 30.9226C82.4301 31.1421 82.3569 31.4453 82.3569 31.8634Z" fill="black"/>
<path d="M86.3524 32.7533C86.4779 32.7428 86.6034 32.7951 86.6976 32.8787C86.7813 32.9624 86.8231 33.0774 86.8231 33.1923C86.8231 33.3073 86.7813 33.4223 86.6976 33.506C86.4989 33.6732 86.2165 33.6732 86.0177 33.506C85.9341 33.4223 85.8922 33.3073 85.8922 33.1923C85.8922 33.0774 85.9341 32.9624 86.0177 32.8787C86.1014 32.7951 86.2269 32.7533 86.3524 32.7533Z" fill="black"/>
</g>
<defs>
<clipPath id="clip0_3308_7621">
<rect width="97" height="35" fill="white"/>
</clipPath>
</defs>
</svg>
