<svg width="174" height="34" viewBox="0 0 174 34" fill="none" xmlns="http://www.w3.org/2000/svg">
<g clip-path="url(#clip0_3308_7749)">
<path d="M26.3905 33.9784C26.1899 33.876 26.1039 33.6883 26.0466 33.4892C26.018 33.3811 25.9607 33.3526 25.8518 33.3526C24.3503 33.3299 22.8546 33.2787 21.3588 33.1422C20.6425 33.0739 19.9261 32.9772 19.2097 32.8748C18.8888 32.8293 18.5851 32.7269 18.31 32.5506C17.7369 32.1808 17.6509 31.5096 18.1323 31.0261C18.3386 30.8213 18.5736 30.6392 18.8143 30.4686C19.9433 29.6893 21.2041 29.2057 22.5336 28.8758C23.4907 28.6369 24.4649 28.4662 25.4449 28.3468C25.4621 28.3468 25.4793 28.3411 25.5137 28.3297C25.4506 27.4252 25.3876 26.5265 25.3188 25.6049C25.4736 25.6049 25.6168 25.5992 25.7601 25.6106C25.783 25.6106 25.8231 25.6789 25.8231 25.713C25.8518 26.0828 25.8804 26.4525 25.9034 26.828C25.9435 27.3797 25.9836 27.9372 26.018 28.489C26.0294 28.6938 25.9549 28.7791 25.7544 28.8019C24.5509 28.9498 23.3589 29.1489 22.1898 29.4788C20.9978 29.8144 19.8745 30.2979 18.8716 31.0317C18.7226 31.1398 18.5851 31.265 18.459 31.3958C18.2412 31.629 18.2813 31.9305 18.5507 32.1012C18.6768 32.1808 18.8143 32.2434 18.9576 32.2889C19.502 32.4652 20.0694 32.5278 20.6367 32.5733C21.8517 32.6643 23.0609 32.744 24.2758 32.8122C24.8833 32.8464 25.4907 32.8521 26.0982 32.8634C26.3332 32.8691 26.3733 32.8976 26.4478 33.1194C26.4593 33.1479 26.4707 33.182 26.4822 33.2104C26.4994 33.2047 26.5051 33.2047 26.5051 33.2047C26.551 32.926 26.7286 32.8577 26.998 32.8577C27.594 32.8577 28.19 32.8407 28.7803 32.8122C30.2588 32.7497 31.7431 32.6814 33.2102 32.4709C33.5712 32.4197 33.9208 32.3116 34.2704 32.2036C34.4538 32.1467 34.6028 32.0215 34.6544 31.8224C34.6945 31.6745 34.6658 31.5494 34.5627 31.447C34.4194 31.3048 34.2761 31.1626 34.1157 31.0431C33.0612 30.2695 31.8806 29.7746 30.6199 29.439C29.5081 29.1432 28.3734 28.9498 27.2329 28.8132C27.0266 28.7905 26.9521 28.7052 26.9693 28.5004C27.0094 27.9145 27.0495 27.3285 27.0897 26.7426C27.1126 26.4127 27.1412 26.0771 27.1584 25.7471C27.1642 25.6391 27.1985 25.5992 27.3074 25.6106C27.422 25.6163 27.5367 25.6106 27.6685 25.6106C27.6054 26.5265 27.5367 27.4252 27.4736 28.3411C27.7086 28.3752 27.9436 28.4037 28.1728 28.4378C29.68 28.6653 31.1643 28.9782 32.5683 29.5869C33.3134 29.9111 34.0125 30.315 34.6486 30.827C34.769 30.9237 34.8836 31.0431 34.9753 31.1683C35.279 31.5665 35.2103 32.1182 34.8263 32.4425C34.5226 32.6985 34.1558 32.8179 33.7776 32.8748C33.1128 32.9772 32.4423 33.0796 31.7718 33.1308C30.6886 33.2161 29.5998 33.2673 28.5109 33.3185C28.0467 33.3413 27.5825 33.347 27.124 33.3526C27.0209 33.3526 26.975 33.3811 26.9464 33.4778C26.8891 33.6826 26.8031 33.876 26.5968 33.9784C26.528 34.0068 26.4593 34.0068 26.3905 33.9784Z" fill="white"/>
<path d="M0.0229555 9.98437C0.0516098 9.86492 0.0974566 9.73977 0.154765 9.63169C0.298036 9.35295 0.555924 9.19936 0.842467 9.09128C1.30667 8.92063 1.79379 8.86943 2.28091 8.82961C3.62766 8.73291 4.98014 8.63621 6.33262 8.54519C7.45587 8.47124 8.58484 8.39729 9.70809 8.32334C10.4531 8.27214 11.1924 8.22664 11.9374 8.17544C12.0234 8.16975 12.115 8.16975 12.2125 8.16406C12.2125 8.32903 12.2125 8.48262 12.2125 8.64758C12.1781 8.65327 12.138 8.66465 12.0979 8.66465C10.562 8.76704 9.02612 8.85806 7.49025 8.96614C5.71942 9.08559 3.94286 9.20505 2.17202 9.34158C1.79952 9.37002 1.41555 9.43828 1.06024 9.54636C0.492885 9.71702 0.338152 10.2119 0.676272 10.7068C0.905506 11.0424 1.24936 11.2415 1.6104 11.4179C2.2236 11.7194 2.88265 11.8786 3.53597 12.0607C6.38993 12.8457 9.23816 13.625 12.0921 14.41C12.1895 14.4384 12.2297 14.4726 12.2239 14.575C12.2125 14.6944 12.2239 14.8196 12.2239 14.9561C11.9546 14.8821 11.7082 14.8139 11.456 14.7456C8.49888 13.9322 5.54176 13.1187 2.58464 12.3053C2.0746 12.1631 1.58175 11.981 1.11755 11.7137C0.59604 11.4179 0.171958 11.0481 0.0229555 10.4338C-0.00569872 10.2859 -0.00569872 10.138 0.0229555 9.98437Z" fill="white"/>
<path d="M52.9703 10.4338C52.7754 11.2131 52.1622 11.5885 51.4975 11.9071C50.8957 12.1915 50.2481 12.3508 49.6063 12.5271C46.7237 13.3178 43.8411 14.1085 40.9584 14.8992C40.9241 14.9106 40.8839 14.9163 40.8266 14.9277C40.8266 14.7684 40.8209 14.6205 40.8324 14.4726C40.8324 14.4441 40.9011 14.3986 40.9412 14.3873C41.6289 14.1938 42.3166 14.0061 43.0044 13.8184C45.4572 13.1415 47.91 12.4702 50.3628 11.7933C50.89 11.6454 51.4 11.4463 51.8528 11.1334C52.082 10.9799 52.2883 10.7978 52.3972 10.5362C52.5519 10.155 52.5061 9.73977 52.0018 9.55774C51.6006 9.41553 51.188 9.35864 50.7696 9.3302C49.2854 9.22212 47.8068 9.11973 46.3225 9.01733C45.0503 8.93201 43.778 8.85237 42.5115 8.77273C41.9556 8.7386 41.4054 8.69878 40.8381 8.65896C40.8381 8.49968 40.8381 8.34041 40.8381 8.16406C40.947 8.16975 41.0501 8.18113 41.1533 8.18682C42.1562 8.24939 43.1591 8.31196 44.162 8.38022C45.2852 8.45417 46.4142 8.52812 47.5374 8.60776C48.4716 8.67034 49.4114 8.72722 50.3456 8.80686C50.8556 8.85237 51.3714 8.91494 51.8757 9.01164C52.4144 9.11973 52.8385 9.39846 52.9588 9.98437C52.9703 10.138 52.9703 10.2859 52.9703 10.4338Z" fill="white"/>
<path d="M26.7058 0.0292022C27.1356 0.154349 27.3591 0.478592 27.468 0.876785C27.6055 1.37737 27.7259 1.88364 27.8119 2.39561C28.0526 3.78359 28.15 5.19434 28.2417 6.59939C28.2589 6.84968 28.2761 7.09429 28.2932 7.35027C28.8377 7.3844 29.3706 7.42422 29.9151 7.45835C29.9151 7.62331 29.9151 7.7769 29.9151 7.94756C29.6457 7.93049 29.3821 7.91911 29.1185 7.90205C28.7804 7.87929 28.4423 7.85085 28.1041 7.83379C27.8978 7.82241 27.8176 7.75415 27.8061 7.54367C27.7545 6.81555 27.7144 6.08743 27.6571 5.3593C27.554 4.05664 27.4279 2.75398 27.1242 1.47407C27.0726 1.25222 26.9923 1.03606 26.9121 0.825588C26.8605 0.689065 26.7631 0.575296 26.6141 0.529788C26.425 0.478592 26.2359 0.535476 26.1384 0.723196C26.0296 0.933669 25.9321 1.15552 25.892 1.38306C25.743 2.15669 25.5826 2.93032 25.5023 3.70964C25.3705 4.97248 25.2903 6.2467 25.1929 7.51523C25.1757 7.75984 25.1126 7.81672 24.8662 7.83379C24.4249 7.86223 23.9894 7.89067 23.5481 7.9248C23.4736 7.93049 23.4278 7.91911 23.3991 7.83947C23.3533 7.71433 23.2959 7.59487 23.2329 7.44697C23.7315 7.41284 24.2129 7.37871 24.7 7.34458C24.7172 7.09429 24.7344 6.84968 24.7516 6.60508C24.8375 5.24553 24.935 3.89167 25.1585 2.54351C25.2444 2.00879 25.382 1.48545 25.4966 0.950735C25.5081 0.910915 25.5252 0.865408 25.5367 0.825588C25.6743 0.450149 25.8806 0.137283 26.2932 0.0178253C26.4307 -0.00492859 26.5683 -0.0106171 26.7058 0.0292022Z" fill="white"/>
<path d="M14.1381 11.9464C14.1381 13.5846 14.1381 15.2229 14.1381 16.8612C14.1381 17.0034 14.1438 17.1399 14.1495 17.2821C14.1782 17.9022 14.4246 18.3971 15.0321 18.6417C15.5364 18.8465 16.0407 19.0569 16.5622 19.2219C17.909 19.6429 19.1239 19.3698 20.1727 18.4369C20.7572 17.9136 21.1125 17.2423 21.3876 16.5256C21.9263 15.1091 22.1154 13.6301 22.1441 12.1227C22.167 10.9452 22.0123 9.79043 21.7544 8.64704C21.5595 7.79946 21.2902 6.98032 20.8088 6.24082C20.0409 5.05762 18.5566 4.19297 16.8259 4.63098C16.1725 4.79595 15.5593 5.06331 14.9461 5.32497C14.6137 5.46719 14.3673 5.7061 14.2699 6.0531C14.1954 6.32046 14.1495 6.60488 14.1495 6.87793C14.1324 8.56172 14.1381 10.2512 14.1381 11.9464ZM12.6996 11.9634C12.6996 10.0521 12.6996 8.14646 12.6996 6.23513C12.6996 5.98484 12.6423 5.74592 12.4933 5.54114C12.3558 5.35911 12.1839 5.24534 11.9432 5.27378C11.8457 5.28516 11.7999 5.24534 11.7942 5.15432C11.7884 5.06331 11.7942 4.97229 11.9145 4.96091C12.138 4.93816 12.3615 4.92109 12.585 4.90403C13.2842 4.86421 13.9547 4.6708 14.6309 4.51152C15.3817 4.33518 16.1267 4.14177 16.8832 3.99387C18.4993 3.67532 19.9148 4.1304 21.0896 5.25102C22.3962 6.50249 23.1814 8.05544 23.4794 9.83593C23.8175 11.8497 23.657 13.8349 22.9693 15.7633C22.5338 16.9977 21.8403 18.0785 20.8145 18.9204C19.8861 19.6884 18.8145 20.0809 17.5938 20.024C16.9749 19.9955 16.3731 19.842 15.7771 19.6997C14.9862 19.512 14.1954 19.2959 13.3988 19.1309C12.9289 19.0342 12.436 19.0228 11.9546 18.9773C11.7999 18.9602 11.7483 18.909 11.7884 18.7668C11.7999 18.727 11.8572 18.6701 11.8973 18.6644C12.3615 18.6132 12.5736 18.4369 12.671 17.9875C12.6939 17.8851 12.6996 17.777 12.6996 17.6746C12.6996 15.7747 12.6996 13.8691 12.6996 11.9634Z" fill="white"/>
<path d="M30.4021 12.3104C30.4021 10.0748 30.4021 7.84496 30.4021 5.60939C30.4021 5.41599 30.3792 5.22827 30.3563 5.03486C30.3104 4.65942 30.0984 4.44326 29.7202 4.39206C29.5998 4.375 29.5654 4.3238 29.5712 4.21003C29.5769 4.07919 29.6055 4.05075 29.7431 4.07351C30.0239 4.1247 30.3047 4.19865 30.5912 4.22141C31.1643 4.26691 31.7317 4.28398 32.3048 4.30673C32.4308 4.31242 32.4824 4.35224 32.4538 4.46032C32.4423 4.50014 32.385 4.56272 32.3506 4.56272C31.9609 4.59685 31.8635 4.75612 31.8463 5.12019C31.8348 5.38185 31.8406 5.64352 31.8406 5.90519C31.8406 7.58898 31.8406 9.26708 31.8406 10.9509C31.8406 11.1727 31.8864 11.2182 32.1157 11.2182C34.2934 11.2182 36.4654 11.2182 38.6431 11.2182C38.8723 11.2182 38.9182 11.1727 38.9182 10.9395C38.9182 9.34672 38.9182 7.75395 38.9182 6.15549C38.9182 5.99052 38.901 5.82556 38.8723 5.66059C38.8265 5.33635 38.6488 5.1145 38.3279 5.0121C38.2706 4.99504 38.2018 4.98935 38.1732 4.94953C38.133 4.89833 38.1044 4.82438 38.1101 4.76181C38.1101 4.73337 38.2075 4.68217 38.2477 4.68786C39.0844 4.87558 39.944 4.92678 40.8036 4.89265C40.8552 4.89265 40.9297 4.92109 40.9526 4.96091C41.0042 5.04624 40.9412 5.13156 40.838 5.14294C40.4999 5.17707 40.391 5.28515 40.3681 5.62646C40.3566 5.8028 40.3509 5.97346 40.3509 6.1498C40.3509 9.75629 40.3509 13.3571 40.3509 16.9636C40.3509 17.1172 40.3681 17.2708 40.3967 17.4187C40.4368 17.6121 40.5858 17.7031 40.7807 17.6746C40.8781 17.6633 40.9469 17.6576 40.9641 17.777C40.9755 17.8908 40.924 17.9306 40.8151 17.9477C39.9612 18.0785 39.1359 18.3004 38.3279 18.6019C38.2534 18.6303 38.156 18.6929 38.0987 18.5734C38.0471 18.4653 38.0987 18.3402 38.219 18.3004C38.7004 18.1468 38.8838 17.7884 38.9067 17.322C38.9124 17.2423 38.9124 17.1627 38.9124 17.083C38.9124 15.4391 38.9124 13.7894 38.9124 12.1454C38.9124 11.9008 38.8781 11.861 38.6316 11.861C36.4596 11.861 34.2876 11.861 32.1214 11.861C31.875 11.861 31.8406 11.8952 31.8406 12.1398C31.8406 14.2672 31.8406 16.3947 31.8406 18.5222C31.8406 18.7896 31.8406 19.0569 31.8692 19.3186C31.8979 19.5632 32.0297 19.6485 32.2761 19.6258C32.3678 19.6144 32.4366 19.6201 32.448 19.7282C32.4595 19.8306 32.4538 19.9159 32.3105 19.933C31.4394 20.0638 30.597 20.2913 29.7775 20.6042C29.7144 20.627 29.6399 20.6668 29.5941 20.5758C29.5482 20.4961 29.5826 20.3141 29.6457 20.2743C29.6743 20.2572 29.703 20.2515 29.7316 20.2401C30.1557 20.0979 30.3506 19.7908 30.3792 19.3584C30.3849 19.2503 30.3964 19.1423 30.3964 19.0285C30.4021 16.8043 30.4021 14.5574 30.4021 12.3104Z" fill="white"/>
<path d="M25.5768 22.3174C25.4221 22.3174 25.2846 22.3231 25.1528 22.3117C25.1241 22.3117 25.0783 22.2492 25.0725 22.2093C25.0381 21.8168 25.0152 21.4243 24.9866 21.0318C24.9235 20.1899 24.8605 19.348 24.8032 18.5062C24.7974 18.4151 24.7344 18.4094 24.6771 18.3924C23.9894 18.199 23.3017 18.0113 22.6197 17.8178C22.5796 17.8065 22.5395 17.7951 22.4822 17.778C22.5739 17.6301 22.6656 17.4936 22.7573 17.3457C23.1756 17.4595 23.594 17.5789 24.0123 17.6927C24.3504 17.7894 24.6886 17.8804 25.0267 17.9771C25.2215 18.034 25.2674 18.0966 25.2788 18.29C25.3648 19.422 25.4508 20.5483 25.531 21.6803C25.5482 21.8851 25.5654 22.0899 25.5768 22.3174Z" fill="white"/>
<path d="M32.322 17.276C32.322 17.0997 32.322 16.9404 32.322 16.7697C34.3565 16.2123 36.3909 15.6491 38.4368 15.0859C38.4368 15.2452 38.4426 15.3931 38.4311 15.541C38.4254 15.5751 38.3623 15.6207 38.3165 15.632C37.6517 15.8197 36.9869 16.0018 36.3164 16.1838C35.0327 16.5365 33.7433 16.8949 32.4596 17.2476C32.4194 17.2532 32.3793 17.2589 32.322 17.276Z" fill="white"/>
<path d="M38.431 8.00969C38.431 8.17466 38.431 8.33393 38.431 8.50459C36.3965 8.37375 34.3678 8.24292 32.3276 8.11208C32.3276 7.95281 32.3276 7.79353 32.3276 7.61719C34.3564 7.74802 36.3908 7.87886 38.431 8.00969Z" fill="white"/>
<path d="M27.9094 22.3058C27.7374 22.3058 27.5827 22.3058 27.4165 22.3058C27.428 22.1124 27.4394 21.9247 27.4509 21.7369C27.5369 20.5765 27.6285 19.4161 27.7145 18.2556C27.726 18.1248 27.7775 18.0281 27.9094 17.9939C28.5569 17.8119 29.2045 17.6299 29.8521 17.4478C29.8636 17.4422 29.8808 17.4478 29.9037 17.4478C29.9037 17.6128 29.9037 17.7721 29.9037 17.9427C29.4338 18.0736 28.9638 18.2044 28.4939 18.3352C28.2074 18.4149 28.2016 18.4149 28.1787 18.6993C28.1099 19.6038 28.0412 20.5082 27.9781 21.407C27.9552 21.7085 27.9323 22.0043 27.9094 22.3058Z" fill="white"/>
<path d="M30.8892 23.8983C30.895 24.1657 30.8892 24.433 30.895 24.7004C30.895 24.871 30.9637 24.9393 31.1356 24.9507C31.3993 24.9677 31.6228 24.871 31.7832 24.6606C32.0239 24.3477 32.0984 23.9893 31.9838 23.6082C31.8635 23.1929 31.5196 22.9256 31.1185 22.9199C30.9351 22.9199 30.8892 22.9597 30.8892 23.1361C30.8892 23.392 30.8892 23.648 30.8892 23.8983ZM30.0754 25.0815C30.0754 25.036 30.0754 25.0019 30.0754 24.9677C30.0869 24.9621 30.0926 24.9507 30.1041 24.9507C30.362 24.9222 30.3734 24.9222 30.3734 24.6549C30.3792 24.1259 30.3734 23.5968 30.3734 23.0678C30.3734 22.9597 30.3219 22.9199 30.2187 22.9256C30.1786 22.9256 30.127 22.9256 30.0926 22.9085C30.0754 22.9028 30.0754 22.8516 30.0812 22.8289C30.0869 22.8118 30.1213 22.7891 30.1385 22.7891C30.6371 22.8004 31.1356 22.7777 31.6285 22.8346C32.2474 22.9085 32.5798 23.3579 32.5626 23.9723C32.5454 24.5582 32.15 25.0019 31.554 25.0588C31.2159 25.0929 30.8663 25.0758 30.5224 25.0815C30.3734 25.0872 30.2302 25.0815 30.0754 25.0815Z" fill="white"/>
<path d="M24.5739 23.2496C24.5739 23.6365 24.5739 23.9948 24.5739 24.3589C24.5739 24.467 24.5853 24.5751 24.591 24.6888C24.6025 24.8765 24.6426 24.9164 24.826 24.9562C24.8604 24.9619 24.8833 25.0188 24.912 25.0529C24.9005 25.0643 24.8948 25.0756 24.8833 25.087C24.6312 25.087 24.379 25.087 24.1211 25.087C24.1211 25.0472 24.1211 25.0074 24.1211 24.9732C24.3389 24.9277 24.3733 24.8993 24.379 24.6718C24.3962 24.2451 24.4019 23.8242 24.4134 23.3975C24.4134 23.352 24.4077 23.3122 24.4077 23.2667C24.3847 23.0449 24.316 22.9766 24.0352 22.914C24.0352 22.8799 24.0409 22.8401 24.0409 22.8003C24.2759 22.8003 24.5051 22.7946 24.7343 22.8059C24.7859 22.8059 24.8547 22.8571 24.8891 22.9026C25.2673 23.3577 25.6398 23.8185 26.018 24.2793C26.0524 24.3248 26.0925 24.3646 26.1441 24.4328C26.1498 24.3646 26.1498 24.3248 26.1498 24.2849C26.1441 23.9379 26.1384 23.5966 26.1269 23.2496C26.1212 22.9766 26.104 22.9652 25.8289 22.9254C25.8289 22.8856 25.8289 22.8458 25.8289 22.8059C26.0753 22.8059 26.316 22.8059 26.5682 22.8059C26.5682 22.8458 26.5739 22.8856 26.5739 22.9311C26.3848 22.9083 26.3676 23.0335 26.3619 23.1643C26.339 23.7559 26.316 24.3418 26.2988 24.9334C26.2988 24.9619 26.2988 24.996 26.2988 25.0244C26.2874 25.1325 26.2301 25.161 26.1384 25.0927C26.0811 25.0529 26.0352 24.996 25.9894 24.9448C25.5424 24.4101 25.0954 23.8754 24.6484 23.3407C24.6254 23.3122 24.6082 23.2895 24.5739 23.2496Z" fill="white"/>
<path d="M22.465 24.057C22.379 23.7498 22.293 23.454 22.2128 23.1582C22.2013 23.1582 22.1899 23.1582 22.1784 23.1582C22.0695 23.454 21.9606 23.7498 21.846 24.0627C22.0581 24.057 22.2529 24.057 22.465 24.057ZM23.5252 25.0923C23.2042 25.0923 22.8833 25.0923 22.5624 25.0923C22.5395 25.0923 22.5108 25.0525 22.4879 25.0297C22.5165 25.0013 22.5395 24.9558 22.5681 24.9558C22.7057 24.9614 22.7171 24.8932 22.6827 24.7908C22.6312 24.6258 22.5796 24.4552 22.5337 24.2902C22.5165 24.2219 22.4764 24.2049 22.4134 24.2049C22.2415 24.2106 22.0695 24.2106 21.8976 24.2049C21.8288 24.2049 21.7945 24.2276 21.7773 24.2902C21.7371 24.4324 21.6856 24.5746 21.6455 24.7168C21.5996 24.8932 21.6397 24.9444 21.8231 24.9558C21.846 24.9558 21.8632 24.9614 21.8919 24.9671C21.8919 25.007 21.8919 25.0411 21.8919 25.0866C21.6111 25.0866 21.336 25.0866 21.0552 25.0866C21.0552 25.0411 21.0552 25.007 21.0552 24.9558C21.3016 24.9842 21.3876 24.8192 21.4563 24.6315C21.6512 24.1252 21.8518 23.6247 22.0466 23.1184C22.0695 23.0558 22.0638 22.9762 22.0753 22.9022C22.2071 22.8453 22.3503 22.7771 22.5108 22.7031C22.5337 22.7714 22.5624 22.8453 22.5853 22.9136C22.7916 23.5109 22.9922 24.1139 23.1985 24.7112C23.2444 24.8477 23.3131 24.9558 23.4851 24.9501C23.5137 24.9501 23.5424 25.0126 23.571 25.0468C23.5481 25.0638 23.5366 25.0809 23.5252 25.0923Z" fill="white"/>
<path d="M34.4425 24.0627C34.3508 23.7498 34.2706 23.4597 34.1846 23.1639C34.1731 23.1639 34.1617 23.1639 34.1502 23.1639C34.0413 23.4597 33.9324 23.7555 33.8235 24.0627C34.0413 24.0627 34.2304 24.0627 34.4425 24.0627ZM35.5199 24.9444C35.5199 25.0013 35.5199 25.0354 35.5199 25.0809C35.1703 25.0809 34.8322 25.0809 34.4769 25.0809C34.4711 25.0411 34.4711 25.007 34.4654 24.9614C34.5055 24.9558 34.5399 24.9501 34.5743 24.9501C34.6603 24.9501 34.6946 24.9103 34.6717 24.8249C34.6144 24.6429 34.5628 24.4552 34.4998 24.2731C34.4883 24.239 34.4367 24.2049 34.3966 24.2049C34.219 24.1992 34.0356 24.1992 33.8522 24.2049C33.8178 24.2049 33.7662 24.239 33.7548 24.2675C33.6975 24.4267 33.6459 24.5917 33.6 24.7567C33.5657 24.8875 33.6172 24.9444 33.749 24.9501C33.8064 24.9558 33.8809 24.9444 33.8637 25.0297C33.8579 25.0582 33.7892 25.0923 33.749 25.0923C33.537 25.098 33.325 25.098 33.1129 25.0923C33.0785 25.0923 33.0442 25.0525 33.0098 25.0297C33.0384 25.0013 33.0728 24.9558 33.1015 24.9558C33.2218 24.9501 33.3078 24.8875 33.3479 24.7851C33.5771 24.2163 33.8064 23.6417 34.0299 23.0672C34.0471 23.0217 34.0299 22.9591 34.0299 22.9022C34.1674 22.8396 34.3107 22.7771 34.4711 22.7031C34.4826 22.7373 34.4998 22.7771 34.517 22.8226C34.7176 23.4199 34.9181 24.0172 35.1187 24.6145C35.1187 24.6201 35.1244 24.6315 35.1302 24.6372C35.199 24.8135 35.262 24.9956 35.5199 24.9444Z" fill="white"/>
<path d="M27.8177 24.0572C28.0297 24.0572 28.2246 24.0572 28.4366 24.0572C28.3507 23.75 28.2647 23.4599 28.1845 23.1641C28.173 23.1641 28.1615 23.1641 28.1501 23.1641C28.0355 23.4599 27.9266 23.7557 27.8177 24.0572ZM27.8406 25.0925C27.5827 25.0925 27.3306 25.0925 27.0841 25.0925C27.0555 25.0925 27.0326 25.0526 27.0039 25.0299C27.0268 25.0014 27.0555 24.9559 27.0784 24.9559C27.2389 24.9559 27.3191 24.8649 27.3707 24.7341C27.5885 24.188 27.8062 23.6476 28.0125 23.1015C28.0355 23.0446 28.024 22.9763 28.0297 22.9081C28.1615 22.8455 28.3105 22.7772 28.4653 22.709C28.5283 22.8967 28.5971 23.0901 28.6601 23.2835C28.8206 23.75 28.9753 24.2164 29.1358 24.6886C29.1931 24.8592 29.2676 25.0014 29.4968 24.9559C29.5026 25.0071 29.5026 25.0413 29.5083 25.0754C29.4911 25.0868 29.4796 25.0981 29.4682 25.0981C29.153 25.0981 28.8435 25.0981 28.5283 25.1038C28.4309 25.1038 28.4366 25.0469 28.4538 24.9844C28.4653 24.9787 28.471 24.973 28.4767 24.9673C28.683 24.9446 28.683 24.9446 28.6257 24.7455C28.5799 24.5976 28.5398 24.444 28.4825 24.2961C28.471 24.2619 28.4137 24.2164 28.3736 24.2164C28.1959 24.2107 28.0125 24.2107 27.8291 24.2164C27.7948 24.2164 27.7432 24.2563 27.7317 24.2904C27.6744 24.444 27.6286 24.5976 27.5827 24.7511C27.5426 24.899 27.5885 24.9559 27.7432 24.9616C27.8578 24.9502 27.8807 24.9901 27.8406 25.0925Z" fill="white"/>
<path d="M20.2987 22.8964C20.3101 22.8737 20.3159 22.8509 20.3331 22.8338C20.356 22.8111 20.3904 22.7826 20.4133 22.7883C20.4362 22.794 20.4592 22.8338 20.4649 22.8623C20.4935 23.0728 20.5165 23.2889 20.5337 23.4994C20.5337 23.5335 20.505 23.5677 20.4878 23.6018C20.4592 23.579 20.4133 23.562 20.3961 23.5335C20.3159 23.3344 20.2013 23.1695 20.0293 23.0443C19.6224 22.7542 19.1411 22.9078 18.9921 23.3799C18.8774 23.744 18.9118 24.1081 19.0895 24.4494C19.3588 24.967 20.0408 25.0296 20.4477 24.5802C20.5222 24.4949 20.5222 24.4949 20.5967 24.5802C20.3617 24.9955 19.8689 25.2002 19.3474 25.1149C18.4018 24.967 18.1668 23.8236 18.6769 23.1865C19.0207 22.7542 19.4849 22.6973 19.9892 22.7997C20.0809 22.8168 20.1783 22.8566 20.2987 22.8964Z" fill="white"/>
<path d="M21.1124 8.08427C18.9405 8.22648 16.7914 8.363 14.6309 8.50522C14.6309 8.34025 14.6309 8.18666 14.6309 8.01601C14.671 8.01032 14.7111 8.00463 14.7569 7.99894C15.7713 7.93637 16.7799 7.86811 17.7943 7.80553C18.8029 7.74296 19.8115 7.6747 20.8144 7.60644C20.9176 7.60075 20.9692 7.61781 20.9921 7.72021C21.0208 7.83398 21.0666 7.94775 21.1124 8.08427Z" fill="white"/>
<path d="M14.6195 15.0977C16.6712 15.6608 18.6999 16.224 20.7573 16.7871C20.677 16.9407 20.6025 17.0886 20.5223 17.2365C20.0065 17.0943 19.5022 16.9578 18.9979 16.8156C17.5824 16.4231 16.1669 16.0306 14.7456 15.6437C14.6425 15.6153 14.6081 15.5755 14.6195 15.4731C14.631 15.3593 14.6195 15.2399 14.6195 15.0977Z" fill="white"/>
<path d="M58.7183 13.0725C58.7183 13.1749 58.7355 14.597 58.7355 15.1146C58.7355 15.2796 58.7698 15.4161 58.8845 15.5811C58.9876 15.7404 59.3028 15.8086 59.6237 15.8086C60.2828 15.8086 60.9533 15.5185 61.3774 14.9667C61.7327 14.5174 61.9849 13.829 61.9849 13.0611C61.9849 12.3899 61.6983 11.6731 61.3086 11.2351C60.8559 10.7516 60.1109 10.4501 59.4232 10.4501C59.2398 10.4501 59.0163 10.4501 58.8845 10.5354C58.7641 10.6037 58.7355 10.7345 58.7355 10.9052C58.7183 11.2579 58.7183 12.3444 58.7183 12.4752V13.0725ZM57.6581 12.2533C57.6581 12.0372 57.6237 10.8483 57.6065 10.7231C57.5893 10.524 57.4689 10.4899 57.3027 10.4899H56.85C56.8156 10.4899 56.7812 10.4729 56.7812 10.433V10.2055C56.7812 10.1714 56.8156 10.1543 56.8557 10.1543C57.1022 10.1543 57.5377 10.1771 58.128 10.1771C58.5463 10.1771 58.9704 10.1543 59.3945 10.1543C60.5235 10.1543 61.4347 10.2624 62.2084 10.9166C62.7642 11.3659 63.1539 12.0713 63.1539 13.0384C63.1539 13.994 62.8846 14.6254 62.3287 15.2284C61.5035 16.1158 60.1911 16.1215 59.618 16.1215C59.2971 16.1215 58.4375 16.0987 58.0191 16.0987C57.2798 16.0987 56.9417 16.1215 56.8214 16.1215C56.787 16.1215 56.7698 16.1044 56.7698 16.0476V15.8371C56.7698 15.8029 56.787 15.7859 56.8385 15.7859H57.3257C57.4919 15.7859 57.5778 15.7176 57.6065 15.5754C57.6294 15.4104 57.6638 13.5162 57.6638 12.8848V12.2533H57.6581Z" fill="white"/>
<path d="M65.5668 13.676C65.5725 14.1254 65.5897 14.9445 65.5897 15.0981C65.5897 15.5304 65.7387 15.7011 65.9278 15.7523C66.0654 15.7864 66.2659 15.8205 66.5869 15.8205C66.7359 15.8205 67.1256 15.8035 67.2975 15.7864C67.4465 15.7693 67.7674 15.684 67.9909 15.502C68.1399 15.3655 68.6156 14.8137 68.7761 14.6146C68.8104 14.5748 68.8334 14.5634 68.8677 14.5804L69.0053 14.6658C69.0282 14.6828 69.0397 14.7056 69.0225 14.7511L68.6156 16.0082C68.5927 16.0822 68.5296 16.1334 68.4322 16.1334C68.3921 16.1334 68.203 16.1277 67.6815 16.1163C67.1485 16.1163 66.2831 16.1106 64.8791 16.1106C64.5696 16.1106 64.3404 16.1163 64.1627 16.1163C63.9965 16.122 63.8762 16.1334 63.8017 16.1334C63.7501 16.1334 63.7329 16.1163 63.7329 16.0651V15.866C63.7329 15.8148 63.7501 15.7978 63.8189 15.7978H64.1054C64.4951 15.7978 64.5295 15.7466 64.5295 15.4394V12.6293C64.5295 11.941 64.5123 10.9057 64.4951 10.7919C64.4607 10.5644 64.3748 10.5018 64.1226 10.5018H63.8017C63.7673 10.5018 63.7501 10.4847 63.7501 10.4449V10.2288C63.7501 10.1889 63.7616 10.1719 63.8017 10.1719C63.9851 10.1719 64.2888 10.206 64.9822 10.1946H65.2172C65.5897 10.1946 67.5267 10.1776 67.8935 10.1776C68.031 10.1776 68.1915 10.1719 68.2316 10.1719C68.2717 10.1719 68.2889 10.1889 68.3004 10.2231C68.3348 10.3312 68.6557 11.4688 68.6901 11.5542C68.7073 11.6054 68.6958 11.6281 68.6672 11.6452L68.5182 11.7135C68.4952 11.7191 68.4666 11.7135 68.4437 11.6736C68.4093 11.6224 67.7216 10.8545 67.5153 10.735C67.3376 10.6326 67.1084 10.5246 66.8734 10.5189L65.5954 10.4847L65.5782 12.9023C65.8304 12.9023 66.4379 12.8853 66.541 12.8625C66.7244 12.8284 66.8276 12.7601 66.9307 12.561C66.9823 12.453 67.0683 12.2425 67.0683 12.0946C67.0683 12.0434 67.1027 12.0263 67.137 12.0263L67.3548 12.0434C67.3892 12.0434 67.4121 12.0604 67.4064 12.1116C67.3892 12.2482 67.3892 12.7999 67.3892 13.0161C67.3892 13.3517 67.4236 13.7499 67.4408 13.9376C67.4408 13.9775 67.4236 13.9888 67.372 13.9945L67.1886 14.0287C67.1542 14.0343 67.137 14.023 67.1198 13.9718C67.0855 13.8353 67.0281 13.6532 66.9823 13.5508C66.9078 13.3859 66.7473 13.2664 66.5582 13.2493C66.2545 13.2152 65.8533 13.1981 65.5782 13.1981L65.5668 13.676Z" fill="white"/>
<path d="M73.2402 13.1863C73.1485 13.1863 73.1198 13.2204 73.1198 13.2943V13.6527C73.1198 13.9542 73.137 14.9269 73.1542 15.5015C73.1657 15.7006 73.2574 15.7859 73.4408 15.7859H73.7445C73.8133 15.7859 73.8305 15.8029 73.8305 15.8428V16.0362C73.8305 16.0874 73.8133 16.1215 73.7445 16.1215C73.5955 16.1215 73.309 16.0987 72.6155 16.0987C71.7903 16.0987 71.5381 16.1215 71.3662 16.1215C71.2974 16.1215 71.2802 16.0874 71.2802 16.0476V15.8541C71.2802 15.803 71.2974 15.7859 71.3662 15.7859H71.8018C72.0023 15.7859 72.0367 15.5868 72.0367 15.3934C72.0367 14.9895 72.0539 14.0395 72.0539 13.5048V12.4354C72.0539 12.1851 72.0367 11.1498 72.0367 11.0246C72.0367 10.6037 71.9851 10.4899 71.7158 10.4899H71.3433C71.2745 10.4899 71.2573 10.4558 71.2573 10.416V10.2396C71.2573 10.2055 71.2745 10.1543 71.3433 10.1543C71.4923 10.1543 71.7616 10.1771 72.5926 10.1771C73.3491 10.1771 73.6528 10.1543 73.8075 10.1543C73.8763 10.1543 73.8935 10.1884 73.8935 10.2282V10.4046C73.8935 10.4558 73.8763 10.4899 73.8075 10.4899H73.5038C73.2001 10.4899 73.1657 10.6264 73.16 10.9507C73.1485 11.0701 73.1198 12.1737 73.1198 12.3899V12.7255C73.1198 12.8108 73.1428 12.8449 73.223 12.8449H76.0025C76.14 12.8449 76.1687 12.8222 76.1687 12.7255V12.4752C76.1687 12.1737 76.1343 11.0019 76.1285 10.9109C76.1228 10.6435 76.0884 10.4956 75.8993 10.4956H75.5096C75.4523 10.4956 75.4408 10.4729 75.4408 10.4217V10.2282C75.4408 10.1884 75.4466 10.16 75.5096 10.16C75.6586 10.16 76.0311 10.1827 76.7074 10.1827C77.3492 10.1827 77.6873 10.16 77.8191 10.16C77.9051 10.16 77.9223 10.1941 77.9223 10.2339V10.4103C77.9223 10.4615 77.9051 10.4956 77.8191 10.4956H77.5154C77.2633 10.4956 77.2461 10.6321 77.2461 10.9222C77.2461 11.0417 77.2289 12.1737 77.2289 12.4468V13.3512C77.2289 13.721 77.2461 14.9042 77.2461 15.382C77.2461 15.6835 77.332 15.7973 77.5842 15.7973H77.9223C77.9739 15.7973 77.9911 15.82 77.9911 15.8541V16.0476C77.9911 16.0987 77.9739 16.1329 77.9051 16.1329C77.7676 16.1329 77.481 16.1101 76.7589 16.1101C75.9681 16.1101 75.6987 16.1329 75.4638 16.1329C75.4122 16.1329 75.395 16.0931 75.395 16.0589V15.8655C75.395 15.8257 75.4007 15.7973 75.4638 15.7973H75.9165C76.1171 15.7973 76.1286 15.6494 76.1343 15.4218C76.1515 15.0179 76.1687 13.6811 76.1687 13.5332V13.3C76.1687 13.2261 76.0999 13.1976 75.9853 13.1976H73.2402V13.1863Z" fill="white"/>
<path d="M82.02 13.4649C81.9341 13.2203 81.361 11.3147 81.3151 11.1497C81.2808 11.0473 81.2636 11.0018 81.2292 11.0018C81.1776 11.0018 81.1432 11.036 81.1203 11.1099C81.0859 11.218 80.3294 13.2772 80.2721 13.4706H82.02V13.4649ZM80.1461 13.8006C80.0773 13.994 79.6647 15.1885 79.6245 15.4161C79.6074 15.4843 79.6074 15.5526 79.6074 15.5924C79.6074 15.7005 79.7449 15.7915 79.9111 15.7915H80.2664C80.3352 15.7915 80.3524 15.8086 80.3524 15.8313V16.0418C80.3524 16.093 80.3352 16.1271 80.2836 16.1271C80.1632 16.1271 79.8137 16.1044 79.2234 16.1044C78.5987 16.1044 78.4153 16.1271 78.295 16.1271C78.2434 16.1271 78.2434 16.0759 78.2434 16.0191V15.8598C78.2434 15.8086 78.2606 15.7915 78.295 15.7915H78.5471C78.7821 15.7915 78.9368 15.6721 79.0858 15.4161C79.1718 15.2682 79.7793 13.7607 80.0314 13.0554L80.8567 10.8653C80.8739 10.78 80.9254 10.6321 80.8739 10.5809C80.8509 10.5581 80.8223 10.5069 80.8223 10.4785C80.8223 10.4444 80.8395 10.4102 80.9082 10.3932C81.1776 10.3249 81.6418 10.0746 81.745 9.97791C81.7965 9.92671 81.8309 9.89258 81.871 9.89258C81.9226 9.89258 81.957 9.99497 81.9742 10.0405C82.1232 10.5581 82.7822 12.4296 82.937 12.97C83.1376 13.6242 83.6763 15.1772 83.7966 15.4047C83.9456 15.6891 84.1691 15.7915 84.3353 15.7915H84.6047C84.6562 15.7915 84.6734 15.8086 84.6734 15.8484V16.0248C84.6734 16.0759 84.6562 16.1271 84.5875 16.1271C84.4327 16.1271 84.2665 16.1044 83.3381 16.1044C82.6332 16.1044 82.341 16.1271 82.1576 16.1271C82.0888 16.1271 82.0716 16.0759 82.0716 16.0248V15.8598C82.0716 15.8086 82.0888 15.7915 82.1404 15.7915H82.3582C82.5931 15.7915 82.6619 15.7062 82.6103 15.4843C82.5415 15.1829 82.2034 14.1134 82.106 13.8006H80.1461Z" fill="white"/>
<path d="M87.8653 10.2226C87.8653 10.1714 87.8825 10.1543 87.934 10.1543C88.0028 10.1543 88.3868 10.1771 88.9255 10.1771C89.6304 10.1771 89.8539 10.1543 89.9227 10.1543C89.9742 10.1543 89.9914 10.1714 89.9914 10.2112V10.4217C89.9914 10.4615 89.9742 10.4899 89.9227 10.4899H89.7221C89.5215 10.4899 89.3037 10.5752 89.1089 10.8767C88.8281 11.3204 88.3237 12.6231 88.0888 13.1749C87.9226 13.5446 86.9082 15.985 86.8223 16.1613C86.7879 16.2296 86.7191 16.2694 86.6561 16.2694C86.5529 16.2694 86.5128 16.1784 86.4727 16.076C86.1861 15.3649 85.4755 13.4479 85.189 12.6743C84.9712 12.0713 84.5987 11.0019 84.507 10.7573C84.4325 10.5752 84.3293 10.4899 84.146 10.4899H83.9454C83.911 10.4899 83.8938 10.4672 83.8938 10.416V10.2226C83.8938 10.1714 83.911 10.1543 83.9454 10.1543C84.0313 10.1543 84.3179 10.1771 85.1947 10.1771C85.9856 10.1771 86.3753 10.1543 86.444 10.1543C86.5128 10.1543 86.53 10.1771 86.53 10.2226V10.4046C86.53 10.4615 86.5128 10.4899 86.4612 10.4899H86.0543C85.8366 10.4899 85.699 10.5752 85.699 10.7004C85.699 10.7687 85.699 10.8654 85.7219 10.9848C85.7792 11.2863 86.1002 12.2704 86.2721 12.7596C86.3924 13.0782 86.8452 14.3979 86.977 14.853H86.9942V14.8359C87.1948 14.3695 87.7335 12.9815 87.8194 12.7312C87.957 12.3387 88.4785 11.0758 88.4785 10.7345C88.4785 10.6321 88.3925 10.5013 88.1576 10.5013H87.9283C87.8939 10.5013 87.871 10.4672 87.871 10.4273V10.2226H87.8653Z" fill="white"/>
<path d="M92.4442 13.391C92.4442 13.4764 92.4614 15.3991 92.4614 15.4901C92.4614 15.7574 92.599 15.7916 92.7995 15.7916H93.1549C93.1892 15.7916 93.2236 15.8086 93.2236 15.8485V16.0589C93.2236 16.1101 93.1892 16.1272 93.1377 16.1272C93.0345 16.1272 92.7021 16.1044 91.9055 16.1044C91.0631 16.1044 90.6906 16.1272 90.6104 16.1272C90.5588 16.1272 90.5416 16.1101 90.5416 16.0703V15.8428C90.5416 15.8086 90.5588 15.7916 90.6104 15.7916H90.9485C91.1147 15.7916 91.3038 15.7745 91.3382 15.547C91.3554 15.4275 91.3726 13.6243 91.3726 13.1692V12.5833C91.3726 12.3842 91.3554 10.8767 91.3496 10.7687C91.3267 10.5696 91.2407 10.4842 91.0058 10.4842H90.5702C90.5187 10.4842 90.5015 10.4672 90.5015 10.4273V10.2112C90.5015 10.1714 90.5187 10.1543 90.553 10.1543C90.6562 10.1543 91.0917 10.1771 91.917 10.1771C92.725 10.1771 92.9944 10.1543 93.1147 10.1543C93.1663 10.1543 93.1835 10.1884 93.1835 10.2282V10.4217C93.1835 10.4729 93.1491 10.4899 93.1147 10.4899H92.7938C92.6104 10.4899 92.4729 10.5582 92.4729 10.7175C92.4729 10.8028 92.4557 12.6402 92.4557 12.7426V13.391H92.4442Z" fill="white"/>
<path d="M98.9489 14.3751C98.9661 14.3922 98.9661 14.4093 98.9661 14.4605C98.9317 14.5117 98.5936 15.8997 98.5478 16.1272C98.33 16.1215 95.9001 16.1044 95.0405 16.1044C94.284 16.1044 93.9803 16.1272 93.8771 16.1272C93.8083 16.1272 93.8083 16.1101 93.8083 16.0532V15.8598C93.8083 15.8086 93.8083 15.7916 93.8599 15.7916H94.198C94.5018 15.7916 94.5534 15.6721 94.5534 15.564C94.5534 15.4161 94.5877 13.3228 94.5877 12.8222V12.3557C94.5877 11.821 94.5706 10.9336 94.5534 10.7914C94.5362 10.5752 94.5018 10.4899 94.284 10.4899H93.9287C93.8771 10.4899 93.8599 10.4387 93.8599 10.416V10.2226C93.8599 10.1714 93.8771 10.1543 93.9287 10.1543C94.0147 10.1543 94.3184 10.1771 95.0921 10.1771C96.0033 10.1771 96.3586 10.1543 96.4216 10.1543C96.4904 10.1543 96.5076 10.1884 96.5076 10.2282V10.4217C96.5076 10.4558 96.4904 10.4899 96.4216 10.4899H95.9689C95.7167 10.4899 95.6823 10.5752 95.6823 10.7971C95.6823 10.9166 95.6479 12.168 95.6479 12.7539V13.4707C95.6479 13.6186 95.648 15.4275 95.6823 15.7859H96.1523C96.6222 15.7859 97.2297 15.7859 97.5678 15.7461C98.0377 15.6778 98.5764 14.6766 98.6968 14.3581C98.7311 14.3239 98.7483 14.3069 98.7999 14.3239L98.9489 14.3751Z" fill="white"/>
<path d="M104.462 14.3751C104.479 14.3922 104.479 14.4093 104.479 14.4605C104.445 14.5117 104.107 15.8997 104.055 16.1272C103.837 16.1215 101.407 16.1044 100.548 16.1044C99.7913 16.1044 99.4876 16.1272 99.3844 16.1272C99.3157 16.1272 99.3157 16.1101 99.3157 16.0532V15.8598C99.3157 15.8086 99.3157 15.7916 99.3672 15.7916H99.7054C100.009 15.7916 100.061 15.6721 100.061 15.564C100.061 15.4161 100.095 13.3228 100.095 12.8222V12.3557C100.095 11.821 100.078 10.9336 100.061 10.7914C100.043 10.5752 100.009 10.4899 99.7913 10.4899H99.436C99.3844 10.4899 99.3672 10.4387 99.3672 10.416V10.2226C99.3672 10.1714 99.3844 10.1543 99.436 10.1543C99.522 10.1543 99.8257 10.1771 100.599 10.1771C101.511 10.1771 101.866 10.1543 101.929 10.1543C101.998 10.1543 102.015 10.1884 102.015 10.2282V10.4217C102.015 10.4558 101.998 10.4899 101.929 10.4899H101.476C101.224 10.4899 101.19 10.5752 101.19 10.7971C101.19 10.9166 101.155 12.168 101.155 12.7539V13.4707C101.155 13.6186 101.155 15.4275 101.19 15.7859H101.66C102.13 15.7859 102.737 15.7859 103.075 15.7461C103.545 15.6778 104.084 14.6766 104.204 14.3581C104.238 14.3239 104.256 14.3069 104.307 14.3239L104.462 14.3751Z" fill="white"/>
<path d="M108.571 13.4649C108.485 13.2203 107.912 11.3147 107.866 11.1497C107.832 11.0473 107.814 11.0018 107.78 11.0018C107.729 11.0018 107.694 11.036 107.671 11.1099C107.637 11.218 106.88 13.2772 106.823 13.4706H108.571V13.4649ZM106.703 13.8006C106.634 13.994 106.221 15.1885 106.181 15.4161C106.164 15.4843 106.164 15.5526 106.164 15.5924C106.164 15.7005 106.302 15.7915 106.468 15.7915H106.823C106.892 15.7915 106.909 15.8086 106.909 15.8313V16.0418C106.909 16.093 106.892 16.1271 106.84 16.1271C106.72 16.1271 106.37 16.1044 105.78 16.1044C105.155 16.1044 104.972 16.1271 104.852 16.1271C104.8 16.1271 104.8 16.0759 104.8 16.0191V15.8598C104.8 15.8086 104.817 15.7915 104.852 15.7915H105.104C105.339 15.7915 105.493 15.6721 105.642 15.4161C105.728 15.2682 106.336 13.7607 106.588 13.0554L107.413 10.8653C107.431 10.78 107.482 10.6321 107.431 10.5809C107.408 10.5581 107.379 10.5069 107.379 10.4785C107.379 10.4444 107.396 10.4102 107.465 10.3932C107.734 10.3249 108.198 10.0746 108.302 9.97791C108.353 9.92671 108.388 9.89258 108.428 9.89258C108.479 9.89258 108.514 9.99497 108.531 10.0405C108.68 10.5581 109.339 12.4296 109.494 12.97C109.694 13.6242 110.233 15.1772 110.353 15.4047C110.502 15.6891 110.726 15.7915 110.892 15.7915H111.161C111.213 15.7915 111.23 15.8086 111.23 15.8484V16.0248C111.23 16.0759 111.213 16.1271 111.144 16.1271C110.989 16.1271 110.823 16.1044 109.895 16.1044C109.19 16.1044 108.898 16.1271 108.714 16.1271C108.645 16.1271 108.628 16.0759 108.628 16.0248V15.8598C108.628 15.8086 108.645 15.7915 108.697 15.7915H108.915C109.15 15.7915 109.219 15.7062 109.167 15.4843C109.098 15.1829 108.76 14.1134 108.663 13.8006H106.703Z" fill="white"/>
<path d="M112.915 12.3214C112.915 13.7436 112.984 14.9154 113.001 15.1714C113.018 15.5866 113.121 15.7914 113.425 15.7914H113.643C113.712 15.7914 113.712 15.8255 113.712 15.8654V16.0588C113.712 16.11 113.712 16.127 113.643 16.127C113.557 16.127 113.053 16.1043 112.732 16.1043C112.514 16.1043 111.941 16.127 111.855 16.127C111.82 16.127 111.803 16.11 111.803 16.0531V15.8426C111.803 15.8255 111.82 15.7914 111.855 15.7914H112.141C112.359 15.7914 112.479 15.6094 112.52 15.0974C112.525 14.9495 112.577 13.7777 112.577 12.4352V11.3715C112.577 10.8709 112.29 10.4841 111.918 10.4841H111.649C111.614 10.4784 111.597 10.4613 111.597 10.4272V10.1996C111.597 10.1655 111.614 10.1484 111.649 10.1484C111.689 10.1484 111.757 10.1541 111.912 10.1655C112.061 10.1712 112.29 10.1712 112.663 10.1712C112.806 10.1712 112.932 10.1655 113.035 10.1541C113.144 10.1541 113.219 10.1484 113.27 10.1484C113.373 10.1484 113.419 10.1712 113.471 10.2224C113.557 10.3077 115.207 12.3613 115.374 12.6002C115.494 12.7367 116.806 14.3579 116.944 14.5229H116.978V13.6525C116.978 12.9187 116.978 12.4978 116.961 12.0825C116.944 11.764 116.909 10.9448 116.869 10.8026C116.812 10.6035 116.623 10.4841 116.422 10.4841H116.153C116.101 10.4841 116.101 10.4499 116.101 10.4101V10.2167C116.101 10.1655 116.101 10.1484 116.17 10.1484C116.273 10.1484 116.543 10.1712 117.116 10.1712C117.62 10.1712 117.821 10.1484 117.924 10.1484C117.993 10.1484 118.01 10.1826 118.01 10.2053V10.3987C118.01 10.4499 117.993 10.4841 117.958 10.4841H117.723C117.557 10.4841 117.471 10.6206 117.442 10.9278C117.402 11.4966 117.316 12.9017 117.316 13.7549V15.9621C117.316 16.0815 117.316 16.1953 117.213 16.1953C117.093 16.1953 116.995 16.127 116.927 16.0588C116.858 15.9734 116.405 15.4558 115.884 14.8357C115.293 14.119 114.634 13.3283 114.537 13.1975C114.417 13.078 113.07 11.4056 112.972 11.2918H112.921V12.3214H112.915Z" fill="white"/>
<path d="M120.583 13.0725C120.583 13.1749 120.6 14.597 120.6 15.1146C120.6 15.2796 120.634 15.4161 120.749 15.5811C120.852 15.7404 121.173 15.8086 121.488 15.8086C122.147 15.8086 122.818 15.5185 123.242 14.9667C123.597 14.5174 123.849 13.829 123.849 13.0611C123.849 12.3899 123.563 11.6731 123.173 11.2351C122.72 10.7516 121.975 10.4501 121.288 10.4501C121.104 10.4501 120.881 10.4501 120.749 10.5354C120.629 10.6037 120.6 10.7345 120.6 10.9052C120.583 11.2579 120.583 12.3444 120.583 12.4752V13.0725ZM119.523 12.2533C119.523 12.0372 119.488 10.8483 119.471 10.7231C119.454 10.524 119.333 10.4899 119.167 10.4899H118.715C118.68 10.4899 118.646 10.4729 118.646 10.433V10.2055C118.646 10.1714 118.68 10.1543 118.72 10.1543C118.967 10.1543 119.402 10.1771 119.992 10.1771C120.411 10.1771 120.835 10.1543 121.259 10.1543C122.388 10.1543 123.299 10.2624 124.073 10.9166C124.629 11.3659 125.018 12.0713 125.018 13.0384C125.018 13.994 124.749 14.6254 124.193 15.2284C123.368 16.1158 122.056 16.1215 121.483 16.1215C121.162 16.1215 120.302 16.0987 119.884 16.0987C119.144 16.0987 118.806 16.1215 118.686 16.1215C118.651 16.1215 118.634 16.1044 118.634 16.0476V15.8371C118.634 15.8029 118.651 15.7859 118.703 15.7859H119.19C119.356 15.7859 119.442 15.7176 119.471 15.5754C119.494 15.4104 119.528 13.5162 119.528 12.8848V12.2533H119.523Z" fill="white"/>
<path d="M130.979 13.4649C130.893 13.2203 130.319 11.3147 130.274 11.1497C130.239 11.0473 130.222 11.0018 130.188 11.0018C130.136 11.0018 130.102 11.036 130.079 11.1099C130.044 11.218 129.288 13.2772 129.231 13.4706H130.979V13.4649ZM129.11 13.8006C129.042 13.994 128.629 15.1885 128.589 15.4161C128.572 15.4843 128.572 15.5526 128.572 15.5924C128.572 15.7005 128.709 15.7915 128.875 15.7915H129.231C129.299 15.7915 129.317 15.8086 129.317 15.8313V16.0418C129.317 16.093 129.299 16.1271 129.248 16.1271C129.127 16.1271 128.778 16.1044 128.188 16.1044C127.563 16.1044 127.38 16.1271 127.259 16.1271C127.208 16.1271 127.208 16.0759 127.208 16.0191V15.8598C127.208 15.8086 127.225 15.7915 127.259 15.7915H127.511C127.746 15.7915 127.901 15.6721 128.05 15.4161C128.136 15.2682 128.744 13.7607 128.996 13.0554L129.821 10.8653C129.838 10.78 129.89 10.6321 129.838 10.5809C129.815 10.5581 129.787 10.5069 129.787 10.4785C129.787 10.4444 129.804 10.4102 129.872 10.3932C130.142 10.3249 130.606 10.0746 130.703 9.97791C130.755 9.92671 130.789 9.89258 130.83 9.89258C130.881 9.89258 130.916 9.99497 130.933 10.0405C131.082 10.5581 131.741 12.4296 131.895 12.97C132.096 13.6242 132.635 15.1772 132.755 15.4047C132.904 15.6891 133.128 15.7915 133.294 15.7915H133.563C133.615 15.7915 133.632 15.8086 133.632 15.8484V16.0248C133.632 16.0759 133.615 16.1271 133.546 16.1271C133.397 16.1271 133.225 16.1044 132.297 16.1044C131.586 16.1044 131.299 16.1271 131.116 16.1271C131.047 16.1271 131.03 16.0759 131.03 16.0248V15.8598C131.03 15.8086 131.047 15.7915 131.099 15.7915H131.317C131.552 15.7915 131.62 15.7062 131.569 15.4843C131.5 15.1829 131.162 14.1134 131.064 13.8006H129.11Z" fill="white"/>
<path d="M136.234 13.391C136.234 13.4764 136.251 15.3991 136.251 15.4901C136.251 15.7574 136.389 15.7916 136.589 15.7916H136.944C136.979 15.7916 137.013 15.8086 137.013 15.8485V16.0589C137.013 16.1101 136.979 16.1272 136.927 16.1272C136.824 16.1272 136.492 16.1044 135.695 16.1044C134.853 16.1044 134.48 16.1272 134.4 16.1272C134.348 16.1272 134.331 16.1101 134.331 16.0703V15.8428C134.331 15.8086 134.348 15.7916 134.4 15.7916H134.738C134.904 15.7916 135.093 15.7745 135.128 15.547C135.145 15.4275 135.162 13.6243 135.162 13.1692V12.5833C135.162 12.3842 135.145 10.8767 135.139 10.7687C135.116 10.5696 135.03 10.4842 134.795 10.4842H134.36C134.308 10.4842 134.291 10.4672 134.291 10.4273V10.2112C134.291 10.1714 134.308 10.1543 134.343 10.1543C134.446 10.1543 134.881 10.1771 135.707 10.1771C136.515 10.1771 136.784 10.1543 136.904 10.1543C136.956 10.1543 136.973 10.1884 136.973 10.2282V10.4217C136.973 10.4729 136.939 10.4899 136.904 10.4899H136.583C136.4 10.4899 136.262 10.5582 136.262 10.7175C136.262 10.8028 136.245 12.6402 136.245 12.7426V13.391H136.234Z" fill="white"/>
<path d="M139.615 13.1576C139.735 13.1747 139.833 13.1918 139.936 13.1918C141.248 13.1918 141.518 12.1394 141.518 11.7526C141.518 11.3658 141.357 11.0074 141.145 10.814C140.841 10.5466 140.452 10.4556 140.033 10.4556C139.896 10.4556 139.798 10.4613 139.73 10.5068C139.661 10.5466 139.626 10.649 139.626 10.7514L139.615 13.1576ZM139.598 13.9085C139.598 14.4091 139.615 15.3477 139.632 15.4728C139.655 15.6378 139.718 15.7914 139.85 15.7914H140.274C140.326 15.7914 140.343 15.8142 140.343 15.8483V16.0474C140.343 16.1043 140.32 16.1213 140.251 16.1213C140.142 16.1213 139.97 16.0986 139.099 16.0986C138.274 16.0986 138.073 16.1213 137.987 16.1213C137.936 16.1213 137.919 16.0986 137.919 16.0474V15.854C137.919 15.8142 137.936 15.7857 137.97 15.7857H138.257C138.44 15.7857 138.578 15.7345 138.578 15.507C138.595 14.6708 138.595 13.8858 138.595 13.1008V10.8993C138.595 10.6149 138.474 10.4841 138.325 10.4841H137.999C137.959 10.4841 137.941 10.467 137.941 10.4329V10.2053C137.941 10.1655 137.959 10.1484 137.999 10.1484C138.056 10.1484 138.325 10.1712 139.151 10.1712C139.621 10.1712 140.4 10.1484 140.652 10.1484C141.328 10.1484 141.85 10.376 142.188 10.6775C142.492 10.9448 142.641 11.2975 142.641 11.6161C142.641 12.6684 141.999 13.1064 141.076 13.2543V13.2885C141.311 13.3738 141.466 13.5217 141.581 13.6753C141.684 13.8118 142.205 14.5968 142.274 14.6935C142.326 14.7789 142.864 15.5297 142.99 15.6492C143.151 15.7914 143.386 15.8085 143.586 15.8085C143.638 15.8085 143.655 15.8312 143.655 15.8654V16.0417C143.655 16.0986 143.638 16.127 143.586 16.127C143.518 16.127 143.3 16.1043 142.761 16.1043C142.526 16.1043 142.205 16.1213 142.022 16.127C141.919 16.0531 141.758 15.8255 141.649 15.6492C141.5 15.416 141.168 14.813 141.093 14.6821C141.008 14.5342 140.773 14.1474 140.641 13.9654C140.429 13.6753 140.234 13.4478 139.884 13.4478C139.85 13.4478 139.707 13.4534 139.615 13.4648V13.9085H139.598Z" fill="white"/>
<path d="M149.174 14.7343C149.197 14.7571 149.208 14.7855 149.191 14.8197C148.687 15.5364 147.879 16.2247 146.681 16.2247C145.604 16.2247 144.996 15.9062 144.475 15.4397C143.85 14.8879 143.563 13.9152 143.563 13.1814C143.563 12.3623 143.833 11.5772 144.423 10.9401C144.876 10.4566 145.604 10.0527 146.612 10.0527C147.386 10.0527 148.011 10.286 148.314 10.4566C148.435 10.5249 148.463 10.5249 148.481 10.4566L148.549 10.2405C148.567 10.1893 148.584 10.1893 148.687 10.1893C148.79 10.1893 148.807 10.2063 148.807 10.3258C148.807 10.4737 148.973 11.8162 149.008 12.0665C149.014 12.1176 149.008 12.1404 148.973 12.1518L148.813 12.203C148.773 12.22 148.744 12.1859 148.721 12.1176C148.618 11.8162 148.417 11.4009 148.062 11.0312C147.69 10.6785 147.254 10.4111 146.595 10.4111C145.248 10.4111 144.692 11.6171 144.692 12.8173C144.692 13.335 144.841 14.3248 145.466 14.9903C146.022 15.5762 146.509 15.6445 146.916 15.6445C147.844 15.6445 148.578 15.1837 148.928 14.6718C148.968 14.6149 149.002 14.5864 149.031 14.6149L149.174 14.7343Z" fill="white"/>
<path d="M151.518 13.1576C151.638 13.1747 151.736 13.1918 151.839 13.1918C153.151 13.1918 153.421 12.1394 153.421 11.7526C153.421 11.3658 153.26 11.0074 153.048 10.814C152.744 10.5466 152.355 10.4556 151.936 10.4556C151.799 10.4556 151.701 10.4613 151.633 10.5068C151.564 10.5466 151.529 10.649 151.529 10.7514L151.518 13.1576ZM151.501 13.9085C151.501 14.4091 151.518 15.3477 151.535 15.4728C151.558 15.6378 151.621 15.7914 151.753 15.7914H152.171C152.223 15.7914 152.24 15.8142 152.24 15.8483V16.0474C152.24 16.1043 152.217 16.1213 152.148 16.1213C152.039 16.1213 151.868 16.0986 150.996 16.0986C150.171 16.0986 149.971 16.1213 149.885 16.1213C149.833 16.1213 149.816 16.0986 149.816 16.0474V15.854C149.816 15.8142 149.833 15.7857 149.867 15.7857H150.154C150.337 15.7857 150.475 15.7345 150.475 15.507C150.492 14.6708 150.492 13.8858 150.492 13.1008V10.8993C150.492 10.6149 150.372 10.4841 150.223 10.4841H149.896C149.856 10.4841 149.839 10.467 149.839 10.4329V10.2053C149.839 10.1655 149.856 10.1484 149.896 10.1484C149.953 10.1484 150.223 10.1712 151.048 10.1712C151.518 10.1712 152.297 10.1484 152.55 10.1484C153.226 10.1484 153.747 10.376 154.085 10.6775C154.389 10.9448 154.538 11.2975 154.538 11.6161C154.538 12.6684 153.896 13.1064 152.968 13.2543V13.2885C153.203 13.3738 153.358 13.5217 153.472 13.6753C153.575 13.8118 154.097 14.5968 154.166 14.6935C154.217 14.7789 154.756 15.5297 154.882 15.6492C155.042 15.7914 155.277 15.8085 155.478 15.8085C155.53 15.8085 155.547 15.8312 155.547 15.8654V16.0417C155.547 16.0986 155.53 16.127 155.478 16.127C155.409 16.127 155.191 16.1043 154.653 16.1043C154.418 16.1043 154.097 16.1213 153.913 16.127C153.81 16.0531 153.65 15.8255 153.541 15.6492C153.386 15.416 153.06 14.813 152.985 14.6821C152.899 14.5342 152.664 14.1474 152.532 13.9654C152.32 13.6753 152.125 13.4478 151.776 13.4478C151.741 13.4478 151.598 13.4534 151.507 13.4648V13.9085H151.501Z" fill="white"/>
<path d="M159.507 13.4649C159.421 13.2203 158.848 11.3147 158.802 11.1497C158.767 11.0473 158.75 11.0018 158.716 11.0018C158.664 11.0018 158.63 11.036 158.607 11.1099C158.573 11.218 157.816 13.2772 157.759 13.4706H159.507V13.4649ZM157.638 13.8006C157.57 13.994 157.157 15.1885 157.117 15.4161C157.1 15.4843 157.1 15.5526 157.1 15.5924C157.1 15.7005 157.237 15.7915 157.404 15.7915H157.759C157.828 15.7915 157.845 15.8086 157.845 15.8313V16.0418C157.845 16.093 157.828 16.1271 157.776 16.1271C157.656 16.1271 157.306 16.1044 156.716 16.1044C156.091 16.1044 155.908 16.1271 155.787 16.1271C155.736 16.1271 155.736 16.0759 155.736 16.0191V15.8598C155.736 15.8086 155.753 15.7915 155.787 15.7915H156.04C156.275 15.7915 156.429 15.6721 156.578 15.4161C156.664 15.2682 157.272 13.7607 157.524 13.0554L158.349 10.8653C158.366 10.78 158.418 10.6321 158.366 10.5809C158.343 10.5581 158.315 10.5069 158.315 10.4785C158.315 10.4444 158.332 10.4102 158.401 10.3932C158.67 10.3249 159.134 10.0746 159.232 9.97791C159.283 9.92671 159.318 9.89258 159.358 9.89258C159.409 9.89258 159.444 9.99497 159.461 10.0405C159.616 10.5581 160.269 12.4296 160.424 12.97C160.624 13.6242 161.163 15.1772 161.283 15.4047C161.432 15.6891 161.656 15.7915 161.822 15.7915H162.091C162.143 15.7915 162.16 15.8086 162.16 15.8484V16.0248C162.16 16.0759 162.143 16.1271 162.074 16.1271C161.925 16.1271 161.753 16.1044 160.825 16.1044C160.12 16.1044 159.833 16.1271 159.644 16.1271C159.576 16.1271 159.558 16.0759 159.558 16.0248V15.8598C159.558 15.8086 159.576 15.7915 159.627 15.7915H159.845C160.08 15.7915 160.149 15.7062 160.097 15.4843C160.028 15.1829 159.69 14.1134 159.593 13.8006H157.638Z" fill="white"/>
<path d="M164.429 13.1475C164.664 13.1475 165.197 13.1418 165.329 13.1077C165.495 13.0906 165.633 12.9883 165.776 12.7835C165.845 12.6754 165.897 12.5047 165.925 12.3568C165.931 12.3227 165.96 12.2886 165.994 12.2886L166.16 12.3056C166.195 12.3056 166.212 12.3227 166.212 12.3568C166.195 12.5047 166.195 13.193 166.195 13.3125C166.195 13.614 166.229 14.0179 166.246 14.1828C166.252 14.2397 166.229 14.2568 166.195 14.2682L166.011 14.3023C165.977 14.3023 165.954 14.2852 165.942 14.234C165.931 14.1771 165.856 13.9155 165.816 13.8415C165.713 13.6595 165.564 13.5343 165.392 13.5002C165.071 13.449 164.676 13.449 164.424 13.449V15.531C164.424 15.7642 164.493 15.7984 164.693 15.7984H165.146C165.197 15.7984 165.215 15.8154 165.215 15.8552V16.0657C165.215 16.1169 165.197 16.134 165.146 16.134C165.06 16.134 164.727 16.1112 163.896 16.1112C163.14 16.1112 162.819 16.134 162.699 16.134C162.664 16.134 162.647 16.1169 162.647 16.0771V15.8496C162.647 15.8154 162.664 15.7984 162.699 15.7984H163.037C163.237 15.7984 163.306 15.7642 163.318 15.622C163.323 15.4571 163.341 14.399 163.341 12.9598V12.3739C163.341 12.0041 163.323 10.8209 163.323 10.7242C163.323 10.5763 163.203 10.491 162.985 10.491H162.567C162.533 10.491 162.498 10.474 162.498 10.4512V10.2066C162.498 10.1725 162.533 10.1554 162.567 10.1554C162.653 10.1554 162.974 10.1781 163.931 10.1781C164.051 10.1781 166.275 10.1611 166.813 10.1611C166.962 10.1611 167.1 10.127 167.134 10.127C167.169 10.144 167.186 10.1781 167.186 10.2464C167.22 10.3829 167.49 11.532 167.524 11.6344C167.53 11.6685 167.524 11.6913 167.501 11.7027L167.341 11.7709C167.306 11.788 167.289 11.7709 167.238 11.7027C167.152 11.5548 166.934 11.2703 166.63 10.9347C166.493 10.7527 166.275 10.5991 166.057 10.5479C165.839 10.5081 164.745 10.474 164.424 10.474V13.1475H164.429Z" fill="white"/>
<path d="M170.441 10.5298H170.206C169.937 10.5298 169.329 10.5298 168.974 10.6492C168.705 10.7687 168.384 11.3205 168.223 11.6049C168.2 11.6447 168.172 11.6788 168.132 11.6618L167.965 11.6049C167.931 11.5878 167.925 11.5651 167.931 11.5196L168.332 9.98367C168.349 9.86421 168.401 9.83008 168.435 9.83008C168.487 9.83008 168.521 9.86421 168.573 9.9154C168.739 10.0804 168.911 10.1259 169.146 10.1316C169.599 10.1486 169.954 10.1828 170.779 10.1828H171.232C172.16 10.1828 172.516 10.1486 172.9 10.1316C173.06 10.1259 173.381 10.0064 173.507 9.9154C173.576 9.86421 173.61 9.83008 173.656 9.83008C173.708 9.83008 173.725 9.86421 173.742 9.9666C173.759 10.1202 173.925 11.1555 173.994 11.5537C174 11.6049 173.989 11.6219 173.96 11.6276L173.794 11.6845C173.759 11.6902 173.742 11.6675 173.719 11.6163C173.599 11.383 173.289 10.8483 173.054 10.6777C172.819 10.5411 172.063 10.5298 171.759 10.5298H171.524V14.9895C171.524 15.6266 171.61 15.7916 171.811 15.7916H172.298C172.332 15.7916 172.349 15.8257 172.349 15.8655V16.0419C172.349 16.0931 172.332 16.1272 172.264 16.1272C172.178 16.1272 171.908 16.1045 170.997 16.1045C170.137 16.1045 169.782 16.1272 169.667 16.1272C169.616 16.1272 169.599 16.1102 169.599 16.0533V15.8599C169.599 15.8087 169.622 15.7916 169.656 15.7916H170.137C170.304 15.7916 170.407 15.6892 170.418 15.5641C170.441 15.3479 170.441 12.7881 170.441 12.6231V10.5298Z" fill="white"/>
<path d="M58.8846 18.8245C58.3688 19.3194 58.1281 20.1783 58.1281 20.8496C58.1281 23.0226 59.4749 23.7905 60.1855 23.7905C61.8875 23.7905 62.1569 21.919 62.1569 21.2136C62.1569 19.3933 60.9076 18.3523 60.0995 18.3523C59.9505 18.358 59.4577 18.2727 58.8846 18.8245ZM62.1225 18.6595C62.7529 19.1715 63.2687 19.9963 63.2687 21.134C63.2687 21.7541 63.1025 22.4025 62.644 22.9714C62.1053 23.6426 61.3775 24.1603 60.1167 24.1603C59.6124 24.1603 58.8846 24.0124 58.2141 23.6085C57.6181 23.2501 56.9819 22.34 56.9819 21.134C56.9819 20.6334 57.1252 19.837 57.7556 19.0577C58.4949 18.1532 59.4061 17.9883 60.1339 17.9883C60.7586 17.9883 61.4291 18.1077 62.1225 18.6595Z" fill="white"/>
<path d="M65.9965 21.0831C66.2314 21.0831 66.7644 21.0774 66.8962 21.0433C67.0624 21.0262 67.2 20.9238 67.3432 20.719C67.412 20.6109 67.4636 20.4403 67.4922 20.2924C67.498 20.2582 67.5266 20.2241 67.561 20.2241L67.7272 20.2412C67.7616 20.2412 67.7788 20.2582 67.7788 20.2924C67.7616 20.4403 67.7616 21.1286 67.7616 21.248C67.7616 21.5495 67.796 21.9534 67.8132 22.1184C67.8189 22.1753 67.796 22.1923 67.7616 22.2037L67.5782 22.2378C67.5438 22.2378 67.5209 22.2208 67.5094 22.1696C67.5037 22.1127 67.4235 21.851 67.3833 21.7771C67.2802 21.595 67.1312 21.4699 66.9593 21.4358C66.6383 21.3846 66.2429 21.3846 65.9908 21.3846V23.4665C65.9908 23.6998 66.0595 23.7339 66.2601 23.7339H66.7128C66.7644 23.7339 66.7816 23.751 66.7816 23.7908V24.0013C66.7816 24.0525 66.7644 24.0695 66.7128 24.0695C66.6269 24.0695 66.2945 24.0468 65.4635 24.0468C64.707 24.0468 64.3861 24.0695 64.2658 24.0695C64.2314 24.0695 64.2142 24.0525 64.2142 24.0126V23.7851C64.2142 23.751 64.2314 23.7339 64.2658 23.7339H64.6039C64.8045 23.7339 64.8732 23.6998 64.8847 23.5576C64.8904 23.3926 64.9076 22.3345 64.9076 20.8954V20.3094C64.9076 19.9397 64.8904 18.7565 64.8904 18.6598C64.8904 18.5119 64.7701 18.4266 64.5523 18.4266H64.134C64.0996 18.4266 64.0652 18.4095 64.0652 18.3867V18.1421C64.0652 18.108 64.0996 18.0909 64.134 18.0909C64.2199 18.0909 64.5408 18.1137 65.4979 18.1137C65.6182 18.1137 67.8418 18.0966 68.3805 18.0966C68.5352 18.0966 68.6671 18.0625 68.7014 18.0625C68.7358 18.0796 68.753 18.1137 68.753 18.182C68.7874 18.3185 69.0568 19.4676 69.0911 19.5699C69.0969 19.6041 69.0911 19.6268 69.0682 19.6382L68.9078 19.7065C68.8734 19.7235 68.8562 19.7065 68.8046 19.6382C68.7186 19.4903 68.5009 19.2059 68.1971 18.8703C68.0596 18.6882 67.8418 18.5346 67.624 18.4834C67.4063 18.4436 66.3117 18.4095 65.9908 18.4095V21.0831H65.9965Z" fill="white"/>
<path d="M76.8793 22.6699C76.9022 22.6926 76.9137 22.7211 76.8965 22.7552C76.3922 23.472 75.5841 24.1603 74.3864 24.1603C73.309 24.1603 72.7015 23.8417 72.18 23.3753C71.5553 22.8235 71.2688 21.8508 71.2688 21.1169C71.2688 20.2978 71.5381 19.5128 72.1284 18.8757C72.5812 18.3922 73.309 17.9883 74.3176 17.9883C75.0913 17.9883 75.7159 18.2215 76.0197 18.3922C76.14 18.4604 76.1687 18.4604 76.1859 18.3922L76.2546 18.176C76.2718 18.1248 76.289 18.1248 76.3922 18.1248C76.4953 18.1248 76.5125 18.1419 76.5125 18.2613C76.5125 18.4092 76.6787 19.7517 76.7131 20.002C76.7188 20.0532 76.7131 20.076 76.6787 20.0873L76.5183 20.1385C76.4781 20.1556 76.4495 20.1215 76.4266 20.0532C76.3234 19.7517 76.1228 19.3364 75.7675 18.9667C75.395 18.614 74.9595 18.3467 74.3004 18.3467C72.9537 18.3467 72.3978 19.5526 72.3978 20.7529C72.3978 21.2705 72.5468 22.2603 73.1714 22.9259C73.7273 23.5118 74.2145 23.58 74.6213 23.58C75.5497 23.58 76.2833 23.1193 76.6329 22.6073C76.673 22.5504 76.7074 22.522 76.736 22.5504L76.8793 22.6699Z" fill="white"/>
<path d="M80.7362 21.4005C80.6503 21.1559 80.0772 19.2502 80.0313 19.0853C79.9969 18.9829 79.9798 18.9374 79.9454 18.9374C79.8938 18.9374 79.8594 18.9715 79.8365 19.0455C79.8021 19.1535 79.0456 21.2128 78.9883 21.4062H80.7362V21.4005ZM78.868 21.7361C78.7992 21.9295 78.3866 23.1241 78.3465 23.3516C78.3293 23.4199 78.3293 23.4882 78.3293 23.528C78.3293 23.6361 78.4668 23.7271 78.633 23.7271H78.9883C79.0571 23.7271 79.0743 23.7441 79.0743 23.7669V23.9774C79.0743 24.0286 79.0571 24.0627 79.0055 24.0627C78.8852 24.0627 78.5356 24.0399 77.9453 24.0399C77.3206 24.0399 77.1373 24.0627 77.0169 24.0627C76.9653 24.0627 76.9653 24.0115 76.9653 23.9546V23.7953C76.9653 23.7441 76.9825 23.7271 77.0169 23.7271H77.2691C77.504 23.7271 77.6588 23.6076 77.8078 23.3516C77.8937 23.2037 78.5012 21.6963 78.7534 20.9909L79.5786 18.8009C79.5958 18.7155 79.6474 18.5676 79.5958 18.5164C79.5729 18.4937 79.5442 18.4425 79.5442 18.414C79.5442 18.3799 79.5614 18.3458 79.6302 18.3287C79.8995 18.2604 80.3637 18.0102 80.4611 17.9135C80.5127 17.8623 80.5471 17.8281 80.5872 17.8281C80.6388 17.8281 80.6732 17.9305 80.6904 17.976C80.8451 18.4937 81.4984 20.3652 81.6532 20.9056C81.8537 21.5598 82.3924 23.1127 82.5128 23.3403C82.6618 23.6247 82.8853 23.7271 83.0515 23.7271H83.3208C83.3724 23.7271 83.3896 23.7441 83.3896 23.784V23.9603C83.3896 24.0115 83.3724 24.0627 83.3036 24.0627C83.1546 24.0627 82.9827 24.0399 82.0543 24.0399C81.3437 24.0399 81.0629 24.0627 80.8738 24.0627C80.805 24.0627 80.7878 24.0115 80.7878 23.9603V23.7953C80.7878 23.7441 80.805 23.7271 80.8566 23.7271H81.0743C81.3093 23.7271 81.3781 23.6417 81.3265 23.4199C81.2577 23.1184 80.9196 22.049 80.8222 21.7418H78.868V21.7361Z" fill="white"/>
<path d="M84.914 20.2511C84.914 21.6732 84.9828 22.8451 85 23.101C85.0172 23.522 85.1204 23.7211 85.4241 23.7211H85.6419C85.7106 23.7211 85.7106 23.7552 85.7106 23.795V23.9884C85.7106 24.0396 85.7106 24.0567 85.6419 24.0567C85.5559 24.0567 85.0516 24.034 84.7307 24.034C84.5129 24.034 83.9398 24.0567 83.8538 24.0567C83.8195 24.0567 83.8023 24.0396 83.8023 23.9828V23.7723C83.8023 23.7552 83.8195 23.7211 83.8538 23.7211H84.1404C84.3582 23.7211 84.4785 23.5391 84.5186 23.0271C84.5243 22.8792 84.5759 21.7074 84.5759 20.3649V19.3011C84.5759 18.8006 84.2894 18.4137 83.9169 18.4137H83.6475C83.6131 18.4081 83.5959 18.391 83.5959 18.3569V18.1293C83.5959 18.0952 83.6131 18.0781 83.6475 18.0781C83.6876 18.0781 83.7564 18.0838 83.9111 18.0952C84.0601 18.1009 84.2894 18.1009 84.6619 18.1009C84.8052 18.1009 84.9312 18.0952 85.0344 18.0838C85.1433 18.0838 85.2178 18.0781 85.2694 18.0781C85.3725 18.0781 85.4184 18.1009 85.4699 18.1521C85.5559 18.2374 87.2064 20.2909 87.3726 20.5299C87.4929 20.6664 88.8053 22.2876 88.9428 22.4526H88.9772V21.5822C88.9772 20.8484 88.9772 20.4275 88.96 20.0122C88.9428 19.6937 88.9085 18.8745 88.8683 18.7323C88.811 18.5332 88.6219 18.4137 88.4213 18.4137H88.152C88.1004 18.4137 88.1004 18.3796 88.1004 18.3398V18.1464C88.1004 18.0952 88.1004 18.0781 88.1692 18.0781C88.2723 18.0781 88.5417 18.1009 89.1148 18.1009C89.6191 18.1009 89.8197 18.0781 89.9228 18.0781C89.9916 18.0781 90.0088 18.1123 90.0088 18.135V18.3284C90.0088 18.3796 89.9916 18.4137 89.9572 18.4137H89.7222C89.556 18.4137 89.4701 18.5503 89.4414 18.8574C89.4013 19.4263 89.3153 20.8313 89.3153 21.6846V23.8917C89.3153 24.0112 89.3153 24.125 89.2122 24.125C89.0918 24.125 88.9944 24.0567 88.9256 23.9884C88.8569 23.9031 88.4041 23.3855 87.8826 22.7654C87.2924 22.0487 86.6333 21.258 86.5359 21.1271C86.4155 21.0077 85.0688 19.3353 84.9714 19.2215H84.9198V20.2511H84.914Z" fill="white"/>
<path d="M93.8771 21.4005C93.7911 21.1559 93.2181 19.2502 93.1722 19.0853C93.1378 18.9829 93.1206 18.9374 93.0862 18.9374C93.0347 18.9374 93.0003 18.9715 92.9774 19.0455C92.943 19.1535 92.1865 21.2128 92.1292 21.4062H93.8771V21.4005ZM92.0088 21.7361C91.9401 21.9295 91.5275 23.1241 91.4873 23.3516C91.4701 23.4199 91.4701 23.4882 91.4701 23.528C91.4701 23.6361 91.6077 23.7271 91.7739 23.7271H92.1292C92.198 23.7271 92.2152 23.7441 92.2152 23.7669V23.9774C92.2152 24.0286 92.198 24.0627 92.1464 24.0627C92.026 24.0627 91.6765 24.0399 91.0862 24.0399C90.4615 24.0399 90.2781 24.0627 90.1578 24.0627C90.1062 24.0627 90.1062 24.0115 90.1062 23.9546V23.7953C90.1062 23.7441 90.1234 23.7271 90.1578 23.7271H90.4099C90.6449 23.7271 90.7996 23.6076 90.9486 23.3516C91.0346 23.2037 91.6421 21.6963 91.8942 20.9909L92.7195 18.8009C92.7367 18.7155 92.7882 18.5676 92.7367 18.5164C92.7137 18.4937 92.6851 18.4425 92.6851 18.414C92.6851 18.3799 92.7023 18.3458 92.7711 18.3287C93.0404 18.2604 93.5046 18.0102 93.6077 17.9135C93.6593 17.8623 93.6937 17.8281 93.7338 17.8281C93.7854 17.8281 93.8198 17.9305 93.837 17.976C93.986 18.4937 94.645 20.3652 94.7998 20.9056C95.0003 21.5598 95.539 23.1127 95.6594 23.3403C95.8084 23.6247 96.0319 23.7271 96.1981 23.7271H96.4674C96.519 23.7271 96.5362 23.7441 96.5362 23.784V23.9603C96.5362 24.0115 96.519 24.0627 96.4503 24.0627C96.2955 24.0627 96.1293 24.0399 95.2009 24.0399C94.496 24.0399 94.2038 24.0627 94.0204 24.0627C93.9516 24.0627 93.9344 24.0115 93.9344 23.9603V23.7953C93.9344 23.7441 93.9516 23.7271 94.0032 23.7271H94.221C94.4559 23.7271 94.5247 23.6417 94.4731 23.4199C94.4043 23.1184 94.0662 22.049 93.9688 21.7418H92.0088V21.7361Z" fill="white"/>
<path d="M98.7998 21.008C98.7998 21.1104 98.817 22.5325 98.817 23.0502C98.817 23.2152 98.8514 23.3517 98.966 23.5166C99.0692 23.6759 99.3901 23.7442 99.7053 23.7442C100.364 23.7442 101.035 23.4541 101.459 22.9023C101.814 22.4529 102.066 21.7646 102.066 20.9967C102.066 20.3254 101.78 19.6087 101.39 19.1707C100.937 18.6871 100.192 18.3856 99.5047 18.3856C99.3213 18.3856 99.0978 18.3856 98.966 18.471C98.8457 18.5392 98.817 18.6701 98.817 18.8407C98.7998 19.1934 98.7998 20.2799 98.7998 20.4107V21.008ZM97.7396 20.1889C97.7396 19.9727 97.7052 18.7838 97.688 18.6587C97.6708 18.4596 97.5505 18.4255 97.3843 18.4255H96.9315C96.8972 18.4255 96.8628 18.4084 96.8628 18.3686V18.141C96.8628 18.1069 96.8972 18.0898 96.9373 18.0898C97.1837 18.0898 97.6192 18.1126 98.2095 18.1126C98.6279 18.1126 99.052 18.0898 99.476 18.0898C100.605 18.0898 101.516 18.1979 102.29 18.8521C102.846 19.3015 103.235 20.0069 103.235 20.9739C103.235 21.9296 102.966 22.561 102.41 23.164C101.585 24.0514 100.273 24.0571 99.6996 24.0571C99.3786 24.0571 98.519 24.0343 98.1006 24.0343C97.3614 24.0343 97.0232 24.0571 96.9029 24.0571C96.8685 24.0571 96.8513 24.04 96.8513 23.9831V23.7726C96.8513 23.7385 96.8685 23.7214 96.9201 23.7214H97.4072C97.5734 23.7214 97.6594 23.6532 97.688 23.511C97.7109 23.346 97.7453 21.4517 97.7453 20.8203V20.1889H97.7396Z" fill="white"/>
<path d="M107.087 21.4005C107.001 21.1559 106.428 19.2502 106.382 19.0853C106.347 18.9829 106.33 18.9374 106.296 18.9374C106.244 18.9374 106.21 18.9715 106.187 19.0455C106.152 19.1535 105.396 21.2128 105.339 21.4062H107.087V21.4005ZM105.218 21.7361C105.15 21.9295 104.737 23.1241 104.697 23.3516C104.68 23.4199 104.68 23.4882 104.68 23.528C104.68 23.6361 104.817 23.7271 104.983 23.7271H105.339C105.407 23.7271 105.425 23.7441 105.425 23.7669V23.9774C105.425 24.0286 105.407 24.0627 105.356 24.0627C105.236 24.0627 104.886 24.0399 104.296 24.0399C103.671 24.0399 103.488 24.0627 103.367 24.0627C103.316 24.0627 103.316 24.0115 103.316 23.9546V23.7953C103.316 23.7441 103.333 23.7271 103.367 23.7271H103.619C103.854 23.7271 104.009 23.6076 104.158 23.3516C104.244 23.2037 104.852 21.6963 105.104 20.9909L105.929 18.8009C105.946 18.7155 105.998 18.5676 105.946 18.5164C105.923 18.4937 105.895 18.4425 105.895 18.414C105.895 18.3799 105.912 18.3458 105.981 18.3287C106.25 18.2604 106.714 18.0102 106.811 17.9135C106.863 17.8623 106.897 17.8281 106.938 17.8281C106.989 17.8281 107.024 17.9305 107.041 17.976C107.19 18.4937 107.849 20.3652 108.004 20.9056C108.204 21.5598 108.743 23.1127 108.863 23.3403C109.012 23.6247 109.236 23.7271 109.402 23.7271H109.671C109.723 23.7271 109.74 23.7441 109.74 23.784V23.9603C109.74 24.0115 109.723 24.0627 109.654 24.0627C109.505 24.0627 109.333 24.0399 108.405 24.0399C107.7 24.0399 107.408 24.0627 107.224 24.0627C107.155 24.0627 107.138 24.0115 107.138 23.9603V23.7953C107.138 23.7441 107.155 23.7271 107.207 23.7271H107.425C107.66 23.7271 107.728 23.6417 107.677 23.4199C107.608 23.1184 107.27 22.049 107.173 21.7418H105.218V21.7361Z" fill="white"/>
<path d="M117.064 22.3107C117.081 22.3278 117.081 22.3448 117.081 22.396C117.047 22.4472 116.709 23.8352 116.663 24.0627C116.445 24.0571 114.015 24.04 113.156 24.04C112.399 24.04 112.096 24.0627 111.992 24.0627C111.924 24.0627 111.924 24.0457 111.924 23.9888V23.7954C111.924 23.7442 111.924 23.7271 111.975 23.7271H112.313C112.617 23.7271 112.669 23.6077 112.669 23.4996C112.669 23.3517 112.703 21.2583 112.703 20.7577V20.2913C112.703 19.7566 112.686 18.8692 112.669 18.727C112.651 18.5108 112.617 18.4255 112.399 18.4255H112.044C111.992 18.4255 111.975 18.3743 111.975 18.3515V18.1581C111.975 18.1069 111.992 18.0898 112.044 18.0898C112.13 18.0898 112.434 18.1126 113.207 18.1126C114.118 18.1126 114.474 18.0898 114.537 18.0898C114.606 18.0898 114.623 18.124 114.623 18.1638V18.3572C114.623 18.3913 114.606 18.4255 114.537 18.4255H114.084C113.832 18.4255 113.798 18.5108 113.798 18.7326C113.798 18.8521 113.763 20.1036 113.763 20.6895V21.4062C113.763 21.5541 113.763 23.3631 113.798 23.7214H114.267C114.737 23.7214 115.345 23.7214 115.683 23.6816C116.153 23.6134 116.692 22.6122 116.812 22.2936C116.846 22.2595 116.864 22.2424 116.915 22.2595L117.064 22.3107Z" fill="white"/>
<path d="M119.288 21.3266C119.288 21.4119 119.305 23.3346 119.305 23.4256C119.305 23.693 119.442 23.7271 119.643 23.7271H119.998C120.033 23.7271 120.067 23.7442 120.067 23.784V23.9945C120.067 24.0457 120.033 24.0627 119.981 24.0627C119.878 24.0627 119.546 24.04 118.749 24.04C117.906 24.04 117.534 24.0627 117.454 24.0627C117.402 24.0627 117.385 24.0457 117.385 24.0059V23.7783C117.385 23.7442 117.402 23.7271 117.454 23.7271H117.792C117.958 23.7271 118.147 23.7101 118.182 23.4825C118.199 23.3631 118.216 21.5598 118.216 21.1047V20.5188C118.216 20.3197 118.199 18.8123 118.193 18.7042C118.17 18.5051 118.084 18.4198 117.849 18.4198H117.414C117.362 18.4198 117.345 18.4027 117.345 18.3629V18.1467C117.345 18.1069 117.362 18.0898 117.396 18.0898C117.5 18.0898 117.935 18.1126 118.76 18.1126C119.568 18.1126 119.838 18.0898 119.958 18.0898C120.01 18.0898 120.027 18.124 120.027 18.1638V18.3572C120.027 18.4084 119.993 18.4255 119.958 18.4255H119.637C119.454 18.4255 119.316 18.4937 119.316 18.653C119.316 18.7383 119.299 20.5757 119.299 20.6781V21.3266H119.288Z" fill="white"/>
<path d="M126.801 21.0082C126.801 20.7579 126.801 18.6816 126.784 18.6475H126.749C126.68 18.7669 125.62 21.2073 125.517 21.4235C125.391 21.6908 124.531 23.6647 124.491 23.75C124.457 23.8183 124.388 23.9321 124.308 23.9321C124.256 23.9321 124.205 23.8809 124.17 23.7842C124.136 23.733 123.041 21.1277 122.99 20.9911C122.835 20.6043 122.061 18.7328 121.964 18.6304C121.93 18.7499 121.924 20.8546 121.924 20.957C121.924 21.0594 121.918 22.4815 121.964 23.0219C121.998 23.4087 122.101 23.7273 122.371 23.7273H122.743C122.795 23.7273 122.812 23.7614 122.812 23.7842V23.9946C122.812 24.0288 122.795 24.0629 122.726 24.0629C122.64 24.0629 122.405 24.0402 121.763 24.0402C121.041 24.0402 120.755 24.0629 120.669 24.0629C120.6 24.0629 120.6 24.0458 120.6 23.989V23.7785C120.6 23.7614 120.6 23.7273 120.652 23.7273H121.041C121.328 23.7273 121.419 23.4258 121.465 23.1357C121.54 22.5498 121.591 20.4905 121.591 20.3426V18.9148C121.591 18.6134 121.551 18.4313 121.179 18.4313H120.806C120.755 18.4313 120.738 18.3972 120.738 18.3744V18.1469C120.738 18.1298 120.755 18.0957 120.806 18.0957C120.892 18.0957 121.11 18.1185 122.004 18.1185C122.411 18.1185 122.646 18.0957 122.743 18.0957C122.846 18.0957 122.904 18.1298 122.944 18.2379C123.248 19.0229 124.428 21.7989 124.68 22.4872C124.755 22.3393 125.357 20.957 125.574 20.4621C125.723 20.1094 126.486 18.3858 126.526 18.2208C126.549 18.1355 126.652 18.1185 126.852 18.1185C128.084 18.1241 128.371 18.0957 128.468 18.0957C128.503 18.0957 128.52 18.1298 128.52 18.1697V18.346C128.52 18.3972 128.503 18.4313 128.451 18.4313H128.079C127.861 18.4313 127.844 18.5792 127.832 18.7556C127.827 18.9376 127.827 20.61 127.827 20.8319V21.4178C127.827 21.9184 127.844 23.1414 127.844 23.2836C127.849 23.6021 127.93 23.733 128.079 23.733H128.531C128.583 23.733 128.583 23.7671 128.583 23.7899V23.9833C128.583 24.0345 128.583 24.0686 128.514 24.0686C128.411 24.0686 128.01 24.0458 127.265 24.0458C126.44 24.0458 126.119 24.0686 125.998 24.0686C125.947 24.0686 125.93 24.0345 125.93 23.9946V23.8012C125.93 23.75 125.947 23.733 125.998 23.733H126.52C126.669 23.733 126.738 23.6818 126.766 23.4429C126.778 23.3575 126.789 22.1573 126.789 21.486V21.0082H126.801Z" fill="white"/>
<path d="M131.013 21.3266C131.013 21.4119 131.03 23.3346 131.03 23.4256C131.03 23.693 131.168 23.7271 131.368 23.7271H131.724C131.758 23.7271 131.792 23.7442 131.792 23.784V23.9945C131.792 24.0457 131.758 24.0627 131.706 24.0627C131.603 24.0627 131.271 24.04 130.474 24.04C129.632 24.04 129.259 24.0627 129.179 24.0627C129.128 24.0627 129.11 24.0457 129.11 24.0059V23.7783C129.11 23.7442 129.128 23.7271 129.179 23.7271H129.517C129.683 23.7271 129.873 23.7101 129.907 23.4825C129.924 23.3631 129.941 21.5598 129.941 21.1047V20.5188C129.941 20.3197 129.924 18.8123 129.918 18.7042C129.895 18.5051 129.809 18.4198 129.575 18.4198H129.139C129.087 18.4198 129.07 18.4027 129.07 18.3629V18.1467C129.07 18.1069 129.087 18.0898 129.122 18.0898C129.225 18.0898 129.66 18.1126 130.486 18.1126C131.294 18.1126 131.563 18.0898 131.683 18.0898C131.735 18.0898 131.752 18.124 131.752 18.1638V18.3572C131.752 18.4084 131.718 18.4255 131.683 18.4255H131.363C131.179 18.4255 131.042 18.4937 131.042 18.653C131.042 18.7383 131.024 20.5757 131.024 20.6781V21.3266H131.013Z" fill="white"/>
<path d="M134.497 18.4653H134.262C133.993 18.4653 133.385 18.4653 133.03 18.5848C132.761 18.7042 132.44 19.256 132.279 19.5404C132.257 19.5802 132.228 19.6144 132.188 19.5973L132.022 19.5404C131.987 19.5234 131.981 19.5006 131.987 19.4551L132.394 17.9192C132.411 17.7998 132.463 17.7656 132.497 17.7656C132.549 17.7656 132.583 17.7998 132.629 17.851C132.795 18.0159 132.967 18.0614 133.202 18.0671C133.655 18.0842 134.01 18.1183 134.835 18.1183H135.288C136.217 18.1183 136.566 18.0842 136.956 18.0671C137.116 18.0614 137.437 17.942 137.563 17.851C137.632 17.7998 137.666 17.7656 137.712 17.7656C137.758 17.7656 137.781 17.7998 137.798 17.9021C137.815 18.0557 137.982 19.091 138.05 19.4892C138.056 19.5404 138.039 19.5575 138.016 19.5632L137.85 19.6201C137.815 19.6258 137.798 19.603 137.775 19.5518C137.655 19.3186 137.346 18.7839 137.111 18.6132C136.876 18.4767 136.119 18.4653 135.815 18.4653H135.58V22.9251C135.58 23.5622 135.666 23.7271 135.867 23.7271H136.354C136.388 23.7271 136.406 23.7613 136.406 23.8011V23.9774C136.406 24.0286 136.388 24.0628 136.32 24.0628C136.234 24.0628 135.964 24.04 135.053 24.04C134.194 24.04 133.838 24.0628 133.724 24.0628C133.672 24.0628 133.655 24.0457 133.655 23.9888V23.7954C133.655 23.7442 133.678 23.7271 133.712 23.7271H134.194C134.36 23.7271 134.463 23.6248 134.474 23.4996C134.497 23.2834 134.497 20.7236 134.497 20.5587V18.4653Z" fill="white"/>
<path d="M140.538 21.611C140.543 22.0604 140.561 22.8795 140.561 23.0331C140.561 23.4655 140.715 23.6361 140.899 23.6873C141.036 23.7214 141.237 23.7556 141.558 23.7556C141.707 23.7556 142.096 23.7385 142.268 23.7214C142.417 23.7044 142.738 23.619 142.956 23.437C143.105 23.3005 143.581 22.7487 143.741 22.5496C143.776 22.5098 143.798 22.4984 143.833 22.5155L143.97 22.6008C143.993 22.6179 144.005 22.6406 143.988 22.6861L143.581 23.9433C143.558 24.0172 143.495 24.0684 143.397 24.0684C143.357 24.0684 143.168 24.0627 142.647 24.0514C142.114 24.0514 141.248 24.0457 139.844 24.0457C139.535 24.0457 139.305 24.0514 139.128 24.0514C138.962 24.0571 138.841 24.0684 138.767 24.0684C138.715 24.0684 138.698 24.0514 138.698 24.0002V23.8011C138.698 23.7499 138.715 23.7328 138.784 23.7328H139.07C139.46 23.7328 139.489 23.6816 139.489 23.3744V20.5643C139.489 19.876 139.472 18.8407 139.454 18.727C139.42 18.4994 139.334 18.4368 139.082 18.4368H138.761C138.727 18.4368 138.709 18.4198 138.709 18.38V18.1467C138.709 18.1069 138.715 18.0898 138.761 18.0898C138.944 18.0898 139.248 18.124 139.942 18.1126H140.177C140.549 18.1126 142.486 18.0955 142.859 18.0955C142.99 18.0955 143.151 18.0898 143.197 18.0898C143.237 18.0898 143.254 18.1069 143.265 18.141C143.3 18.2491 143.621 19.3868 143.655 19.4721C143.672 19.5233 143.667 19.5461 143.632 19.5632L143.483 19.6314C143.46 19.6371 143.432 19.6314 143.409 19.5916C143.374 19.5404 142.687 18.7725 142.48 18.653C142.303 18.5506 142.073 18.4425 141.839 18.4368L140.561 18.4027L140.543 20.8203C140.795 20.8203 141.403 20.8032 141.506 20.7805C141.689 20.7464 141.793 20.6781 141.896 20.479C141.947 20.3709 142.033 20.1604 142.033 20.0125C142.033 19.9614 142.068 19.9443 142.102 19.9443L142.32 19.9614C142.354 19.9614 142.377 19.9784 142.371 20.0296C142.354 20.1661 142.354 20.7179 142.354 20.9341C142.354 21.2697 142.389 21.6679 142.406 21.8556C142.406 21.8954 142.389 21.9068 142.337 21.9125L142.154 21.9466C142.119 21.9523 142.102 21.9409 142.085 21.8897C142.051 21.7532 141.993 21.5712 141.947 21.4688C141.873 21.3038 141.712 21.1844 141.529 21.1673C141.225 21.1332 140.818 21.1161 140.549 21.1161L140.538 21.611Z" fill="white"/>
<path d="M146.286 21.008C146.286 21.1104 146.303 22.5325 146.303 23.0502C146.303 23.2152 146.337 23.3517 146.458 23.5166C146.561 23.6759 146.876 23.7442 147.197 23.7442C147.856 23.7442 148.526 23.4541 148.95 22.9023C149.306 22.4529 149.558 21.7646 149.558 20.9967C149.558 20.3254 149.271 19.6087 148.882 19.1707C148.429 18.6871 147.684 18.3856 146.996 18.3856C146.813 18.3856 146.589 18.3856 146.458 18.471C146.337 18.5392 146.303 18.6701 146.303 18.8407C146.286 19.1934 146.286 20.2799 146.286 20.4107V21.008ZM145.22 20.1889C145.22 19.9727 145.185 18.7838 145.168 18.6587C145.151 18.4596 145.031 18.4255 144.864 18.4255H144.412C144.377 18.4255 144.343 18.4084 144.343 18.3686V18.141C144.343 18.1069 144.377 18.0898 144.417 18.0898C144.664 18.0898 145.099 18.1126 145.69 18.1126C146.108 18.1126 146.532 18.0898 146.956 18.0898C148.085 18.0898 148.996 18.1979 149.77 18.8521C150.326 19.3015 150.716 20.0069 150.716 20.9739C150.716 21.9296 150.446 22.561 149.89 23.164C149.065 24.0514 147.753 24.0571 147.18 24.0571C146.859 24.0571 145.999 24.0343 145.581 24.0343C144.841 24.0343 144.503 24.0571 144.383 24.0571C144.349 24.0571 144.331 24.04 144.331 23.9831V23.7726C144.331 23.7385 144.349 23.7214 144.4 23.7214H144.887C145.054 23.7214 145.139 23.6532 145.168 23.511C145.191 23.346 145.225 21.4517 145.225 20.8203V20.1889H145.22Z" fill="white"/>
</g>
<defs>
<clipPath id="clip0_3308_7749">
<rect width="174" height="34" fill="white"/>
</clipPath>
</defs>
</svg>
