<svg width="137" height="55" viewBox="0 0 137 55" fill="none" xmlns="http://www.w3.org/2000/svg">
<path d="M4.5061 28.6914H13.7004V30.8914H6.94166V35.7497H13.7004V37.9192H6.94166V45.9859H4.5061V28.6914Z" fill="white"/>
<path d="M18.9659 28.6914H16.7129V45.9859H18.9659V28.6914Z" fill="white"/>
<path d="M23.989 29.8223C24.3543 29.8223 24.6893 29.9445 24.9328 30.2195C25.2068 30.4638 25.3286 30.8 25.3286 31.1666C25.3286 31.5333 25.2068 31.8388 24.9328 32.1138C24.6588 32.3888 24.3543 32.5111 23.989 32.5111C23.6541 32.5111 23.3497 32.3888 23.0757 32.1138C22.8017 31.8388 22.6799 31.5333 22.6799 31.1666C22.6799 30.8306 22.8017 30.525 23.0757 30.25C23.3497 29.9445 23.6541 29.8223 23.989 29.8223ZM22.893 34.5888H25.1459V45.9861H22.893V34.5888Z" fill="white"/>
<path d="M28.4063 38.5296C28.4063 37.3074 28.8631 36.3601 29.7459 35.6574C30.6289 34.9546 31.8467 34.5879 33.3689 34.5879H38.0573V36.3296H35.7739C36.2307 36.7879 36.5351 37.1851 36.6873 37.5824C36.8699 37.9491 36.9613 38.3768 36.9613 38.8657C36.9613 39.4768 36.7787 40.0574 36.4437 40.6379C36.1089 41.2184 35.6827 41.6463 35.1347 41.9518C34.5867 42.2574 33.7341 42.5018 32.5163 42.6851C31.6639 42.8074 31.2377 43.1129 31.2377 43.5713C31.2377 43.8463 31.3899 44.0601 31.7249 44.2129C32.0293 44.3962 32.6077 44.5491 33.4601 44.7324C34.8607 45.0379 35.7435 45.2824 36.1393 45.4657C36.5351 45.6491 36.9003 45.8934 37.2049 46.1991C37.7529 46.7491 38.0269 47.4212 38.0269 48.2462C38.0269 49.3157 37.5397 50.2018 36.5959 50.8434C35.6521 51.4851 34.3431 51.8213 32.7599 51.8213C31.1463 51.8213 29.8373 51.4851 28.8935 50.8434C27.9193 50.2018 27.4321 49.3157 27.4321 48.2462C27.4321 46.6879 28.3759 45.7101 30.2635 45.2518C29.5023 44.7629 29.1371 44.2741 29.1371 43.8157C29.1371 43.4491 29.2893 43.1129 29.6241 42.8379C29.9591 42.5324 30.3853 42.3184 30.9333 42.1963C29.2589 41.4018 28.4063 40.2101 28.4063 38.5296ZM32.1207 46.5351C31.3595 46.5351 30.7507 46.6879 30.2635 47.0241C29.7763 47.3601 29.5329 47.7574 29.5329 48.2768C29.5329 49.4684 30.5983 50.0491 32.6991 50.0491C33.7037 50.0491 34.4649 49.8962 35.0129 49.6212C35.5609 49.3157 35.8349 48.9184 35.8349 48.3684C35.8349 47.8491 35.4999 47.3907 34.7997 47.0851C34.0995 46.7184 33.2167 46.5351 32.1207 46.5351ZM32.6381 36.5434C32.0293 36.5434 31.5117 36.7574 31.0855 37.1546C30.6593 37.5824 30.4461 38.0713 30.4461 38.6518C30.4461 39.2324 30.6593 39.7213 31.0855 40.1184C31.5117 40.5157 32.0293 40.6991 32.6991 40.6991C33.3383 40.6991 33.8559 40.5157 34.2821 40.1184C34.7083 39.7213 34.9215 39.2324 34.9215 38.6518C34.9215 38.0407 34.7083 37.5518 34.2821 37.1546C33.8255 36.7574 33.2775 36.5434 32.6381 36.5434Z" fill="white"/>
<path d="M40.3705 28.6914H42.6235V36.0554C43.5673 34.9247 44.7241 34.3442 46.0941 34.3442C46.8553 34.3442 47.5251 34.5275 48.1339 34.9247C48.7427 35.2914 49.1691 35.8414 49.4735 36.5136C49.7779 37.1859 49.8997 38.1942 49.8997 39.5081V46.0164H47.6467V38.9581C47.6467 38.1331 47.4337 37.4609 47.0379 36.9414C46.6421 36.4219 46.0941 36.1775 45.4243 36.1775C44.9373 36.1775 44.4805 36.2997 44.0239 36.5747C43.5977 36.8192 43.1105 37.2469 42.5931 37.8581V46.0469H40.3401V28.6914H40.3705Z" fill="white"/>
<path d="M52.092 36.3919L56.3238 32.2363V34.5891H59.8858V36.6058H56.3238V42.2279C56.3238 43.5419 56.8718 44.1836 57.9374 44.1836C58.729 44.1836 59.5814 43.9086 60.4642 43.3891V45.4974C59.6118 45.9863 58.668 46.2308 57.6634 46.2308C56.6282 46.2308 55.7758 45.9251 55.106 45.3141C54.893 45.1308 54.7102 44.9169 54.5886 44.7029C54.4362 44.4586 54.345 44.1836 54.2536 43.8169C54.1622 43.4501 54.1014 42.7474 54.1014 41.7086V36.6363H52.1226V36.3919H52.092Z" fill="white"/>
<path d="M64.1763 45.9853C64.0241 45.9853 63.8717 45.9546 63.7195 45.863C63.3543 45.6185 63.2325 45.1296 63.5065 44.7324C63.5369 44.6713 64.4197 43.3268 66.1855 41.2185C66.4595 40.8824 66.9771 40.8213 67.3121 41.1268C67.6469 41.4018 67.7077 41.9213 67.4033 42.2574C65.6985 44.2741 64.8461 45.588 64.8155 45.6185C64.6937 45.863 64.4197 45.9853 64.1763 45.9853ZM69.6867 39.3546C69.4735 39.3546 69.2909 39.2935 69.1387 39.1408C68.8037 38.8353 68.8037 38.3158 69.1083 38.0103C70.1129 36.9713 71.1481 35.9324 72.2135 34.9546C72.5485 34.6491 73.0355 34.6796 73.3401 34.9853C73.6445 35.3213 73.6141 35.8408 73.3095 36.1158C72.2745 37.0935 71.2393 38.1018 70.2651 39.1103C70.1129 39.2935 69.8997 39.3546 69.6867 39.3546ZM75.9887 33.5185C75.7451 33.5185 75.5321 33.4268 75.3797 33.213C75.1057 32.8768 75.1363 32.3574 75.5015 32.0824C76.6281 31.1658 77.7849 30.2491 78.9417 29.4241C79.3071 29.1491 79.7943 29.2408 80.0683 29.6074C80.3423 29.9741 80.2509 30.463 79.8855 30.738C78.7591 31.563 77.6023 32.4491 76.5367 33.3658C76.3541 33.4574 76.1713 33.5185 75.9887 33.5185ZM82.9605 28.4158C82.6865 28.4158 82.4429 28.2935 82.2907 28.0491C82.0471 27.6824 82.1689 27.163 82.5343 26.9185C83.7521 26.1241 85.0003 25.3603 86.2485 24.6574C86.6443 24.4435 87.1313 24.5658 87.3445 24.963C87.5575 25.3603 87.4357 25.8491 87.0401 26.063C85.8223 26.7658 84.5741 27.4991 83.3867 28.263C83.2345 28.3853 83.1127 28.4158 82.9605 28.4158ZM90.4499 24.1991C90.1453 24.1991 89.8713 24.0463 89.7191 23.7408C89.5365 23.3435 89.6887 22.8546 90.0845 22.6713C91.3935 22.0296 92.7027 21.4185 94.0423 20.8685C94.4381 20.6853 94.9251 20.8991 95.1077 21.2963C95.2905 21.7241 95.0773 22.1824 94.6815 22.3658C93.3725 22.9158 92.0633 23.4963 90.8151 24.1074C90.6629 24.1685 90.5411 24.1991 90.4499 24.1991ZM98.3653 20.8685C98.0305 20.8685 97.7261 20.6546 97.6043 20.3185C97.4521 19.8908 97.6955 19.4324 98.0913 19.2796C99.4613 18.8213 100.862 18.363 102.232 17.9963C102.658 17.8741 103.115 18.1185 103.236 18.5463C103.358 18.9741 103.115 19.4324 102.688 19.5546C101.318 19.9213 99.9485 20.3491 98.6393 20.8074C98.5481 20.8685 98.4567 20.8685 98.3653 20.8685Z" fill="white"/>
<path d="M133.621 12.0083C133.652 12.0999 133.469 12.3444 133.317 12.5277C133.073 12.7722 132.373 13.5972 129.572 14.2083C126.771 14.8194 123.24 15.4611 122.996 15.5222C122.753 15.5527 122.266 15.4611 121.992 16.2861C121.748 17.1111 118.643 28.2639 118.643 28.2639L117.699 28.4777L116.633 16.8054C116.633 16.8054 110.027 18.1194 109.357 18.1194L107.683 22.5804L106.83 22.6722L107.013 18.1499C107.013 18.1499 106.1 17.9972 105.947 17.9666C105.887 17.9666 105.826 17.9666 105.795 17.8749C105.795 17.8139 105.826 17.7833 105.887 17.7527C106.008 17.6611 106.8 17.1722 106.8 17.1722L104.821 13.1083L105.643 12.8333L108.961 16.2554C109.57 15.9804 116.146 14.5139 116.146 14.5139L112.463 3.36106L113.406 3.17773C113.406 3.17773 120.713 12.1611 121.291 12.8027C121.87 13.4444 122.266 13.1694 122.509 13.1083C122.753 13.0472 126.254 12.2222 129.055 11.6416C131.856 11.0611 132.83 11.5499 133.165 11.6722C133.347 11.7333 133.621 11.9166 133.621 12.0083Z" fill="white"/>
<path d="M93.1325 34.5879H95.5375L90.5447 46.2296H89.7835L86.4347 38.2546L83.1467 46.2296H82.3855L77.3623 34.5879H79.7673L82.7509 41.5241L85.6127 34.5879H87.2871L90.1793 41.5241L93.1325 34.5879Z" fill="white"/>
<path d="M104.852 39.1417V44C104.852 44.3972 104.974 44.5805 105.248 44.5805C105.522 44.5805 105.948 44.3667 106.527 43.9695V45.314C106.009 45.65 105.614 45.864 105.309 45.9861C105.005 46.1083 104.67 46.1695 104.335 46.1695C103.361 46.1695 102.813 45.8028 102.63 45.0389C101.686 45.7722 100.651 46.1695 99.5856 46.1695C98.794 46.1695 98.1242 45.8945 97.6066 45.375C97.0892 44.8555 96.8152 44.1833 96.8152 43.3889C96.8152 42.6555 97.0586 42.0445 97.5762 41.4639C98.0938 40.9139 98.8244 40.4555 99.7682 40.1195L102.63 39.1417V38.5305C102.63 37.1555 101.96 36.4528 100.59 36.4528C99.3724 36.4528 98.1852 37.0945 97.0282 38.3472V35.9028C97.9112 34.8945 99.1594 34.375 100.773 34.375C101.991 34.375 102.965 34.711 103.726 35.3528C103.97 35.5667 104.183 35.8417 104.396 36.1778C104.578 36.514 104.731 36.85 104.761 37.2167C104.822 37.5222 104.852 38.1945 104.852 39.1417ZM102.66 43.725V40.364L101.169 40.9445C100.408 41.25 99.8596 41.5555 99.5552 41.8611C99.2506 42.1667 99.068 42.564 99.068 43.0222C99.068 43.4805 99.2202 43.8778 99.5246 44.1833C99.8292 44.489 100.225 44.6417 100.682 44.6417C101.382 44.6111 102.052 44.3055 102.66 43.725Z" fill="white"/>
<path d="M110.943 34.5889V37.186L111.065 37.0028C112.161 35.2305 113.257 34.375 114.322 34.375C115.175 34.375 116.058 34.8028 116.971 35.6583L115.784 37.6445C114.992 36.9111 114.262 36.5445 113.622 36.5445C112.892 36.5445 112.283 36.8805 111.735 37.5833C111.187 38.286 110.943 39.1111 110.943 40.0583V46.0167H108.69V34.6195H110.943V34.5889Z" fill="white"/>
<path d="M128.326 40.4861H120.38C120.44 41.5861 120.806 42.4417 121.476 43.0833C122.145 43.725 122.998 44.061 124.063 44.061C125.525 44.061 126.895 43.6028 128.143 42.686V44.8861C127.443 45.3445 126.773 45.6805 126.103 45.8639C125.433 46.0472 124.642 46.1695 123.728 46.1695C122.48 46.1695 121.476 45.925 120.714 45.375C119.953 44.8555 119.314 44.1528 118.857 43.2667C118.401 42.3805 118.157 41.3722 118.157 40.2111C118.157 38.4695 118.644 37.0639 119.618 35.9945C120.593 34.8945 121.871 34.375 123.424 34.375C124.916 34.375 126.134 34.8945 127.016 35.9639C127.899 37.0333 128.356 38.439 128.356 40.2111V40.4861H128.326ZM120.41 39.1417H126.134C126.073 38.225 125.799 37.5222 125.342 37.0333C124.855 36.5445 124.216 36.3 123.424 36.3C122.632 36.3 121.963 36.5445 121.445 37.0333C120.897 37.5528 120.562 38.2555 120.41 39.1417Z" fill="white"/>
<path d="M70.0235 32.3886L64.2999 45.9858H61.7729L69.1405 28.5996H70.8759L78.6393 45.9858H76.1123L70.0235 32.3886Z" fill="white"/>
</svg>
