<svg width="75" height="40" viewBox="0 0 75 40" fill="none" xmlns="http://www.w3.org/2000/svg">
<path d="M36.2011 29.2559H34.7346C34.4833 29.2559 34.5252 29.4651 34.5252 29.507C34.5252 29.5488 35.1536 34.5294 33.6872 36.3291C33.3101 36.7477 32.8911 36.9988 32.3464 36.9988C31.9274 36.9988 31.5503 36.8314 31.257 36.4547C29.8743 34.7805 30.5028 29.5488 30.5028 29.507C30.5028 29.4233 30.5028 29.2559 30.2933 29.2559H27.6955C27.5698 29.2559 27.486 29.2977 27.486 29.4651C27.486 29.6744 27.0252 34.948 29.2039 37.501C30.0419 38.4637 31.0894 38.9659 32.4302 38.9659C33.3939 38.9659 34.19 38.5892 34.8185 37.8359C36.9134 35.3665 36.4525 29.7163 36.4106 29.4651C36.4106 29.3396 36.3268 29.2559 36.2011 29.2559Z" fill="#1D1D1D"/>
<path d="M56.6481 29.507C56.6481 29.4233 56.6062 29.3814 56.6062 29.3396C56.5643 29.2977 56.5224 29.2559 56.4386 29.2559H54.6369C54.5112 29.2559 54.4274 29.3396 54.4274 29.507C54.4274 30.9719 54.0922 32.1438 53.3799 32.8971C52.5 33.8179 51.3269 33.8179 51.3269 33.8179C51.285 33.8179 51.2431 33.8179 51.2012 33.8598V29.507C51.2012 29.3814 51.1174 29.2559 50.9917 29.2559H48.8129C48.6872 29.2559 48.6034 29.3396 48.6034 29.507V38.6311C48.6034 38.7566 48.6872 38.8822 48.8129 38.8822H50.9917C51.1174 38.8822 51.2012 38.7985 51.2012 38.6311V34.2364L53.9665 38.7566C54.0084 38.8404 54.0922 38.8404 54.1341 38.8404H56.271C56.3548 38.8404 56.4386 38.7985 56.4805 38.7148C56.5224 38.6311 56.5224 38.5474 56.4805 38.4637L54.0503 34.7387C55.2235 34.1527 56.6062 32.6879 56.6481 29.507Z" fill="#1D1D1D"/>
<path d="M61.5921 33.2746C61.0893 33.2746 61.0055 33.0235 61.215 32.5213C62.0949 30.4286 65.7821 30.6379 66.0754 30.6797C66.1173 30.6797 66.2011 30.6797 66.243 30.6379C66.2849 30.596 66.3268 30.5541 66.3268 30.4704L66.4106 29.3822C66.4106 29.2985 66.4106 29.2567 66.3687 29.2148C66.3268 29.173 66.2849 29.1311 66.2011 29.1311C66.1173 29.1311 58.2821 28.7126 58.2821 33.9024C58.2821 34.9488 58.8687 34.8651 59.4972 34.8651H63.1424C63.729 34.8651 63.8547 34.9488 63.7709 35.3673C63.7709 35.451 63.5614 35.9533 63.5614 35.9533C62.3463 38.3389 58.9106 37.2089 58.6592 37.167C58.6173 37.167 58.5335 37.167 58.4916 37.2089C58.4497 37.2507 58.4078 37.2926 58.4078 37.3763L58.1983 38.2971C58.1564 38.4226 58.2402 38.5482 58.3659 38.5901C58.5335 38.6319 62.3463 39.8875 64.7765 38.1715C65.6983 37.5437 66.3268 36.2462 66.5782 35.0743C66.7039 34.4047 66.8296 33.2746 65.7821 33.2746H61.5921Z" fill="#1D1D1D"/>
<path d="M16.0055 29.2559H8.54739C8.42169 29.2559 8.33789 29.3396 8.33789 29.507V30.8882C8.33789 31.0137 8.42169 31.1393 8.54739 31.1393H11.0195V38.5892C11.0195 38.7148 11.1033 38.8404 11.229 38.8404H13.5334C13.6591 38.8404 13.7429 38.7566 13.7429 38.5892V31.1393H16.0055C16.1312 31.1393 16.215 31.0137 16.215 30.8882V29.507C16.215 29.3814 16.1312 29.2559 16.0055 29.2559Z" fill="#1D1D1D"/>
<path d="M25.6006 32.5627C25.6006 31.7256 25.3073 31.056 24.7207 30.5119C22.7095 28.6285 17.9749 29.1726 17.7654 29.1726C17.6397 29.1726 17.5559 29.2981 17.5559 29.4237V38.4641C17.5559 38.5897 17.6397 38.7152 17.7654 38.7152H19.9442C20.0699 38.7152 20.1537 38.6315 20.1537 38.4641V31.0141C20.7403 31.0141 22.0391 31.056 22.7095 31.7256C22.9609 31.9768 23.0447 32.2697 23.0447 32.6046C23.0447 33.8602 22.081 34.2787 21.2431 34.3624L20.7822 34.4043C20.6984 34.4043 20.6565 34.4461 20.6146 34.5298C20.5727 34.6136 20.5727 34.6973 20.6146 34.7391C20.6146 34.781 22.4581 37.8363 22.7933 38.5059C22.8352 38.5897 22.919 38.6315 23.0028 38.6315H25.1397C25.2235 38.6315 25.3073 38.5897 25.3492 38.5059C25.3911 38.4222 25.3911 38.3385 25.3492 38.2548L23.5475 35.2832C24.8883 34.9065 25.6006 33.9439 25.6006 32.5627Z" fill="#1D1D1D"/>
<path d="M46.257 28.9633C46.0475 28.9633 41.5643 28.8796 39.4274 31.0978C38.7151 31.8512 38.338 32.772 38.338 33.8602C38.338 34.9484 38.7151 35.8692 39.4274 36.6225C41.5224 38.7989 45.7961 38.7571 46.0056 38.7571C46.2151 38.7571 46.2151 38.7152 46.2151 38.5059C46.2151 38.3385 46.257 37.5852 46.257 37.5852C46.257 37.5015 46.2151 37.4596 46.2151 37.4178C46.1732 37.3759 46.1313 37.334 46.0475 37.334C45.838 37.334 41.3548 37.2922 41.3548 33.8602C41.3548 33.0231 41.6062 32.3535 42.109 31.8512C43.4497 30.5537 46.0894 30.8049 46.0894 30.8049C46.1313 30.8049 46.257 30.8049 46.3408 30.5956L46.4246 29.2144C46.4665 28.9633 46.2989 28.9633 46.257 28.9633Z" fill="#1D1D1D"/>
<path d="M65.0699 17.7465C64.8604 17.7465 60.3771 17.6628 58.2403 19.8392C57.528 20.5926 57.1509 21.5134 57.1509 22.6015C57.1509 23.6897 57.528 24.6105 58.2403 25.3639C60.3352 27.5403 64.609 27.4984 64.8185 27.4984C65.0699 27.4984 65.028 27.4566 65.028 27.2892C65.028 27.1217 65.0699 26.3684 65.0699 26.3684C65.0699 26.3265 65.0699 26.2428 64.9861 26.201C64.9442 26.1591 64.9023 26.1173 64.8185 26.1173C64.609 26.1173 60.1257 26.0754 60.1257 22.6015C60.1257 21.7645 60.3771 21.0948 60.8799 20.5926C62.2207 19.2951 64.8604 19.5462 64.8604 19.5462C64.9023 19.5462 65.0699 19.5462 65.1118 19.337L65.1956 17.9558C65.3213 17.7465 65.1537 17.7465 65.0699 17.7465Z" fill="#1D1D1D"/>
<path d="M39.9721 17.7465C39.7626 17.7465 35.2794 17.6628 33.1425 19.8392C32.4302 20.5926 32.0531 21.5134 32.0531 22.6015C32.0531 23.6897 32.4302 24.6105 33.1425 25.3639C35.2375 27.5403 39.5112 27.4984 39.7207 27.4984C39.9302 27.4984 39.9302 27.4566 39.9302 27.2892C39.9302 27.1217 39.9721 26.3684 39.9721 26.3684C39.9721 26.3265 39.9302 26.2428 39.8883 26.201C39.8464 26.1591 39.8045 26.1173 39.7207 26.1173C39.5112 26.1173 35.028 26.0754 35.028 22.6015C35.028 21.7645 35.2794 21.0948 35.7821 20.5926C37.1229 19.2951 39.7626 19.5462 39.7626 19.5462C39.8045 19.5462 39.9302 19.5462 40.014 19.337L40.1397 17.9558C40.2235 17.7465 40.014 17.7465 39.9721 17.7465Z" fill="#1D1D1D"/>
<path d="M19.3576 27.373C19.3995 27.373 19.4833 27.373 19.5252 27.3311C19.5671 27.2893 19.5671 27.2056 19.5671 27.1637C19.5252 26.7871 18.2263 17.6211 14.8324 17.6211C11.4805 17.6211 8.33803 27.0382 8.33803 27.1219C8.33803 27.2056 8.21233 27.4149 8.54753 27.4149H11.271C11.3548 27.4149 11.4805 27.3312 11.4805 27.2474C12.109 24.6107 13.4917 20.4253 14.7067 20.4253C15.8799 20.4253 17.095 24.5688 17.5559 27.2056C17.5978 27.3312 17.6816 27.373 17.7654 27.373H19.3576Z" fill="#1D1D1D"/>
<path d="M49.3575 19.7135C49.4832 19.7135 49.567 19.5879 49.567 19.4624V18.0812C49.567 17.9556 49.4832 17.8301 49.3575 17.8301H41.8994C41.7737 17.8301 41.6899 17.9138 41.6899 18.0812V19.4624C41.6899 19.5879 41.7737 19.7135 41.8994 19.7135H44.3715V27.1635C44.3715 27.289 44.4553 27.4146 44.581 27.4146H46.8855C47.0112 27.4146 47.095 27.289 47.095 27.1635V19.7135H49.3575Z" fill="#1D1D1D"/>
<path d="M52.0391 27.4146H54.4693C54.595 27.4146 54.6788 27.3309 54.6788 27.1635V18.0812C54.6788 17.9556 54.595 17.8301 54.4693 17.8301H52.0391C51.9134 17.8301 51.8296 17.9138 51.8296 18.0812V27.1635C51.8296 27.289 51.9134 27.4146 52.0391 27.4146Z" fill="#1D1D1D"/>
<path d="M29.7066 27.2889C29.7485 27.2052 29.7485 27.1215 29.7066 27.0378L27.905 24.0661C29.2457 23.6057 29.958 22.6431 29.958 21.2619C29.958 20.4249 29.6647 19.7552 29.0781 19.2111C27.067 17.3277 22.3323 17.8718 22.1228 17.8718C21.9971 17.8718 21.9133 17.9974 21.9133 18.1229V27.1633C21.9133 27.2889 21.9971 27.4144 22.1228 27.4144H24.3016C24.4273 27.4144 24.5111 27.3307 24.5111 27.1633V19.7134C25.0977 19.7134 26.3966 19.7552 27.067 20.4249C27.3184 20.676 27.4022 20.969 27.4022 21.3038C27.4022 22.5594 26.4385 22.9779 25.6005 23.1035L25.1396 23.1454C25.0558 23.1454 25.0139 23.1872 24.972 23.2709C24.9301 23.3546 24.9301 23.4383 24.972 23.522C24.972 23.5639 26.8156 26.6192 27.1508 27.2889C27.1927 27.3726 27.2765 27.4144 27.3603 27.4144H29.4971C29.5809 27.4144 29.6647 27.3726 29.7066 27.2889Z" fill="#1D1D1D"/>
<path d="M37.5419 3.13903C34.6508 3.13903 31.9274 4.64576 29.4972 7.61737L29.2039 7.9522L29.6648 7.91035C32.2626 7.70108 34.9022 7.61737 37.5419 7.61737C40.1397 7.61737 42.8212 7.70108 45.419 7.91035L45.8799 7.9522L45.5866 7.61737C43.1145 4.64576 40.433 3.13903 37.5419 3.13903ZM75 15.2766C75 15.3185 74.9581 15.3603 74.8743 15.3603H72.5279H72.486C66.4525 13.2676 58.4916 11.6353 50.0279 10.7983L49.6927 10.7564L49.8184 11.0494C50.8659 13.3932 51.4106 15.1929 51.4106 15.1929C51.4106 15.2347 51.4106 15.2766 51.4106 15.3185C51.3687 15.3603 51.3687 15.3603 51.3268 15.3603H49.9441C49.9022 15.3603 49.8603 15.3185 49.8184 15.2766C49.8184 15.2766 49.1061 13.1421 47.6397 10.6308L47.5978 10.5471H47.514C44.1201 10.2542 40.7682 10.1286 37.5 10.1286C34.2737 10.1286 30.8799 10.2542 27.486 10.5471H27.4022L27.3603 10.6308C25.8939 13.1002 25.1816 15.2347 25.1816 15.2766C25.1816 15.3185 25.1397 15.3603 25.0978 15.3603H23.7151C23.6732 15.3603 23.6313 15.3603 23.6313 15.3185C23.6313 15.2766 23.5894 15.2347 23.6313 15.1929C23.6313 15.1929 24.176 13.3932 25.2235 11.0494L25.3492 10.7564L25.014 10.7983C16.5503 11.6353 8.54749 13.2676 2.55587 15.3603H2.51397H0.1257C0.0838002 15.3603 0.0418994 15.3185 0 15.2766C0 15.2347 -6.39959e-07 15.151 0.0418988 15.151C7.4162 11.5935 16.5922 9.20781 26.5642 8.16147H26.648L26.6899 8.07776C26.7737 7.91035 26.8575 7.78479 26.9413 7.61737C29.9581 2.63678 33.5615 0 37.4581 0C41.3547 0 44.9581 2.63678 47.9749 7.61737C48.0587 7.74293 48.1425 7.91035 48.2682 8.07776L48.3101 8.16147H48.3939C58.3659 9.20781 67.5419 11.6353 74.8743 15.1092C75 15.1929 75 15.2347 75 15.2766Z" fill="#1D1D1D"/>
</svg>
