<svg width="114" height="47" viewBox="0 0 114 47" fill="none" xmlns="http://www.w3.org/2000/svg">
<path d="M49.5772 0.691469C49.5772 0.691469 47.7723 0 45.3297 0C40.9034 0 38.5752 2.41931 37.4442 3.97636C36.3744 5.44884 35.7004 6.98268 35.1937 9.10351C34.7085 11.1315 34.6291 13.6669 34.5446 15.6899C34.3343 20.7689 34.8096 29.7066 32.6221 29.7066C31.4993 29.7066 30.731 27.9771 30.471 27.3122C30.365 27.0419 29.5105 24.5546 28.4524 19.8536C27.795 16.9252 26.2301 9.8696 25.7764 8.28271C25.5677 7.55144 25.0362 5.613 24.0062 3.93159C22.6549 1.72784 20.3532 0.61685 18.3545 0.61685C16.3557 0.61685 14.6203 1.95668 13.9629 2.60503C11.9576 4.58326 11.3018 7.47019 11.0915 8.61766C10.863 9.85634 10.5831 12.4431 10.5831 12.4431C10.1807 15.5274 9.50842 20.8718 9.35607 21.9927C8.57115 27.7566 6.93177 28.6868 5.35366 29.2009C4.98273 29.3219 4.27233 29.3767 4.02725 29.3767C2.99891 29.3767 2.18584 29.0782 2.18584 29.0782C2.07489 29.0334 1.8679 28.9522 1.62613 28.9522C1.48538 28.9522 1.35125 28.9787 1.22705 29.0334C0.894209 29.1793 0.743518 29.3783 0.692184 29.4712C0.0496782 30.4611 0 31.5224 0 31.8242C0 32.5521 0.443792 32.7959 0.576268 32.8522C0.61601 32.8688 1.52678 33.2585 2.8714 33.4658C6.90693 34.0926 9.43224 31.7131 10.1161 31.0465C10.7587 30.418 11.8698 29.1246 12.6001 26.5975C13.067 24.9857 13.3386 23.4038 13.5456 21.6478C13.7013 20.3229 14.7164 11.5477 14.9233 10.319C15.1419 9.02558 15.4731 7.6841 16.1123 6.45537C16.5627 5.58813 17.3344 4.65954 18.4753 4.65954C18.9142 4.65954 19.3166 4.7922 19.6709 5.05751C20.7639 5.86837 21.418 7.78359 21.6332 8.61103C21.9247 9.72368 24.0112 18.5105 24.3423 20.041C26.5646 30.3434 28.0616 32.1293 30.1332 33.1623C31.3188 33.7526 33.6471 34.411 35.7601 32.7411C38.1297 30.8707 38.1926 27.216 38.3533 24.999C38.5189 22.714 38.5255 20.885 38.5371 20.0642C38.6497 11.9059 38.7176 9.3937 40.8918 6.24644C42.0626 4.55341 44.4637 3.3562 48.4429 4.5899C48.5406 4.6214 48.7542 4.67281 48.9314 4.67281C49.7031 4.67281 50.0243 3.88848 50.2247 3.10747C50.3605 2.58016 50.7347 1.06291 49.5756 0.686494" fill="#FF1910"/>
<path d="M45.9324 27.05C45.9324 28.3384 46.1526 29.1857 46.56 29.7512C47.0932 30.4426 47.9096 30.819 48.9744 30.819C50.1666 30.819 51.296 30.4741 52.3641 30.0032C52.5827 29.9087 52.8029 29.8457 53.0215 29.8457C53.8064 29.8457 54.5582 30.5056 54.5582 31.3215C54.5582 31.9201 54.3082 32.4524 53.7435 32.7359C52.2366 33.4572 50.6386 33.8038 48.9744 33.8038C47.1561 33.8038 45.588 33.2069 44.4272 32.0445C43.2978 30.9136 42.7017 29.3432 42.7017 27.491V23.5329C42.7017 21.7106 43.2978 20.1402 44.4272 19.0093C45.588 17.847 47.1561 17.25 48.9744 17.25C50.7926 17.25 52.3939 17.847 53.5232 19.0093C54.6526 20.1402 55.2785 21.7106 55.2785 23.5329V25.0087C55.2785 26.1396 54.3694 27.0516 53.2401 27.0516H45.9324V27.05ZM52.0495 24.0652C52.0495 21.4585 50.983 20.2331 48.9744 20.2331C46.9657 20.2331 45.9324 21.4253 45.9324 24.0652H52.0495Z" fill="#010101"/>
<path d="M63.4589 28.2127L60.1338 33.1126C59.8192 33.5537 59.3191 33.8041 58.8157 33.8041C57.9695 33.8041 57.1846 33.0828 57.1846 32.1708C57.1846 31.8574 57.2806 31.544 57.4677 31.2604L61.5778 25.4484L57.5621 19.7956C57.3733 19.5121 57.2806 19.1987 57.2806 18.8836C57.2806 18.0363 58.001 17.252 58.9117 17.252C59.4135 17.252 59.9152 17.5023 60.2282 17.9418L63.4589 22.6842L66.6897 17.9418C67.0027 17.4708 67.5359 17.252 68.0393 17.252C68.9169 17.252 69.6389 17.9733 69.6389 18.8836C69.6389 19.1987 69.5429 19.5121 69.3557 19.7956L65.3417 25.4484L69.4501 31.2604C69.6704 31.544 69.7648 31.8574 69.7648 32.1708C69.7648 33.0496 69.0113 33.8041 68.1022 33.8041C67.6004 33.8041 67.0987 33.5852 66.7857 33.1126L63.4589 28.2127Z" fill="#010101"/>
<path d="M83.9644 31.0708C83.9644 31.9496 83.3997 32.7041 82.585 32.9877C81.0466 33.5216 79.2582 33.8035 77.5029 33.8035C75.5886 33.8035 74.0834 33.3326 73.017 32.4222C71.9505 31.5102 71.3859 30.2235 71.3859 28.6846C71.3859 27.1458 71.9505 25.9519 73.017 25.0731C74.0834 24.1627 75.5886 23.6902 77.5029 23.6902H80.7337V22.5908C80.7337 21.2725 79.7616 20.2345 78.1305 20.2345C76.6567 20.2345 75.842 20.4235 74.7425 21.0818C74.4908 21.2393 74.1463 21.3637 73.8648 21.3637C73.0186 21.3637 72.3281 20.7352 72.3281 19.9493C72.3281 19.3838 72.5781 18.82 73.1114 18.505C74.8054 17.5299 76.2792 17.248 78.5379 17.248C82.0518 17.248 83.9644 19.7934 83.9644 22.5891V31.0691V31.0708ZM80.7337 26.6733H77.5029C74.7739 26.6733 74.6166 28.1507 74.6166 28.6846C74.6166 29.2501 74.7739 30.8204 77.5029 30.8204C78.5693 30.8204 79.7302 30.6629 80.7337 30.4125V26.6733Z" fill="#010101"/>
<path d="M96.9122 23.2812C96.9122 21.3659 95.7828 20.2351 93.8387 20.2351C92.8038 20.2351 91.7688 20.3909 90.7968 20.643V32.1708C90.7968 33.0828 90.0748 33.8041 89.1971 33.8041C88.3195 33.8041 87.566 33.0828 87.566 32.1708V19.9847C87.566 19.1042 88.0993 18.3513 88.9454 18.0678C90.4838 17.5355 92.1447 17.252 93.8387 17.252C95.6901 17.252 97.2583 17.8489 98.3876 19.0113C99.517 20.1422 100.143 21.7125 100.143 23.5349V32.1724C100.143 33.0844 99.4209 33.8058 98.5118 33.8058C97.6027 33.8058 96.9122 33.0844 96.9122 32.1724V23.2828V23.2812Z" fill="#010101"/>
<path d="M106.094 26.2971C104.4 25.6687 103.082 24.3488 103.082 21.9941C103.082 19.2299 105.372 17.25 108.509 17.25C110.642 17.25 111.74 17.5651 112.774 18.036C113.402 18.288 113.809 18.8518 113.809 19.5134C113.809 20.3293 113.15 21.0207 112.304 21.0207C112.084 21.0207 111.771 20.9577 111.551 20.8632C110.767 20.4868 109.481 20.2348 108.446 20.2348C107.159 20.2348 106.313 20.8632 106.313 21.9311C106.313 22.7469 106.939 23.2494 107.598 23.4699L110.673 24.4764C112.743 25.1662 113.998 26.5807 113.998 28.8723C113.998 31.6365 111.771 33.8038 108.414 33.8038C106.563 33.8038 105.058 33.4589 103.897 32.925C103.302 32.6414 102.925 32.1075 102.925 31.479C102.925 30.6632 103.615 29.9087 104.493 29.9087C104.713 29.9087 104.995 30.0032 105.215 30.0977C106.063 30.5372 107.098 30.819 108.477 30.819C109.984 30.819 110.767 30.2536 110.767 29.1857C110.767 28.0233 109.827 27.6469 108.666 27.239L106.094 26.2971Z" fill="#010101"/>
<path d="M19.2387 46.9055C19.0747 46.9055 18.9307 46.8474 18.8098 46.7314C18.6872 46.6136 18.626 46.471 18.626 46.3002V40.8845C18.626 40.7204 18.6856 40.5794 18.8048 40.4584C18.924 40.339 19.0698 40.2793 19.2387 40.2793H21.9776C22.115 40.2793 22.231 40.3257 22.327 40.4202C22.4214 40.5148 22.4678 40.6325 22.4678 40.7701C22.4678 40.9078 22.4214 41.0139 22.327 41.1018C22.231 41.1896 22.115 41.2344 21.9776 41.2344H19.6262V42.9938H21.8551C21.9942 42.9938 22.1101 43.0385 22.2045 43.1314C22.2989 43.2226 22.3469 43.337 22.3469 43.4763C22.3469 43.609 22.2989 43.7201 22.2045 43.8113C22.1101 43.9025 21.9942 43.9489 21.8551 43.9489H19.6262V45.9537H22.0438C22.1763 45.9537 22.2906 45.9984 22.3883 46.0896C22.486 46.1808 22.534 46.2936 22.534 46.4246C22.534 46.5639 22.486 46.6783 22.3883 46.7695C22.2906 46.8607 22.1747 46.9071 22.0438 46.9071H19.2403L19.2387 46.9055Z" fill="#010101"/>
<path d="M24.2892 46.9059C24.1186 46.9059 23.9746 46.8446 23.8554 46.7219C23.7361 46.5992 23.6765 46.4566 23.6765 46.2924V40.686C23.6765 40.5467 23.7262 40.4307 23.8272 40.3312C23.9282 40.2333 24.0441 40.1836 24.1766 40.1836C24.3091 40.1836 24.4316 40.235 24.531 40.3361C24.627 40.4373 24.6767 40.5567 24.6767 40.6943V45.9508H27.0944C27.2335 45.9508 27.3494 45.9956 27.4438 46.0868C27.5382 46.178 27.5862 46.2907 27.5862 46.4217C27.5862 46.561 27.5398 46.6754 27.4487 46.7666C27.3577 46.8578 27.2418 46.9043 27.1027 46.9043H24.2909L24.2892 46.9059Z" fill="#010101"/>
<path d="M29.1693 46.9055C29.0054 46.9055 28.8613 46.8474 28.7405 46.7314C28.6179 46.6136 28.5566 46.471 28.5566 46.3002V40.8845C28.5566 40.7204 28.6163 40.5794 28.7355 40.4584C28.8547 40.339 29.0004 40.2793 29.1693 40.2793H31.9083C32.0457 40.2793 32.1616 40.3257 32.2577 40.4202C32.3521 40.5148 32.3984 40.6325 32.3984 40.7701C32.3984 40.9078 32.3521 41.0139 32.2577 41.1018C32.1616 41.1896 32.0457 41.2344 31.9083 41.2344H29.5568V42.9938H31.7857C31.9232 42.9938 32.0407 43.0385 32.1351 43.1314C32.2295 43.2226 32.2775 43.337 32.2775 43.4763C32.2775 43.609 32.2295 43.7201 32.1351 43.8113C32.0407 43.9025 31.9232 43.9489 31.7857 43.9489H29.5568V45.9537H31.9745C32.107 45.9537 32.2212 45.9984 32.3189 46.0896C32.4166 46.1808 32.4647 46.2936 32.4647 46.4246C32.4647 46.5639 32.4166 46.6783 32.3189 46.7695C32.2212 46.8607 32.1053 46.9071 31.9745 46.9071H29.171L29.1693 46.9055Z" fill="#010101"/>
<path d="M33.4368 42.6328C33.4368 42.2663 33.4947 41.933 33.6106 41.6295C33.7282 41.3278 33.8922 41.0691 34.1058 40.8552C34.3194 40.6413 34.5761 40.4754 34.8758 40.3594C35.1739 40.2433 35.505 40.1836 35.871 40.1836C36.3827 40.1836 36.8662 40.3328 37.3266 40.628C37.4773 40.7308 37.5534 40.8651 37.5534 41.0359C37.5534 41.1619 37.5054 41.2714 37.4127 41.3609C37.3166 41.4538 37.2007 41.4985 37.0633 41.4985C36.9821 41.4985 36.8977 41.472 36.8083 41.4223C36.6576 41.3278 36.5036 41.2531 36.3512 41.1951C36.1972 41.1387 36.0383 41.1105 35.8743 41.1105C35.4156 41.1105 35.0612 41.2482 34.8129 41.5251C34.5645 41.802 34.4403 42.1718 34.4403 42.6311V44.5496C34.4403 45.0106 34.5645 45.3787 34.8129 45.6556C35.0612 45.9342 35.4156 46.0719 35.8743 46.0719C36.0383 46.0719 36.1956 46.042 36.3479 45.9823C36.4986 45.9226 36.6493 45.8447 36.8016 45.7502C36.8828 45.6938 36.9755 45.6656 37.0749 45.6656C37.2007 45.6656 37.3117 45.7104 37.411 45.7983C37.5087 45.8861 37.5568 46.0006 37.5568 46.1398C37.5568 46.3156 37.4806 46.4549 37.3299 46.5544C36.8712 46.8512 36.386 46.9988 35.8743 46.9988C35.5084 46.9988 35.1772 46.9408 34.8791 46.8247C34.5794 46.7086 34.3227 46.5428 34.1091 46.3289C33.8938 46.1133 33.7299 45.8563 33.614 45.5545C33.498 45.2511 33.4401 44.9178 33.4401 44.5513V42.6328H33.4368Z" fill="#010101"/>
<path d="M39.933 41.2325H38.5354C38.398 41.2325 38.2837 41.186 38.1926 41.0948C38.0999 41.0036 38.0552 40.8925 38.0552 40.7582C38.0552 40.6239 38.1015 40.5062 38.1926 40.4133C38.2837 40.3221 38.398 40.2773 38.5354 40.2773H42.3209C42.46 40.2773 42.5759 40.3221 42.6703 40.4133C42.7647 40.5045 42.811 40.6206 42.811 40.7582C42.811 40.8959 42.763 41.0036 42.6703 41.0948C42.5759 41.186 42.4583 41.2325 42.3209 41.2325H40.9332V46.4989C40.9332 46.6365 40.8835 46.7559 40.7858 46.8538C40.6881 46.9516 40.5706 46.9997 40.4315 46.9997C40.2924 46.9997 40.1748 46.9499 40.0771 46.8538C39.9794 46.7576 39.9314 46.6382 39.9314 46.4989V41.2325H39.933Z" fill="#010101"/>
<path d="M45.5499 44.126H44.7004V46.5089C44.7004 46.6481 44.6507 46.7642 44.5497 46.8587C44.447 46.9533 44.3311 47.0013 44.2003 47.0013C44.0612 47.0013 43.9436 46.9533 43.8459 46.8587C43.7482 46.7642 43.7002 46.6481 43.7002 46.5089V40.8842C43.7002 40.7201 43.7598 40.5775 43.879 40.4581C43.9999 40.337 44.144 40.2773 44.3129 40.2773H46.0698C46.6428 40.2773 47.1065 40.4531 47.4575 40.8063C47.8235 41.1728 48.0056 41.6454 48.0056 42.2257C48.0056 42.8061 47.8268 43.2687 47.4675 43.6153C47.2472 43.8242 46.974 43.9718 46.6461 44.0597L47.9576 46.2634C48.0073 46.3447 48.0321 46.4293 48.0321 46.5171C48.0321 46.6432 47.9841 46.7543 47.8864 46.8538C47.7871 46.9516 47.6728 46.9997 47.5403 46.9997C47.4526 46.9997 47.3731 46.9781 47.3002 46.9383C47.2274 46.8969 47.1694 46.8388 47.1263 46.7626L45.5482 44.1244L45.5499 44.126ZM46.0698 43.1726C46.1775 43.1726 46.2851 43.1593 46.3961 43.1344C46.5054 43.1095 46.6064 43.0615 46.6975 42.9885C46.7885 42.9155 46.863 42.8177 46.9193 42.695C46.9756 42.5723 47.0038 42.4164 47.0038 42.2274C47.0038 41.9422 46.9227 41.7067 46.762 41.5177C46.6014 41.3286 46.3712 41.2341 46.0682 41.2341H44.7004V43.1726H46.0682H46.0698Z" fill="#010101"/>
<path d="M49.1267 40.6863C49.1267 40.5487 49.1747 40.4293 49.2724 40.3315C49.3701 40.2336 49.4877 40.1855 49.6268 40.1855C49.7659 40.1855 49.8752 40.2336 49.9762 40.3315C50.0772 40.4293 50.1269 40.5487 50.1269 40.6863V46.5C50.1269 46.6376 50.0772 46.757 49.9762 46.8548C49.8735 46.9527 49.7576 47.0007 49.6268 47.0007C49.496 47.0007 49.3701 46.9527 49.2724 46.8548C49.1747 46.757 49.1267 46.6393 49.1267 46.5V40.6863Z" fill="#010101"/>
<path d="M52.6108 43.9472V46.5092C52.6108 46.6468 52.5628 46.7645 52.4651 46.859C52.3674 46.9535 52.2531 47.0016 52.1206 47.0016C51.9832 47.0016 51.8623 46.9552 51.7613 46.859C51.6603 46.7645 51.6106 46.6468 51.6106 46.5092V40.8845C51.6106 40.7204 51.6702 40.5794 51.7911 40.4584C51.9103 40.339 52.0544 40.2793 52.2249 40.2793H54.9341C55.0732 40.2793 55.1891 40.3257 55.2835 40.4153C55.3779 40.5081 55.4242 40.6225 55.4242 40.7618C55.4242 40.9011 55.3779 41.0056 55.2835 41.0984C55.1891 41.1896 55.0715 41.2361 54.9341 41.2361H52.6124V42.9938H54.8115C54.949 42.9938 55.0665 43.0385 55.1609 43.1314C55.2553 43.2226 55.3017 43.3387 55.3017 43.4763C55.3017 43.6139 55.2553 43.7217 55.1609 43.8129C55.0649 43.9041 54.949 43.9505 54.8115 43.9505H52.6124L52.6108 43.9472Z" fill="#010101"/>
<path d="M57.7277 44.0044L55.9062 40.9234C55.8631 40.8538 55.84 40.7726 55.84 40.6764C55.84 40.5504 55.8863 40.4376 55.9758 40.3364C56.0685 40.2353 56.1827 40.1855 56.3218 40.1855C56.4096 40.1855 56.4907 40.2054 56.5686 40.2469C56.6431 40.2884 56.7044 40.3447 56.7474 40.421L58.2196 43.0111L59.6933 40.421C59.7381 40.3447 59.7977 40.2867 59.8722 40.2469C59.9484 40.2054 60.0295 40.1855 60.1173 40.1855C60.2431 40.1855 60.3557 40.232 60.4518 40.3265C60.5511 40.421 60.5991 40.5371 60.5991 40.6764C60.5991 40.7709 60.576 40.8521 60.5329 40.9234L58.7114 44.0044V46.5083C58.7114 46.6476 58.6633 46.7636 58.5706 46.8581C58.4762 46.9543 58.3587 46.9991 58.2212 46.9991C58.0838 46.9991 57.9662 46.9527 57.8735 46.8581C57.7791 46.7636 57.7311 46.6459 57.7311 46.5083V44.0044H57.7277Z" fill="#010101"/>
<path d="M65.3649 41.2325H63.9673C63.8298 41.2325 63.7139 41.186 63.6245 41.0948C63.5318 41.0036 63.4871 40.8925 63.4871 40.7582C63.4871 40.6239 63.5334 40.5062 63.6245 40.4133C63.7156 40.3221 63.8298 40.2773 63.9673 40.2773H67.7528C67.8919 40.2773 68.0078 40.3221 68.1022 40.4133C68.1966 40.5045 68.2429 40.6206 68.2429 40.7582C68.2429 40.8959 68.1949 41.0036 68.1022 41.0948C68.0078 41.186 67.8902 41.2325 67.7528 41.2325H66.3651V46.4989C66.3651 46.6365 66.3154 46.7559 66.2177 46.8538C66.12 46.9516 66.0024 46.9997 65.8633 46.9997C65.7242 46.9997 65.6067 46.9499 65.509 46.8538C65.4113 46.7559 65.3632 46.6382 65.3632 46.4989V41.2325H65.3649Z" fill="#010101"/>
<path d="M72.5865 43.948H70.1324V46.5016C70.1324 46.6393 70.0827 46.757 69.9867 46.8565C69.8873 46.9543 69.7747 47.0024 69.6406 47.0024C69.5064 47.0024 69.3839 46.9527 69.2829 46.8565C69.1819 46.7587 69.1322 46.6409 69.1322 46.5016V40.6863C69.1322 40.5487 69.1819 40.431 69.2779 40.3315C69.3756 40.2336 69.4949 40.1855 69.6323 40.1855C69.7697 40.1855 69.8807 40.2353 69.9817 40.3315C70.0827 40.431 70.1324 40.547 70.1324 40.6863V42.9945H72.5865V40.6863C72.5865 40.5487 72.6345 40.431 72.7322 40.3315C72.8299 40.2336 72.9475 40.1855 73.0866 40.1855C73.2257 40.1855 73.3433 40.2353 73.441 40.3315C73.5387 40.431 73.5883 40.547 73.5883 40.6863V46.5016C73.5883 46.6393 73.5403 46.757 73.4459 46.8565C73.3515 46.9543 73.2356 47.0024 73.0965 47.0024C72.9574 47.0024 72.8382 46.9527 72.7372 46.8565C72.6362 46.7587 72.5865 46.6409 72.5865 46.5016V43.948Z" fill="#010101"/>
<path d="M75.6831 46.9055C75.5192 46.9055 75.3751 46.8474 75.2542 46.7314C75.1317 46.6136 75.0704 46.471 75.0704 46.3002V40.8845C75.0704 40.7204 75.1301 40.5794 75.2493 40.4584C75.3685 40.339 75.5142 40.2793 75.6831 40.2793H78.4221C78.5595 40.2793 78.6754 40.3257 78.7715 40.4202C78.8659 40.5148 78.9122 40.6325 78.9122 40.7701C78.9122 40.9078 78.8659 41.0139 78.7715 41.1018C78.6754 41.1896 78.5595 41.2344 78.4221 41.2344H76.0723V42.9938H78.2995C78.437 42.9938 78.5545 43.0385 78.6489 43.1314C78.7433 43.2226 78.7913 43.337 78.7913 43.4763C78.7913 43.609 78.7433 43.7201 78.6489 43.8113C78.5545 43.9025 78.437 43.9489 78.2995 43.9489H76.0723V45.9537H78.4883C78.6208 45.9537 78.735 45.9984 78.8327 46.0896C78.9304 46.1808 78.9801 46.2936 78.9801 46.4246C78.9801 46.5639 78.9304 46.6783 78.8327 46.7695C78.735 46.8607 78.6208 46.9071 78.4883 46.9071H75.6848L75.6831 46.9055Z" fill="#010101"/>
<path d="M83.6796 43.9472V46.5092C83.6796 46.6468 83.6316 46.7645 83.5339 46.859C83.4362 46.9535 83.3219 47.0016 83.1895 47.0016C83.0504 47.0016 82.9295 46.9552 82.8301 46.859C82.7291 46.7645 82.6794 46.6468 82.6794 46.5092V40.8845C82.6794 40.7204 82.7391 40.5794 82.8599 40.4584C82.9792 40.339 83.1232 40.2793 83.2921 40.2793H86.0029C86.142 40.2793 86.2579 40.3257 86.3523 40.4153C86.4467 40.5081 86.4931 40.6225 86.4931 40.7618C86.4931 40.9011 86.4467 41.0056 86.3523 41.0984C86.2579 41.1896 86.142 41.2361 86.0029 41.2361H83.6813V42.9938H85.8804C86.0178 42.9938 86.1337 43.0385 86.2298 43.1314C86.3242 43.2226 86.3705 43.3387 86.3705 43.4763C86.3705 43.6139 86.3225 43.7217 86.2298 43.8129C86.1337 43.9041 86.0178 43.9505 85.8804 43.9505H83.6813L83.6796 43.9472Z" fill="#010101"/>
<path d="M91.0817 40.6863C91.0817 40.5487 91.1297 40.4293 91.2274 40.3315C91.3251 40.2336 91.4427 40.1855 91.5818 40.1855C91.7209 40.1855 91.8319 40.2336 91.9312 40.3315C92.0322 40.4293 92.0819 40.5487 92.0819 40.6863V44.6478C92.0819 45.001 92.0239 45.3226 91.9113 45.6112C91.7971 45.9014 91.6381 46.1484 91.4344 46.3541C91.2291 46.5597 90.9824 46.7189 90.6926 46.8316C90.4028 46.946 90.0815 47.0024 89.7305 47.0024C89.3794 47.0024 89.0565 46.946 88.7667 46.8316C88.4769 46.7189 88.2285 46.5597 88.0248 46.3541C87.8195 46.1484 87.6622 45.9014 87.5479 45.6112C87.4353 45.321 87.379 45.001 87.379 44.6478V40.6863C87.379 40.5487 87.4287 40.4293 87.5297 40.3315C87.6307 40.2336 87.75 40.1855 87.8874 40.1855C88.0248 40.1855 88.1358 40.2336 88.2335 40.3315C88.3312 40.4293 88.3792 40.5487 88.3792 40.6863V44.7041C88.3792 45.1369 88.4951 45.4752 88.7286 45.7156C88.9605 45.9544 89.295 46.0755 89.7305 46.0755C90.166 46.0755 90.4972 45.9561 90.7307 45.7156C90.9641 45.4769 91.0801 45.1386 91.0801 44.7041V40.6863H91.0817Z" fill="#010101"/>
<path d="M94.7629 41.2325H93.3652C93.2278 41.2325 93.1135 41.186 93.0225 41.0948C92.9297 41.0036 92.885 40.8925 92.885 40.7582C92.885 40.6239 92.9314 40.5062 93.0225 40.4133C93.1135 40.3221 93.2278 40.2773 93.3652 40.2773H97.1507C97.2898 40.2773 97.4057 40.3221 97.5001 40.4133C97.5945 40.5045 97.6409 40.6206 97.6409 40.7582C97.6409 40.8959 97.5929 41.0036 97.5001 41.0948C97.4057 41.186 97.2882 41.2325 97.1507 41.2325H95.763V46.4989C95.763 46.6365 95.7134 46.7559 95.6157 46.8538C95.518 46.9516 95.4004 46.9997 95.2613 46.9997C95.1222 46.9997 95.0046 46.9499 94.9069 46.8538C94.8092 46.7559 94.7612 46.6382 94.7612 46.4989V41.2325H94.7629Z" fill="#010101"/>
<path d="M102.147 40.6863C102.147 40.5487 102.195 40.4293 102.292 40.3315C102.39 40.2336 102.508 40.1855 102.647 40.1855C102.786 40.1855 102.897 40.2336 102.996 40.3315C103.097 40.4293 103.147 40.5487 103.147 40.6863V44.6478C103.147 45.001 103.089 45.3226 102.976 45.6112C102.862 45.9014 102.703 46.1484 102.499 46.3541C102.294 46.5597 102.047 46.7189 101.758 46.8316C101.468 46.946 101.146 47.0024 100.795 47.0024C100.444 47.0024 100.121 46.946 99.8316 46.8316C99.5419 46.7189 99.2935 46.5597 99.0898 46.3541C98.8845 46.1484 98.7271 45.9014 98.6129 45.6112C98.5003 45.321 98.444 45.001 98.444 44.6478V40.6863C98.444 40.5487 98.4937 40.4293 98.5947 40.3315C98.6957 40.2336 98.8149 40.1855 98.9523 40.1855C99.0898 40.1855 99.2007 40.2336 99.2984 40.3315C99.3961 40.4293 99.4442 40.5487 99.4442 40.6863V44.7041C99.4442 45.1369 99.5601 45.4752 99.7936 45.7156C100.025 45.9544 100.36 46.0755 100.795 46.0755C101.231 46.0755 101.562 45.9561 101.796 45.7156C102.029 45.4769 102.145 45.1386 102.145 44.7041V40.6863H102.147Z" fill="#010101"/>
<path d="M106.394 44.126H105.545V46.5089C105.545 46.6481 105.493 46.7642 105.392 46.8587C105.291 46.9533 105.175 47.0013 105.045 47.0013C104.906 47.0013 104.788 46.9533 104.69 46.8587C104.593 46.7642 104.545 46.6481 104.545 46.5089V40.8842C104.545 40.7201 104.604 40.5775 104.725 40.4581C104.844 40.337 104.988 40.2773 105.157 40.2773H106.914C107.487 40.2773 107.951 40.4531 108.302 40.8063C108.668 41.1728 108.85 41.6454 108.85 42.2257C108.85 42.8061 108.671 43.2687 108.312 43.6153C108.09 43.8242 107.817 43.9718 107.489 44.0597L108.802 46.2634C108.852 46.3447 108.876 46.4293 108.876 46.5171C108.876 46.6432 108.828 46.7543 108.731 46.8538C108.631 46.9516 108.519 46.9997 108.385 46.9997C108.297 46.9997 108.217 46.9781 108.145 46.9383C108.072 46.8969 108.014 46.8388 107.969 46.7626L106.393 44.1244L106.394 44.126ZM106.914 43.1726C107.022 43.1726 107.129 43.1593 107.239 43.1344C107.35 43.1095 107.451 43.0615 107.542 42.9885C107.633 42.9155 107.707 42.8177 107.764 42.695C107.82 42.5723 107.848 42.4164 107.848 42.2274C107.848 41.9422 107.767 41.7067 107.606 41.5177C107.446 41.3286 107.214 41.2341 106.913 41.2341H105.545V43.1726H106.913H106.914Z" fill="#010101"/>
<path d="M110.585 46.9055C110.421 46.9055 110.277 46.8474 110.156 46.7314C110.034 46.6136 109.973 46.471 109.973 46.3002V40.8845C109.973 40.7204 110.032 40.5794 110.152 40.4584C110.271 40.339 110.416 40.2793 110.585 40.2793H113.324C113.462 40.2793 113.578 40.3257 113.672 40.4202C113.768 40.5148 113.814 40.6325 113.814 40.7701C113.814 40.9078 113.768 41.0139 113.672 41.1018C113.578 41.1896 113.462 41.2344 113.324 41.2344H110.974V42.9938H113.202C113.339 42.9938 113.457 43.0385 113.551 43.1314C113.646 43.2226 113.694 43.337 113.694 43.4763C113.694 43.609 113.646 43.7201 113.551 43.8113C113.457 43.9025 113.339 43.9489 113.202 43.9489H110.974V45.9537H113.391C113.523 45.9537 113.637 45.9984 113.735 46.0896C113.834 46.1808 113.882 46.2936 113.882 46.4246C113.882 46.5639 113.833 46.6783 113.735 46.7695C113.637 46.8607 113.523 46.9071 113.391 46.9071H110.587L110.585 46.9055Z" fill="#010101"/>
</svg>
