<svg width="95" height="31" viewBox="0 0 95 31" fill="none" xmlns="http://www.w3.org/2000/svg">
<g clip-path="url(#clip0_3350_4057)">
<path fill-rule="evenodd" clip-rule="evenodd" d="M17.8681 0C8.00426 0 0 6.53792 0 15.4866C0 24.6224 7.99078 31 17.8479 31C27.705 31 35.7092 24.7492 35.7092 15.5067C35.7092 6.54459 27.7319 0 17.8681 0ZM32.172 15.4332L20.8865 12.6885L17.8613 3.5461C25.7376 3.55946 32.1248 8.36105 32.172 15.4332ZM17.7872 3.5461L15.0787 12.6885L3.50355 15.6536V15.4933C3.50355 8.56808 9.89752 3.56614 17.7872 3.5461ZM17.8277 27.4606C9.99858 27.4606 3.63156 22.6523 3.50355 15.7137L15.1124 18.5052L17.9557 27.4539L17.8277 27.4606ZM18.0298 27.4606L20.8394 18.4451L32.1518 15.5401C32.1518 22.9795 25.8521 27.4072 18.0028 27.4606H18.0298Z" fill="#42B473"/>
<path d="M76.795 6.29102H74.3425V24.7361H76.795V6.29102Z" fill="#42B473"/>
<path d="M78.7413 6.29323L78.7218 24.7383L81.1743 24.7408L81.1938 6.29577L78.7413 6.29323Z" fill="#42B473"/>
<path fill-rule="evenodd" clip-rule="evenodd" d="M58.7989 12.0206V9.96369H55.9219V6.27734H53.4425V22.178C53.4425 25.9979 58.6843 24.482 58.6843 24.482V22.2448C58.6843 22.2448 55.9219 23.7207 55.9219 21.577V12.0206H58.7989Z" fill="#42B473"/>
<path fill-rule="evenodd" clip-rule="evenodd" d="M49.3124 12.021H51.6503C51.6503 12.021 52.4251 6.13754 44.5759 6.13086C40.7354 6.13086 38.229 7.96735 38.2223 11.2463C38.2223 17.9779 49.7503 14.3517 49.7436 19.5072C49.7436 21.6843 48.0659 23.1602 44.9734 23.1602C38.8691 23.1602 39.6911 18.3452 39.6911 18.3452H37.3127C37.3127 18.3452 36.4773 25.0234 45.1418 25.0234C51.0035 25.0234 52.1826 21.2636 52.1826 19.4404C52.1826 12.021 40.4255 16.0279 40.4255 10.8056C40.4255 9.05589 42.5209 8.00074 44.5489 8.00074C50.1815 8.0141 49.3124 12.021 49.3124 12.021Z" fill="#42B473"/>
<path fill-rule="evenodd" clip-rule="evenodd" d="M66.1092 9.42383C61.5007 9.42383 58.9875 12.9566 58.9875 16.9969C58.9875 22.493 62.0531 24.9172 66.2844 24.9172C67.7672 24.97 69.2228 24.5127 70.4042 23.6229C71.5856 22.7331 72.42 21.4656 72.7659 20.0354H70.4549C70.2055 20.9051 69.6748 21.6696 68.9445 22.2113C68.2142 22.753 67.3245 23.042 66.4124 23.0339C63.4141 23.0339 61.4063 20.7433 61.4063 17.8517H73.1365C73.1163 17.3241 73.6822 9.43718 66.1092 9.42383ZM61.5276 15.9083C61.5383 14.6755 62.0399 13.4967 62.9232 12.6287C63.8065 11.7606 65.0001 11.2736 66.2439 11.2737C70.5897 11.2737 70.684 15.9484 70.684 15.9484L61.5276 15.9083Z" fill="#42B473"/>
<path fill-rule="evenodd" clip-rule="evenodd" d="M89.3876 9.57031C82.5961 9.57031 83.3642 14.619 83.3642 14.619H85.6146C85.6146 14.619 85.0958 11.4068 89.327 11.4068C92.3454 11.4068 92.6284 12.7424 92.6284 13.831V14.245C92.6284 17.1767 82.6096 14.5389 82.6096 20.9232C82.6096 22.2121 83.6876 24.9301 87.4472 24.9301C91.2068 24.9301 92.5813 22.6395 92.5813 22.6395V24.7965H95V13.851C95 11.4068 94.077 9.57031 89.3876 9.57031ZM92.5813 19.474C92.5813 21.3372 90.56 23.1336 88.094 23.1336C85.9178 23.1336 85.0284 21.8848 85.0284 20.7095C85.0284 17.5908 89.8054 18.0382 92.5678 16.7026C92.5812 16.736 92.5813 17.4839 92.5813 19.474Z" fill="#42B473"/>
</g>
<defs>
<clipPath id="clip0_3350_4057">
<rect width="95" height="31" fill="white"/>
</clipPath>
</defs>
</svg>
