<svg width="164" height="50" viewBox="0 0 164 50" fill="none" xmlns="http://www.w3.org/2000/svg">
<g clip-path="url(#clip0_3323_8289)">
<mask id="mask0_3323_8289" style="mask-type:luminance" maskUnits="userSpaceOnUse" x="-38" y="-48" width="210" height="149">
<path d="M171.412 -47.4082H-37.9888V100.555H171.412V-47.4082Z" fill="white"/>
</mask>
<g mask="url(#mask0_3323_8289)">
<mask id="mask1_3323_8289" style="mask-type:luminance" maskUnits="userSpaceOnUse" x="-38" y="-48" width="210" height="149">
<path d="M171.412 -47.4082H-37.9888V100.555H171.412V-47.4082Z" fill="white"/>
</mask>
<g mask="url(#mask1_3323_8289)">
<path d="M108.963 49.0735C108.499 49.0735 107.943 49.0735 107.48 49.0735C104.608 48.9809 102.199 48.7031 99.9751 48.2402C97.1028 47.6846 94.3231 46.8513 91.8214 45.7402C87.4666 43.7957 84.0384 41.3883 81.3513 38.2402C79.3129 35.9254 77.9231 33.3328 77.0892 30.555V30.4624C76.9965 30.1846 76.9039 29.9068 76.9965 29.6291C77.1819 28.5179 77.8304 27.9624 78.9423 27.9624C79.3129 27.9624 79.6836 27.9624 79.9615 27.9624C80.8881 27.9624 81.8146 27.9624 82.7412 27.9624C83.6677 27.9624 84.5943 27.9624 85.5208 27.9624C86.1694 27.9624 86.7254 27.9624 87.3739 27.9624C88.2078 27.9624 88.7638 28.2402 89.3197 28.8883C90.4316 30.092 91.5434 31.3883 92.5627 32.592C92.9333 32.9624 93.2112 33.3328 93.5819 33.7031C94.6937 34.9068 95.157 35.4624 95.7129 36.1105C96.1762 36.5735 96.6395 37.1291 97.566 38.1476C98.0293 38.7031 98.6779 38.9809 99.4192 38.9809C99.9751 38.9809 100.531 38.7957 100.994 38.3328C101.458 37.9624 101.643 37.4068 101.736 36.8513C101.736 36.2031 101.55 35.555 101.087 34.9994C100.624 34.4439 100.068 33.8883 99.6045 33.3328C99.3265 33.055 99.0485 32.7772 98.7706 32.4068C97.9367 31.4809 97.6587 31.2031 97.2881 30.8328C97.0101 30.4624 96.6395 30.092 95.8982 29.2587C95.5276 28.8883 95.6203 28.6105 95.7129 28.4254C95.8056 28.1476 96.0835 27.9624 96.4542 27.9624C98.122 27.9624 99.7898 27.9624 101.921 27.9624H102.755C103.125 27.9624 103.496 28.055 103.774 28.2402C104.052 28.4253 104.237 28.7031 104.515 28.8883L104.978 29.4439C106.461 31.1105 107.943 32.7772 109.426 34.3513C109.982 34.9068 110.723 35.7402 111.464 36.6661C112.762 38.1476 114.151 39.7216 114.985 40.6476C115.912 41.6661 116.931 42.7772 117.95 43.9809C118.413 44.4439 118.969 44.7216 119.618 44.7216C119.803 44.7216 119.896 44.7216 120.081 44.7216C120.915 44.5365 121.656 43.9809 121.934 43.1476C122.212 42.3142 122.027 41.4809 121.471 40.8328C120.823 40.092 119.247 38.3328 118.136 37.0365C117.765 36.6661 117.394 36.2957 117.209 36.0179C116.653 35.3698 116.097 34.8142 115.541 34.1661C114.522 32.9624 113.503 31.8513 112.391 30.6476L112.206 30.4624C111.835 29.9994 111.372 29.5365 111.001 29.0735C110.723 28.7957 110.816 28.5179 110.908 28.4254C111.094 28.1476 111.279 27.9624 111.557 27.9624C111.65 27.9624 111.742 27.9624 111.835 27.9624H112.02C112.576 27.9624 113.039 27.9624 113.595 27.9624C114.151 27.9624 114.707 27.9624 115.171 27.9624C115.912 27.9624 116.56 27.9624 117.116 27.9624C117.95 27.9624 118.599 28.2402 119.062 28.7957C120.174 29.9994 121.471 31.4809 122.768 32.8698C123.973 34.1661 125.177 35.4624 126.197 36.6661C126.66 37.2216 127.401 37.4994 128.05 37.4994C128.606 37.4994 129.162 37.3142 129.532 36.9439C129.995 36.4809 130.273 35.9254 130.273 35.3698C130.273 34.7216 130.088 34.0735 129.625 33.5179C129.162 33.055 128.698 32.4994 128.142 31.9439C127.308 31.0179 126.382 29.9994 125.733 29.2587C125.455 28.9809 125.455 28.7031 125.548 28.4254C125.641 28.2402 125.733 28.055 126.289 28.055C126.475 28.055 126.66 28.055 126.938 28.055C127.123 28.055 127.308 28.055 127.494 28.055C127.679 28.055 127.772 28.055 127.957 28.055C128.42 28.055 129.162 28.055 129.995 28.055C132.126 28.055 134.999 28.055 137.408 28.055C139.261 28.055 140.651 28.055 141.485 28.055C142.875 28.055 144.079 27.0365 144.357 25.555C144.542 24.1661 143.708 22.8698 142.411 22.3142C141.948 22.1291 141.485 22.1291 141.114 22.1291H139.168C133.609 22.1291 124.621 22.1291 119.989 22.1291C119.525 22.1291 119.247 22.0365 119.155 21.7587C118.969 21.3883 119.062 21.1105 119.34 20.7402C120.823 19.0735 122.305 17.3142 123.695 15.6476C124.158 15.092 124.621 14.6291 124.992 14.0735C125.826 13.055 125.733 11.6661 124.807 10.8328C124.343 10.4624 123.788 10.1846 123.232 10.1846C122.583 10.1846 122.027 10.4624 121.564 10.9253C121.193 11.2957 120.823 11.7587 120.452 12.2216L120.267 12.4068L119.525 13.2402C117.302 15.8328 114.985 18.6105 112.762 21.2957C112.206 21.9439 111.65 22.2216 110.816 22.2216C110.816 22.2216 110.816 22.2216 110.723 22.2216C109.148 22.2216 107.48 22.2216 105.905 22.1291H105.349C104.886 22.1291 104.701 22.0365 104.515 21.6661C104.33 21.3883 104.423 21.1105 104.701 20.7402C104.793 20.6476 104.886 20.4624 104.978 20.3698C105.164 20.1846 105.349 19.9994 105.534 19.7216C106.739 18.4253 108.221 16.7587 109.611 15.092C111.001 13.5179 112.391 11.9439 113.503 10.6476C113.595 10.555 113.781 10.3698 113.873 10.2772C114.151 9.99942 114.429 9.62905 114.707 9.35127C115.263 8.70313 115.449 8.05498 115.356 7.40683C115.171 6.38831 114.615 5.64757 113.595 5.46238C113.41 5.36979 113.132 5.36979 112.947 5.36979C112.298 5.36979 111.65 5.64757 111.186 6.20312C110.816 6.5735 110.445 7.03646 110.167 7.40683C109.797 7.86979 109.333 8.33275 108.963 8.79572C107.388 10.555 105.534 12.6846 103.774 14.7216C101.828 16.9439 99.7898 19.3513 98.0293 21.2957C97.566 21.7587 97.1028 22.0365 96.5468 22.0365C96.0835 22.0365 95.5276 22.0365 95.0643 22.0365C94.0451 22.0365 93.0259 22.0365 92.0067 22.0365H91.8214C91.5434 22.0365 91.3581 21.9439 91.2655 21.8513C91.0802 21.6661 90.8949 21.2957 91.3581 20.7402C92.0994 19.8142 93.1186 18.6105 94.1378 17.4068C95.0643 16.3883 95.8982 15.3698 96.4542 14.6291C96.5468 14.4439 96.7321 14.3513 96.8248 14.1661C97.3807 13.5179 97.9367 12.8698 98.3999 12.2216C98.9559 11.4809 99.0485 10.6476 98.5853 9.81424C98.122 8.9809 97.4734 8.51794 96.4542 8.51794C96.4542 8.51794 96.4542 8.51794 96.3615 8.51794C95.435 8.51794 94.7864 9.0735 94.4158 9.62905C92.6553 11.7587 90.5242 14.2587 88.4858 16.7587C87.1886 18.3328 85.8915 19.9068 84.6869 21.2957C84.2237 21.9439 83.5751 22.1291 82.8338 22.1291C81.2587 22.1291 81.444 22.1291 70.418 22.1291C63.8395 22.1291 58.0022 22.1291 53.5547 22.1291C51.4237 22.1291 4.81801 22.1291 4.81801 22.1291C4.54005 22.1291 4.35474 22.1291 4.07677 22.1291C3.7988 22.1291 3.61349 22.1291 3.33553 22.1291C3.15022 22.1291 3.05756 22.1291 2.87225 22.1291C2.59428 22.1291 2.40897 22.0365 2.31632 21.7587C2.22366 21.4809 2.22366 21.2957 2.31632 21.1105C2.40897 20.9253 2.68694 20.7402 2.96491 20.7402C4.07677 20.7402 56.4271 20.7402 63.3762 20.7402H69.3988C73.5683 20.7402 75.1434 20.7402 75.6067 20.7402C76.348 20.7402 76.7186 20.4624 76.9965 19.7216C78.1084 16.6661 79.8689 13.7957 82.2779 11.2957C84.0384 9.44387 86.1694 7.7772 88.4858 6.38831C91.3581 4.72164 94.5084 3.42535 97.844 2.49942C100.346 1.85127 102.94 1.38831 105.442 1.29572C105.627 1.29572 105.812 1.29572 105.905 1.29572C106.276 1.29572 106.646 1.29572 107.11 1.20312H109.982H110.075C110.167 1.20312 110.26 1.20313 110.352 1.29572C113.688 1.4809 117.116 2.31424 120.823 3.61053C124.529 4.99942 128.235 6.85127 131.849 9.25868C134.258 10.8328 136.574 12.6846 138.798 14.6291C140.651 16.2031 142.319 17.9624 143.986 19.7216C145.469 21.3883 147.229 23.3328 148.897 25.555V25.9253C147.322 28.2402 145.562 30.4624 143.708 32.4068C141.114 35.2772 138.242 37.7772 135.184 39.9994C131.293 42.7772 127.03 44.9994 122.583 46.5735C119.896 47.4994 117.209 48.2402 114.615 48.6105C112.947 48.8883 110.908 49.0735 108.963 49.0735Z" fill="#1D1D1B"/>
</g>
<mask id="mask2_3323_8289" style="mask-type:luminance" maskUnits="userSpaceOnUse" x="-38" y="-48" width="210" height="149">
<path d="M171.412 -47.4082H-37.9888V100.555H171.412V-47.4082Z" fill="white"/>
</mask>
<g mask="url(#mask2_3323_8289)">
<path d="M5.83715 3.88867H3.15015V17.4998H5.83715V3.88867Z" fill="#1D1D1B"/>
</g>
<mask id="mask3_3323_8289" style="mask-type:luminance" maskUnits="userSpaceOnUse" x="-38" y="-48" width="210" height="149">
<path d="M171.412 -47.4082H-37.9888V100.555H171.412V-47.4082Z" fill="white"/>
</mask>
<g mask="url(#mask3_3323_8289)">
<path d="M8.89478 3.88867H12.9716L15.4733 13.1479L17.8823 3.88867H21.9592V17.4072H19.4575V6.75904L16.7705 17.4072H14.0835L11.3965 6.75904V17.4072H8.89478V3.88867Z" fill="#1D1D1B"/>
</g>
<mask id="mask4_3323_8289" style="mask-type:luminance" maskUnits="userSpaceOnUse" x="-38" y="-48" width="210" height="149">
<path d="M171.412 -47.4082H-37.9888V100.555H171.412V-47.4082Z" fill="white"/>
</mask>
<g mask="url(#mask4_3323_8289)">
<path d="M24.739 3.88867H29.1865C31.5955 3.88867 32.3368 3.98126 33.078 4.35163C33.9119 4.8146 35.2091 5.83312 35.2091 8.14793C35.2091 10.5553 33.8192 11.5739 32.9853 11.9442C32.0588 12.4072 30.5763 12.4072 29.3718 12.4072H27.6113V17.4998H24.9243V3.88867H24.739ZM27.426 6.11089V9.99978H28.9085C30.2983 9.99978 32.2441 9.99978 32.2441 8.05534C32.2441 7.49978 32.0588 7.03682 31.5955 6.66645C30.9469 6.11089 30.391 6.11089 28.7232 6.11089H27.426Z" fill="#1D1D1B"/>
</g>
<mask id="mask5_3323_8289" style="mask-type:luminance" maskUnits="userSpaceOnUse" x="-38" y="-48" width="210" height="149">
<path d="M171.412 -47.4082H-37.9888V100.555H171.412V-47.4082Z" fill="white"/>
</mask>
<g mask="url(#mask5_3323_8289)">
<path d="M43.9187 17.406L42.7142 14.3505H37.2475L36.1356 17.406H33.1707L38.452 3.79492H41.3243L46.791 17.406H43.9187ZM41.8803 12.0357L40.0272 7.03566L38.174 12.0357H41.8803Z" fill="#1D1D1B"/>
</g>
<mask id="mask6_3323_8289" style="mask-type:luminance" maskUnits="userSpaceOnUse" x="-38" y="-48" width="210" height="149">
<path d="M171.412 -47.4082H-37.9888V100.555H171.412V-47.4082Z" fill="white"/>
</mask>
<g mask="url(#mask6_3323_8289)">
<path d="M58.0947 13.2398C57.8168 14.2583 56.8902 17.5917 52.4428 17.5917C48.7366 17.5917 46.2349 14.9065 46.2349 10.6472C46.2349 6.85091 48.1806 3.51758 52.5354 3.51758C53.2767 3.51758 55.2224 3.61017 56.7049 5.09165C57.3535 5.7398 57.7241 6.57313 58.0021 7.49906L55.3151 8.14721C54.9445 6.66573 53.8326 5.83239 52.4428 5.83239C49.1072 5.83239 49.1072 9.5361 49.1072 10.462C49.1072 12.8694 49.7558 15.1842 52.4428 15.1842C54.2959 15.1842 55.1298 13.7954 55.4077 12.3139L58.0947 13.2398Z" fill="#1D1D1B"/>
</g>
<mask id="mask7_3323_8289" style="mask-type:luminance" maskUnits="userSpaceOnUse" x="-38" y="-48" width="210" height="149">
<path d="M171.412 -47.4082H-37.9888V100.555H171.412V-47.4082Z" fill="white"/>
</mask>
<g mask="url(#mask7_3323_8289)">
<path d="M62.357 6.11089H58.3728V3.88867H69.1208V6.11089H65.1366V17.4072H62.357V6.11089Z" fill="#1D1D1B"/>
</g>
<mask id="mask8_3323_8289" style="mask-type:luminance" maskUnits="userSpaceOnUse" x="-38" y="-48" width="210" height="149">
<path d="M171.412 -47.4082H-37.9888V100.555H171.412V-47.4082Z" fill="white"/>
</mask>
<g mask="url(#mask8_3323_8289)">
<path d="M10.2847 28.2408C9.72873 26.6667 8.80218 25.8334 7.22704 25.8334C4.818 25.8334 3.42817 27.5001 3.42817 30.3704C3.42817 33.426 4.818 35.0927 7.13438 35.0927C8.70952 35.0927 10.0067 34.1667 10.47 32.2223L11.9525 32.5927C11.3039 35.0927 9.54342 36.389 7.22704 36.389C5.46659 36.389 4.26207 35.926 3.33551 34.8149C2.40896 33.7038 1.85303 32.2223 1.85303 30.3704C1.85303 26.7593 4.07676 24.5371 7.22704 24.5371C9.54342 24.5371 11.1186 25.7408 11.7672 27.8704L10.2847 28.2408Z" fill="#1D1D1B"/>
</g>
<mask id="mask9_3323_8289" style="mask-type:luminance" maskUnits="userSpaceOnUse" x="-38" y="-48" width="210" height="149">
<path d="M171.412 -47.4082H-37.9888V100.555H171.412V-47.4082Z" fill="white"/>
</mask>
<g mask="url(#mask9_3323_8289)">
<path d="M17.0485 27.6836C18.253 27.6836 19.3649 28.1466 20.1061 29.0725C20.7547 29.9058 20.94 30.8317 20.94 32.0354C20.94 34.9058 19.2722 36.3873 17.0485 36.3873C15.844 36.3873 14.7321 35.9243 13.9909 34.9984C13.3423 34.1651 13.157 33.2391 13.157 32.0354C13.157 29.1651 14.8248 27.6836 17.0485 27.6836ZM17.0485 35.1836C18.4383 35.1836 19.4575 34.0725 19.4575 32.0354C19.4575 29.9984 18.4383 28.8873 17.0485 28.8873C15.566 28.8873 14.6395 29.9984 14.6395 32.0354C14.5468 34.0725 15.566 35.1836 17.0485 35.1836Z" fill="#1D1D1B"/>
</g>
<mask id="mask10_3323_8289" style="mask-type:luminance" maskUnits="userSpaceOnUse" x="-38" y="-48" width="210" height="149">
<path d="M171.412 -47.4082H-37.9888V100.555H171.412V-47.4082Z" fill="white"/>
</mask>
<g mask="url(#mask10_3323_8289)">
<path d="M28.8157 36.2033H27.4259V30.8329C27.4259 29.6292 27.0553 28.981 25.9434 28.981C25.2021 28.981 24.5536 29.3514 24.2756 29.907C23.9976 30.4625 23.905 31.1107 23.905 31.944V36.2033H22.5151V27.9625H23.8123V29.0736C24.3682 28.2403 25.2948 27.7773 26.314 27.7773C27.4259 27.7773 28.2598 28.2403 28.6304 29.2588C29.279 28.3329 30.1129 27.7773 31.2247 27.7773C32.8925 27.7773 33.8191 28.7033 33.8191 30.5551V36.2033H32.4293V31.0181C32.4293 29.9996 32.244 28.981 30.9468 28.981C29.8349 28.981 28.9084 29.7218 28.9084 31.3885V36.2033H28.8157Z" fill="#1D1D1B"/>
</g>
<mask id="mask11_3323_8289" style="mask-type:luminance" maskUnits="userSpaceOnUse" x="-38" y="-48" width="210" height="149">
<path d="M171.412 -47.4082H-37.9888V100.555H171.412V-47.4082Z" fill="white"/>
</mask>
<g mask="url(#mask11_3323_8289)">
<path d="M37.1547 28.9799C37.7106 28.1466 38.4519 27.6836 39.5638 27.6836C41.6948 27.6836 43.0847 29.3503 43.0847 31.8503C43.0847 34.628 41.5095 36.2947 39.4711 36.2947C38.6372 36.2947 37.8033 35.9243 37.34 35.2762V39.3503H35.9502V27.8688H37.2474V28.9799H37.1547ZM39.3784 35.1836C40.6756 35.1836 41.6948 34.1651 41.6948 31.9429C41.6948 29.9058 40.7683 28.7947 39.4711 28.7947C38.1739 28.7947 37.1547 30.091 37.1547 32.0354C37.1547 34.1651 38.0813 35.1836 39.3784 35.1836Z" fill="#1D1D1B"/>
</g>
<mask id="mask12_3323_8289" style="mask-type:luminance" maskUnits="userSpaceOnUse" x="-38" y="-48" width="210" height="149">
<path d="M171.412 -47.4082H-37.9888V100.555H171.412V-47.4082Z" fill="white"/>
</mask>
<g mask="url(#mask12_3323_8289)">
<path d="M50.1265 30.9251V30.6474C50.1265 29.6288 49.8485 28.7955 48.0881 28.7955C46.5129 28.7955 46.1423 29.5362 45.957 30.3696L44.5671 30.1844C44.9378 28.5177 46.0496 27.5918 48.2734 27.5918C49.5705 27.5918 50.4971 27.8696 51.053 28.5177C51.5163 29.0733 51.5163 29.7214 51.5163 30.6474V33.6103C51.5163 34.6288 51.609 35.3696 51.9796 36.1103H50.4971C50.3118 35.7399 50.2191 35.3696 50.2191 35.0918C49.2926 35.9251 48.2734 36.2955 47.2542 36.2955C45.401 36.2955 44.3818 35.277 44.3818 33.8881C44.3818 32.5918 45.3084 31.5733 46.9762 31.3881C48.088 31.2955 49.2926 31.2029 50.1265 30.9251ZM50.1265 32.0362C48.1807 32.777 45.8643 32.314 45.8643 33.9807C45.8643 34.7214 46.4203 35.277 47.6248 35.277C48.2734 35.277 49.1073 34.9992 49.5705 34.5362C50.1265 33.9807 50.2191 33.3325 50.2191 32.5918V32.0362H50.1265Z" fill="#1D1D1B"/>
</g>
<mask id="mask13_3323_8289" style="mask-type:luminance" maskUnits="userSpaceOnUse" x="-38" y="-48" width="210" height="149">
<path d="M171.412 -47.4082H-37.9888V100.555H171.412V-47.4082Z" fill="white"/>
</mask>
<g mask="url(#mask13_3323_8289)">
<path d="M54.9446 29.0725C55.5932 28.1466 56.5198 27.6836 57.539 27.6836C58.6508 27.6836 59.5774 28.1466 60.0407 28.8873C60.4113 29.5354 60.4113 30.1836 60.4113 31.0169V36.1095H59.0215V31.1095C59.0215 29.9058 58.6508 28.8873 57.261 28.8873C56.4271 28.8873 55.6859 29.2577 55.3153 29.9058C55.0373 30.3688 55.0373 30.9243 55.0373 31.5725V36.1095H53.6475V27.8688H54.9446V29.0725Z" fill="#1D1D1B"/>
</g>
<mask id="mask14_3323_8289" style="mask-type:luminance" maskUnits="userSpaceOnUse" x="-38" y="-48" width="210" height="149">
<path d="M171.412 -47.4082H-37.9888V100.555H171.412V-47.4082Z" fill="white"/>
</mask>
<g mask="url(#mask14_3323_8289)">
<path d="M65.878 36.2951C65.1367 38.2395 64.6735 39.5358 63.0983 39.5358C62.7277 39.5358 62.4497 39.4432 62.1718 39.3506L62.0791 38.0543C62.2644 38.1469 62.5424 38.1469 62.913 38.1469C64.1175 38.1469 64.2102 37.4062 64.6735 36.2025L61.5232 27.8691H63.0057L64.7661 32.684C65.0441 33.3321 65.2294 33.9803 65.3221 34.6284C65.4147 34.258 65.6 33.6099 65.878 32.684L67.6384 27.8691H69.0283L65.878 36.2951Z" fill="#1D1D1B"/>
</g>
</g>
</g>
<defs>
<clipPath id="clip0_3323_8289">
<rect width="164" height="50" fill="white"/>
</clipPath>
</defs>
</svg>
