<svg width="139" height="49" viewBox="0 0 139 49" fill="none" xmlns="http://www.w3.org/2000/svg">
<g clip-path="url(#clip0_3350_3817)">
<path d="M2.14233 35.1875C16.9387 35.1875 31.6783 35.1875 46.459 35.1875C46.2376 35.6258 46.0258 36.047 45.8129 36.4707C45.6217 36.4707 45.4414 36.4707 45.26 36.4707C31.2137 36.4707 17.1674 36.4707 3.11997 36.4719C2.98688 36.4719 2.87314 36.4744 2.79449 36.3279C2.59364 35.9567 2.37706 35.5953 2.14233 35.1875Z" fill="white"/>
<path d="M2.12915 13.7761C2.33363 13.3817 2.51634 13.0142 2.71477 12.6553C2.74865 12.5943 2.84302 12.5576 2.91804 12.5332C2.97732 12.5136 3.0475 12.5295 3.11284 12.5295C17.2401 12.5295 31.3675 12.5295 45.4948 12.5258C45.6533 12.5258 45.7634 12.554 45.8445 12.7053C46.0332 13.0594 46.2365 13.4049 46.4471 13.7773C31.6676 13.7761 16.9159 13.7761 2.12915 13.7761Z" fill="white"/>
<path d="M44.9229 37.7305C44.6458 38.1407 44.3881 38.529 44.1195 38.9099C44.0796 38.9673 43.9852 38.9893 43.9126 39.0161C43.8739 39.0308 43.8267 39.0186 43.7831 39.0186C32.1471 39.0186 20.511 39.0173 8.87495 39.021C7.45448 39.021 6.03523 39.0467 4.61475 39.0687C4.48408 39.071 4.40423 39.0308 4.33526 38.927C4.07149 38.5363 3.80288 38.1481 3.51733 37.7305C17.3289 37.7305 31.1077 37.7305 44.9229 37.7305Z" fill="white"/>
<path d="M3.50439 11.2737C3.7851 10.8623 4.03798 10.4813 4.30417 10.1102C4.34168 10.0589 4.43968 10.032 4.51107 10.0296C4.72886 10.0186 4.94665 10.0247 5.16444 10.0247C15.3849 10.0247 25.6065 10.0283 35.8269 10.0222C38.5105 10.021 41.193 9.9954 43.8766 9.97463C44.0557 9.97341 44.167 10.021 44.2626 10.1761C44.4889 10.5399 44.7333 10.8915 44.9874 11.2725C31.1565 11.2737 17.3571 11.2737 3.50439 11.2737Z" fill="white"/>
<path d="M43.1618 8.7471C30.5324 8.7471 17.9598 8.7471 5.37036 8.7471C5.49257 8.59936 5.60872 8.44795 5.73576 8.30751C5.95355 8.06459 6.17258 7.82161 6.40609 7.5945C6.47383 7.52859 6.59 7.48094 6.68433 7.47971C7.33775 7.46997 7.99111 7.4761 8.64447 7.4761C19.6344 7.4761 30.6244 7.47733 41.6143 7.46875C41.9083 7.46875 42.1213 7.5371 42.3064 7.76544C42.5653 8.0829 42.8448 8.38444 43.1618 8.7471Z" fill="white"/>
<path d="M43.1398 40.2363C42.7563 40.6466 42.4115 41.025 42.0521 41.3901C41.9928 41.4499 41.8743 41.4756 41.7823 41.4756C38.4368 41.4793 35.0901 41.4793 31.7446 41.4793C23.3984 41.4793 15.0522 41.4793 6.70479 41.4829C6.54023 41.4829 6.41799 41.4475 6.30909 41.3168C6.01388 40.9628 5.70898 40.6185 5.37866 40.2376C17.9742 40.2363 30.5237 40.2363 43.1398 40.2363Z" fill="white"/>
<path d="M7.79834 42.7402C18.7544 42.7402 29.6874 42.7402 40.6822 42.7402C40.4451 42.9258 40.2539 43.0882 40.0519 43.2335C39.7336 43.4643 39.413 43.6938 39.0815 43.9038C38.9677 43.9758 38.8165 44.0259 38.6834 44.0259C28.999 44.032 19.3158 44.0308 9.63138 44.0344C9.4366 44.0344 9.27684 43.999 9.11957 43.8635C8.707 43.5082 8.27622 43.1725 7.854 42.8281C7.83464 42.8123 7.82493 42.7842 7.79834 42.7402Z" fill="white"/>
<path d="M7.81616 6.21385C8.31462 5.8134 8.7817 5.43491 9.256 5.06619C9.32738 5.01003 9.43506 4.9734 9.5258 4.9734C19.2005 4.96974 28.8765 4.97462 38.5512 4.95508C39.0714 4.95386 39.4368 5.12846 39.7926 5.45323C40.0781 5.71329 40.3867 5.9477 40.7109 6.21507C29.7404 6.21385 18.7964 6.21385 7.81616 6.21385Z" fill="white"/>
<path d="M11.2252 45.2637C19.8812 45.2637 28.5383 45.2637 37.1943 45.2637C37.1979 45.2808 37.2016 45.2966 37.2052 45.3137C37.1314 45.3626 37.06 45.4163 36.9826 45.4578C36.357 45.7899 35.7327 46.1232 35.1023 46.4468C34.9983 46.5005 34.8712 46.5334 34.755 46.5334C27.7374 46.5371 20.7197 46.5371 13.702 46.5371C13.6378 46.5371 13.5652 46.5408 13.512 46.5127C12.7353 46.1184 11.9609 45.7191 11.1865 45.3211C11.201 45.3027 11.2131 45.2832 11.2252 45.2637Z" fill="white"/>
<path d="M37.2876 3.71366C28.6134 3.71366 19.9393 3.71366 11.264 3.71366C11.2592 3.70267 11.2555 3.69168 11.2507 3.6807C11.4951 3.54639 11.7383 3.40843 11.9851 3.27901C12.4606 3.02871 12.9362 2.77842 13.4153 2.53668C13.5012 2.49273 13.6052 2.46709 13.7008 2.46709C18.7899 2.46343 23.8789 2.46831 28.9667 2.4622C30.9014 2.45976 32.8374 2.43168 34.7721 2.42191C34.8955 2.42069 35.031 2.45121 35.1399 2.5086C35.8622 2.89197 36.5785 3.28633 37.2972 3.67825C37.296 3.69047 37.2924 3.70267 37.2876 3.71366Z" fill="white"/>
<path d="M16.1409 47.7539C21.5118 47.7539 26.8828 47.7539 32.2537 47.7539C26.8852 49.3997 21.5142 49.4009 16.1409 47.7539Z" fill="white"/>
<path d="M31.7076 1.21483C26.7602 1.21483 21.8127 1.21483 16.8652 1.21483C19.2682 0.387039 21.7376 2.77481e-06 24.2749 2.77481e-06C26.817 -0.00121816 29.2913 0.40047 31.7076 1.21483Z" fill="white"/>
<path d="M40.1839 27.6172C42.8942 27.6172 45.5887 27.6172 48.3135 27.6172C48.2639 28.0507 48.2155 28.4706 48.1659 28.9004C45.4097 28.9004 42.6643 28.9004 39.9141 28.9004C40.006 28.467 40.0956 28.0409 40.1839 27.6172Z" fill="white"/>
<path d="M39.3831 31.4179C39.4774 30.9808 39.5658 30.5755 39.6541 30.1641C42.4224 30.1641 45.1799 30.1641 47.9592 30.1641C47.8757 30.5316 47.7898 30.8832 47.7184 31.2384C47.6894 31.3837 47.6191 31.4216 47.4812 31.4191C47.0529 31.4118 46.6246 31.4167 46.1962 31.4167C44.0039 31.4167 41.8114 31.4167 39.619 31.4167C39.5476 31.4179 39.475 31.4179 39.3831 31.4179Z" fill="white"/>
<path d="M48.5543 25.1094C48.495 25.5526 48.4382 25.9714 48.3813 26.3987C45.7279 26.3987 43.0878 26.3987 40.4429 26.3987C40.5324 25.969 40.6207 25.5441 40.7115 25.1094C43.325 25.1094 45.936 25.1094 48.5543 25.1094Z" fill="white"/>
<path d="M38.8638 33.9211C38.9412 33.5317 39.0126 33.1739 39.0828 32.8174C39.1033 32.7161 39.1384 32.6562 39.2643 32.6562C41.9274 32.6612 44.5917 32.6624 47.2548 32.6636C47.262 32.6636 47.2693 32.666 47.3044 32.6746C47.1519 33.075 47.0055 33.4743 46.8422 33.865C46.8253 33.9065 46.7042 33.9187 46.6305 33.9187C45.2148 33.9211 43.8004 33.9211 42.3847 33.9211C41.2958 33.9211 40.2069 33.9211 39.1191 33.9211C39.0417 33.9211 38.9618 33.9211 38.8638 33.9211Z" fill="white"/>
<path d="M48.3919 22.6074C48.4476 23.014 48.5032 23.4181 48.5613 23.8406C46.0434 23.8406 43.5315 23.8406 40.9846 23.8406C41.0681 23.4279 41.1504 23.0238 41.2351 22.6074C43.6041 22.6074 45.9756 22.6074 48.3919 22.6074Z" fill="white"/>
<path d="M7.04433 25.1172C7.04433 25.5384 7.04433 25.9536 7.04433 26.3882C4.73694 26.3882 2.42715 26.3882 0.0955859 26.3882C0.0641269 25.9706 0.0326685 25.5543 0 25.1172C2.35576 25.1172 4.69459 25.1172 7.04433 25.1172Z" fill="white"/>
<path d="M7.04262 21.3388C4.74372 21.3388 2.45571 21.3388 0.137451 21.3388C0.18464 20.9127 0.231827 20.494 0.280225 20.0605C2.52951 20.0605 4.78001 20.0605 7.04262 20.0605C7.04262 20.4867 7.04262 20.9067 7.04262 21.3388Z" fill="white"/>
<path d="M7.04727 27.623C7.04727 28.054 7.04727 28.4692 7.04727 28.8964C4.79317 28.8964 2.54872 28.8964 0.288536 28.8964C0.242558 28.4801 0.19537 28.0601 0.146973 27.623C2.44224 27.623 4.73508 27.623 7.04727 27.623Z" fill="white"/>
<path d="M7.04419 22.6055C7.04419 23.0218 7.04419 23.4284 7.04419 23.8447C4.69929 23.8447 2.3653 23.8447 0.0119629 23.8447C0.0422116 23.4272 0.0712502 23.0206 0.100289 22.6055C2.42339 22.6055 4.72712 22.6055 7.04419 22.6055Z" fill="white"/>
<path d="M48.2128 20.0891C48.2601 20.5128 48.3048 20.9181 48.3508 21.3381C46.0713 21.3381 43.8111 21.3381 41.511 21.3381C41.5654 21.061 41.6102 20.7899 41.6755 20.5238C41.7832 20.0867 41.7881 20.0879 42.2357 20.0879C44.1438 20.0879 46.0519 20.0879 47.9588 20.0879C48.0362 20.0891 48.1149 20.0891 48.2128 20.0891Z" fill="white"/>
<path d="M7.04484 18.8359C4.87301 18.8359 2.71568 18.8359 0.502686 18.8359C0.601901 18.3939 0.696275 17.9727 0.790655 17.5527C2.89112 17.5527 4.96255 17.5527 7.04484 17.5527C7.04484 17.9789 7.04484 18.3939 7.04484 18.8359Z" fill="white"/>
<path d="M0.495605 30.1621C2.68319 30.1621 4.85262 30.1621 7.03777 30.1621C7.03777 30.5748 7.03777 30.9801 7.03777 31.4074C6.97367 31.4111 6.9035 31.4172 6.83449 31.4172C4.88892 31.4172 2.94454 31.416 0.998946 31.4209C0.841651 31.4209 0.775101 31.3806 0.743647 31.2146C0.678305 30.8629 0.581512 30.5174 0.495605 30.1621Z" fill="white"/>
<path d="M32.0184 33.9146C29.8743 33.9146 27.7569 33.9146 25.6274 33.9146C25.7279 33.5263 25.8198 33.1453 25.9323 32.7705C25.9481 32.7193 26.0569 32.6656 26.1247 32.6643C26.553 32.6545 26.9814 32.6594 27.4085 32.6594C28.7866 32.6607 30.1659 32.6607 31.5441 32.6619C31.5864 32.6619 31.63 32.6619 31.682 32.6619C31.7933 33.0757 31.9022 33.4811 32.0184 33.9146Z" fill="white"/>
<path d="M47.7343 17.5396C47.8311 17.973 47.9243 18.3943 48.0223 18.8363C46.0052 18.8363 44.0352 18.8363 42.0361 18.8363C42.0894 18.5738 42.1378 18.3234 42.1898 18.0756C42.2092 17.984 42.26 17.8936 42.2539 17.8058C42.237 17.5664 42.3629 17.5371 42.5577 17.5371C44.2699 17.5408 45.9809 17.5396 47.7343 17.5396Z" fill="white"/>
<path d="M7.04394 32.6731C7.04394 33.0993 7.04394 33.5132 7.04394 33.9552C6.97856 33.9589 6.90961 33.9662 6.84066 33.9662C5.15865 33.9674 3.47667 33.9687 1.79347 33.9638C1.72813 33.9638 1.62407 33.9271 1.60471 33.8808C1.44982 33.49 1.31066 33.0932 1.15698 32.6719C3.14391 32.6731 5.08847 32.6731 7.04394 32.6731Z" fill="white"/>
<path d="M1.1665 16.2338C1.31534 15.8222 1.4557 15.4352 1.59486 15.0469C3.40995 15.0469 5.22141 15.0469 7.04379 15.0469C7.04379 15.4449 7.04379 15.8296 7.04379 16.2338C5.10041 16.2338 3.15342 16.2338 1.1665 16.2338Z" fill="white"/>
<path d="M18.8055 33.9577C16.9988 33.9577 15.2031 33.9577 13.394 33.9577C13.394 33.5254 13.394 33.1054 13.394 32.6719C15.1124 32.6719 16.821 32.6719 18.5307 32.6719C18.6227 33.0993 18.7123 33.5193 18.8055 33.9577Z" fill="white"/>
<path d="M18.2643 31.4047C16.6296 31.4047 15.0226 31.4047 13.3987 31.4047C13.3987 31.0017 13.3987 30.5963 13.3987 30.1714C13.4435 30.1665 13.4991 30.1567 13.5536 30.1567C14.9597 30.1567 16.3658 30.1592 17.7731 30.1543C17.9425 30.1543 18.0211 30.1751 18.0453 30.3802C18.0864 30.7184 18.1857 31.0506 18.2643 31.4047Z" fill="white"/>
<path d="M26.2937 31.3983C26.3941 31.0198 26.4897 30.6377 26.5998 30.2591C26.6132 30.2139 26.7027 30.1615 26.7571 30.1602C28.1342 30.1553 29.5112 30.1541 30.8883 30.1615C30.9439 30.1615 31.0323 30.2408 31.0504 30.2994C31.1569 30.656 31.2477 31.0174 31.3493 31.3972C29.6746 31.3983 28.0011 31.3983 26.2937 31.3983Z" fill="white"/>
<path d="M13.4011 27.6094C14.754 27.6094 16.0875 27.6094 17.4524 27.6094C17.5444 28.0282 17.6376 28.4507 17.7356 28.894C16.2787 28.894 14.8423 28.894 13.4011 28.894C13.4011 28.4641 13.4011 28.0392 13.4011 27.6094Z" fill="white"/>
<path d="M36.8527 15.0449C36.7983 15.3405 36.7559 15.6225 36.6943 15.8997C36.6156 16.2526 36.6095 16.2514 36.2477 16.2514C35.051 16.2514 33.8542 16.2489 32.6575 16.2538C32.5087 16.2538 32.4312 16.2318 32.3973 16.056C32.332 15.7153 32.2243 15.3844 32.1335 15.0461C33.715 15.0449 35.2724 15.0449 36.8527 15.0449Z" fill="white"/>
<path d="M20.7964 15.043C22.3549 15.043 23.9074 15.043 25.4866 15.043C25.3789 15.4484 25.2749 15.8391 25.1683 16.2408C23.7901 16.2408 22.4155 16.2408 21.0178 16.2408C20.944 15.8452 20.8702 15.4472 20.7964 15.043Z" fill="white"/>
<path d="M47.4291 16.2218C45.7797 16.2218 44.18 16.2218 42.5791 16.2218C42.6614 15.8384 42.7473 15.4416 42.8357 15.035C43.3911 15.035 43.9344 15.035 44.4777 15.035C45.2389 15.035 46.0012 15.0362 46.7623 15.0313C46.8954 15.0301 46.9765 15.0423 47.0285 15.2047C47.1338 15.5368 47.2814 15.8556 47.4291 16.2218Z" fill="white"/>
<path d="M13.394 26.3915C13.394 25.9617 13.394 25.5417 13.394 25.1094C14.5726 25.1094 15.7379 25.1094 16.9262 25.1094C17.0158 25.5258 17.1077 25.9507 17.2033 26.3915C15.9316 26.3915 14.6682 26.3915 13.394 26.3915Z" fill="white"/>
<path d="M30.3457 27.6133C30.457 28.0407 30.5659 28.462 30.6808 28.9003C29.4309 28.9003 28.2075 28.9003 26.9563 28.9003C27.0712 28.462 27.1802 28.0407 27.2915 27.6133C28.3043 27.6133 29.311 27.6133 30.3457 27.6133Z" fill="white"/>
<path d="M32.8035 17.5469C34.0135 17.5469 35.2018 17.5469 36.3913 17.5469C36.3247 17.9413 36.2546 18.3296 36.1977 18.7203C36.1771 18.8656 36.0827 18.8461 35.9908 18.8473C35.4389 18.8486 34.8884 18.8473 34.3366 18.8473C34.0026 18.8473 33.6687 18.8363 33.3359 18.8522C33.1774 18.8595 33.1156 18.7972 33.0818 18.6581C32.9947 18.2979 32.9014 17.9377 32.8035 17.5469Z" fill="white"/>
<path d="M24.8214 17.5566C24.7185 17.9461 24.6265 18.321 24.5176 18.691C24.4995 18.7533 24.4148 18.84 24.3591 18.8412C23.4104 18.851 22.4629 18.8473 21.4864 18.8473C21.4078 18.4174 21.3304 17.9975 21.2493 17.5566C22.4533 17.5566 23.6307 17.5566 24.8214 17.5566Z" fill="white"/>
<path d="M13.394 22.6055C14.3984 22.6055 15.3907 22.6055 16.3986 22.6055C16.4857 23.0146 16.5741 23.4273 16.6636 23.8461C15.5746 23.8461 14.4904 23.8461 13.3953 23.8461C13.394 23.4322 13.394 23.0316 13.394 22.6055Z" fill="white"/>
<path d="M13.3904 21.3397C13.3904 20.9038 13.3904 20.4899 13.3904 20.0467C13.5126 20.0467 13.6264 20.0467 13.7389 20.0467C14.3839 20.0467 15.03 20.0491 15.675 20.043C15.8166 20.0418 15.8747 20.0845 15.8989 20.2323C15.9497 20.5363 16.0259 20.8354 16.0901 21.137C16.1034 21.1981 16.107 21.2616 16.1179 21.3385C15.2031 21.3397 14.3064 21.3397 13.3904 21.3397Z" fill="white"/>
<path d="M33.478 20.0957C34.3057 20.0957 35.1092 20.0957 35.9344 20.0957C35.857 20.5181 35.782 20.9297 35.7045 21.3497C35.0983 21.3497 34.5114 21.3534 33.9245 21.3436C33.8725 21.3424 33.7902 21.2679 33.7745 21.2117C33.6692 20.8479 33.5785 20.4791 33.478 20.0957Z" fill="white"/>
<path d="M21.7092 20.0977C22.5151 20.0977 23.3114 20.0977 24.1439 20.0977C24.0725 20.3773 24.0084 20.6447 23.937 20.9084C23.8172 21.3505 23.8147 21.3492 23.3489 21.3492C22.8842 21.3492 22.4207 21.3492 21.9379 21.3492C21.8605 20.9329 21.7855 20.5201 21.7092 20.0977Z" fill="white"/>
<path d="M15.3281 17.5566C15.4176 17.9756 15.5072 18.3933 15.6004 18.8318C14.8596 18.8318 14.1382 18.8318 13.3987 18.8318C13.3987 18.4165 13.3987 17.9964 13.3987 17.5566C14.0245 17.5566 14.6575 17.5566 15.3281 17.5566Z" fill="white"/>
<path d="M27.6167 26.3925C27.7304 25.9529 27.8394 25.5377 27.9532 25.1006C28.4868 25.1006 29.0301 25.0957 29.5722 25.1079C29.6254 25.1091 29.7029 25.2068 29.7222 25.2728C29.8263 25.6379 29.9146 26.0066 30.0127 26.3925C29.2152 26.3925 28.4299 26.3925 27.6167 26.3925Z" fill="white"/>
<path d="M13.3928 16.2436C13.3928 15.843 13.3928 15.457 13.3928 15.0527C13.8515 15.0527 14.3115 15.0527 14.7968 15.0527C14.8804 15.4374 14.9663 15.8356 15.0535 16.2436C14.5003 16.2436 13.9593 16.2436 13.3928 16.2436Z" fill="white"/>
<path d="M34.1394 22.6055C34.603 22.6055 35.0363 22.6055 35.4733 22.6055C35.4079 22.9804 35.3474 23.3542 35.2723 23.7243C35.2615 23.7768 35.1767 23.8477 35.1223 23.8514C34.9141 23.866 34.7035 23.8574 34.4771 23.8574C34.3657 23.4421 34.2544 23.0318 34.1394 22.6055Z" fill="white"/>
<path d="M22.2041 22.6035C22.618 22.6035 23.0356 22.6035 23.4835 22.6035C23.3745 23.0225 23.268 23.4329 23.1579 23.8567C22.934 23.8567 22.7185 23.8616 22.5018 23.853C22.4546 23.8518 22.3747 23.8103 22.3687 23.7761C22.3009 23.4023 22.2452 23.0261 22.1871 22.6512C22.1859 22.6402 22.1956 22.6267 22.2041 22.6035Z" fill="white"/>
<path d="M29.3431 23.8532C28.9739 23.8532 28.635 23.8532 28.2888 23.8532C28.3881 23.4647 28.48 23.0825 28.589 22.7063C28.6035 22.6574 28.704 22.6 28.7609 22.6037C28.854 22.6097 29.0066 22.6415 29.0247 22.6977C29.147 23.0727 29.2378 23.4562 29.3431 23.8532Z" fill="white"/>
<path d="M34.8044 25.1113C34.8807 25.1113 34.9413 25.1113 35.0224 25.1113C34.9969 25.2506 34.9739 25.3764 34.9509 25.5022C34.9388 25.5022 34.9268 25.5022 34.9146 25.5022C34.8783 25.3776 34.8432 25.253 34.8044 25.1113Z" fill="white"/>
<path d="M22.8357 25.0957C22.7897 25.2496 22.7534 25.3718 22.7013 25.5452C22.6638 25.3864 22.6384 25.2741 22.6033 25.125C22.6783 25.1152 22.7449 25.1067 22.8357 25.0957Z" fill="white"/>
<path d="M56.5438 17.2188V24.4853H54.5886V17.2188H56.5438Z" fill="#E5E5E5"/>
<path d="M63.7062 17.2188V24.4853H62.077L59.4761 20.6682H59.4318V24.4853H57.4763V17.2188H59.1374L61.7001 21.0229H61.7572V17.2188H63.7062Z" fill="#E5E5E5"/>
<path d="M64.4353 18.8036V17.2109H70.6976V18.8036H68.5312V24.4839H66.6016V18.8036H64.4353Z" fill="#E5E5E5"/>
<path d="M71.4253 24.4853V17.2188H76.6138V18.8113H73.3804V20.0622H76.3516V21.6547H73.3804V22.9056H76.6011V24.4981H71.4253V24.4853Z" fill="#E5E5E5"/>
<path d="M77.5911 24.4853V17.2188H80.7031C81.2397 17.2188 81.7058 17.3155 82.1089 17.5153C82.5113 17.7088 82.8245 17.9925 83.0412 18.3664C83.2652 18.734 83.3738 19.1788 83.3738 19.6947C83.3738 20.2169 83.2585 20.6554 83.0285 21.0099C82.7984 21.3646 82.4791 21.6354 82.07 21.8159C81.6615 21.9964 81.1759 22.0867 80.6327 22.0867H78.7735V20.5522H80.2363C80.4664 20.5522 80.6642 20.5264 80.8245 20.4684C80.9841 20.4103 81.1116 20.3201 81.2014 20.1911C81.2907 20.0622 81.3356 19.8945 81.3356 19.6882C81.3356 19.4819 81.2907 19.3078 81.2014 19.1788C81.1116 19.0499 80.9902 18.9532 80.8245 18.8887C80.6642 18.8242 80.4664 18.792 80.2363 18.792H79.5462V24.4853H77.5911ZM81.8084 21.1518L83.61 24.4853H81.4825L79.7252 21.1518H81.8084Z" fill="#E5E5E5"/>
<path d="M90.4337 17.2188V24.4853H88.8046L86.2042 20.6682H86.1593V24.4853H84.2042V17.2188H85.8655L88.4276 21.0229H88.4853V17.2188H90.4337Z" fill="#E5E5E5"/>
<path d="M93.2326 24.4853H91.1239L93.5009 17.2188H96.1716L98.5486 24.4853H96.4399L94.8617 19.2175H94.8041L93.2326 24.4853ZM92.8362 21.616H96.8041V23.0926H92.8362V21.616Z" fill="#E5E5E5"/>
<path d="M98.1267 18.8036V17.2109H104.388V18.8036H102.223V24.4839H100.293V18.8036H98.1267Z" fill="#E5E5E5"/>
<path d="M107.079 17.2188V24.4853H105.123V17.2188H107.079Z" fill="#E5E5E5"/>
<path d="M114.983 20.8485C114.983 21.6544 114.829 22.3378 114.516 22.8924C114.203 23.4469 113.782 23.866 113.251 24.1497C112.721 24.4334 112.133 24.5752 111.481 24.5752C110.823 24.5752 110.229 24.4334 109.705 24.1432C109.175 23.853 108.759 23.434 108.446 22.8795C108.133 22.325 107.98 21.648 107.98 20.842C107.98 20.0361 108.133 19.3526 108.446 18.7981C108.759 18.2436 109.175 17.8245 109.705 17.5408C110.236 17.2571 110.823 17.1152 111.481 17.1152C112.133 17.1152 112.721 17.2571 113.251 17.5408C113.782 17.8245 114.203 18.2436 114.516 18.7981C114.829 19.3526 114.983 20.0425 114.983 20.8485ZM112.97 20.8485C112.97 20.4165 112.912 20.0489 112.798 19.7459C112.682 19.4493 112.517 19.2172 112.293 19.0624C112.069 18.9077 111.801 18.8304 111.475 18.8304C111.149 18.8304 110.881 18.9077 110.657 19.0624C110.433 19.2172 110.267 19.4429 110.152 19.7459C110.037 20.0425 109.979 20.41 109.979 20.8485C109.979 21.2869 110.037 21.6544 110.152 21.951C110.267 22.2476 110.433 22.4797 110.657 22.6345C110.881 22.7892 111.149 22.8665 111.475 22.8665C111.801 22.8665 112.069 22.7892 112.293 22.6345C112.517 22.4797 112.682 22.254 112.798 21.951C112.912 21.6544 112.97 21.2869 112.97 20.8485Z" fill="#E5E5E5"/>
<path d="M122.114 17.2188V24.4853H120.484L117.884 20.6682H117.839V24.4853H115.884V17.2188H117.545L120.107 21.0229H120.165V17.2188H122.114Z" fill="#E5E5E5"/>
<path d="M124.912 24.4853H122.803L125.18 17.2188H127.852L130.228 24.4853H128.12L126.542 19.2175H126.49L124.912 24.4853ZM124.516 21.616H128.484V23.0926H124.516V21.616Z" fill="#E5E5E5"/>
<path d="M130.919 24.4853V17.2188H132.874V22.8991H135.787V24.4917H130.919V24.4853Z" fill="#E5E5E5"/>
<path d="M56.4158 34.1558L54.2944 26.8893H56.4733L57.4573 31.3575H57.515L58.684 26.8828H60.403L61.5721 31.3704H61.6297L62.6137 26.8828H64.7928L62.6713 34.1493H60.7994L59.5721 30.0874H59.515L58.2877 34.1493H56.4158V34.1558Z" fill="#E5E5E5"/>
<path d="M67.3749 26.8906V34.1571H65.4192V26.8906H67.3749Z" fill="#E5E5E5"/>
<path d="M68.3062 34.1571V26.8906H71.4182C71.9547 26.8906 72.4209 26.9873 72.824 27.1872C73.2264 27.3806 73.5396 27.6643 73.7569 28.0383C73.9803 28.4058 74.0889 28.8507 74.0889 29.3665C74.0889 29.8888 73.9736 30.3272 73.7441 30.6818C73.5141 31.0365 73.1942 31.3072 72.7851 31.4878C72.3766 31.6683 71.891 31.7586 71.3478 31.7586H69.4886V30.224H70.9514C71.1814 30.224 71.3799 30.1982 71.5396 30.1402C71.7053 30.0822 71.8267 29.992 71.9165 29.863C72.0057 29.734 72.0507 29.5664 72.0507 29.36C72.0507 29.1538 72.0057 28.9797 71.9165 28.8507C71.8267 28.7218 71.7053 28.625 71.5396 28.5605C71.3799 28.4961 71.1814 28.4638 70.9514 28.4638H70.2613V34.1571H68.3062ZM72.5235 30.8237L74.325 34.1571H72.2042L70.447 30.8237H72.5235Z" fill="#E5E5E5"/>
<path d="M74.9131 34.1571V26.8906H80.1016V28.4832H76.8682V29.734H79.8394V31.3266H76.8682V32.5774H80.0889V34.17H74.9131V34.1571Z" fill="#E5E5E5"/>
</g>
<defs>
<clipPath id="clip0_3350_3817">
<rect width="139" height="49" fill="white"/>
</clipPath>
</defs>
</svg>
