<svg width="96" height="30" viewBox="0 0 96 30" fill="none" xmlns="http://www.w3.org/2000/svg">
<g clip-path="url(#clip0_3308_7663)">
<path d="M32.8672 2.66992H36.7947V24.3005H46.3072V27.6616H32.8672V2.66992Z" fill="white"/>
<path d="M48.2327 2.66992H52.1629V27.6616H48.2327V2.66992Z" fill="white"/>
<path d="M54.969 15.1638C54.969 6.23884 57.4497 2.17773 63.103 2.17773C68.7563 2.17773 71.237 6.23884 71.237 15.1638C71.237 24.0888 68.7563 28.15 63.103 28.15C57.4497 28.15 54.969 24.0888 54.969 15.1638ZM67.3068 15.0583C67.3068 6.65829 65.4469 5.18885 63.103 5.18885C60.7591 5.18885 58.8993 6.65829 58.8993 15.0583C58.8993 23.6694 60.7591 25.1388 63.103 25.1388C65.4469 25.1388 67.3068 23.6694 67.3068 15.0583Z" fill="white"/>
<path d="M74.1335 2.66992H78.9226L86.0556 21.2921H86.124V2.66992H89.8464V27.6616H85.0573L77.9243 8.55048H77.8559V27.6616H74.1335V2.66992Z" fill="white"/>
<path d="M29.0818 0.65625H0.73584V29.5979H29.0818V0.65625Z" fill="#F05133"/>
<path fill-rule="evenodd" clip-rule="evenodd" d="M20.7892 6.82196L20.7427 5.01085L18.4972 5.97474L17.4606 3.79418L15.6035 5.47752L13.8504 3.52752L12.4446 5.89418L10.1854 4.59418L9.67671 7.07752L7.11671 6.56641L7.66919 9.04974L4.92594 9.35252L6.53961 11.8831L3.93312 12.8331L5.56867 14.7359L3.47363 16.3609L5.96252 17.7997L4.44184 19.8886L6.81585 20.4692L6.26337 22.8608L8.99295 22.6692L8.98474 25.2303L11.4517 24.2553L12.4665 26.5053L14.1266 24.7886L15.8798 26.622L17.0695 24.3581L19.2329 25.7331L19.6022 23.3192L21.875 23.9525L21.8805 21.9247L18.6449 19.0775V11.4414L15.0839 9.73585L15.0948 6.24141L20.7892 6.82196ZM21.1174 18.6886C20.5294 18.2497 20.1629 17.6609 20.1629 16.847C20.1629 15.572 21.1912 14.5414 22.463 14.5414C22.8022 14.5414 23.1386 14.6053 23.4285 14.7386L23.6774 14.8414L23.9317 14.9859L24.7769 15.5025L26.6449 12.9275L22.9335 8.71363L22.6545 7.96085L15.9673 7.21918V9.14418L18.6203 10.4442V9.51641L19.5557 9.59696L19.5666 18.6831L22.7721 21.5609L22.7803 25.1275L20.3051 24.4608L19.9823 27.222L17.4688 25.6192L16.0986 28.1608L14.0692 26.0247L12.1656 28.0331L10.9676 25.3636L8.09859 26.4886L8.10953 23.622L5.0791 23.797L5.75739 21.1164L2.95671 20.4081L4.6497 18.0747L1.88184 16.4858L4.26679 14.6136L2.36867 12.3914L5.20491 11.4636L3.46543 8.62196L6.55602 8.24974L5.96252 5.38307L8.98201 6.05529L9.58098 3.22474L12.141 4.71085L13.7082 2.06641L15.6692 4.27196L17.8818 2.36918L18.9184 4.85252L21.6617 3.62196L21.7218 6.93029L23.5215 7.11363L23.8223 8.24696L27.821 12.8803L25.0258 16.7247L24.2408 16.2081L23.6008 15.8192C23.3 15.6247 22.9471 15.4053 22.4904 15.4442C21.6562 15.4442 21.0408 16.0914 21.0408 16.8081C21.0408 17.1664 21.1447 17.4747 21.4182 17.7331L21.6152 17.9275L21.8641 18.1386L22.1266 18.347L22.5177 18.6358L23.5078 17.2664L24.2709 17.7775L22.701 19.8525L22.0993 19.4636L21.5359 19.047L21.1174 18.6886Z" fill="white"/>
<path d="M21.0791 9.96892L22.37 9.13281L23.754 11.0828H23.0155L21.0791 9.96892Z" fill="white"/>
<path d="M95.2179 4.49232C95.2179 5.4951 94.452 6.27565 93.462 6.27565C92.4691 6.27565 91.7061 5.4951 91.7061 4.49232C91.7061 3.48954 92.4719 2.70898 93.462 2.70898C94.452 2.70898 95.2179 3.48954 95.2179 4.49232ZM91.9768 4.49232C91.9768 5.3451 92.6086 6.02287 93.4592 6.02287C94.3098 6.02287 94.9416 5.34787 94.9416 4.49232C94.9416 3.63954 94.3098 2.96176 93.4592 2.96176C92.6114 2.96176 91.9768 3.63954 91.9768 4.49232ZM93.0736 5.52287H92.8247V3.46176H93.6042C94.0637 3.46176 94.2661 3.66454 94.2661 4.03121C94.2661 4.3951 94.0308 4.55898 93.7573 4.60621L94.3618 5.52287H94.0691L93.4975 4.60621H93.0763V5.52287H93.0736ZM93.4045 4.39232C93.7108 4.39232 94.0144 4.38398 94.0144 4.03121C94.0144 3.74232 93.7792 3.67565 93.5331 3.67565H93.0763V4.38954H93.4045V4.39232Z" fill="white"/>
</g>
<defs>
<clipPath id="clip0_3308_7663">
<rect width="96" height="30" fill="white"/>
</clipPath>
</defs>
</svg>
