<svg width="102" height="33" viewBox="0 0 102 33" fill="none" xmlns="http://www.w3.org/2000/svg">
<path d="M14.3458 10.1016V10.7506C14.3458 12.6246 13.7673 13.8207 12.4813 14.4201C14.0287 15.0196 14.6335 16.399 14.6335 18.3225V19.8067C14.6335 22.6178 13.1361 24.1252 10.2499 24.1252H5.70776V5.91406H10.0649C13.0568 5.91406 14.3428 7.29343 14.3428 10.1016H14.3458ZM8.59688 8.51565V13.3289H9.72434C10.8019 13.3289 11.4566 12.8604 11.4566 11.4024V10.3868C11.4566 9.08602 11.0104 8.51274 9.98566 8.51274H8.59395L8.59688 8.51565ZM8.59688 15.9305V21.5236H10.2499C11.2218 21.5236 11.7473 21.0813 11.7473 19.7281V18.1421C11.7473 16.4514 11.1953 15.9305 9.88289 15.9305H8.59688Z" fill="#F3EFE2"/>
<path d="M25.8524 24.1252H22.9398L22.4406 20.8223H18.8968L18.3976 24.1252H15.7463L18.6854 5.91406H22.9104L25.8494 24.1252H25.8524ZM19.2638 18.3516H22.0472L20.6555 9.14131L19.2638 18.3516Z" fill="#F3EFE2"/>
<path d="M31.4543 5.70508C34.2641 5.70508 35.7058 7.36963 35.7058 10.2855V10.8588H32.9752V10.1051C32.9752 8.80428 32.4496 8.30958 31.5306 8.30958C30.6116 8.30958 30.0861 8.80428 30.0861 10.1051C30.0861 13.8503 35.7292 14.5545 35.7292 19.7577C35.7292 22.6707 34.2583 24.3381 31.4249 24.3381C28.5916 24.3381 27.1206 22.6736 27.1206 19.7577V18.6403H29.8512V19.9411C29.8512 21.2418 30.4296 21.7104 31.3486 21.7104C32.2676 21.7104 32.846 21.2418 32.846 19.9411C32.846 16.1958 27.2028 15.4916 27.2028 10.2884C27.2028 7.37545 28.6474 5.70799 31.4543 5.70799V5.70508Z" fill="#F3EFE2"/>
<path d="M40.5593 13.5879H44.523V16.1895H40.5593V21.5236H45.5477V24.1252H37.6731V5.91406H45.5477V8.51565H40.5593V13.5879Z" fill="#F3EFE2"/>
<path d="M60.6567 17.3366V19.7548C60.6567 22.6678 59.1857 24.3352 56.3524 24.3352C53.5191 24.3352 52.0481 22.6707 52.0481 19.7548V10.2855C52.0481 7.37254 53.5191 5.70508 56.3524 5.70508C59.1857 5.70508 60.6567 7.36963 60.6567 10.2855V12.0548H57.9262V10.1022C57.9262 8.80137 57.3477 8.30666 56.4288 8.30666C55.5098 8.30666 54.9313 8.80137 54.9313 10.1022V19.9352C54.9313 21.236 55.5098 21.7045 56.4288 21.7045C57.3477 21.7045 57.9262 21.236 57.9262 19.9352V17.3336H60.6567V17.3366Z" fill="#F3EFE2"/>
<path d="M72.1634 24.1252H69.2508L68.7517 20.8223H65.2078L64.7087 24.1252H62.0574L64.9964 5.91406H69.2214L72.1605 24.1252H72.1634ZM65.5748 18.3516H68.3582L66.9665 9.14131L65.5748 18.3516Z" fill="#F3EFE2"/>
<path d="M79.9734 18.8434L81.9435 5.91406H85.9601V24.1252H83.2295V11.0649L81.233 24.1252H78.5024L76.3502 11.2453V24.1252H73.8311V5.91406H77.8476L79.9734 18.8434Z" fill="#F3EFE2"/>
<path d="M96.9 10.4159V12.7847C96.9 15.6977 95.4819 17.2865 92.5957 17.2865H91.2304V24.1281H88.3442V5.91406H92.5957C95.4819 5.91406 96.9 7.50004 96.9 10.4159ZM91.2304 8.51565V14.6821H92.5957C93.5147 14.6821 94.0138 14.2659 94.0138 12.9651V10.2326C94.0138 8.93179 93.5147 8.51565 92.5957 8.51565H91.2304Z" fill="#F3EFE2"/>
<path d="M101.363 29.8071H95.6081V28.9021H100.45V1.68432H2.16093V28.9021H6.99081V29.8071H1.2478V0.779297H101.363V29.8071Z" fill="#F3EFE2"/>
<path fill-rule="evenodd" clip-rule="evenodd" d="M91.2891 30.9672L92.7249 29.7683L92.4225 29.6199C92.2962 29.5704 92.3226 29.4947 92.3725 29.3201L92.5986 28.4937L91.7677 28.6712C91.6679 28.6712 91.615 28.6188 91.615 28.5693L91.4888 28.1939L90.834 28.9447C90.7313 29.0699 90.5551 29.0699 90.605 28.7934L90.884 27.2453L90.5052 27.4461C90.4054 27.4955 90.2527 27.3966 90.2527 27.3966L89.7242 26.3984L89.1957 27.3966C89.1458 27.5217 89.043 27.4955 88.9168 27.4461L88.538 27.2453L88.8404 28.7934C88.8903 29.067 88.6907 29.067 88.6143 28.9447L87.9332 28.1939L87.8333 28.5693C87.8333 28.6188 87.757 28.6712 87.6836 28.6712L86.8498 28.4937L87.0788 29.3201C87.1287 29.4947 87.1551 29.5704 87.0289 29.6199L86.7264 29.7683L88.1622 30.9672C88.2121 31.0167 88.262 31.0924 88.2385 31.168L88.1123 31.5929C88.5909 31.5434 89.046 31.4939 89.548 31.4445C89.5745 31.4445 89.6479 31.4707 89.6479 31.5201L89.5979 32.2215H89.827L89.8005 31.5201C89.8005 31.4707 89.8504 31.4445 89.9004 31.4445C90.4054 31.4939 90.834 31.5434 91.3361 31.5929L91.2099 31.168C91.1834 31.0953 91.2099 31.0196 91.2862 30.9672H91.2891Z" fill="#F3EFE2"/>
<path d="M12.405 28.3534C12.27 27.9489 11.9822 27.6637 11.5271 27.6637C10.9106 27.6637 10.5347 28.2341 10.5347 29.3574C10.5201 30.4807 10.8577 31.051 11.5536 31.051C11.9675 31.051 12.223 30.9055 12.499 30.341L13.3563 30.568C13.0686 31.3973 12.4373 31.8222 11.5536 31.8222C10.3204 31.8222 9.60986 30.9259 9.60986 29.3574C9.60986 27.7889 10.3204 26.8926 11.5536 26.8926C12.4784 26.8926 13.0128 27.3058 13.2418 28.1555L12.405 28.3534Z" fill="#F3EFE2"/>
<path d="M22.6609 31.8183C21.3426 31.8183 20.6321 30.922 20.6321 29.3535C20.6321 27.785 21.3426 26.8887 22.6609 26.8887C23.9792 26.8887 24.6898 27.785 24.6898 29.3535C24.6898 30.922 23.9792 31.8183 22.6609 31.8183ZM22.6609 27.6598C21.9034 27.6598 21.557 28.2302 21.557 29.3535C21.5423 30.4768 21.8975 31.0471 22.6609 31.0471C23.4243 31.0471 23.7649 30.4768 23.7649 29.3535C23.7649 28.2302 23.4155 27.6598 22.6609 27.6598Z" fill="#F3EFE2"/>
<path d="M31.9624 31.7518V26.959H32.9284L34.831 30.227H34.8456V26.959H35.7177V31.7518H34.828L32.852 28.3383H32.8374V31.7518H31.9653H31.9624Z" fill="#F3EFE2"/>
<path d="M43.1401 31.7518V26.959H44.1061L46.0087 30.227H46.0234V26.959H46.8954V31.7518H46.0058L44.0298 28.3383H44.0151V31.7518H43.1431H43.1401Z" fill="#F3EFE2"/>
<path d="M54.5557 31.7518V26.959H57.7589V27.7301H55.4805V28.8709H57.1365V29.6421H55.4805V30.9836H57.8323V31.7548H54.5557V31.7518Z" fill="#F3EFE2"/>
<path d="M68.2906 28.3515C68.1556 27.947 67.8678 27.6618 67.4128 27.6618C66.7962 27.6618 66.4204 28.2322 66.4204 29.3554C66.4057 30.4787 66.7433 31.0491 67.4392 31.0491C67.8532 31.0491 68.1086 30.9036 68.3846 30.339L69.2419 30.566C68.9542 31.3954 68.3229 31.8203 67.4392 31.8203C66.206 31.8203 65.4955 30.924 65.4955 29.3554C65.4955 27.7869 66.206 26.8906 67.4392 26.8906C68.364 26.8906 68.8984 27.3039 69.1274 28.1536L68.2906 28.3515Z" fill="#F3EFE2"/>
<path d="M80.2759 26.9062V27.6774H79.0104V31.7078H78.0855V27.6774H76.8201V26.9062H80.2759Z" fill="#F3EFE2"/>
</svg>
