<svg width="103" height="49" viewBox="0 0 103 49" fill="none" xmlns="http://www.w3.org/2000/svg">
<g clip-path="url(#clip0_3318_8152)">
<path fill-rule="evenodd" clip-rule="evenodd" d="M49.0566 9.98662L49.8501 8.69472L48.3912 7.76263C48.6458 7.21017 48.6458 6.58122 48.6458 5.99052V5.34882H46.5482V6.61947L42.4837 4.01726C41.9196 3.6787 41.6987 3.45205 41.6987 2.8996C41.6987 1.99442 42.3304 1.96892 43.5079 1.96892C45.3059 1.96892 45.3748 2.15732 45.3748 3.44072H47.4739C47.4739 0.912174 46.7395 0.484375 43.5107 0.484375C40.8461 0.484375 39.397 0.786101 39.397 2.88827C39.397 3.71837 39.6179 4.02009 40.4705 4.56122C38.3475 4.66604 38.0239 5.71146 38.0239 7.10676C38.0239 9.83788 40.0189 10.0518 43.318 10.0518C45.009 10.0518 46.7522 10.0277 47.5372 9.00778L49.0566 9.98662ZM45.9488 8.00202C45.3847 8.56723 44.5476 8.56723 43.318 8.56723C41.1627 8.56723 40.3256 8.60406 40.3256 7.11243C40.3256 6.03301 40.3424 5.55705 41.7451 5.39273L45.9488 8.00202Z" fill="white"/>
<path fill-rule="evenodd" clip-rule="evenodd" d="M36.1438 0.649961L36.1297 9.89722H18.8379C18.8379 9.89722 15.3671 9.90855 15.3193 12.8876C15.3263 15.9615 18.693 15.9601 18.8111 15.9601L49.8861 15.9969V26.774H15.3221C15.3221 26.774 -0.000133346 26.8279 0.0139257 12.8946C0.0251903 0.00259709 15.3629 0.716539 15.3348 0.623047L36.1438 0.649961Z" fill="white"/>
<path fill-rule="evenodd" clip-rule="evenodd" d="M83.1903 15.9581L64.5718 15.9425V9.89669H83.1621C83.1621 9.89669 86.6329 9.9066 86.6807 12.8856C86.6737 15.9595 83.3071 15.9581 83.1903 15.9581ZM85.3512 0.621094L51.0419 0.635259L51.0545 26.7721H85.3653C85.3653 26.7721 100.688 26.8259 100.673 12.8941C100.662 0.00206089 85.3245 0.716003 85.3512 0.621094Z" fill="white"/>
<path fill-rule="evenodd" clip-rule="evenodd" d="M7.61922 33.7402V36.5337H5.28241V48.7713H2.33079V36.5337H0.0136719V33.7402H7.61922Z" fill="white"/>
<path fill-rule="evenodd" clip-rule="evenodd" d="M14.114 33.7402V36.5337H11.123V39.7946H13.7567V42.588H11.123V45.975H14.1534V48.7685H8.17139V33.7402H14.114Z" fill="white"/>
<path fill-rule="evenodd" clip-rule="evenodd" d="M22.2034 36.5674C21.8278 36.4682 21.4704 36.4073 21.0948 36.4073C18.4991 36.4073 17.3708 38.78 17.3708 41.0918C17.3708 43.3243 18.4991 46.0738 21.0737 46.0738C21.4507 46.0738 21.8278 45.9747 22.2034 45.8557V48.6647C21.7673 48.8432 21.3129 48.9239 20.8373 48.9239C16.5773 48.9239 14.218 45.0582 14.218 41.1117C14.218 37.3847 16.6772 33.5586 20.6981 33.5586C21.213 33.5586 21.7082 33.6578 22.2034 33.8377V36.5674Z" fill="white"/>
<path fill-rule="evenodd" clip-rule="evenodd" d="M26.1563 33.7383V39.617H29.1684V33.7383H32.1186V48.7722H29.1684V42.409H26.1563V48.7722H23.2061V33.7383H26.1563Z" fill="white"/>
<path fill-rule="evenodd" clip-rule="evenodd" d="M36.2383 33.7383L39.9454 42.8085L39.9848 42.7688C39.8061 42.0506 39.747 41.2743 39.747 40.4952V33.7383H42.6986V48.7722H39.906L36.2383 39.6991L36.1989 39.7388L36.3368 41.2545L36.3579 41.8721V48.7722H33.4062V33.7383H36.2383Z" fill="white"/>
<mask id="mask0_3318_8152" style="mask-type:luminance" maskUnits="userSpaceOnUse" x="43" y="33" width="11" height="16">
<path d="M43.4315 33.5098H53.9366V49.0009H43.4315V33.5098Z" fill="white"/>
</mask>
<g mask="url(#mask0_3318_8152)">
<path fill-rule="evenodd" clip-rule="evenodd" d="M48.6848 33.5098C46.0497 33.5098 43.4315 35.6204 43.4315 41.2555C43.4315 46.8919 46.0497 49.0012 48.6848 49.0012C51.3198 49.0012 53.9366 46.8919 53.9366 41.2555C53.9366 35.6204 51.3198 33.5098 48.6848 33.5098ZM46.5857 41.2555C46.5857 39.9211 46.725 36.2565 48.6848 36.2565C50.646 36.2565 50.7838 39.9211 50.7838 41.2555C50.7838 42.451 50.646 46.2545 48.6848 46.2545C46.725 46.2545 46.5857 42.451 46.5857 41.2555Z" fill="white"/>
</g>
<path fill-rule="evenodd" clip-rule="evenodd" d="M57.6491 33.7383V45.9759H60.7386V48.7693H54.6975V33.7383H57.6491Z" fill="white"/>
<mask id="mask1_3318_8152" style="mask-type:luminance" maskUnits="userSpaceOnUse" x="60" y="33" width="12" height="16">
<path d="M60.5645 33.5098H71.0696V49.0009H60.5645V33.5098Z" fill="white"/>
</mask>
<g mask="url(#mask1_3318_8152)">
<path fill-rule="evenodd" clip-rule="evenodd" d="M65.8177 33.5098C63.1826 33.5098 60.5645 35.6204 60.5645 41.2555C60.5645 46.8919 63.1826 49.0012 65.8177 49.0012C68.4528 49.0012 71.0696 46.8919 71.0696 41.2555C71.0696 35.6204 68.4528 33.5098 65.8177 33.5098ZM63.7187 41.2555C63.7187 39.9211 63.8565 36.2565 65.8177 36.2565C67.7775 36.2565 67.9168 39.9211 67.9168 41.2555C67.9168 42.451 67.7775 46.2545 65.8177 46.2545C63.8565 46.2545 63.7187 42.451 63.7187 41.2555Z" fill="white"/>
</g>
<mask id="mask2_3318_8152" style="mask-type:luminance" maskUnits="userSpaceOnUse" x="71" y="33" width="11" height="16">
<path d="M71.498 33.5098H81.6233V49.0006H71.498V33.5098Z" fill="white"/>
</mask>
<g mask="url(#mask2_3318_8152)">
<path fill-rule="evenodd" clip-rule="evenodd" d="M81.6233 40.4055V41.5827C81.6233 44.7657 80.8509 49.0012 76.8301 49.0012C72.8064 49.0012 71.498 44.6665 71.498 41.3433C71.498 37.8728 72.6095 33.5098 76.8301 33.5098C79.1078 33.5098 80.5949 34.9433 81.228 37.0738L78.3565 38.1915C78.2173 37.4336 77.9781 36.2565 76.8498 36.2565C74.8492 36.1375 74.6508 39.8474 74.6508 41.264C74.6508 42.8208 74.7493 46.2545 76.93 46.2545C78.4353 46.2545 78.6731 44.2302 78.6731 43.199H76.7907V40.4055H81.6233Z" fill="white"/>
</g>
<mask id="mask3_3318_8152" style="mask-type:luminance" maskUnits="userSpaceOnUse" x="0" y="0" width="103" height="49">
<path d="M0 49H102.371V0H0V49Z" fill="white"/>
</mask>
<g mask="url(#mask3_3318_8152)">
<path fill-rule="evenodd" clip-rule="evenodd" d="M82.3878 48.7722H85.3394V33.7383H82.3878V48.7722Z" fill="white"/>
</g>
<mask id="mask4_3318_8152" style="mask-type:luminance" maskUnits="userSpaceOnUse" x="0" y="0" width="103" height="49">
<path d="M0 49H102.371V0H0V49Z" fill="white"/>
</mask>
<g mask="url(#mask4_3318_8152)">
<path fill-rule="evenodd" clip-rule="evenodd" d="M92.5875 33.7402V36.5337H89.5965V39.7946H92.2315V42.588H89.5965V45.975H92.6269V48.7685H86.6462V33.7402H92.5875Z" fill="white"/>
</g>
<mask id="mask5_3318_8152" style="mask-type:luminance" maskUnits="userSpaceOnUse" x="0" y="0" width="103" height="49">
<path d="M0 49H102.371V0H0V49Z" fill="white"/>
</mask>
<g mask="url(#mask5_3318_8152)">
<path fill-rule="evenodd" clip-rule="evenodd" d="M99.7706 37.1342C99.1783 36.6171 98.4481 36.1794 97.6392 36.1794C96.7219 36.1794 96.1423 36.7361 96.1423 37.6512C96.1423 40.1174 100.639 40.2577 100.639 44.3147C100.639 46.9821 99.1192 48.9978 96.342 48.9978C95.5106 48.9978 94.485 48.7386 93.8153 48.2386V45.4083C94.5047 45.8871 95.1757 46.2044 96.0424 46.2044C97.0005 46.2044 97.7588 45.5683 97.7588 44.5725C97.7588 43.4194 96.8401 42.9817 96.003 42.3854C94.3077 41.2323 93.261 40.1175 93.261 37.9303C93.261 35.5618 94.6228 33.5078 97.1594 33.5078C98.1133 33.5078 98.9616 33.767 99.7706 34.2458V37.1342Z" fill="white"/>
</g>
<mask id="mask6_3318_8152" style="mask-type:luminance" maskUnits="userSpaceOnUse" x="0" y="0" width="103" height="49">
<path d="M0 49H102.371V0H0V49Z" fill="white"/>
</mask>
<g mask="url(#mask6_3318_8152)">
<path fill-rule="evenodd" clip-rule="evenodd" d="M101.132 47.8466H101.22C101.333 47.8466 101.409 47.8027 101.409 47.7262C101.409 47.644 101.339 47.5987 101.233 47.5987C101.195 47.5987 101.157 47.6058 101.132 47.6058V47.8466ZM101.119 48.4231H100.811V47.416C100.88 47.4032 101.043 47.3834 101.251 47.3834C101.478 47.3834 101.579 47.416 101.654 47.4599C101.717 47.5038 101.761 47.5803 101.761 47.6823C101.761 47.7828 101.668 47.8721 101.529 47.9103V47.9217C101.641 47.9613 101.704 48.0364 101.735 48.1823C101.768 48.3282 101.786 48.3863 101.804 48.4231H101.46C101.427 48.3863 101.409 48.297 101.391 48.2078C101.371 48.1058 101.32 48.0548 101.22 48.0548H101.119V48.4231ZM100.471 47.9103C100.471 48.3665 100.804 48.7277 101.258 48.7277C101.711 48.7277 102.045 48.3665 102.045 47.9032C102.045 47.4528 101.711 47.0859 101.251 47.0859C100.804 47.0859 100.471 47.4528 100.471 47.9103ZM102.371 47.9032C102.371 48.5124 101.882 48.9997 101.258 48.9997C100.634 48.9997 100.137 48.5124 100.137 47.9032C100.137 47.3012 100.634 46.8125 101.258 46.8125C101.882 46.8125 102.371 47.3012 102.371 47.9032Z" fill="white"/>
</g>
</g>
<defs>
<clipPath id="clip0_3318_8152">
<rect width="103" height="49" fill="white"/>
</clipPath>
</defs>
</svg>
