<svg width="199" height="29" viewBox="0 0 199 29" fill="none" xmlns="http://www.w3.org/2000/svg">
<g clip-path="url(#clip0_3310_7987)">
<path fill-rule="evenodd" clip-rule="evenodd" d="M19.2621 0H16.7605L0 28.7197H4.12759L7.75487 22.3963H30.7381L34.4904 28.7197H38.3366L21.4822 0H19.2621ZM19.2621 19.3749H9.50597L19.1996 2.86574L19.2621 2.92803L28.9244 19.3437H19.2621V19.3749Z" fill="white"/>
<path d="M45.2159 0H42.0264V28.7197H45.2159V0Z" fill="white"/>
<path fill-rule="evenodd" clip-rule="evenodd" d="M75.4223 10.1547C73.8589 8.75295 71.4198 8.09882 67.9489 8.09882H61.6637C60.1002 8.09882 58.8494 8.31686 57.8175 8.8464C56.7856 9.28249 55.9726 10.0301 55.2222 10.9957V0H52.1265V28.7197H54.8469V25.4178C55.441 26.7261 56.2541 27.6294 57.3485 28.1278C58.4742 28.7197 60.1628 29 62.3829 29H67.9176C71.3886 29 73.8901 28.2524 75.3911 26.9441C76.8608 25.5424 77.6738 23.2685 77.6738 20.029V16.8518C77.6738 13.6745 76.8608 11.4941 75.3911 10.1547H75.4223ZM74.453 19.6552C74.453 22.1472 73.9214 23.8604 72.9833 24.7325C72.014 25.5424 70.044 25.9785 67.0734 25.9785H62.5705C59.5999 25.9785 57.6299 25.5424 56.6606 24.7325C55.6912 23.8604 55.2534 22.1472 55.2534 19.6552V17.2256C55.2534 14.7959 55.6912 13.1762 56.7544 12.3663C57.7237 11.4941 59.6312 11.1203 62.6018 11.1203H67.1046C70.0752 11.1203 72.0452 11.4941 73.0146 12.3663C73.9839 13.1762 74.4843 14.7959 74.4843 17.2256V19.6552H74.453Z" fill="white"/>
<path fill-rule="evenodd" clip-rule="evenodd" d="M104.91 9.93742C103.44 8.69145 101.064 8.09961 97.9678 8.09961H92.0579C88.9622 8.09961 86.742 8.62915 85.3974 9.50133C83.9903 10.467 83.3336 11.931 83.3336 13.9868V14.5164H86.742V13.9245C86.742 12.8343 87.1173 12.149 87.7739 11.7129C88.5244 11.3391 90.0566 11.1834 92.5894 11.1834H97.4675C99.9691 11.1834 101.751 11.4949 102.627 12.149C103.596 12.8032 104.034 14.0491 104.034 15.7623V18.5658C103.315 17.6936 102.408 17.1018 101.314 16.728C100.219 16.3542 98.8121 16.1361 97.0297 16.1361H91.3387C87.8677 16.1361 85.4912 16.5722 84.0841 17.5378C82.677 18.5035 81.9578 20.1232 81.9578 22.3971C81.9578 24.671 82.7082 26.5088 84.0841 27.5368C85.4912 28.5024 87.9303 29.0008 91.4012 29.0008H96.8734C98.9997 29.0008 100.563 28.7827 101.689 28.2532C102.721 27.8171 103.534 27.0695 104.065 26.0416V28.6893H107.161V15.6066C107.161 13.0523 106.411 11.1211 104.941 9.93742H104.91ZM103.815 23.3316C103.815 24.2972 103.377 25.0137 102.471 25.3875C101.501 25.8236 99.7502 25.9793 97.061 25.9793H92.1829C89.2123 25.9793 87.3674 25.7613 86.6482 25.2317C85.8352 24.7956 85.46 23.7677 85.46 22.2102C85.46 20.6528 85.8977 19.9986 86.7107 19.5626C87.5238 19.1265 89.3687 18.815 92.1829 18.815H97.061C99.7189 18.815 101.501 19.033 102.377 19.4691C103.346 19.8429 103.784 20.497 103.784 21.525V23.3005L103.815 23.3316Z" fill="white"/>
<path fill-rule="evenodd" clip-rule="evenodd" d="M132.114 9.65707C130.707 8.62915 128.268 8.09961 124.797 8.09961C121.326 8.09961 120.357 8.4111 119.106 8.90949C117.918 9.43903 116.948 10.3112 116.292 11.6195V8.598H113.196V28.7204H116.542V16.1361C116.542 14.3606 117.136 13.1146 118.324 12.3048C119.513 11.5572 121.42 11.1211 124.078 11.1211C126.736 11.1211 128.8 11.4014 129.769 12.0867C130.738 12.6786 131.239 13.8622 131.239 15.7V17.5378H134.178V14.8902C134.178 12.4605 133.521 10.685 132.114 9.65707Z" fill="white"/>
<path fill-rule="evenodd" clip-rule="evenodd" d="M157.537 9.65707C156.129 8.62915 153.69 8.09961 150.282 8.09961C146.874 8.09961 145.779 8.4111 144.591 8.90949C143.34 9.43903 142.433 10.3112 141.777 11.6195V8.598H138.587V28.7204H141.902V16.1361C141.902 14.3606 142.496 13.1146 143.684 12.3048C144.872 11.5572 146.78 11.1211 149.438 11.1211C152.096 11.1211 154.253 11.4014 155.191 12.0867C156.067 12.6786 156.598 13.8622 156.598 15.7V17.5378H159.569V14.8902C159.569 12.4605 158.912 10.685 157.505 9.65707H157.537Z" fill="white"/>
<path d="M167.449 0H164.197V3.83136H167.449V0Z" fill="white"/>
<path d="M167.449 8.41016H164.197V28.7195H167.449V8.41016Z" fill="white"/>
<path fill-rule="evenodd" clip-rule="evenodd" d="M186.054 19.2821H198.906C198.906 19.0641 198.969 18.846 198.969 18.6903V17.6623C198.969 14.1113 198.218 11.6194 196.686 10.2177C195.216 8.81594 192.527 8.06836 188.712 8.06836H183.615C179.926 8.06836 177.268 8.81594 175.704 10.1242C174.141 11.4636 173.328 13.7375 173.328 16.8836V20.1854C173.328 23.2692 174.141 25.5431 175.704 26.8825C177.33 28.1908 179.926 28.9384 183.615 28.9384H189.744C192.777 28.9384 195.06 28.44 196.624 27.3809C198.187 26.353 199 24.889 199 22.8954V22.3659H195.592V22.5839C195.592 23.7676 195.06 24.6398 193.966 25.2316C192.934 25.7612 191.245 26.0415 188.931 26.0415H183.615C181.02 26.0415 179.269 25.6054 178.143 24.7955C177.111 23.9234 176.58 22.4282 176.58 20.31V19.2198H186.023L186.054 19.2821ZM178.143 12.2735C179.175 11.4636 180.957 11.0898 183.522 11.0898H188.618C191.339 11.0898 193.215 11.3702 194.153 12.1178C195.029 12.7719 195.56 14.0179 195.56 15.7934V16.2918H176.58C176.58 14.3605 177.08 12.9899 178.143 12.2424V12.2735Z" fill="white"/>
</g>
<defs>
<clipPath id="clip0_3310_7987">
<rect width="199" height="29" fill="white"/>
</clipPath>
</defs>
</svg>
