<svg width="116" height="48" viewBox="0 0 116 48" fill="none" xmlns="http://www.w3.org/2000/svg">
<mask id="mask0_3311_8007" style="mask-type:luminance" maskUnits="userSpaceOnUse" x="0" y="0" width="116" height="48">
<path d="M115.2 0.738281H0V47.2614H115.2V0.738281Z" fill="white"/>
</mask>
<g mask="url(#mask0_3311_8007)">
<path d="M70.6016 9.24925H85.0054V12.3361H72.0073C68.8649 12.3361 68.0486 13.7957 68.0486 14.6677V15.3123H82.8873V18.3612H68.0738V24.6421H61.0358V16.6298C61.0358 11.5873 63.6833 9.24609 70.5984 9.24609L70.6016 9.24925ZM98.2808 24.62H105.322V12.3298H114.579V9.27452H89.046V12.3298H98.2808V24.62ZM-0.623089 13.7641C-0.623089 16.1085 1.7124 18.4307 7.91517 18.4307H13.8626C16.362 18.4307 17.4463 18.5286 17.4463 19.9377C17.4463 21.0814 16.5669 21.3026 14.7861 21.3026H-0.607331L-0.597875 24.6327H16.4219C22.0605 24.6327 24.2983 22.0767 24.2983 19.8461C24.2983 16.9204 21.3198 15.445 15.448 15.445H11.2876C9.67388 15.445 8.64639 15.4071 8.16101 15.3186C7.13983 15.1417 6.64184 14.6456 6.64184 13.7957C6.64184 13.0943 7.06103 12.6457 7.91202 12.4625C8.3123 12.3771 9.21057 12.3392 10.5848 12.3392H22.382V9.25241H7.50544C1.00955 9.25241 -0.623089 11.5336 -0.623089 13.7641ZM45.6361 9.25241C51.2085 9.25241 54.8929 11.2176 54.8929 15.7925V24.6327H47.8108V23.5932C47.8108 23.5932 47.42 24.6327 45.7117 24.6327H35.607C33.1643 24.6327 28.6573 23.4479 28.6573 20.1052C28.6573 17.3059 31.6073 16.02 33.3408 15.7135C34.6804 15.4766 36.6376 15.2744 39.1591 15.2744H47.9054C47.9054 13.3913 47.1237 12.3266 43.1146 12.3266H30.873V9.24925H45.6361M47.8455 17.8525H38.9164C37.06 17.8525 35.7299 18.1463 35.7299 19.3785C35.7299 20.9045 37.9173 21.0404 38.8817 21.0404H47.8455V17.8525ZM115.256 31.6846H-0.664062V38.7207H115.253V31.6846H115.256Z" fill="#FF0000"/>
</g>
</svg>
