<svg width="176" height="61" viewBox="0 0 176 61" fill="none" xmlns="http://www.w3.org/2000/svg">
<g clip-path="url(#clip0_3318_8066)">
<mask id="mask0_3318_8066" style="mask-type:luminance" maskUnits="userSpaceOnUse" x="0" y="0" width="80" height="50">
<path d="M0 0H79.8933V49.9303H0V0Z" fill="white"/>
</mask>
<g mask="url(#mask0_3318_8066)">
<path fill-rule="evenodd" clip-rule="evenodd" d="M79.7107 6.01257C70.5335 1.24799 57.4266 2.49636 46.8656 6.87971C46.5864 6.99565 45.7396 9.77005 45.4566 9.87511L46.4885 4.79084C46.9838 2.30687 45.027 0 42.4256 0H0.459943C-0.146792 0 0.0130526 0.462274 0.0381925 0.52306C0.62354 1.9354 4.21855 6.16979 12.7196 6.99002C12.774 7.12248 11.1767 7.2553 10.1013 7.27256C9.94407 7.27519 9.85214 7.44179 9.93694 7.56937C11.1054 9.32316 14.9747 12.3497 22.0994 12.8386C22.1497 12.9613 20.3434 13.1305 19.4076 13.1463C19.2556 13.1485 19.1629 13.3028 19.235 13.4318C20.2027 15.1733 22.5831 17.7859 28.2928 18.5975C28.3446 18.605 28.3349 18.6444 28.2752 18.6463C26.8794 18.6865 25.6501 18.5983 24.5695 18.4182C24.5188 18.4099 24.4678 18.4216 24.4254 18.4497C21.0293 20.7235 18.0864 22.9494 16.5728 24.248C16.0343 24.7103 16.2073 25.2998 16.9198 25.3857L21.1373 25.8566C21.4338 25.8926 21.5306 26.2532 21.2927 26.4269C11.8213 33.3363 3.36266 44.4072 0.07609 49.2649C-0.187316 49.6547 0.285089 50.1012 0.70046 49.8641C12.1256 43.3412 17.6425 41.1871 28.6069 37.0056C29.1787 36.7876 29.1393 36.012 28.5307 35.9306L25.6922 35.3407C25.3162 35.2912 25.2055 34.8124 25.5241 34.6124C41.2361 24.7347 59.0134 25.0934 60.1282 26.3042C60.2445 26.4307 60.2742 26.6115 60.2006 26.765C58.9992 29.2715 55.8098 32.7896 55.8098 32.7896L53.5329 32.9093C53.2954 32.9217 53.0902 33.0834 53.0358 33.3063C52.3694 36.0383 53.0316 37.2371 53.4853 37.8686C53.6477 38.0948 53.9652 38.1369 54.1926 37.9706C56.158 36.5313 56.8687 35.6082 56.8687 35.6082L66.7231 28.0475C67.08 27.7698 67.1828 27.3969 67.0473 27.0228C64.963 21.2725 57.2097 17.3522 57.2097 17.3522C60.3563 12.9838 66.3149 12.4292 67.6285 12.9054C70.1853 13.8311 73.4449 23.2004 73.4449 23.2004C73.5214 23.4589 73.7116 23.6732 73.9679 23.7816C74.9664 24.2037 76.4635 23.5584 77.0391 23.2484C77.5517 22.9726 78.0229 22.498 78.0229 21.967C78.0229 21.9288 78.0184 7.61364 78.0184 7.61364L79.731 6.5709C79.9591 6.44557 79.9418 6.13264 79.7107 6.01257Z" fill="#B0171D"/>
</g>
<path fill-rule="evenodd" clip-rule="evenodd" d="M74.3979 34.0442H70.2255C69.9253 34.0442 69.7073 33.7988 69.7073 33.526V31.2897C69.7073 31.0169 69.9253 30.7715 70.2255 30.7715H82.1429C82.4427 30.7715 82.6611 31.0169 82.6611 31.2897V33.526C82.6611 33.7988 82.4427 34.0442 82.1429 34.0442H77.9704V49.3431C77.9704 49.6159 77.725 49.8613 77.4522 49.8613H74.9161C74.6433 49.8613 74.3979 49.6159 74.3979 49.3431V34.0442Z" fill="#00000B"/>
<path fill-rule="evenodd" clip-rule="evenodd" d="M111.54 46.588C114.976 46.588 117.812 43.779 117.812 40.3431C117.812 36.9068 114.976 34.0431 111.54 34.0431C108.103 34.0431 105.295 36.9068 105.295 40.3431C105.295 43.779 108.103 46.588 111.54 46.588ZM111.54 30.498C116.994 30.498 121.357 34.8885 121.357 40.3431C121.357 45.7974 116.994 50.1331 111.54 50.1331C106.085 50.1331 101.749 45.7974 101.749 40.3431C101.749 34.8885 106.085 30.498 111.54 30.498Z" fill="#00000B"/>
<path fill-rule="evenodd" clip-rule="evenodd" d="M121.52 47.4614L122.938 46.016C123.238 45.7432 123.511 45.798 123.756 46.0434C124.111 46.425 124.656 46.9158 125.556 46.9158C126.62 46.9158 127.738 46.0434 127.738 44.1617V31.2897C127.738 31.0169 127.956 30.7715 128.256 30.7715H130.819C131.119 30.7715 131.338 31.0169 131.338 31.2897V44.1617C131.338 47.9522 128.801 50.1337 125.611 50.1337C123.238 50.1337 121.929 48.7158 121.465 48.1432C121.329 47.9252 121.356 47.6524 121.52 47.4614Z" fill="#00000B"/>
<path fill-rule="evenodd" clip-rule="evenodd" d="M145.082 43.3427L142.355 37.3429H142.273L139.6 43.3427H145.082ZM133.301 49.1511L141.782 30.7978C141.864 30.6343 142 30.498 142.246 30.498H142.518C142.791 30.498 142.9 30.6343 142.982 30.7978L151.382 49.1511C151.545 49.5057 151.327 49.8603 150.918 49.8603H148.545C148.136 49.8603 147.945 49.6967 147.754 49.3151L146.418 46.3696H138.264L136.928 49.3151C136.819 49.5875 136.573 49.8603 136.137 49.8603H133.764C133.355 49.8603 133.137 49.5057 133.301 49.1511Z" fill="#00000B"/>
<path fill-rule="evenodd" clip-rule="evenodd" d="M153.863 30.9888C153.863 30.7179 154.082 30.498 154.353 30.498H154.755C154.951 30.498 155.139 30.5791 155.273 30.7217L166.407 42.5517H166.435V31.2886C166.435 31.0162 166.653 30.7705 166.953 30.7705H169.462C169.746 30.7705 169.979 31.0038 169.979 31.2886V49.6423C169.979 49.9132 169.76 50.1331 169.489 50.1331H169.122C168.921 50.1331 168.73 50.0486 168.596 49.9004L157.408 37.6156H157.381V49.3421C157.381 49.6149 157.162 49.8603 156.862 49.8603H154.381C154.096 49.8603 153.863 49.6273 153.863 49.3421V30.9888Z" fill="#00000B"/>
<path fill-rule="evenodd" clip-rule="evenodd" d="M95.7233 42.1437C98.0958 41.1892 99.7595 39.1438 99.7595 36.6351C99.7595 33.3898 97.0868 30.7715 93.8141 30.7715H86.0148C85.715 30.7715 85.4966 31.0173 85.4966 31.29V49.3431C85.4966 49.6159 85.715 49.8613 86.0148 49.8613H88.5239C88.7963 49.8613 89.0417 49.6159 89.0417 49.3431L89.0691 34.0442H93.5076C94.9631 34.0442 96.1927 35.1939 96.2137 36.649C96.2362 38.1945 94.9725 39.4714 93.5143 39.4714H91.7103C91.215 39.4714 90.8927 39.9922 91.114 40.4353L95.6959 49.6159C95.7507 49.7251 95.8869 49.8613 96.1323 49.8613H98.9956C99.4594 49.8613 99.6504 49.4253 99.4594 49.0707L95.7233 42.1437Z" fill="#00000B"/>
<path fill-rule="evenodd" clip-rule="evenodd" d="M76.7259 58.8484C77.1975 58.8484 77.5754 58.4803 77.5754 57.9895C77.5754 57.5178 77.1033 57.1685 76.6125 57.1685H75.584V58.8484H76.7259ZM76.5938 56.1302C77.0752 56.1302 77.4054 55.7528 77.4054 55.2811C77.4054 54.8091 77.0752 54.4789 76.5938 54.4789H75.584V56.1302H76.5938ZM74.3665 53.5348C74.3665 53.4406 74.4419 53.3555 74.5458 53.3555H76.7071C77.8301 53.3555 78.6984 54.1108 78.6984 55.1018C78.6984 55.8282 78.1037 56.3948 77.6602 56.6023C78.1603 56.7629 78.8871 57.2724 78.8871 58.1403C78.8871 59.1977 77.981 59.962 76.8298 59.962H74.5458C74.4419 59.962 74.3665 59.8768 74.3665 59.7827V53.5348Z" fill="#90959C"/>
<path fill-rule="evenodd" clip-rule="evenodd" d="M84.1634 57.707L83.2194 55.6305H83.1912L82.2663 57.707H84.1634ZM80.0863 59.717L83.0213 53.3657C83.0498 53.309 83.0971 53.2617 83.1819 53.2617H83.276C83.3706 53.2617 83.4085 53.309 83.4366 53.3657L86.3435 59.717C86.4001 59.8397 86.3247 59.9624 86.1833 59.9624H85.3619C85.2204 59.9624 85.1544 59.9058 85.0884 59.7737L84.6261 58.7546H81.804L81.3414 59.7737C81.3039 59.8683 81.2187 59.9624 81.0679 59.9624H80.2469C80.1054 59.9624 80.0296 59.8397 80.0863 59.717Z" fill="#90959C"/>
<path fill-rule="evenodd" clip-rule="evenodd" d="M88.3261 54.4883H86.8822C86.7783 54.4883 86.7029 54.4035 86.7029 54.3089V53.5348C86.7029 53.4406 86.7783 53.3555 86.8822 53.3555H91.0063C91.1102 53.3555 91.1857 53.4406 91.1857 53.5348V54.3089C91.1857 54.4035 91.1102 54.4883 91.0063 54.4883H89.5621V59.7827C89.5621 59.8768 89.4773 59.962 89.3831 59.962H88.5054C88.4109 59.962 88.3261 59.8768 88.3261 59.7827V54.4883Z" fill="#90959C"/>
<path fill-rule="evenodd" clip-rule="evenodd" d="M93.9985 54.4883H92.5546C92.4507 54.4883 92.3752 54.4035 92.3752 54.3089V53.5348C92.3752 53.4406 92.4507 53.3555 92.5546 53.3555H96.6787C96.7826 53.3555 96.858 53.4406 96.858 53.5348V54.3089C96.858 54.4035 96.7826 54.4883 96.6787 54.4883H95.2348V59.7827C95.2348 59.8768 95.15 59.962 95.0555 59.962H94.1778C94.0833 59.962 93.9985 59.8768 93.9985 59.7827V54.4883Z" fill="#90959C"/>
<path fill-rule="evenodd" clip-rule="evenodd" d="M98.7839 53.5348C98.7839 53.4403 98.8594 53.3555 98.9633 53.3555H102.804C102.908 53.3555 102.984 53.4403 102.984 53.5348V54.3089C102.984 54.4031 102.908 54.4883 102.804 54.4883H100.011V56.0361H102.342C102.436 56.0361 102.521 56.1209 102.521 56.2154V56.9985C102.521 57.1024 102.436 57.1779 102.342 57.1779H100.011V58.8296H102.804C102.908 58.8296 102.984 58.9144 102.984 59.0089V59.7827C102.984 59.8768 102.908 59.962 102.804 59.962H98.9633C98.8594 59.962 98.7839 59.8768 98.7839 59.7827V53.5348Z" fill="#90959C"/>
<path fill-rule="evenodd" clip-rule="evenodd" d="M107.864 56.3663C108.364 56.3663 108.798 55.9321 108.798 55.4034C108.798 54.9033 108.364 54.4883 107.864 54.4883H106.325V56.3663H107.864ZM105.089 53.5348C105.089 53.4406 105.165 53.3555 105.268 53.3555H107.968C109.1 53.3555 110.025 54.2616 110.025 55.3847C110.025 56.2529 109.449 56.9606 108.628 57.2912L109.921 59.6885C109.987 59.8108 109.921 59.962 109.76 59.962H108.769C108.685 59.962 108.637 59.9147 108.619 59.8768L107.363 57.376H106.316V59.7827C106.316 59.8768 106.231 59.962 106.136 59.962H105.268C105.165 59.962 105.089 59.8768 105.089 59.7827V53.5348Z" fill="#90959C"/>
<path fill-rule="evenodd" clip-rule="evenodd" d="M113.225 56.7812L111.073 53.629C110.997 53.5063 111.073 53.3555 111.224 53.3555H112.186C112.262 53.3555 112.309 53.4027 112.337 53.4403L113.848 55.6109L115.357 53.4403C115.386 53.4027 115.433 53.3555 115.509 53.3555H116.481C116.632 53.3555 116.707 53.5063 116.632 53.629L114.452 56.7719V59.7823C114.452 59.8768 114.366 59.9616 114.272 59.9616H113.404C113.3 59.9616 113.225 59.8768 113.225 59.7823V56.7812Z" fill="#90959C"/>
<path fill-rule="evenodd" clip-rule="evenodd" d="M124.362 53.2617C125.315 53.2617 126.004 53.5638 126.646 54.1394C126.731 54.2148 126.731 54.3281 126.655 54.4039L126.079 54.9982C126.013 55.0737 125.919 55.0737 125.843 54.9982C125.447 54.6489 124.919 54.4414 124.39 54.4414C123.182 54.4414 122.285 55.4511 122.285 56.6406C122.285 57.8203 123.191 58.8206 124.399 58.8206C124.966 58.8206 125.447 58.6034 125.843 58.2826C125.919 58.2165 126.023 58.2259 126.079 58.2826L126.664 58.8867C126.74 58.9527 126.721 59.0754 126.655 59.1415C126.013 59.7643 125.201 60.0566 124.362 60.0566C122.474 60.0566 120.955 58.5565 120.955 56.6687C120.955 54.7814 122.474 53.2617 124.362 53.2617Z" fill="#90959C"/>
<path fill-rule="evenodd" clip-rule="evenodd" d="M131.157 58.83C132.347 58.83 133.328 57.8578 133.328 56.6687C133.328 55.4797 132.347 54.4887 131.157 54.4887C129.968 54.4887 128.996 55.4797 128.996 56.6687C128.996 57.8578 129.968 58.83 131.157 58.83ZM131.157 53.2617C133.045 53.2617 134.555 54.7814 134.555 56.6687C134.555 58.5565 133.045 60.057 131.157 60.057C129.27 60.057 127.77 58.5565 127.77 56.6687C127.77 54.7814 129.27 53.2617 131.157 53.2617Z" fill="#90959C"/>
<path fill-rule="evenodd" clip-rule="evenodd" d="M136.858 53.4036C136.868 53.3281 136.924 53.2617 137.028 53.2617H137.18C137.255 53.2617 137.311 53.2996 137.34 53.3563L139.416 57.8109H139.444L141.521 53.3563C141.549 53.2996 141.596 53.2617 141.681 53.2617H141.832C141.936 53.2617 141.993 53.3281 142.002 53.4036L143.116 59.7456C143.144 59.8776 143.068 59.9628 142.946 59.9628H142.087C142.002 59.9628 141.927 59.887 141.908 59.821L141.351 56.2444H141.322L139.671 59.9531C139.652 60.0097 139.595 60.057 139.511 60.057H139.341C139.256 60.057 139.208 60.0097 139.18 59.9531L137.51 56.2444H137.481L136.934 59.821C136.924 59.887 136.849 59.9628 136.764 59.9628H135.915C135.792 59.9628 135.717 59.8776 135.735 59.7456L136.858 53.4036Z" fill="#90959C"/>
<path fill-rule="evenodd" clip-rule="evenodd" d="M147.297 56.4132C147.826 56.4132 148.27 55.9884 148.27 55.4316C148.27 54.9126 147.826 54.516 147.297 54.516H146.202V56.4132H147.297ZM144.975 53.5348C144.975 53.4403 145.051 53.3555 145.155 53.3555H147.373C148.533 53.3555 149.487 54.2992 149.487 55.441C149.487 56.6113 148.533 57.5647 147.382 57.5647H146.202V59.7823C146.202 59.8768 146.118 59.9616 146.023 59.9616H145.155C145.051 59.9616 144.975 59.8768 144.975 59.7823V53.5348Z" fill="#90959C"/>
<path fill-rule="evenodd" clip-rule="evenodd" d="M153.98 57.707L153.036 55.6305H153.007L152.082 57.707H153.98ZM149.902 59.717L152.837 53.3657C152.866 53.309 152.913 53.2617 152.998 53.2617H153.092C153.187 53.2617 153.225 53.309 153.253 53.3657L156.16 59.717C156.216 59.8397 156.141 59.9624 155.999 59.9624H155.178C155.037 59.9624 154.971 59.9058 154.905 59.7737L154.442 58.7546H151.62L151.158 59.7737C151.12 59.8683 151.035 59.9624 150.884 59.9624H150.063C149.922 59.9624 149.846 59.8397 149.902 59.717Z" fill="#90959C"/>
<path fill-rule="evenodd" clip-rule="evenodd" d="M157.586 53.4317C157.586 53.3371 157.67 53.2617 157.765 53.2617H158.001L161.927 57.4331H161.936V53.5353C161.936 53.4411 162.012 53.3559 162.116 53.3559H162.984C163.078 53.3559 163.163 53.4411 163.163 53.5353V59.887C163.163 59.9812 163.078 60.0566 162.984 60.0566H162.757L158.813 55.7247H158.803V59.7831C158.803 59.8773 158.727 59.9624 158.624 59.9624H157.765C157.67 59.9624 157.586 59.8773 157.586 59.7831V53.4317Z" fill="#90959C"/>
<path fill-rule="evenodd" clip-rule="evenodd" d="M166.524 56.7812L164.372 53.629C164.296 53.5063 164.372 53.3555 164.523 53.3555H165.485C165.561 53.3555 165.608 53.4027 165.636 53.4403L167.147 55.6109L168.656 53.4403C168.685 53.4027 168.732 53.3555 168.808 53.3555H169.779C169.931 53.3555 170.006 53.5063 169.931 53.629L167.751 56.7719V59.7823C167.751 59.8768 167.665 59.9616 167.571 59.9616H166.703C166.599 59.9616 166.524 59.8768 166.524 59.7823V56.7812Z" fill="#90959C"/>
<path fill-rule="evenodd" clip-rule="evenodd" d="M173.717 32.2849C173.823 32.2849 173.897 32.2061 173.897 32.1052C173.897 31.9998 173.823 31.9255 173.717 31.9255H173.371V32.2849H173.717ZM173.003 31.6403C173.003 31.5964 173.038 31.557 173.086 31.557H173.766C174.038 31.557 174.305 31.7589 174.305 32.1007C174.305 32.39 174.13 32.5217 173.994 32.5874L174.196 33.0436C174.222 33.1052 174.182 33.1618 174.121 33.1618H173.884C173.849 33.1618 173.818 33.131 173.805 33.1007L173.612 32.6095H173.384V33.0785C173.384 33.1224 173.349 33.1618 173.301 33.1618H173.086C173.038 33.1618 173.003 33.1224 173.003 33.0785V31.6403ZM173.59 33.5959C174.274 33.5959 174.823 33.0436 174.823 32.3637C174.823 31.6801 174.274 31.1315 173.59 31.1315C172.911 31.1315 172.358 31.6801 172.358 32.3637C172.358 33.0436 172.911 33.5959 173.59 33.5959ZM173.59 30.7852C174.459 30.7852 175.169 31.4955 175.169 32.3637C175.169 33.232 174.459 33.9382 173.59 33.9382C172.722 33.9382 172.016 33.232 172.016 32.3637C172.016 31.4955 172.722 30.7852 173.59 30.7852Z" fill="#00000B"/>
</g>
<defs>
<clipPath id="clip0_3318_8066">
<rect width="176" height="61" fill="white"/>
</clipPath>
</defs>
</svg>
