<svg width="164" height="30" viewBox="0 0 164 30" fill="none" xmlns="http://www.w3.org/2000/svg">
<g clip-path="url(#clip0_3322_8215)">
<path d="M87.8243 8.17708H87.6403C87.4299 8.15104 87.2195 8.15104 87.0092 8.15104H81.5662V0H75.2555V8.09896H65.6579V0H59.2946V8.09896L51.9321 8.125C51.7217 8.125 51.5113 8.125 51.301 8.15104H51.1169C47.0675 8.59375 43.9385 12.0052 43.9385 16.0677V29.5833H50.2492V16.0417C50.2492 15.2344 50.854 14.5313 51.6691 14.375H59.3209V21.6406C59.3209 25.7292 62.4499 29.1406 66.5519 29.5313H66.736C66.9463 29.5573 67.1567 29.5573 67.3671 29.5573H73.8881V23.3333H67.0515C66.2364 23.2031 65.6316 22.5 65.6316 21.6667V14.401H75.2555V29.5833H81.5662V14.4271H87.2984C88.1136 14.5573 88.7183 15.2604 88.7183 16.0938V29.6094H95.0291V16.0677C95.0291 12.0052 91.9263 8.59375 87.8243 8.17708Z" fill="white"/>
<path d="M146.751 0.0253906H140.44V29.6087H146.751V0.0253906Z" fill="white"/>
<path d="M128.344 7.73438C122.507 7.73438 117.748 12.4479 117.748 18.2292V19.5313C117.748 25.3385 122.507 30.026 128.344 30.026C134.182 30.026 138.941 25.3385 138.941 19.5313V18.2292C138.915 12.4219 134.182 7.73438 128.344 7.73438ZM132.63 19.5052C132.63 21.849 130.711 23.75 128.344 23.75C125.978 23.75 124.058 21.849 124.058 19.5052V18.2031C124.058 15.8594 125.978 13.9583 128.344 13.9583C130.711 13.9583 132.63 15.8594 132.63 18.2031V19.5052Z" fill="white"/>
<path d="M112.699 8.125L106.757 21.1458L100.84 8.125H93.8984L102.707 27.4219L102.733 27.4479C103.759 29.6615 106.388 30.599 108.623 29.5833C109.57 29.1406 110.359 28.3854 110.78 27.4479L119.667 8.125H112.699Z" fill="white"/>
<path d="M11.7537 8.125H8.01988C3.60237 8.125 0.0262947 11.6927 0 16.0677V29.5573H6.31073V16.0938C6.31073 15.1562 7.07327 14.401 8.01988 14.401H11.7011C12.6477 14.401 13.4103 15.1562 13.4103 16.0938V29.5573H19.721V16.0677C19.721 11.7188 16.1449 8.17708 11.7537 8.125Z" fill="white"/>
<path d="M31.8429 7.73438C26.0054 7.73438 21.2461 12.4479 21.2461 18.2292V19.5313C21.2461 25.3385 26.0054 30.026 31.8429 30.026C37.6803 30.026 42.4396 25.3385 42.4396 19.5313V18.2292C42.4396 12.4219 37.6803 7.73438 31.8429 7.73438ZM36.1289 19.5052C36.1289 21.849 34.2094 23.75 31.8429 23.75C29.4763 23.75 27.5568 21.849 27.5568 19.5052V18.2031C27.5568 15.8594 29.4763 13.9583 31.8429 13.9583C34.2094 13.9583 36.1289 15.8594 36.1289 18.2031V19.5052Z" fill="white"/>
<path d="M155.007 21.666V14.4004H164V8.15039H155.007V0.0253906H148.697V21.3535V21.666C148.697 25.7546 151.826 29.166 155.928 29.5566H156.112C156.322 29.5827 156.532 29.5827 156.716 29.5827H164V23.3327H156.427C155.612 23.2025 155.007 22.4993 155.007 21.666Z" fill="white"/>
</g>
<defs>
<clipPath id="clip0_3322_8215">
<rect width="164" height="30" fill="white"/>
</clipPath>
</defs>
</svg>
