<svg width="67" height="46" viewBox="0 0 67 46" fill="none" xmlns="http://www.w3.org/2000/svg">
<g clip-path="url(#clip0_3350_4022)">
<path d="M47.173 22.9985C44.4494 27.3787 39.2417 31.5577 33.5669 31.5417C33.0057 31.5417 32.4558 31.5097 31.9147 31.4459C30.6637 31.377 29.426 31.1519 28.2297 30.7757C20.1372 28.2361 15.604 19.5542 18.1121 11.3796C20.6195 3.20569 29.2145 -1.36556 37.3069 1.17402C38.2459 1.47014 39.1551 1.8554 40.0223 2.32466C38.9187 1.65518 37.7394 1.12235 36.5099 0.737659C28.0211 -1.92523 19.0103 2.86835 16.3846 11.439C13.7552 20.0104 18.5046 29.1171 26.9934 31.7755C28.9341 32.3852 30.9718 32.6168 32.9981 32.4579C37.1654 32.256 40.918 30.4466 43.6644 27.633L43.6568 27.6451C45.2306 26.0894 46.9101 23.4783 47.2008 22.962L47.1768 22.9985H47.173Z" fill="#B7D88A"/>
<path d="M47.1376 23.0485C46.9112 23.3986 46.6704 23.739 46.4158 24.0688C45.1466 25.7311 43.5796 27.1377 41.7966 28.2152C41.0708 28.6958 40.3005 29.1039 39.4965 29.4335C39.4965 29.4335 39.4693 29.445 39.4648 29.445C38.841 29.6955 38.2013 29.9018 37.5459 30.0565C37.3619 30.0999 37.3619 30.0999 37.1887 30.1318C36.5377 30.2628 35.8582 30.3497 35.1876 30.3817C33.4678 30.508 31.7398 30.3076 30.0931 29.7907C22.7863 27.5009 18.6967 19.6598 20.9608 12.2755C23.2256 4.8951 30.9843 0.767877 38.2923 3.05765C39.135 3.32312 39.9508 3.66859 40.729 4.08946C39.7136 3.47002 38.6278 2.97705 37.4953 2.62129C29.7954 0.208849 21.6163 4.55393 19.2302 12.3311C16.8441 20.1083 21.153 28.3698 28.8567 30.7867C29.1317 30.8736 29.4066 30.9452 29.6816 31.0167C30.9173 31.3579 32.2206 31.5444 33.5663 31.5444C39.2493 31.5444 44.4962 27.354 47.1964 22.9654L47.1376 23.053V23.0485Z" fill="#6BA429"/>
<path d="M47.1927 22.9611C49.0339 19.9852 50.0225 16.4061 51.0705 12.4782H51.6829L52.6285 12.4539C54.7479 12.323 56.9962 12.498 57.687 10.8548L58.0562 9.93481L57.2243 10.4702C57.0828 10.5616 56.4077 10.7679 53.2094 10.7832L52.0002 10.7398L51.5218 10.7079C52.0243 8.80781 52.6797 6.39089 53.1544 5.19681C53.5077 4.30364 53.9192 3.56572 54.3743 3.00222C54.9438 2.32756 55.8502 1.99406 56.5177 2.38314C56.7768 2.59397 56.804 2.8195 56.6865 3.13319C56.6359 3.268 56.5645 3.41431 56.4703 3.58936C56.196 4.05383 56.0784 4.36753 56.0942 4.60519C56.1998 5.29967 56.8356 5.53414 57.4595 5.42681C57.9342 5.34375 58.3975 5.06136 58.6137 4.63331C59.1591 3.64942 59.1667 2.44256 58.4367 1.681C57.9424 1.16094 57.1061 0.84725 55.8546 0.954584C51.2152 1.27594 50.2228 6.83556 49.1161 10.5494C48.8493 10.5334 48.5902 10.5175 48.4208 10.5015C47.7344 10.4696 47.4209 10.6248 47.2875 11.2995C47.1693 11.6445 46.9733 12.4539 47.6642 12.4859C47.7622 12.4859 48.1743 12.4859 48.6294 12.4897C48.484 13.0296 48.2798 13.7873 48.1427 14.2594L47.5852 16.2796C47.4796 16.5888 47.2167 17.2954 46.8551 17.9062C46.513 18.4871 46.0976 19.0206 45.6194 19.4932C45.3369 19.7711 45.0348 20.0209 44.7124 20.2471C44.6498 20.295 44.5083 20.3902 44.3319 20.4816C44.2864 20.506 44.2393 20.5273 44.191 20.5455C44.0395 20.6083 43.879 20.6456 43.7156 20.656C43.6531 20.656 43.5861 20.656 43.5235 20.6439C43.0254 20.5608 42.6367 20.196 42.6797 19.6958C42.6797 19.3904 42.7151 19.0454 42.7934 18.6563C42.911 18.0813 43.1234 17.4021 43.4761 16.5735C43.5235 16.4457 43.5747 16.3148 43.6252 16.1838C43.6802 16.0451 43.7314 15.9027 43.7864 15.7596C43.9786 15.2516 44.1789 14.7278 44.3749 14.2077C44.4065 14.1208 44.4419 14.0371 44.4735 13.9502C44.5715 13.6723 44.6656 13.434 44.756 13.2123C44.964 12.6961 45.1327 12.2636 45.1365 11.6368C45.1365 11.0893 44.921 10.1725 43.4843 10.1725C42.1342 10.1725 40.7999 10.6804 39.5123 11.6841C39.4264 11.7518 39.3398 11.8189 39.2532 11.8904C39.2614 11.7991 39.2658 11.716 39.2658 11.633C39.2576 10.5692 38.5351 10.1686 37.582 10.1648H37.5775C36.259 10.1603 34.505 10.9066 33.6258 11.6841C33.6576 11.5582 33.676 11.4293 33.6808 11.2995C33.7042 10.49 33.0095 10.2798 31.9856 10.2996H30.3169L30.6272 10.7718C30.6272 10.8312 30.6317 10.8906 30.6317 10.9506V10.9545C30.6317 11.1251 30.619 11.3033 30.5918 11.4899C30.5369 11.9147 30.4155 12.3869 30.2347 12.9421C30.1721 13.1401 30.0976 13.3548 30.0192 13.5771C29.9604 13.7432 29.8972 13.9183 29.827 14.101C29.7638 14.2716 29.6975 14.446 29.6267 14.6326C29.0224 16.2636 27.5819 19.6363 27.221 21.3383H30.3605C30.4193 21.1243 30.4743 20.9294 30.5331 20.7474C30.5451 20.7039 30.5609 20.6643 30.5723 20.6202L30.6544 20.3544C30.71 20.1839 30.765 20.0209 30.82 19.8625L30.9022 19.6242C31.0552 19.1757 31.2081 18.7119 31.3813 18.1087C31.3889 18.0845 31.3965 18.0608 31.4003 18.041L31.4951 17.7318L31.5419 17.5849C31.5735 17.4814 31.6089 17.3785 31.6436 17.2718C31.6872 17.1364 31.734 17.0016 31.7814 16.8667C32.2523 15.5411 32.9078 14.1368 33.8736 13.1721C33.94 13.105 34.0063 13.0411 34.0771 12.9817C34.6106 12.5019 35.2351 12.1607 35.9689 12.0253C36.0903 12.0061 36.1415 12.1051 36.1491 12.2636C36.1491 12.323 36.1491 12.3945 36.1377 12.4699C36.1248 12.5671 36.109 12.6638 36.0903 12.76C36.0511 12.9542 35.9923 13.1522 35.9449 13.319C35.9297 13.3669 35.9177 13.4148 35.9019 13.4538C35.8905 13.4858 35.883 13.5132 35.8747 13.5413C35.8273 13.6883 35.7768 13.8352 35.7294 13.9777C34.9955 16.1403 34.2143 17.9854 33.0525 21.3466H36.2673C36.3026 21.1997 36.3456 21.0368 36.3924 20.8624C36.4082 20.8029 36.424 20.7435 36.4398 20.6796C36.4752 20.557 36.5106 20.426 36.5454 20.2912C36.5656 20.2235 36.5852 20.1558 36.6048 20.0848C36.6282 19.9973 36.6553 19.9098 36.6794 19.8229C36.711 19.7117 36.7457 19.5967 36.7773 19.4817C36.7887 19.4459 36.7963 19.4102 36.8089 19.3782C37.2994 17.7235 37.9972 15.704 38.7475 14.4971C38.9909 14.1406 39.3398 13.6959 39.7285 13.2915C39.8031 13.2161 39.8777 13.1408 39.956 13.0692C40.023 13.0053 40.0932 12.9421 40.1646 12.8788C40.3021 12.7592 40.4474 12.6491 40.5995 12.5491C40.7215 12.4699 40.8428 12.3984 40.9648 12.3428C41.0786 12.2872 41.1728 12.2476 41.2556 12.2086C41.2986 12.1882 41.3416 12.1722 41.3807 12.1562C41.4395 12.1326 41.4907 12.1128 41.5375 12.0968C41.6911 12.0457 41.7733 12.0329 41.8087 12.0329C42.1222 11.9978 41.9028 12.6603 41.6241 13.4385C41.1298 14.6089 40.7487 15.6286 40.4781 16.5294C40.3644 16.9179 40.2664 17.2833 40.1918 17.6321C40.0964 18.061 40.0309 18.4961 39.9959 18.9342C39.9815 19.1308 39.9747 19.328 39.9756 19.5252C39.9756 19.6127 39.9794 19.6996 39.9876 19.7833C40.0932 20.8029 40.8074 21.6444 41.7537 21.9376C41.9888 22.013 42.2404 22.0526 42.4995 22.0526C43.7043 22.1242 44.9406 21.422 45.9216 20.5257C46.1491 20.3187 46.3609 20.1008 46.5536 19.8785C46.4475 20.1519 46.3293 20.4458 46.1883 20.7595C46.0821 20.9972 45.9608 21.2431 45.8312 21.4974C45.67 21.8105 45.4937 22.1318 45.2977 22.4653C45.0381 22.8986 44.7591 23.3196 44.4615 23.7271C44.4261 23.7789 44.3907 23.8268 44.3553 23.8779L44.2023 24.0804C44.1789 24.1124 44.1556 24.1443 44.1277 24.1763C43.995 24.3501 43.8534 24.5168 43.7118 24.6836C41.4357 27.2985 38.0996 28.8702 34.3792 28.9373C33.3079 28.9571 31.6676 28.7111 31.0084 28.453C25.0858 26.1479 21.8717 19.4255 23.7945 13.1644C25.8159 6.57744 32.7384 2.89489 39.2614 4.93869C40.023 5.177 40.7405 5.48622 41.4199 5.85103C40.4936 5.28023 39.5011 4.82724 38.465 4.50233C31.5501 2.33586 24.2066 6.24011 22.0639 13.2238C19.9211 20.2075 23.7907 27.6282 30.7063 29.7947C32.8012 30.4547 35.0271 30.5692 37.1774 30.1275C37.2324 30.1199 37.3386 30.0956 37.3386 30.0956C37.3386 30.0956 37.4682 30.0681 37.5346 30.0483C39.0495 29.6949 40.49 29.0714 41.7884 28.207C43.9215 26.9165 45.7413 25.1593 47.1143 23.0646L47.1851 22.9573L47.1933 22.9618L47.1927 22.9611Z" fill="#006934"/>
<path d="M5.46737 43.5234L8.63028 37.3613L11.0714 37.3652L9.54047 45.9997H8.069L9.36412 38.6985L5.7379 45.9997H4.3328L3.39417 38.6909L2.09146 45.9959H0.623779L2.15846 37.3652H4.57994L5.46674 43.5241L5.46737 43.5234ZM37.3733 42.5082H34.8108L34.1908 45.9991H32.6327L34.163 37.3645H38.4446L38.1981 38.7931H35.4701L35.058 41.1027H37.6406L37.3815 42.5031L37.3733 42.5082ZM15.7803 39.2659H12.1775L11.0006 45.8886H14.678L14.8663 44.5514H12.7078L12.9669 43.1152H14.8537L15.0263 41.8016H13.1932L13.4094 40.6031H15.6033L15.7803 39.2659ZM17.6095 45.9161L18.7947 39.2345H17.3188L16.1305 45.9161H17.6095ZM29.8067 39.7425C29.5997 39.5356 29.3468 39.3818 29.0691 39.294C28.7865 39.1981 28.4572 39.1509 28.0919 39.1509C27.6684 39.1509 27.2797 39.2186 26.9415 39.3534C26.6138 39.4826 26.312 39.671 26.0509 39.9092C25.8 40.1392 25.5838 40.4088 25.4075 40.7104C25.2305 41.0081 25.0895 41.3256 24.9795 41.6547C24.8721 41.9818 24.7934 42.3179 24.7444 42.659C24.697 42.9835 24.6721 43.311 24.6698 43.6391C24.6698 44.0275 24.7204 44.3731 24.819 44.6664C24.9208 44.9641 25.0737 45.2184 25.2741 45.4164C25.4745 45.6145 25.7254 45.7659 26.0161 45.8611C26.2987 45.9525 26.6242 45.9997 26.9895 45.9997C27.4206 45.9997 27.8131 45.9282 28.1545 45.7895C28.4836 45.6571 28.7867 45.4663 29.0495 45.2261C29.3004 44.9961 29.5166 44.722 29.6891 44.4166C29.8617 44.115 30.0033 43.7975 30.1088 43.4685C30.215 43.1426 30.2896 42.8098 30.3364 42.4763C30.3838 42.1466 30.4072 41.8297 30.4072 41.5397C30.4072 41.1467 30.3566 40.7979 30.258 40.5047C30.1659 40.2208 30.0116 39.9616 29.8067 39.7463V39.7425ZM27.1457 44.607C26.9655 44.607 26.8126 44.5833 26.6906 44.5316C26.5837 44.4884 26.4894 44.4188 26.4162 44.3291C26.34 44.2313 26.2863 44.1176 26.2589 43.9962C26.2211 43.8322 26.2029 43.6643 26.2045 43.4959C26.2045 43.3375 26.2159 43.1509 26.2393 42.9363C26.2633 42.7261 26.3025 42.5037 26.3575 42.2821C26.4125 42.0597 26.4864 41.8374 26.5768 41.6234C26.6672 41.4125 26.7772 41.2266 26.9067 41.0637C27.0325 40.9046 27.1849 40.7781 27.358 40.6784C27.5224 40.5832 27.719 40.536 27.9389 40.536C28.1159 40.536 28.2682 40.5596 28.3864 40.6114C28.5002 40.6586 28.5906 40.7264 28.6608 40.8177C28.7315 40.9091 28.7865 41.0241 28.8181 41.1589C28.8535 41.3058 28.8731 41.4719 28.8731 41.6547C28.8731 41.8176 28.8611 42.0124 28.8377 42.222C28.8137 42.4328 28.7745 42.6545 28.7195 42.8769C28.6645 43.0992 28.5906 43.3177 28.5002 43.5317C28.4156 43.7312 28.3046 43.9182 28.1703 44.0876C28.0451 44.2422 27.8959 44.3687 27.7227 44.4683C27.5454 44.5633 27.347 44.611 27.1463 44.607H27.1457ZM21.7534 39.2345H20.282L19.0968 45.9161H20.5683L21.0512 43.158L22.1422 45.9161H23.8102L22.3501 42.4322L25.0345 39.2339H23.2097L21.3261 41.6547L21.7534 39.2345ZM44.1984 39.2345H42.7383L42.0045 43.3375C41.9653 43.5439 41.9097 43.7298 41.8319 43.8933C41.7626 44.0421 41.6683 44.1777 41.5532 44.2939C41.447 44.3961 41.3256 44.4798 41.1916 44.5316C41.048 44.5879 40.8951 44.6161 40.741 44.6146C40.5798 44.6146 40.4464 44.591 40.3402 44.5437C40.244 44.5029 40.1622 44.4339 40.1051 44.3457C40.0363 44.2315 39.9957 44.1022 39.9869 43.9687C39.9679 43.8058 39.9831 43.6033 40.0261 43.3688L40.7644 39.2345H39.2885L38.5628 43.3094C38.4838 43.7374 38.468 44.1227 38.5192 44.4524C38.5698 44.7935 38.6842 45.0791 38.8605 45.3091C39.0375 45.5391 39.2809 45.718 39.5792 45.833C39.87 45.9442 40.2189 46.0036 40.619 46.0036C40.9919 46.0036 41.3408 45.948 41.6512 45.8413C41.9611 45.7361 42.2468 45.5688 42.4912 45.3494C42.7345 45.1309 42.9387 44.8612 43.0992 44.5399C43.2604 44.2224 43.3774 43.8531 43.4526 43.4365L44.2022 39.2384L44.1984 39.2345ZM50.0104 39.2659H45.3874L45.199 40.6471H46.733L45.8001 45.9161H47.2792L48.2172 40.6465H49.8226L50.011 39.2652L50.0104 39.2659ZM53.354 45.9161H54.8457L53.9703 39.2345H52.3181L49.0648 45.9161H50.5995L51.0666 44.9194H53.2409L53.3585 45.9116L53.354 45.9161ZM51.71 43.5439L52.7928 41.2266L53.0715 43.5439H51.71ZM64.8844 45.9122H66.3761L65.5006 39.2301H63.8484L60.5951 45.9129H62.1291L62.5969 44.9162H64.7706L64.8882 45.9084L64.8844 45.9122ZM63.2403 43.5394L64.3231 41.2221L64.6018 43.5394H63.2403ZM56.9607 39.2659L55.7875 45.8886H57.9069C58.2362 45.8886 58.5307 45.8566 58.7817 45.7895C59.0179 45.7297 59.245 45.6377 59.4567 45.5161C59.6527 45.4011 59.8259 45.2618 59.963 45.1034C60.3461 44.6844 60.558 44.1342 60.5559 43.5637C60.5559 43.3771 60.5319 43.2027 60.4851 43.0519C60.4412 42.9046 60.3721 42.7663 60.281 42.643C60.192 42.5271 60.0828 42.4288 59.9586 42.353C59.9472 42.3453 59.9358 42.3415 59.9238 42.3338C60.121 42.1971 60.2891 42.0217 60.4181 41.8182C60.5167 41.663 60.5951 41.4924 60.6457 41.3058C60.6985 41.1145 60.7251 40.9167 60.7247 40.7181C60.7247 40.4721 60.6811 40.2581 60.5951 40.0753C60.5084 39.8887 60.3743 39.7286 60.2064 39.6115C60.0242 39.4845 59.8187 39.3954 59.6021 39.3496C59.3365 39.2901 59.065 39.2622 58.793 39.2665H56.9531H56.9607V39.2659ZM58.0712 44.575H57.467L57.7223 43.1228H58.3386C58.5977 43.1228 58.7779 43.1707 58.8841 43.2621C58.982 43.349 59.0332 43.4685 59.0332 43.6269C59.0332 43.7457 59.0136 43.8691 58.9782 43.9847C58.9428 44.0952 58.8834 44.1942 58.8095 44.2818C58.7285 44.3721 58.6294 44.444 58.5187 44.4926C58.4012 44.5475 58.252 44.575 58.0712 44.575ZM58.3936 41.8534H57.9537L58.185 40.5558H58.6641C58.7817 40.5558 58.8796 40.5679 58.9504 40.5877C59.0073 40.6035 59.0606 40.6304 59.1072 40.6669C59.1444 40.6954 59.1729 40.7339 59.1894 40.7781C59.2096 40.8254 59.221 40.881 59.221 40.9487C59.221 41.0477 59.2058 41.1551 59.1742 41.2662C59.1426 41.3729 59.0958 41.4687 59.0288 41.5601C58.9662 41.647 58.8796 41.7141 58.7779 41.7697C58.6799 41.8214 58.5465 41.8495 58.3892 41.8495L58.3936 41.8534Z" fill="black"/>
</g>
<defs>
<clipPath id="clip0_3350_4022">
<rect width="67" height="46" fill="white"/>
</clipPath>
</defs>
</svg>
