<svg width="160" height="29" viewBox="0 0 160 29" fill="none" xmlns="http://www.w3.org/2000/svg">
<g clip-path="url(#clip0_3308_7897)">
<mask id="mask0_3308_7897" style="mask-type:luminance" maskUnits="userSpaceOnUse" x="38" y="1" width="123" height="28">
<path d="M38.5354 1.7793H160.065V28.6702H38.5354V1.7793Z" fill="white"/>
</mask>
<g mask="url(#mask0_3308_7897)">
<mask id="mask1_3308_7897" style="mask-type:luminance" maskUnits="userSpaceOnUse" x="38" y="1" width="123" height="28">
<path d="M38.5354 1.7793H160.065V28.6702H38.5354V1.7793Z" fill="white"/>
</mask>
<g mask="url(#mask1_3308_7897)">
<path d="M103.304 7.05202H105.712V21.6179H103.304V7.05202ZM94.5159 6.72248C92.9536 6.72248 91.5216 7.24975 90.3499 8.23839V7.05202H87.9414V21.6179H90.3499V13.3793C90.3499 11.0066 92.2376 9.16111 94.5159 9.16111C96.7942 9.16111 98.6819 11.0725 98.6819 13.3793V21.6179H101.09V13.3793C101.09 9.68839 98.1611 6.72248 94.5159 6.72248ZM83.1245 6.98611H85.533V21.0247C85.4679 25.177 82.1481 28.5384 78.0472 28.6043C74.7925 28.6702 71.7982 26.4952 70.8869 23.3316H73.4907C74.3369 25.1111 76.0944 26.2316 78.0472 26.1657C80.8462 26.0998 83.0594 23.7929 83.1896 20.9588V19.7725C80.1302 22.6066 75.3784 22.4747 72.5793 19.377C69.7803 16.2793 69.9105 11.4679 72.9699 8.63384C75.834 5.93157 80.3255 5.93157 83.1896 8.63384L83.1245 6.98611ZM83.1245 14.302C83.1245 11.4679 80.8462 9.09521 78.0472 9.09521C75.2482 9.09521 72.9048 11.402 72.9048 14.2361C72.9048 17.0702 75.1831 19.4429 78.0472 19.4429C80.8462 19.4429 83.1245 17.1361 83.1245 14.302ZM46.0212 9.09521C47.974 9.09521 49.7966 10.2816 50.6428 12.0611H53.1815C52.0098 8.04066 47.7787 5.73384 43.808 6.98611C39.8373 8.17248 37.559 12.4566 38.7958 16.477C40.0326 20.4975 44.1986 22.8043 48.1693 21.552C50.5777 20.827 52.4654 18.9157 53.1815 16.477H50.6428C49.4711 19.0475 46.4117 20.1679 43.8731 18.9816C41.3344 17.7952 40.2278 14.6975 41.3995 12.127C42.2457 10.2816 44.0033 9.09521 46.0212 9.09521ZM69.3898 14.302C69.3898 18.5202 66.0049 21.8816 61.904 21.8816C57.738 21.8816 54.4182 18.4543 54.4182 14.302C54.4182 10.1498 57.6729 6.72248 61.8389 6.72248C66.0049 6.72248 69.3898 10.0838 69.3898 14.302ZM66.9813 14.302C66.9813 11.4679 64.703 9.09521 61.904 9.09521C59.105 9.09521 56.7616 11.402 56.7616 14.2361C56.7616 17.0702 59.0399 19.4429 61.8389 19.4429C64.703 19.4429 66.9813 17.1361 66.9813 14.302ZM145.419 6.72248C143.857 6.72248 142.425 7.24975 141.253 8.23839V7.05202H138.845V21.6179H141.253V13.3793C141.253 11.0066 143.141 9.09521 145.419 9.09521C147.762 9.09521 149.65 11.0066 149.65 13.3134V21.552H152.059V13.3793C151.994 9.68839 149.064 6.72248 145.419 6.72248ZM134.028 7.05202H136.436V21.6179H134.028V19.9043C130.968 22.7384 126.216 22.6066 123.417 19.5088C120.618 16.4111 120.749 11.5998 123.808 8.76566C125.175 7.44748 126.998 6.72248 128.885 6.72248C130.773 6.72248 132.596 7.44748 134.028 8.76566V7.05202ZM134.028 14.302C134.028 11.4679 131.749 9.16111 128.885 9.16111C126.086 9.16111 123.808 11.4679 123.808 14.3679C123.808 17.202 126.086 19.5088 128.885 19.5088C131.749 19.4429 134.028 17.1361 134.028 14.302ZM160 9.42475V6.98611H156.42V3.03157H154.011V16.7407C154.011 19.4429 156.159 21.6179 158.828 21.6179H160V19.1793H158.828C157.526 19.1793 156.42 18.0588 156.42 16.7407V9.42475H160ZM104.475 1.7793C103.564 1.7793 102.913 2.5043 102.913 3.36111C102.913 4.28384 103.629 4.94293 104.475 4.94293C105.387 4.94293 106.037 4.21793 106.037 3.36111C106.103 2.5043 105.387 1.7793 104.475 1.7793C104.54 1.7793 104.54 1.7793 104.475 1.7793ZM120.098 7.05202H108.12V9.49066H116.973L108.12 19.1793V21.6179H120.098V19.1793H111.18L120.033 9.49066L120.098 7.05202Z" fill="#000048"/>
</g>
</g>
<mask id="mask2_3308_7897" style="mask-type:luminance" maskUnits="userSpaceOnUse" x="0" y="0" width="34" height="29">
<path d="M0 0H33.9137V29H0V0Z" fill="white"/>
</mask>
<g mask="url(#mask2_3308_7897)">
<mask id="mask3_3308_7897" style="mask-type:luminance" maskUnits="userSpaceOnUse" x="0" y="14" width="21" height="15">
<path d="M0 14.5L9.95932 29L20.2441 22.7386L14.4508 14.5H0Z" fill="white"/>
</mask>
<g mask="url(#mask3_3308_7897)">
<path d="M0 14.5H20.2441V29H0V14.5Z" fill="url(#paint0_linear_3308_7897)"/>
</g>
<mask id="mask4_3308_7897" style="mask-type:luminance" maskUnits="userSpaceOnUse" x="9" y="14" width="25" height="15">
<path d="M9.95923 29H24.1496L33.9137 14.5L9.95923 29Z" fill="white"/>
</mask>
<g mask="url(#mask4_3308_7897)">
<path d="M9.95923 14.5H33.9137V29H9.95923V14.5Z" fill="url(#paint1_linear_3308_7897)"/>
</g>
<mask id="mask5_3308_7897" style="mask-type:luminance" maskUnits="userSpaceOnUse" x="0" y="0" width="21" height="15">
<path d="M9.95932 0L0 14.5H14.4508L20.2441 6.26136L9.95932 0Z" fill="white"/>
</mask>
<g mask="url(#mask5_3308_7897)">
<path d="M0 0H20.2441V14.5H0V0Z" fill="url(#paint2_linear_3308_7897)"/>
</g>
<mask id="mask6_3308_7897" style="mask-type:luminance" maskUnits="userSpaceOnUse" x="9" y="0" width="25" height="15">
<path d="M9.95923 0L33.9137 14.5L24.1496 0H9.95923Z" fill="white"/>
</mask>
<g mask="url(#mask6_3308_7897)">
<path d="M9.95923 0H33.9137V14.5H9.95923V0Z" fill="url(#paint3_linear_3308_7897)"/>
</g>
</g>
</g>
<defs>
<linearGradient id="paint0_linear_3308_7897" x1="0.0047821" y1="21.7337" x2="20.2531" y2="21.7337" gradientUnits="userSpaceOnUse">
<stop stop-color="#3D54CE"/>
<stop offset="1" stop-color="#35CACF"/>
</linearGradient>
<linearGradient id="paint1_linear_3308_7897" x1="9.95444" y1="21.7337" x2="33.9399" y2="21.7337" gradientUnits="userSpaceOnUse">
<stop stop-color="#13457D"/>
<stop offset="1" stop-color="#279698"/>
</linearGradient>
<linearGradient id="paint2_linear_3308_7897" x1="-0.00328618" y1="7.23908" x2="20.2614" y2="7.23908" gradientUnits="userSpaceOnUse">
<stop stop-color="#090086"/>
<stop offset="1" stop-color="#2F96A9"/>
</linearGradient>
<linearGradient id="paint3_linear_3308_7897" x1="9.95444" y1="7.23908" x2="33.9399" y2="7.23908" gradientUnits="userSpaceOnUse">
<stop stop-color="#3B62CA"/>
<stop offset="1" stop-color="#93DFE3"/>
</linearGradient>
<clipPath id="clip0_3308_7897">
<rect width="160" height="29" fill="white"/>
</clipPath>
</defs>
</svg>
