<svg width="143" height="55" viewBox="0 0 143 55" fill="none" xmlns="http://www.w3.org/2000/svg">
<g clip-path="url(#clip0_3308_7829)">
<path d="M21.2756 50.5488H23.4078C24.2001 50.5488 24.6427 51.0467 24.6427 51.663C24.6427 52.2127 24.2906 52.5799 23.8895 52.6662C24.3517 52.7377 24.7283 53.2036 24.7283 53.7409C24.7283 54.4163 24.2783 54.9216 23.4665 54.9216H21.2756V50.5488ZM23.2514 52.3581C23.6426 52.3581 23.8627 52.1215 23.8627 51.7936C23.8627 51.4658 23.6426 51.2218 23.2514 51.2218H22.0361V52.3556H23.2514V52.3581ZM23.2831 54.2462C23.6988 54.2462 23.9458 54.017 23.9458 53.6374C23.9458 53.3096 23.7184 53.0359 23.2831 53.0359H22.0336V54.2487H23.2831V54.2462Z" fill="black"/>
<path d="M29.7433 50.5488L28.5598 52.4246L27.3617 50.5488H26.4912L28.176 53.1074V54.9216H28.9364V53.1074L30.6138 50.5488H29.7433Z" fill="black"/>
<path d="M35.783 50.5488V51.2242H37.0985V54.9216H37.8589V51.2242H39.1696V50.5488H35.783Z" fill="black"/>
<path d="M41.4656 50.5488V54.9216H44.4389V54.2462H42.2285V53.0335H44.3925V52.3605H42.2285V51.2242H44.4389V50.5488H41.4656Z" fill="black"/>
<path d="M49.6669 50.5488L48.5543 52.156L47.4369 50.5488H46.5248L48.0531 52.681L46.4294 54.9216H47.3391L48.5543 53.211L49.772 54.9216H50.6816L49.0605 52.6736L50.5838 50.5488H49.6669Z" fill="black"/>
<path d="M52.5425 50.5488V51.2242H53.8531V54.9216H54.616V51.2242H55.9291V50.5488H52.5425Z" fill="black"/>
<path d="M59.7387 53.2898H58.9831V54.9216H58.2227V50.5488H60.1275C60.9857 50.5488 61.5457 51.1133 61.5457 51.9193C61.5457 52.7254 61.0395 53.1197 60.5187 53.2036L61.5799 54.9216H60.7021L59.7411 53.2898H59.7387ZM60.0248 51.2242H58.9831V52.6144H60.0248C60.4551 52.6144 60.7657 52.3384 60.7657 51.9193C60.7657 51.5003 60.4551 51.2242 60.0248 51.2242Z" fill="black"/>
<path d="M65.9812 50.4766C67.2821 50.4766 68.199 51.433 68.199 52.7394C68.199 54.0458 67.2821 55.0022 65.9812 55.0022C64.6804 55.0022 63.7634 54.0458 63.7634 52.7394C63.7634 51.433 64.6804 50.4766 65.9812 50.4766ZM65.9812 51.1593C65.1034 51.1593 64.5434 51.8347 64.5434 52.7394C64.5434 53.644 65.1034 54.3194 65.9812 54.3194C66.859 54.3194 67.419 53.6366 67.419 52.7394C67.419 51.8421 66.8517 51.1593 65.9812 51.1593Z" fill="black"/>
<path d="M73.5833 50.5488V53.6497L71.3655 50.5488H70.5854V54.9216H71.3459V51.7369L73.6077 54.9216H74.3437V50.5488H73.5833Z" fill="black"/>
<path d="M81.9655 51.1991L82.7773 53.4076H81.1513L81.9655 51.1991ZM81.4912 50.5508L79.7869 54.9236H80.6182L80.9361 54.083H82.9925L83.3104 54.9236H84.1418L82.4399 50.5508H81.4912Z" fill="black"/>
<path d="M88.9808 50.5488L87.6677 54.0909L86.3546 50.5488H85.489L87.1933 54.9216H88.1421L89.8464 50.5488H88.9808Z" fill="black"/>
<path d="M92.7341 50.5488H91.9736V54.9216H92.7341V50.5488Z" fill="black"/>
<path d="M97.0304 51.1991L97.8422 53.4076H96.2161L97.0279 51.1991H97.0304ZM96.556 50.5508L94.8517 54.9236H95.683L96.0009 54.083H98.0549L98.3728 54.9236H99.2066L97.5023 50.5508H96.5535H96.556Z" fill="black"/>
<path d="M100.635 50.5488V51.2242H101.948V54.9216H102.708V51.2242H104.021V50.5488H100.635Z" fill="black"/>
<path d="M107.078 50.5488H106.317V54.9216H107.078V50.5488Z" fill="black"/>
<path d="M111.675 50.4766C112.975 50.4766 113.892 51.433 113.892 52.7394C113.892 54.0458 112.975 55.0022 111.675 55.0022C110.374 55.0022 109.457 54.0458 109.457 52.7394C109.457 51.433 110.374 50.4766 111.675 50.4766ZM111.675 51.1593C110.797 51.1593 110.237 51.8347 110.237 52.7394C110.237 53.644 110.797 54.3194 111.675 54.3194C112.552 54.3194 113.112 53.6366 113.112 52.7394C113.112 51.8421 112.548 51.1593 111.675 51.1593Z" fill="black"/>
<path d="M119.277 50.5488V53.6497L117.059 50.5488H116.279V54.9216H117.039V51.7369L119.304 54.9216H120.037V50.5488H119.277Z" fill="black"/>
<path d="M42.5539 2.21792C42.5539 2.71337 42.1406 3.12995 41.6418 3.12995C41.143 3.12995 40.7224 2.71584 40.7224 2.2056C40.7224 1.69536 41.1332 1.28125 41.6394 1.28125C42.1455 1.28125 42.5539 1.69536 42.5539 2.21546M40.8936 2.20313C40.8936 2.62464 41.2286 2.96973 41.6418 2.96973C42.055 2.96973 42.3827 2.62464 42.3827 2.20313C42.3827 1.78163 42.0526 1.43901 41.6516 1.43901C41.2261 1.43901 40.8936 1.77424 40.8936 2.20313ZM41.4804 2.74049H41.2017V1.66578H41.6809C41.8228 1.66578 41.9034 1.6855 41.9768 1.73726C42.0526 1.79149 42.0991 1.89255 42.0991 1.99115C42.0991 2.11686 42.0355 2.21299 41.9108 2.26722L42.1162 2.74049H41.8105L41.6394 2.31406H41.4829V2.74049H41.4804ZM41.4804 2.12179H41.6222C41.7103 2.12179 41.7298 2.11933 41.7592 2.09961C41.791 2.07742 41.813 2.03059 41.813 1.98869C41.813 1.95171 41.7959 1.91227 41.769 1.89009C41.7396 1.86544 41.7225 1.86051 41.6174 1.86051H41.4804V2.12179Z" fill="black"/>
<path d="M36.3356 0H8.64868V8.92551H24.1268C26.0438 8.92551 28.5061 8.19343 30.4207 6.16726L36.3356 0Z" fill="black"/>
<path d="M8.66333 13.5493H23.0533L17.3144 19.4479C15.6859 21.1044 13.5855 22.571 10.485 22.571H8.66577V13.5469L8.66333 13.5493Z" fill="black"/>
<path d="M26.3128 31.276V16.834L20.3001 23.0037C19.3073 24.1055 17.7571 25.3947 17.7571 28.3452V31.276H26.3153H26.3128Z" fill="black"/>
<path d="M30.9268 31.3103V15.3055C30.9268 13.6466 30.9268 12.1775 32.6506 10.346L39.4532 3.25195V31.3103H30.9268Z" fill="black"/>
<path d="M36.7171 34.0496C35.1962 34.0496 34.0396 34.7028 33.9662 36.2976H35.4187C35.4676 35.7233 35.9542 35.2451 36.6682 35.2451C37.3137 35.2451 37.8541 35.356 37.837 36.1719C37.8247 36.7462 37.1425 36.8695 35.9884 37.047C35.0054 37.1727 33.7266 37.7322 33.3647 38.7527V36.9829C33.3647 35.2944 33.0273 34.1778 31.0564 34.1655C30.4207 34.1655 29.7091 34.4662 29.3473 34.8014H29.2983L29.0807 34.3553H27.484V38.5974C27.2933 37.6385 26.4057 37.3033 25.4423 37.0815C24.3811 36.8251 23.2098 36.7487 23.1951 36.061C23.178 35.3585 23.958 35.3264 24.3664 35.3264C25.029 35.3264 25.5499 35.6814 25.7235 36.3494H27.1759C27.0365 34.6732 25.8164 34.0373 24.4251 34.0373C22.958 34.0373 21.5813 34.7694 21.6155 36.2533C21.6155 37.466 22.5423 37.959 23.623 38.1981C24.963 38.4865 25.7235 38.6911 25.7235 39.2506C25.7235 39.9211 25.0437 40.2095 24.5058 40.2095C23.782 40.2095 23.0851 39.7288 22.7868 38.9795H21.4273C21.4101 37.7371 20.4296 37.3403 19.3415 37.0839C18.2778 36.8276 17.109 36.7512 17.0968 36.0635C17.0797 35.3609 17.8573 35.3289 18.2656 35.3289C18.9454 35.3289 19.4515 35.6839 19.6252 36.3518H21.08C20.9382 34.6757 19.7205 34.0397 18.3243 34.0397C16.8572 34.0397 15.4805 34.7718 15.5123 36.2557C15.527 37.4685 16.4464 37.9614 17.5223 38.2005C18.8671 38.4889 19.6447 38.6935 19.6447 39.2531C19.6447 39.9235 18.9454 40.2119 18.4099 40.2119C17.6812 40.2119 16.9819 39.7313 16.6836 38.9819H15.2605V38.9696H13.6173C13.4119 39.4453 12.8275 39.9728 12.067 39.9728C11.0401 39.9728 10.4557 39.4305 10.4068 38.2351H15.1651C15.2947 36.13 14.3117 34.1728 12.0035 34.1728C9.94951 34.1728 8.54107 35.7332 8.54107 37.7889C8.54107 37.8678 8.54107 37.9467 8.55574 38.0305H6.91257C6.58002 38.9351 6.01274 39.8274 4.42825 39.8274C2.57968 39.8101 1.8828 38.0872 1.8828 36.5121C1.8828 34.937 2.57968 33.1154 4.42825 33.1154C6.10566 33.1154 6.49933 33.9485 6.7194 34.6782H8.50439C8.30144 32.7531 6.65583 31.666 4.42581 31.666C1.86324 31.666 0 33.7045 0 36.5121C0 39.3196 1.73609 41.437 4.42581 41.437C6.60937 41.437 8.0936 40.1947 8.58509 38.4742C8.8565 40.2292 10.1011 41.3902 12.001 41.3902C13.473 41.3902 14.6101 40.769 15.1822 39.2062C15.6859 40.6877 16.8254 41.3902 18.4099 41.3902C19.8012 41.3902 21.1583 40.9095 21.3979 39.4774C21.9359 40.769 23.0264 41.3902 24.496 41.3902C25.9655 41.3902 27.2517 40.9095 27.4865 39.4922V41.2152H29.1785V37.6139C29.1785 36.2261 29.6064 35.6543 30.472 35.6543C31.3376 35.6543 31.5944 36.2113 31.5944 37.3428V41.2152H33.3696V39.8742C33.6386 40.6729 34.4748 41.3285 35.5165 41.3285C36.3381 41.3285 37.3186 41.1708 37.9201 40.5472C37.9372 40.769 37.9837 40.9909 38.0473 41.2152L39.5022 41.2004V36.1127C39.5022 34.4736 38.0815 34.057 36.722 34.057M11.9717 35.5877C12.8911 35.5877 13.2848 36.098 13.4584 37.0544H10.441C10.4557 36.5121 10.8053 35.5877 11.9717 35.5877ZM37.793 38.553C37.793 38.9524 37.7294 40.1306 36.2745 40.1306C35.6779 40.1306 35.0421 39.9556 35.0421 39.2531C35.0421 38.5506 35.5972 38.2474 35.9933 38.1069C36.3405 37.9294 37.4335 37.7692 37.793 37.7692V38.5506V38.553Z" fill="black"/>
<path d="M62.0542 28.741C61.8146 28.8766 61.4869 28.948 61.0688 28.948V29.34H64.2109V15.2874H63.739L60.9294 16.5026L61.0737 16.897C61.394 16.7812 61.6239 16.722 61.7706 16.722C61.9491 16.722 62.0884 16.7688 62.196 16.865C62.3036 16.9586 62.3819 17.1361 62.4332 17.3949C62.4846 17.6513 62.509 18.5386 62.509 19.6676V27.087C62.509 27.7107 62.4674 28.1248 62.3868 28.3294C62.3061 28.5315 62.196 28.6695 62.0591 28.7435M73.5417 18.6003C73.7007 16.971 73.1701 15.4747 71.8815 14.1067C70.6002 12.7362 68.9521 11.8636 66.5362 11.5925C64.1986 11.3312 62.0175 11.839 60.4086 13.0147C58.7972 14.188 57.89 15.7163 57.6822 17.5946C57.5281 19.0021 57.7849 20.2 58.4598 21.1958C59.1346 22.1892 59.8878 22.734 60.7191 22.8301C61.1299 22.8769 61.4894 22.798 61.7608 22.5589C62.02 22.3346 62.0836 22.0142 62.1056 21.7258C62.1227 21.4818 62.0542 21.2846 61.7706 21.0529C61.5138 20.8434 61.0346 20.836 60.3915 20.7078C59.7533 20.5771 59.1567 20.1063 58.8583 19.7046C58.5698 19.3028 58.3962 18.5732 58.6089 17.2372C58.7703 16.2044 59.8095 14.8979 60.6825 14.3532C61.839 13.6285 63.2132 12.9728 65.2868 13.1404C67.194 13.2957 68.6856 13.8947 69.7223 15.0656C70.896 16.3892 71.0232 18.0136 70.8643 19.4433C70.7518 20.4638 70.2921 21.3388 69.4852 22.0709C69.0035 22.5146 68.1281 22.8843 67.3163 22.9336C67.2038 22.9336 67.0938 22.9336 66.9666 22.9336C66.9568 22.9336 66.9446 23.0347 66.9299 23.1357L66.8957 23.3206V23.3255C67.6708 23.6534 68.2454 24.0182 68.6122 24.42C68.9815 24.8242 69.1917 25.2802 69.2529 25.7979C69.3311 26.4486 69.1966 27.0081 68.8494 27.4716C68.5071 27.9276 68.0841 28.1815 67.5828 28.2406C65.8149 28.3811 65.9567 26.9194 66.1768 26.5546C66.4922 26.032 66.9153 26.1405 66.727 25.5538C66.4971 24.8439 65.8907 25.0707 65.8907 25.0707C65.7244 25.088 64.8735 25.3271 65.052 26.8208C65.2232 28.2653 66.2795 29.1305 67.3701 29.4903C67.4239 29.5125 67.4752 29.5248 67.5266 29.5396C67.5583 29.5495 67.5926 29.5594 67.6244 29.5667C68.0718 29.6851 68.5291 29.7245 69.001 29.6801C69.8788 29.5963 70.5708 29.234 71.0672 28.5956C71.566 27.9596 71.7567 27.1634 71.6418 26.207C71.5709 25.6031 71.3704 25.0954 71.0403 24.6813C70.6809 24.2203 70.1356 23.8013 69.424 23.4192C70.0647 23.3255 70.6833 23.116 71.3044 22.66C72.7104 21.6198 73.3706 20.2518 73.5295 18.6027M74.3413 22.591C74.5418 20.8729 75.3585 19.7366 76.7767 19.7366C77.9944 19.7366 78.6571 20.5845 78.8111 22.591H74.3413ZM74.2973 23.4167H80.892C80.8015 20.4712 78.8796 18.9577 77.0873 18.9577C74.7399 18.9577 72.6395 21.0751 72.6395 24.5112C72.6395 27.2325 74.3658 29.5741 77.1313 29.5741C78.9456 29.5741 80.0729 28.391 80.8455 26.387L80.403 26.2292C79.5838 27.5677 78.8772 27.9695 77.882 27.9695C75.7791 27.9695 74.2973 26.0518 74.2973 23.6435V23.4192V23.4167ZM82.8799 22.591C83.0805 20.8729 83.8996 19.7366 85.3154 19.7366C86.5331 19.7366 87.1933 20.5845 87.3498 22.591H82.8799ZM82.8359 23.4167H89.4282C89.3402 20.4712 87.4158 18.9577 85.6235 18.9577C83.2785 18.9577 81.1756 21.0751 81.1756 24.5112C81.1756 27.2325 82.8995 29.5741 85.6675 29.5741C87.4818 29.5741 88.609 28.391 89.3817 26.387L88.9416 26.2292C88.1224 27.5677 87.4158 27.9695 86.4181 27.9695C84.3153 27.9695 82.8335 26.0518 82.8335 23.6435V23.4192L82.8359 23.4167ZM94.2526 18.9577C91.6411 18.9577 89.7167 21.4325 89.7167 24.5112C89.7167 27.5899 91.6631 29.5741 94.0985 29.5741C95.8224 29.5741 97.0401 28.3688 97.8592 26.3623L97.4386 26.2268C96.5559 27.5874 95.7588 27.9005 94.8052 27.9005C92.5947 27.9005 91.399 25.894 91.399 23.5079C91.399 21.1219 92.4382 19.7613 93.876 19.7613C94.9592 19.7613 95.0717 20.5426 95.3798 21.4325C95.5803 22.0339 96.0669 22.347 96.485 22.347C97.0596 22.347 97.5682 21.7677 97.5682 21.0775C97.5682 20.3873 96.7956 18.9601 94.2501 18.9601M107.699 28.9283C106.858 28.8618 106.283 28.5265 106.283 27.3015V22.1498C106.283 20.0546 105.153 18.9626 103.737 18.9626C102.676 18.9626 101.461 19.3866 100.397 20.6338V13.9662L100.111 13.8306L96.9912 14.9029V15.2825C98.1404 15.2356 98.715 15.6399 98.715 17.1558V27.3039C98.715 28.529 98.1404 28.8642 97.1868 28.9308V29.3548H101.921V28.953C101.104 28.8864 100.395 28.4403 100.395 27.1684V21.5705C100.992 20.7916 101.943 20.3676 102.762 20.3676C103.845 20.3676 104.596 21.0356 104.596 22.7315V27.1708C104.596 28.3984 104.002 28.8889 103.158 28.9554V29.3572H107.694V28.9333L107.699 28.9283ZM109.227 23.5079C109.227 21.2106 110.266 19.7613 111.704 19.7613C112.787 19.7613 112.897 20.5426 113.208 21.4325C113.408 22.0339 113.895 22.347 114.315 22.347C114.89 22.347 115.399 21.7677 115.399 21.0775C115.399 20.3873 114.626 18.9601 112.08 18.9601C109.535 18.9601 107.545 21.4349 107.545 24.5136C107.545 27.5923 109.491 29.5766 111.926 29.5766C113.653 29.5766 114.868 28.3713 115.69 26.3648L115.267 26.2292C114.381 27.5899 113.587 27.9029 112.636 27.9029C110.423 27.9029 109.229 25.8965 109.229 23.5104M122.944 19.919C122.812 19.1154 121.993 18.8024 121.284 18.9601C120.754 19.0711 120.223 19.4729 119.758 20.0521C119.47 20.3873 119.228 20.7867 119.03 21.2328V19.2929L118.766 19.182L115.888 20.2074V20.587C116.951 20.587 117.504 21.1441 117.504 22.5491V27.3015C117.504 28.5265 116.883 28.8618 115.934 28.9283V29.3523H120.756V28.9505C120.379 28.9283 120.069 28.8396 119.802 28.6375C119.404 28.3713 119.181 27.9029 119.181 27.1659V21.9476C119.47 21.2575 119.824 20.8335 120.245 20.7448C120.932 20.5895 121.243 21.4571 122.125 21.3018C122.746 21.1687 123.055 20.4983 122.944 19.919ZM131.505 28.3713L131.153 28.0829C130.886 28.4403 130.754 28.529 130.512 28.529C130.092 28.529 129.916 28.1938 129.916 27.0796V22.3297C129.916 20.0768 128.943 18.9626 126.708 18.9626C124.852 18.9626 123.324 19.7637 123.324 21.1244C123.324 21.7726 123.744 22.241 124.319 22.241C124.962 22.241 125.338 21.7505 125.338 21.0381C125.27 20.4366 124.915 19.6553 126.397 19.6553C127.527 19.6553 128.233 20.6585 128.233 22.13V22.6871C123.456 24.2918 122.639 25.9211 122.639 27.2818C122.639 28.4625 123.412 29.5791 125.072 29.5791C126.111 29.5791 127.705 28.9998 127.705 27.1486C127.705 25.8348 127.04 25.4552 126.622 25.4552C126.29 25.4552 126.069 25.6574 125.979 25.9458C125.911 26.1898 125.935 26.5472 126.378 26.8824C126.664 27.1043 126.974 27.3064 126.974 27.6416C126.974 28.1297 126.444 28.3984 125.957 28.3984C125.072 28.3984 124.541 27.93 124.541 26.8824C124.541 25.6771 125.182 24.5851 128.233 23.4044V27.5529C128.233 28.8248 128.811 29.4928 129.872 29.4928C130.644 29.4928 131.001 29.1576 131.508 28.3786M136.596 20.1729V19.3915H134.716V16.9167C134.716 15.667 135.136 15.0434 135.845 15.0434C136.554 15.0434 136.64 15.5561 136.863 16.1575C137.039 16.6924 137.459 16.9833 137.836 16.9833C138.388 16.9833 138.833 16.5371 138.833 15.98C138.833 15.423 138.237 14.262 136.2 14.262C134.608 14.262 133.036 15.5783 133.036 18.6545V19.3915H131.442V20.1729H133.036V27.3532C133.036 28.492 132.349 28.8716 131.554 28.9382V29.3622H136.354V28.9382C135.447 28.8938 134.716 28.3565 134.716 27.1979V20.1729H136.596ZM142.127 19.3915H139.958V16.4016H139.447C139.139 17.9619 138.166 19.3915 136.594 19.3915L135.933 20.1729H138.276V27.3089C138.276 28.6227 138.963 29.5815 140.266 29.5815C141.129 29.5815 141.724 29.1132 142.499 28.0656L142.125 27.686C141.77 28.1987 141.369 28.3318 140.863 28.3318C140.286 28.3318 139.956 27.9966 139.956 26.8603V20.1704H142.125V19.389L142.127 19.3915ZM142.259 17.0252C142.259 17.0671 142.235 17.1164 142.203 17.1361C142.174 17.1558 142.154 17.1583 142.066 17.1583H141.922V16.897H142.059C142.164 16.897 142.183 16.8995 142.21 16.9241C142.237 16.9488 142.257 16.9857 142.257 17.0227M142.555 17.7745L142.35 17.3013C142.474 17.247 142.538 17.1509 142.538 17.0252C142.538 16.9266 142.491 16.8255 142.418 16.7738C142.347 16.7195 142.266 16.6998 142.122 16.6998H141.645V17.7745H141.922V17.3481H142.078L142.249 17.7745H142.553H142.555ZM142.826 17.2372C142.826 17.6587 142.496 18.0013 142.086 18.0013C141.675 18.0013 141.337 17.6587 141.337 17.2372C141.337 16.8157 141.67 16.473 142.095 16.473C142.494 16.473 142.826 16.8181 142.826 17.2372ZM142.998 17.2495C142.998 16.7294 142.592 16.3153 142.083 16.3153C141.574 16.3153 141.169 16.7294 141.169 17.2372C141.169 17.7449 141.577 18.159 142.086 18.159C142.594 18.159 142.998 17.7425 142.998 17.247" fill="black"/>
<path d="M48.662 0H48.4443V41.2038H48.662V0Z" fill="black"/>
</g>
<defs>
<clipPath id="clip0_3308_7829">
<rect width="143" height="55" fill="white"/>
</clipPath>
</defs>
</svg>
