<svg width="88" height="46" viewBox="0 0 88 46" fill="none" xmlns="http://www.w3.org/2000/svg">
<g clip-path="url(#clip0_3365_4284)">
<path d="M38.8195 34.6258C30.5702 40.3225 20.288 33.6957 20.288 33.6957C6.88771 24.8212 10.2427 4.86337 27.7085 6.51038C31.6951 6.87853 35.0896 8.6418 37.8722 10.967L38.3064 11.3545L38.3262 11.3739H42.293C42.214 10.5988 42.3127 9.86253 42.589 9.26185C42.0561 8.68055 41.4641 8.11863 40.8523 7.55671C40.2405 6.99479 39.609 6.47162 38.9577 5.98721C38.0696 7.03354 36.55 7.47921 34.6948 7.20793C32.741 6.93666 30.6491 5.89033 28.8926 4.30145C31.103 5.98721 33.5699 6.78165 35.5237 6.58788C35.0303 6.491 34.4975 6.33599 33.9646 6.10347L33.4515 5.85157C31.399 4.76648 29.6623 2.92571 28.9321 0.968674C28.0638 0.716779 27.1757 0.503636 26.2678 0.348624C25.3403 0.174235 24.4325 0.0579751 23.5246 -0.0195312C23.9193 1.91813 23.347 3.64264 21.8669 4.80524C20.3078 6.02596 17.8408 6.52975 14.9792 6.14222C18.275 6.27786 20.7025 5.21215 21.8076 3.44888C21.3735 3.72015 20.8604 3.97204 20.2683 4.12706L19.6762 4.26269C17.1698 4.6696 13.953 3.91391 11.2295 2.13127C10.3217 2.55755 9.45331 3.06135 8.60469 3.62327C7.73633 4.20456 6.92718 4.84399 6.17724 5.52217C8.80204 7.47921 10.4006 9.94003 10.6966 12.4202C10.9927 14.9586 9.86775 17.4388 7.49951 19.3377C9.90722 16.8575 10.3809 13.7572 9.11781 10.967C9.13754 11.6258 9.0586 12.304 8.84151 12.9628C8.74284 13.1759 8.56522 13.6022 8.56522 13.6022C7.32189 16.063 4.18397 17.8844 0.0592744 18.3495C-0.0394025 19.5508 -0.0196671 20.7715 0.0987451 22.031C0.217157 23.2905 0.453982 24.55 0.769748 25.7901C4.85497 25.4607 8.64416 26.352 11.4268 28.2122C14.1109 30.0142 15.7884 32.6881 16.0647 35.6915C15.2358 32.2425 12.5715 29.5491 8.88098 28.1928C9.61119 28.7159 10.2625 29.336 10.7953 30.0142C10.9729 30.2854 11.1506 30.5567 11.3479 30.828C11.3282 30.7892 11.2887 30.7505 11.2492 30.7117C12.907 33.502 12.7294 37.0091 10.6769 40.1869C11.7623 41.0201 12.907 41.7758 14.1109 42.4927C15.3147 43.1709 16.5186 43.7715 17.7422 44.2753C19.7749 41.4464 22.6168 39.5281 25.5771 38.908C28.3598 38.3073 31.0635 38.8886 33.1555 40.4388C30.4912 38.9468 27.1757 39.0049 24.1759 40.5163C24.985 40.3613 25.7745 40.3419 26.5639 40.4194C26.5441 40.4194 26.5244 40.4194 26.5244 40.4C26.8007 40.4388 27.0573 40.4775 27.3336 40.5163C30.136 41.117 32.3266 43.1515 33.2542 45.9999C34.2804 45.8061 35.3066 45.5154 36.2934 45.186C37.2604 44.8566 38.1683 44.4691 39.0564 44.0234C38.484 41.4076 38.7998 38.7336 39.9247 36.641C40.3589 35.8465 40.872 35.1683 41.4641 34.6258H38.8195Z" fill="url(#paint0_radial_3365_4284)"/>
<path d="M23.7812 0.213142C24.6298 0.290649 25.439 0.406908 26.2481 0.542544C27.0573 0.697557 27.9256 0.891323 28.794 1.12384C29.5439 3.0615 31.2806 4.92165 33.3726 6.02612L33.866 6.25864L33.9054 6.29739H33.9449C34.0238 6.33614 34.083 6.35552 34.162 6.39427C32.5042 6.20051 30.6688 5.42544 29.0308 4.16596L28.7742 4.45661C30.5307 6.04549 32.6818 7.11121 34.6751 7.40185C35.0303 7.45998 35.3856 7.47936 35.7211 7.47936C37.1026 7.47936 38.2275 7.05308 38.9972 6.23926C39.609 6.72367 40.201 7.20809 40.7339 7.6925C41.3062 8.21567 41.8588 8.73884 42.3719 9.28138C42.1351 9.82393 42.0561 10.4634 42.0956 11.1609H38.4248L38.0104 10.7928C34.8527 8.15754 31.399 6.62679 27.7283 6.29739C27.0375 6.23926 26.3665 6.20051 25.7153 6.20051C19.1828 6.20051 14.249 9.5139 12.5123 15.0944C11.5453 18.1946 11.7031 21.7018 12.9465 24.9958C14.2885 28.5417 16.7949 31.6032 20.1894 33.8509L20.2091 33.8703C20.6433 34.1415 25.5574 37.1255 31.1622 37.1255C34.0436 37.1255 36.6289 36.3505 38.8787 34.8197H40.951C40.4773 35.3235 40.0629 35.9048 39.7076 36.5442C38.5827 38.6369 38.2472 41.3109 38.7998 43.9073C37.9907 44.3142 37.142 44.663 36.2145 44.9924C35.2277 45.3412 34.2607 45.5931 33.3726 45.7675C32.4253 43.0548 30.3333 41.0784 27.6888 40.4002L27.7283 40.3614L27.373 40.3227C27.1165 40.2839 26.8402 40.2645 26.5836 40.2064C26.3073 40.187 26.031 40.1677 25.7745 40.1677C25.6758 40.1677 25.5771 40.1677 25.4784 40.1677C26.6231 39.7414 27.8072 39.5282 28.9519 39.5282C30.4517 39.5282 31.853 39.877 33.116 40.5939L35.7606 42.0666L33.3331 40.2839C31.7345 39.1019 29.8005 38.4819 27.7677 38.4819C27.0573 38.4819 26.327 38.5594 25.5968 38.7144C22.6168 39.3538 19.7552 41.2915 17.7224 44.043C16.5975 43.5779 15.4726 43.016 14.2687 42.3378C13.1241 41.679 12.0386 40.9427 10.9927 40.1677C12.6702 37.4743 13.0649 34.5097 12.0978 31.9326L14.1898 34.2772L11.565 30.7313C11.4466 30.5762 11.3282 30.4019 11.2295 30.2275H11.269L11.0321 29.9174C10.7558 29.5493 10.4401 29.2199 10.1046 28.8905C13.1438 30.3437 15.2555 32.7852 15.966 35.7498L16.637 38.5206L16.3607 35.6723C16.0647 32.6108 14.3872 29.8981 11.6242 28.0379C9.19675 26.4103 5.96015 25.4996 2.5262 25.4996C2.03281 25.4996 1.51969 25.519 1.00657 25.5577C0.710542 24.3757 0.493452 23.1938 0.37504 21.9924C0.256628 20.7911 0.236893 19.6285 0.33557 18.5046C4.36158 18.0202 7.53898 16.1988 8.84151 13.6411C8.84151 13.6411 9.01913 13.2148 9.11781 13.0211V13.0017V12.9823C9.23622 12.6335 9.31516 12.2654 9.35463 11.8972C10.144 14.4549 9.49278 17.0514 7.46004 19.1634L5.38782 21.3336L7.73633 19.4541C10.144 17.5164 11.3084 14.9975 11.0124 12.3623C10.6374 9.92081 9.07834 7.47936 6.53247 5.50295C7.26268 4.84415 7.99289 4.28222 8.76257 3.77843C9.57172 3.23589 10.4203 2.75147 11.269 2.34457C13.4793 3.73968 16.0449 4.5535 18.3342 4.5535C18.8276 4.5535 19.321 4.51474 19.7552 4.43724C19.7946 4.43724 19.8538 4.41786 20.0709 4.37911C20.2288 4.34035 20.3078 4.32098 20.367 4.3016C20.6235 4.22409 20.8801 4.14659 21.1366 4.03033C19.9525 5.27043 17.9987 5.94861 15.591 5.94861C15.4134 5.94861 15.216 5.94861 15.0187 5.92923L10.7756 5.75484L14.9792 6.31676C15.6107 6.39427 16.2423 6.4524 16.8541 6.4524C18.9658 6.4524 20.7617 5.92923 22.0247 4.94103C23.4852 3.81719 24.1167 2.13142 23.7812 0.213142ZM23.5444 0C23.9391 1.93766 23.3667 3.66217 21.8866 4.82477C20.663 5.77422 18.9066 6.27801 16.8343 6.27801C16.2423 6.27801 15.6305 6.23926 14.9989 6.14238C15.1963 6.14238 15.3937 6.16175 15.5713 6.16175C18.571 6.16175 20.8011 5.11542 21.8274 3.44903C21.3932 3.7203 20.8801 3.9722 20.288 4.12721C20.288 4.12721 19.7157 4.26285 19.696 4.26285C19.2421 4.34035 18.7881 4.37911 18.2948 4.37911C16.0647 4.37911 13.4793 3.60404 11.2492 2.1508C10.3414 2.57709 9.47304 3.08088 8.62442 3.6428C7.75607 4.22409 6.94692 4.86352 6.19697 5.5417C8.82178 7.49874 10.4203 9.95956 10.7164 12.4398C11.0124 14.9781 9.88749 17.4583 7.51924 19.3572C9.90722 16.8576 10.3809 13.7574 9.11781 10.9671C9.13754 11.6259 9.0586 12.3041 8.84151 12.9629C8.74284 13.1761 8.56522 13.6024 8.56522 13.6024C7.32189 16.0632 4.18397 17.8846 0.0592744 18.3496C-0.0394025 19.551 -0.0196671 20.7717 0.0987451 22.0312C0.217157 23.2906 0.453982 24.5501 0.769748 25.7902C1.34207 25.7515 1.89466 25.7127 2.44725 25.7127C5.90094 25.7127 9.03887 26.604 11.4268 28.2123C14.1109 30.0143 15.7884 32.6883 16.0647 35.6917C15.2358 32.2426 12.5715 29.5493 8.88098 28.1929C9.61119 28.7161 10.2625 29.3361 10.7953 30.0143C10.9729 30.2856 11.1506 30.5569 11.3479 30.8281C11.3282 30.7894 11.2887 30.7506 11.2492 30.7119C12.907 33.5021 12.7294 37.0093 10.6769 40.187C11.7623 41.0202 12.907 41.7759 14.1109 42.4928C15.3147 43.171 16.5186 43.7717 17.7422 44.2755C19.7749 41.4465 22.6168 39.5282 25.5771 38.9082C26.2876 38.7532 27.0178 38.6757 27.7085 38.6757C29.7215 38.6757 31.5964 39.2957 33.1555 40.4389C31.853 39.722 30.3925 39.3538 28.8926 39.3538C27.3336 39.3538 25.7153 39.7414 24.1759 40.5164C24.689 40.4195 25.2219 40.3808 25.735 40.3808C26.0113 40.3808 26.2876 40.4002 26.5639 40.4195C26.5441 40.4195 26.5244 40.4195 26.5244 40.4002C26.8007 40.4389 27.0573 40.4777 27.3336 40.5164C30.136 41.1171 32.3266 43.1516 33.2542 46C34.2804 45.8062 35.3066 45.5156 36.2934 45.1862C37.2604 44.8568 38.1683 44.4693 39.0564 44.0236C38.484 41.4078 38.7998 38.7338 39.9247 36.6411C40.3589 35.8467 40.872 35.1685 41.4641 34.6259H38.859C36.3723 36.3311 33.7278 36.9318 31.2017 36.9318C25.36 36.9318 20.3275 33.6959 20.3275 33.6959C7.4403 25.1702 10.0454 6.41365 25.735 6.41365C26.3863 6.41365 27.0375 6.4524 27.7283 6.51053C31.7148 6.87869 35.1093 8.64195 37.892 10.9671L38.3262 11.3547L38.3459 11.3741H42.3127C42.2338 10.599 42.3324 9.86268 42.6087 9.26201C42.0759 8.68071 41.4838 8.11879 40.872 7.55687C40.2602 6.99495 39.6287 6.47178 38.9774 5.98736C38.2669 6.83993 37.1223 7.28559 35.7211 7.28559C35.4053 7.28559 35.0501 7.26622 34.6948 7.20809C32.741 6.93682 30.6491 5.89048 28.8926 4.3016C30.8662 5.81297 33.0765 6.60741 34.9119 6.60741C35.129 6.60741 35.3264 6.58804 35.5237 6.56866C35.0303 6.47178 34.4975 6.31677 33.9646 6.08425L33.4515 5.83235C31.399 4.74726 29.6623 2.90649 28.9321 0.949452C28.0638 0.697557 27.1757 0.484415 26.2678 0.329402C25.36 0.193766 24.4522 0.0775063 23.5444 0Z" fill="url(#paint1_linear_3365_4284)"/>
<path d="M18.3933 24.9564V14.8418H26.1296V17.0314H21.3931V18.7752H25.5178V21.0035H21.3931V24.937H18.3933V24.9564Z" fill="url(#paint2_linear_3365_4284)"/>
<path d="M25.9914 14.9774V16.8763H21.4128H21.2549V17.0314V18.7752V18.9303H21.4128H25.3994V20.8679H21.4128H21.2549V21.0229V24.8014H18.5315V14.9774H25.9914ZM26.1296 14.8418H18.3933V24.9564H21.3931V21.0229H25.5178V18.7752H21.3931V17.0314H26.1296V14.8418Z" fill="url(#paint3_radial_3365_4284)"/>
<path d="M27.5703 24.9564V14.8418H30.5701V24.9564H27.5703Z" fill="url(#paint4_linear_3365_4284)"/>
<path d="M30.4319 14.9774V24.8014H27.7282V14.9774H30.4319ZM30.5701 14.8418H27.5703V24.9564H30.5701V14.8418Z" fill="url(#paint5_radial_3365_4284)"/>
<path d="M32.6619 24.9564V14.8418H37.2602C38.3062 14.8418 39.214 15.0162 39.964 15.3456C40.7139 15.6944 41.2862 16.2369 41.6809 16.9732C42.0756 17.7289 42.273 18.7171 42.273 19.9572C42.273 21.7011 41.8388 22.9606 40.9705 23.755C40.1021 24.5495 38.8785 24.9564 37.2602 24.9564H32.6619ZM35.6616 22.6893H36.8852C37.3786 22.6893 37.8128 22.6118 38.1483 22.4762C38.4838 22.3405 38.7601 22.0693 38.9377 21.6817C39.1153 21.2942 39.214 20.7129 39.214 19.9572C39.214 19.2015 39.1351 18.6202 38.9574 18.2133C38.7996 17.8064 38.543 17.5158 38.2075 17.3414C37.872 17.1864 37.4378 17.0895 36.905 17.0895H35.6814V22.6893H35.6616Z" fill="url(#paint6_linear_3365_4284)"/>
<path d="M37.2602 14.9774C38.2864 14.9774 39.1745 15.1518 39.9047 15.4812C40.6152 15.8106 41.1678 16.3338 41.5428 17.0507C41.9178 17.7677 42.1151 18.7559 42.1151 19.9572C42.1151 21.643 41.7007 22.8831 40.8718 23.6581C40.0429 24.4332 38.8193 24.8207 37.2602 24.8207H32.8V14.9774H37.2602ZM35.5235 22.8249H35.6814H36.905C37.4181 22.8249 37.872 22.7474 38.2272 22.5924C38.6022 22.4374 38.8982 22.1468 39.0956 21.7205C39.2929 21.3136 39.3719 20.7129 39.3719 19.9378C39.3719 19.1628 39.2929 18.5621 39.1153 18.1358C38.9377 17.6902 38.6614 17.3801 38.2864 17.1864C37.9312 17.012 37.4576 16.9345 36.905 16.9345H35.6814H35.5235V17.0895V22.6893V22.8249ZM37.2602 14.8418H32.6619V24.9564H37.2602C38.8785 24.9564 40.1021 24.5495 40.9705 23.755C41.8388 22.9606 42.273 21.7011 42.273 19.9572C42.273 18.7171 42.0756 17.7289 41.6809 16.9732C41.2862 16.2175 40.7139 15.675 39.964 15.3456C39.214 14.9968 38.3259 14.8418 37.2602 14.8418ZM35.6616 22.6893V17.0895H36.8852C37.4181 17.0895 37.8523 17.167 38.1878 17.3414C38.5233 17.4964 38.7798 17.787 38.9377 18.2133C39.0956 18.6202 39.1943 19.2015 39.1943 19.9572C39.1943 20.7129 39.0956 21.2748 38.918 21.6817C38.7404 22.0693 38.4838 22.3405 38.1286 22.4762C37.7931 22.6118 37.3589 22.6893 36.8655 22.6893H35.6616Z" fill="url(#paint7_radial_3365_4284)"/>
<path d="M44.0295 24.9564V14.8418H51.8447V17.1089H47.049V18.7559H51.2527V21.0423H47.049V22.6893H51.8447V24.9564H44.0295Z" fill="url(#paint8_linear_3365_4284)"/>
<path d="M51.6869 14.9774V16.9538H47.0293H46.8714V17.1089V18.7559V18.9109H47.0293H51.0948V20.9067H47.0293H46.8714V21.0617V22.7087V22.8637H47.0293H51.6869V24.8014H44.1677V14.9774H51.6869ZM51.8447 14.8418H44.0295V24.9564H51.8447V22.6893H47.049V21.0423H51.2527V18.7365H47.049V17.0895H51.8447V14.8418Z" fill="url(#paint9_radial_3365_4284)"/>
<path d="M53.4434 24.9564V14.8418H56.4431V22.6893H61.0809V24.9564H53.4434Z" fill="url(#paint10_linear_3365_4284)"/>
<path d="M56.305 14.9774V22.6893V22.8443H56.4629H60.9625V24.8014H53.621V14.9774H56.305ZM56.4431 14.8418H53.4434V24.9564H61.0809V22.6893H56.4431V14.8418Z" fill="url(#paint11_radial_3365_4284)"/>
<path d="M62.5215 24.9564V14.8418H65.5213V24.9564H62.5215Z" fill="url(#paint12_linear_3365_4284)"/>
<path d="M65.3834 14.9774V24.8014H62.6797V14.9774H65.3834ZM65.5413 14.8418H62.5415V24.9564H65.5413V14.8418Z" fill="url(#paint13_radial_3365_4284)"/>
<path d="M69.8633 24.9564V17.0314H66.9622V14.8418H75.7641V17.0314H72.863V24.9564H69.8633Z" fill="url(#paint14_linear_3365_4284)"/>
<path d="M75.626 14.9774V16.8763H72.8828H72.7249V17.0314V24.8014H70.0211V17.0314V16.8763H69.8633H67.12V14.9774H75.626ZM75.7641 14.8418H66.9622V17.0314H69.8633V24.9564H72.863V17.0314H75.7641V14.8418Z" fill="url(#paint15_radial_3365_4284)"/>
<path d="M80.4412 24.9564V21.2554L76.731 14.8418H79.8689L81.9411 18.659L84.0133 14.8418H87.1512L83.441 21.2554V24.9564H80.4412Z" fill="url(#paint16_linear_3365_4284)"/>
<path d="M86.9144 14.9774L83.3226 21.1779L83.3028 21.2167V21.2554V24.8014H80.5991V21.2361V21.1973L80.5794 21.1586L76.9875 14.9581H79.7702L81.8029 18.6977L81.9411 18.9303L82.0792 18.6977L84.112 14.9581H86.9144M87.1512 14.8418H84.0133L81.9411 18.659L79.8689 14.8418H76.731L80.4412 21.2554V24.9564H83.441V21.2554L87.1512 14.8418Z" fill="url(#paint17_radial_3365_4284)"/>
<path d="M18.3933 24.9566H21.393V21.0231H25.5177V19.7637C23.0706 20.0156 20.7023 20.3062 18.3735 20.6356V24.9566H18.3933Z" fill="url(#paint18_linear_3365_4284)"/>
<path d="M27.5703 24.9568H30.5701V19.2988C29.5636 19.3763 28.5571 19.4732 27.5703 19.5701V24.9568Z" fill="url(#paint19_linear_3365_4284)"/>
<path d="M39.1942 19.9584C39.1942 20.7141 39.0956 21.276 38.9179 21.6829C38.7403 22.0704 38.4838 22.3417 38.1285 22.4773C37.793 22.613 37.3588 22.6905 36.8655 22.6905H35.6419V18.9508C34.6354 19.0089 33.6289 19.0671 32.6421 19.1446V24.9575H37.2404C38.8587 24.9575 40.0823 24.5506 40.9507 23.7562C41.819 22.9618 42.2532 21.7023 42.2532 19.9584C42.2532 19.4933 42.2335 19.0671 42.1743 18.6602C41.148 18.6989 40.1218 18.7183 39.0956 18.7764C39.1745 19.1058 39.1942 19.4933 39.1942 19.9584Z" fill="url(#paint20_linear_3365_4284)"/>
<path d="M44.0295 24.9566H51.8447V22.6896H47.049V21.0425H51.2527V18.7367H47.049V18.543C46.0425 18.5623 45.036 18.5623 44.0493 18.6011V24.9566H44.0295Z" fill="url(#paint21_linear_3365_4284)"/>
<path d="M53.4434 24.9569H61.0809V22.6899H56.4431V18.6402C55.4366 18.6208 54.4499 18.582 53.4434 18.582V24.9569Z" fill="url(#paint22_linear_3365_4284)"/>
<path d="M62.5215 24.9574H65.5213V19.067C64.5345 19.0088 63.528 18.9507 62.5215 18.8926V24.9574Z" fill="url(#paint23_linear_3365_4284)"/>
<path d="M69.863 24.9558H72.8628V19.6853C71.876 19.5885 70.8695 19.4916 69.863 19.4141V24.9558Z" fill="url(#paint24_linear_3365_4284)"/>
<path d="M80.4413 21.2363V24.9372H83.441V21.2363L83.5594 21.0232C82.3951 20.8488 81.2109 20.6744 80.0071 20.5L80.4413 21.2363Z" fill="url(#paint25_linear_3365_4284)"/>
<path d="M34.0434 27.6504L33.2935 31.2932H32.7803L33.3132 28.658L31.5568 30.8475H31.3199L30.3924 28.6192L29.8398 31.2932H29.3267L30.0766 27.6504H30.5108L31.537 30.2081L33.5698 27.6504H34.0434Z" fill="white"/>
<path d="M37.5365 28.5409L36.9839 31.2923H36.5103L36.5695 30.9629C36.4511 31.0792 36.2932 31.1761 36.1353 31.2342C35.9774 31.2923 35.7801 31.3311 35.5827 31.3311C35.3459 31.3311 35.1288 31.2923 34.9512 31.1955C34.7736 31.0986 34.6157 30.9629 34.517 30.7885C34.4183 30.6142 34.3591 30.401 34.3591 30.1491C34.3591 29.8391 34.4183 29.5678 34.5565 29.3159C34.6946 29.064 34.892 28.8703 35.1288 28.7346C35.3656 28.599 35.6419 28.5215 35.938 28.5215C36.1748 28.5215 36.3919 28.5602 36.5498 28.6377C36.7076 28.7153 36.8458 28.8509 36.9445 29.0059L37.0431 28.5409H37.5365ZM36.2537 30.7304C36.4116 30.6335 36.5498 30.4979 36.6484 30.3235C36.7471 30.1491 36.7866 29.9554 36.7866 29.7228C36.7866 29.4709 36.7076 29.2965 36.5695 29.1609C36.4313 29.0253 36.2143 28.9671 35.9577 28.9671C35.7406 28.9671 35.563 29.0253 35.4051 29.1222C35.2472 29.219 35.1091 29.3547 35.0104 29.5291C34.9117 29.7035 34.8722 29.8972 34.8722 30.1297C34.8722 30.3623 34.9512 30.556 35.0893 30.6917C35.2275 30.8273 35.4446 30.9048 35.7011 30.9048C35.8985 30.8854 36.0958 30.8273 36.2537 30.7304Z" fill="white"/>
<path d="M40.6941 28.7538C40.8718 28.9089 40.9704 29.1414 40.9704 29.432C40.9704 29.5289 40.9507 29.6452 40.931 29.7614L40.6152 31.3116H40.1021L40.4178 29.7614C40.4376 29.6645 40.4376 29.587 40.4376 29.5289C40.4376 29.3545 40.3784 29.2189 40.2797 29.122C40.181 29.0251 40.0034 28.967 39.7863 28.967C39.51 28.967 39.2929 29.0445 39.1153 29.1801C38.9377 29.3351 38.8193 29.5483 38.7601 29.8389L38.464 31.2922H37.9509L38.5035 28.5407H38.9969L38.9377 28.8895C39.1943 28.6376 39.5298 28.502 39.9442 28.502C40.26 28.502 40.5165 28.5988 40.6941 28.7538Z" fill="white"/>
<path d="M44.7202 28.5409L44.1676 31.2923H43.6743L43.7335 30.9436C43.6151 31.0792 43.4572 31.1761 43.2796 31.2342C43.1019 31.2923 42.9243 31.3311 42.727 31.3311C42.4112 31.3311 42.1744 31.2536 41.9968 31.0792C41.8191 30.9242 41.7205 30.6917 41.7205 30.401C41.7205 30.3041 41.7402 30.2072 41.7599 30.091L42.0757 28.5409H42.5888L42.273 30.091C42.2533 30.1879 42.2533 30.2654 42.2533 30.3235C42.2533 30.4979 42.3125 30.6335 42.4112 30.7304C42.5099 30.8273 42.6875 30.8661 42.8848 30.8661C43.1611 30.8661 43.3782 30.7885 43.5558 30.6335C43.7335 30.4785 43.8519 30.2654 43.9111 29.9747L44.2071 28.5215H44.7202V28.5409Z" fill="white"/>
<path d="M46.4964 27.9411C46.4175 28.0186 46.3385 28.1543 46.2991 28.3287L46.2596 28.5418H47.0687L46.9898 28.9487H46.2004L45.7267 31.2933H45.2136L45.6873 28.9487H45.2136L45.2926 28.5418H45.7859L45.8452 28.2899C45.9044 28.0186 46.0228 27.7861 46.2004 27.6505C46.378 27.4955 46.5951 27.418 46.8911 27.418C47.0095 27.418 47.1082 27.4373 47.2266 27.4567C47.3253 27.4955 47.424 27.5342 47.4832 27.5924L47.2661 27.9605C47.1674 27.883 47.049 27.8249 46.8911 27.8249C46.7332 27.8249 46.5951 27.8636 46.4964 27.9411Z" fill="white"/>
<path d="M50.1476 28.5409L49.595 31.2923H49.1016L49.1608 30.9629C49.0424 31.0792 48.8845 31.1761 48.7266 31.2342C48.5687 31.2923 48.3714 31.3311 48.174 31.3311C47.9372 31.3311 47.7201 31.2923 47.5425 31.1955C47.3649 31.0986 47.207 30.9629 47.1083 30.7885C47.0096 30.6142 46.9504 30.401 46.9504 30.1491C46.9504 29.8391 47.0096 29.5678 47.1478 29.3159C47.2859 29.064 47.4833 28.8703 47.7201 28.7346C47.9569 28.599 48.2332 28.5215 48.5293 28.5215C48.7661 28.5215 48.9832 28.5602 49.1411 28.6377C49.2989 28.7153 49.4371 28.8509 49.5358 29.0059L49.6345 28.5409H50.1476ZM48.8648 30.7304C49.0227 30.6335 49.1608 30.4979 49.2595 30.3235C49.3582 30.1491 49.3976 29.9554 49.3976 29.7228C49.3976 29.4709 49.3187 29.2965 49.1805 29.1609C49.0424 29.0253 48.8253 28.9671 48.5687 28.9671C48.3517 28.9671 48.174 29.0253 48.0162 29.1222C47.8583 29.219 47.7201 29.3547 47.6214 29.5291C47.5228 29.7035 47.4833 29.8972 47.4833 30.1297C47.4833 30.3623 47.5622 30.556 47.7004 30.6917C47.8385 30.8273 48.0556 30.9048 48.3122 30.9048C48.5095 30.8854 48.7069 30.8273 48.8648 30.7304Z" fill="white"/>
<path d="M51.1935 31.1761C50.9962 31.0792 50.8383 30.9436 50.7199 30.7692C50.6015 30.5948 50.562 30.3816 50.562 30.1491C50.562 29.8391 50.6409 29.5678 50.7791 29.3159C50.9172 29.064 51.1146 28.8703 51.3712 28.7346C51.6277 28.599 51.904 28.5215 52.2198 28.5215C52.7724 28.5215 53.1671 28.7153 53.3644 29.1222L52.9303 29.3547C52.7724 29.0834 52.5355 28.9671 52.1606 28.9671C51.9435 28.9671 51.7659 29.0253 51.5882 29.1222C51.4304 29.219 51.2922 29.3547 51.1935 29.5291C51.0949 29.7035 51.0554 29.8972 51.0554 30.1297C51.0554 30.3623 51.1343 30.556 51.2725 30.6917C51.4106 30.8273 51.6277 30.9048 51.8843 30.9048C52.0619 30.9048 52.2198 30.8661 52.3579 30.8079C52.4961 30.7498 52.6342 30.6529 52.7132 30.5173L53.0881 30.7692C52.95 30.9436 52.7921 31.0792 52.5553 31.1761C52.3382 31.273 52.1014 31.3311 51.8448 31.3311C51.6277 31.3117 51.3909 31.273 51.1935 31.1761Z" fill="white"/>
<path d="M54.3709 30.4218C54.3512 30.4799 54.3512 30.5186 54.3512 30.5768C54.3512 30.693 54.3906 30.7705 54.4499 30.8287C54.5091 30.8868 54.6077 30.9256 54.7261 30.9256C54.884 30.9256 55.0024 30.8868 55.1209 30.7899L55.2195 31.1774C55.0419 31.2937 54.8248 31.3518 54.5683 31.3518C54.3512 31.3518 54.1736 31.2937 54.0354 31.1581C53.8973 31.0224 53.8381 30.8674 53.8381 30.6543C53.8381 30.5768 53.8381 30.5186 53.8578 30.4411L54.1538 28.9685H53.6802L53.7591 28.5616H54.2328L54.3512 27.9609H54.8643L54.7459 28.5616H55.555L55.4761 28.9685H54.6669L54.3709 30.4218Z" fill="white"/>
<path d="M58.9693 28.5409L58.4167 31.2923H57.9233L57.9825 30.9436C57.8641 31.0792 57.7062 31.1761 57.5286 31.2342C57.351 31.2923 57.1733 31.3311 56.976 31.3311C56.6602 31.3311 56.4234 31.2536 56.2458 31.0792C56.0682 30.9242 55.9695 30.6917 55.9695 30.401C55.9695 30.3041 55.9892 30.2072 56.0089 30.091L56.3247 28.5409H56.8378L56.5221 30.091C56.5023 30.1879 56.5023 30.2654 56.5023 30.3235C56.5023 30.4979 56.5615 30.6335 56.6602 30.7304C56.7589 30.8273 56.9365 30.8661 57.1339 30.8661C57.4102 30.8661 57.6273 30.7885 57.8049 30.6335C57.9825 30.4785 58.1009 30.2654 58.1601 29.9747L58.4561 28.5215H58.9693V28.5409Z" fill="white"/>
<path d="M60.8045 28.6184C60.9821 28.5409 61.1992 28.5215 61.4557 28.5215L61.357 29.0059C61.3176 29.0059 61.2781 29.0059 61.2189 29.0059C60.6466 29.0059 60.2913 29.3159 60.1532 29.936L59.8769 31.3117H59.3638L59.9164 28.5602H60.4097L60.3308 28.9671C60.469 28.7928 60.6268 28.6765 60.8045 28.6184Z" fill="white"/>
<path d="M62.0677 28.5413H62.5808L62.0283 31.2928H61.5151L62.0677 28.5413ZM62.2453 27.9213C62.1861 27.8632 62.1467 27.7857 62.1467 27.7082C62.1467 27.6113 62.1861 27.5338 62.2453 27.4563C62.3045 27.3981 62.4032 27.3594 62.5019 27.3594C62.6006 27.3594 62.6795 27.3788 62.7387 27.4369C62.7979 27.495 62.8374 27.5531 62.8374 27.65C62.8374 27.7663 62.7979 27.8438 62.7387 27.9019C62.6795 27.96 62.5808 27.9988 62.4624 27.9988C62.3835 28.0182 62.3045 27.9794 62.2453 27.9213Z" fill="white"/>
<path d="M65.7383 28.7538C65.916 28.9089 66.0146 29.1414 66.0146 29.432C66.0146 29.5289 65.9949 29.6452 65.9752 29.7614L65.6594 31.3116H65.1463L65.462 29.7614C65.4818 29.6645 65.4818 29.587 65.4818 29.5289C65.4818 29.3545 65.4226 29.2189 65.3239 29.122C65.2252 29.0251 65.0476 28.967 64.8305 28.967C64.5542 28.967 64.3371 29.0445 64.1595 29.1801C63.9819 29.3351 63.8635 29.5483 63.8043 29.8389L63.5082 31.2922H62.9951L63.5477 28.5407H64.0411L63.9819 28.8895C64.2384 28.6376 64.5739 28.502 64.9884 28.502C65.3042 28.502 65.5607 28.5988 65.7383 28.7538Z" fill="white"/>
<path d="M69.8434 28.5409L69.3697 30.9242C69.2711 31.4086 69.0934 31.7768 68.8171 31.9899C68.5408 32.203 68.1659 32.3193 67.6922 32.3193C67.4357 32.3193 67.1791 32.2805 66.962 32.2224C66.7449 32.1643 66.5673 32.0674 66.4094 31.9318L66.6857 31.5442C66.8041 31.6411 66.9423 31.7186 67.1199 31.7768C67.2975 31.8349 67.4949 31.8736 67.712 31.8736C68.0277 31.8736 68.2843 31.7961 68.4619 31.6605C68.6395 31.5055 68.7579 31.2923 68.8171 30.9823L68.8566 30.7885C68.5803 31.0404 68.2448 31.1761 67.8501 31.1761C67.6133 31.1761 67.3765 31.1373 67.1988 31.0404C67.0015 30.9436 66.8633 30.8273 66.7647 30.6529C66.666 30.4785 66.6068 30.2848 66.6068 30.0522C66.6068 29.7616 66.666 29.5097 66.8041 29.2772C66.9423 29.0447 67.1199 28.8509 67.3765 28.7153C67.6133 28.5796 67.8896 28.5215 68.2053 28.5215C68.4422 28.5215 68.6593 28.5602 68.8369 28.6571C69.0145 28.754 69.1526 28.8703 69.2513 29.0447L69.35 28.5409H69.8434ZM68.5408 30.5948C68.6987 30.4979 68.8369 30.3816 68.9355 30.2072C69.0342 30.0522 69.0737 29.8585 69.0737 29.6453C69.0737 29.4322 68.9948 29.2578 68.8566 29.1222C68.7185 28.9865 68.5014 28.9284 68.2448 28.9284C68.0277 28.9284 67.8501 28.9671 67.6725 29.064C67.5146 29.1609 67.3765 29.2772 67.2778 29.4516C67.1791 29.6066 67.1396 29.8003 67.1396 30.0135C67.1396 30.246 67.2186 30.4204 67.3567 30.5367C67.5146 30.6723 67.712 30.7304 67.9685 30.7304C68.1856 30.7304 68.3632 30.6917 68.5408 30.5948Z" fill="white"/>
<path d="M74.6784 29.4521H75.1916L74.8955 30.886C74.7179 31.0216 74.5206 31.1379 74.2837 31.2154C74.0469 31.2929 73.8101 31.3316 73.5535 31.3316C73.1983 31.3316 72.8825 31.2735 72.6062 31.1379C72.3497 31.0022 72.1326 30.8278 71.9944 30.5953C71.8563 30.3628 71.7773 30.0915 71.7773 29.8009C71.7773 29.394 71.876 29.0258 72.0536 28.6964C72.2313 28.367 72.5076 28.0957 72.8431 27.902C73.1983 27.7082 73.593 27.6113 74.0469 27.6113C74.3627 27.6113 74.639 27.6501 74.8955 27.7663C75.1324 27.8632 75.3297 27.9989 75.4876 28.1732L75.1126 28.4833C74.9942 28.3476 74.8363 28.2314 74.6587 28.1732C74.4811 28.1151 74.2837 28.0764 74.0469 28.0764C73.6917 28.0764 73.3956 28.1539 73.1391 28.3089C72.8825 28.4639 72.6852 28.6577 72.5273 28.9096C72.3694 29.1615 72.3102 29.4521 72.3102 29.7621C72.3102 30.0915 72.4286 30.3628 72.6457 30.5566C72.8628 30.7503 73.1983 30.8472 73.6127 30.8472C73.9285 30.8472 74.2048 30.7697 74.4416 30.6147L74.6784 29.4521Z" fill="white"/>
<path d="M77.1848 28.6184C77.3624 28.5409 77.5795 28.5215 77.8361 28.5215L77.7374 29.0059C77.6979 29.0059 77.6585 29.0059 77.5993 29.0059C77.0269 29.0059 76.6717 29.3159 76.5336 29.936L76.2573 31.3117H75.7441L76.2967 28.5602H76.7901L76.7112 28.9671C76.8493 28.7928 77.0072 28.6765 77.1848 28.6184Z" fill="white"/>
<path d="M78.4875 31.1759C78.2902 31.079 78.1323 30.9434 78.0336 30.7496C77.9152 30.5752 77.8757 30.3621 77.8757 30.1296C77.8757 29.8196 77.9547 29.5483 78.0928 29.2964C78.231 29.0445 78.4283 28.8507 78.6849 28.7151C78.9414 28.5795 79.2177 28.502 79.5335 28.502C79.7901 28.502 80.0269 28.5601 80.2242 28.657C80.4216 28.7538 80.5795 28.8895 80.6782 29.0639C80.7768 29.2383 80.836 29.4514 80.836 29.6839C80.836 29.9939 80.7571 30.2652 80.6189 30.5171C80.4808 30.769 80.2834 30.9628 80.0269 31.0984C79.7703 31.234 79.494 31.3116 79.1783 31.3116C78.902 31.3116 78.6849 31.2728 78.4875 31.1759ZM79.7703 30.7303C79.9282 30.6334 80.0664 30.4977 80.165 30.3234C80.2637 30.149 80.3032 29.9552 80.3032 29.7227C80.3032 29.4708 80.2242 29.2964 80.0861 29.1608C79.9479 29.0251 79.7309 28.967 79.4743 28.967C79.2572 28.967 79.0796 29.0251 78.9217 29.122C78.7638 29.2189 78.6257 29.3545 78.527 29.5289C78.4283 29.7033 78.3889 29.8971 78.3889 30.1296C78.3889 30.3621 78.4678 30.5559 78.6059 30.6915C78.7441 30.8271 78.9612 30.9046 79.2177 30.9046C79.4151 30.8853 79.6124 30.8271 79.7703 30.7303Z" fill="white"/>
<path d="M84.3885 28.5409L83.8359 31.2923H83.3425L83.4017 30.9436C83.2833 31.0792 83.1254 31.1761 82.9478 31.2342C82.7701 31.2923 82.5925 31.3311 82.3952 31.3311C82.0794 31.3311 81.8426 31.2536 81.665 31.0792C81.4873 30.9242 81.3887 30.6917 81.3887 30.401C81.3887 30.3041 81.4084 30.2072 81.4281 30.091L81.7439 28.5409H82.257L81.9413 30.091C81.9215 30.1879 81.9215 30.2654 81.9215 30.3235C81.9215 30.4979 81.9807 30.6335 82.0794 30.7304C82.1781 30.8273 82.3557 30.8661 82.5531 30.8661C82.8294 30.8661 83.0464 30.7885 83.2241 30.6335C83.4017 30.4785 83.5201 30.2654 83.5793 29.9747L83.8753 28.5215H84.3885V28.5409Z" fill="white"/>
<path d="M87.4079 28.6569C87.5855 28.7538 87.7434 28.8894 87.8421 29.0638C87.9407 29.2382 87.9999 29.4514 87.9999 29.7033C87.9999 30.0133 87.9407 30.2846 87.8026 30.5365C87.6644 30.7884 87.4671 30.9821 87.2303 31.1178C86.9934 31.2534 86.7171 31.3309 86.4211 31.3309C86.1843 31.3309 85.9672 31.2921 85.8093 31.1953C85.6514 31.0984 85.5133 30.9821 85.4146 30.8271L85.1186 32.2997H84.6055L85.3751 28.5407H85.8685L85.8093 28.8894C86.0659 28.6376 86.4014 28.5213 86.7961 28.5213C86.9934 28.5019 87.2105 28.56 87.4079 28.6569ZM86.954 30.7302C87.1119 30.6333 87.25 30.4977 87.3487 30.3233C87.4474 30.1489 87.4868 29.9552 87.4868 29.7226C87.4868 29.4707 87.4079 29.2964 87.2697 29.1607C87.1316 29.0251 86.9145 28.967 86.6579 28.967C86.4409 28.967 86.2632 29.0251 86.0856 29.122C85.9277 29.2188 85.7896 29.3545 85.6909 29.5289C85.5922 29.7033 85.5528 29.897 85.5528 30.1295C85.5528 30.3621 85.6317 30.5558 85.7699 30.6915C85.908 30.8271 86.1251 30.9046 86.3817 30.9046C86.5987 30.8852 86.7961 30.8271 86.954 30.7302Z" fill="white"/>
<path d="M20.3078 33.6965C15.591 30.5768 12.9465 26.0621 12.2558 21.6055C8.01267 22.3612 4.04586 23.2525 0.414551 24.2407C0.513228 24.7639 0.63164 25.2676 0.769787 25.7908C4.85501 25.4614 8.6442 26.3527 11.4269 28.2129C14.1109 30.0149 15.7884 32.6889 16.0647 35.6922C15.2358 32.2432 12.5715 29.5499 8.88102 28.1935C9.61123 28.7167 10.2625 29.3367 10.7954 30.0149C10.973 30.2862 11.1506 30.5575 11.3479 30.8287C11.3282 30.79 11.2887 30.7512 11.2493 30.7125C12.907 33.5027 12.7294 37.0098 10.6769 40.1876C11.7624 41.0208 12.907 41.7765 14.1109 42.4934C15.3148 43.1716 16.5186 43.7723 17.7422 44.2761C19.7749 41.4471 22.6168 39.5288 25.5771 38.9088C28.3598 38.3081 31.0636 38.8894 33.1555 40.4395C30.4912 38.9475 27.1757 39.0056 24.1759 40.517C24.9851 40.362 25.7745 40.3426 26.5639 40.4201C26.5442 40.4201 26.5244 40.4201 26.5244 40.4008C26.8007 40.4395 27.0573 40.4783 27.3336 40.517C30.136 41.1177 32.3266 43.1522 33.2542 46.0006C34.2804 45.8068 35.3067 45.5162 36.2934 45.1868C37.2605 44.8574 38.1683 44.4698 39.0564 44.0242C38.4841 41.4083 38.7998 38.7344 39.9248 36.6417C40.3589 35.8473 40.8721 35.1691 41.4641 34.6265H38.859C30.5702 40.3232 20.3078 33.6965 20.3078 33.6965Z" fill="url(#paint26_linear_3365_4284)"/>
</g>
<defs>
<radialGradient id="paint0_radial_3365_4284" cx="0" cy="0" r="1" gradientUnits="userSpaceOnUse" gradientTransform="translate(20.9613 13.2018) scale(38.7385 38.0342)">
<stop offset="0.3524" stop-color="#F2F2F2"/>
<stop offset="0.4101" stop-color="#EEEEEE"/>
<stop offset="0.4732" stop-color="#E0E0E0"/>
<stop offset="0.5388" stop-color="#CBCBCB"/>
<stop offset="0.6062" stop-color="#ACACAC"/>
<stop offset="0.6749" stop-color="#858585"/>
<stop offset="0.7448" stop-color="#545454"/>
<stop offset="0.8143" stop-color="#1C1C1C"/>
<stop offset="0.8462"/>
</radialGradient>
<linearGradient id="paint1_linear_3365_4284" x1="6.90361e-05" y1="23.0001" x2="42.611" y2="23.0001" gradientUnits="userSpaceOnUse">
<stop stop-color="#F2F2F2"/>
<stop offset="0.4344" stop-color="#CCCCCC"/>
<stop offset="1" stop-color="white"/>
</linearGradient>
<linearGradient id="paint2_linear_3365_4284" x1="16.0488" y1="18.174" x2="77.7563" y2="35.8873" gradientUnits="userSpaceOnUse">
<stop stop-color="white"/>
<stop offset="0.6232" stop-color="#C3C3C3"/>
</linearGradient>
<radialGradient id="paint3_radial_3365_4284" cx="0" cy="0" r="1" gradientUnits="userSpaceOnUse" gradientTransform="translate(22.2581 19.8922) scale(4.55656 4.47372)">
<stop offset="0.7418" stop-color="white"/>
<stop offset="0.7898" stop-color="#FBFBFB"/>
<stop offset="0.8422" stop-color="#EDEDED"/>
<stop offset="0.8967" stop-color="#D8D8D8"/>
<stop offset="0.9522" stop-color="#B9B9B9"/>
<stop offset="1" stop-color="#999999"/>
</radialGradient>
<linearGradient id="paint4_linear_3365_4284" x1="16.5504" y1="16.427" x2="78.2578" y2="34.1403" gradientUnits="userSpaceOnUse">
<stop stop-color="white"/>
<stop offset="0.6232" stop-color="#C3C3C3"/>
</linearGradient>
<radialGradient id="paint5_radial_3365_4284" cx="0" cy="0" r="1" gradientUnits="userSpaceOnUse" gradientTransform="translate(29.0731 19.8922) scale(3.7945 3.72552)">
<stop offset="0.7418" stop-color="white"/>
<stop offset="0.7898" stop-color="#FBFBFB"/>
<stop offset="0.8422" stop-color="#EDEDED"/>
<stop offset="0.8967" stop-color="#D8D8D8"/>
<stop offset="0.9522" stop-color="#B9B9B9"/>
<stop offset="1" stop-color="#999999"/>
</radialGradient>
<linearGradient id="paint6_linear_3365_4284" x1="17.0234" y1="14.7787" x2="78.7308" y2="32.492" gradientUnits="userSpaceOnUse">
<stop stop-color="white"/>
<stop offset="0.6232" stop-color="#C3C3C3"/>
</linearGradient>
<radialGradient id="paint7_radial_3365_4284" cx="0" cy="0" r="1" gradientUnits="userSpaceOnUse" gradientTransform="translate(37.4636 19.8922) scale(4.98217 4.8916)">
<stop offset="0.7418" stop-color="white"/>
<stop offset="0.7898" stop-color="#FBFBFB"/>
<stop offset="0.8422" stop-color="#EDEDED"/>
<stop offset="0.8967" stop-color="#D8D8D8"/>
<stop offset="0.9522" stop-color="#B9B9B9"/>
<stop offset="1" stop-color="#999999"/>
</radialGradient>
<linearGradient id="paint8_linear_3365_4284" x1="17.9382" y1="11.5921" x2="79.6457" y2="29.3053" gradientUnits="userSpaceOnUse">
<stop stop-color="white"/>
<stop offset="0.6232" stop-color="#C3C3C3"/>
</linearGradient>
<radialGradient id="paint9_radial_3365_4284" cx="0" cy="0" r="1" gradientUnits="userSpaceOnUse" gradientTransform="translate(47.934 19.8922) scale(4.57016 4.48707)">
<stop offset="0.7418" stop-color="white"/>
<stop offset="0.7898" stop-color="#FBFBFB"/>
<stop offset="0.8422" stop-color="#EDEDED"/>
<stop offset="0.8967" stop-color="#D8D8D8"/>
<stop offset="0.9522" stop-color="#B9B9B9"/>
<stop offset="1" stop-color="#999999"/>
</radialGradient>
<linearGradient id="paint10_linear_3365_4284" x1="18.4538" y1="9.79592" x2="80.1613" y2="27.5092" gradientUnits="userSpaceOnUse">
<stop stop-color="white"/>
<stop offset="0.6232" stop-color="#C3C3C3"/>
</linearGradient>
<radialGradient id="paint11_radial_3365_4284" cx="0" cy="0" r="1" gradientUnits="userSpaceOnUse" gradientTransform="translate(57.2603 19.8922) scale(4.53622 4.45375)">
<stop offset="0.7418" stop-color="white"/>
<stop offset="0.7898" stop-color="#FBFBFB"/>
<stop offset="0.8422" stop-color="#EDEDED"/>
<stop offset="0.8967" stop-color="#D8D8D8"/>
<stop offset="0.9522" stop-color="#B9B9B9"/>
<stop offset="1" stop-color="#999999"/>
</radialGradient>
<linearGradient id="paint12_linear_3365_4284" x1="19.1223" y1="7.46657" x2="80.8298" y2="25.1798" gradientUnits="userSpaceOnUse">
<stop stop-color="white"/>
<stop offset="0.6232" stop-color="#C3C3C3"/>
</linearGradient>
<radialGradient id="paint13_radial_3365_4284" cx="0" cy="0" r="1" gradientUnits="userSpaceOnUse" gradientTransform="translate(64.0276 19.8922) scale(3.79456 3.72557)">
<stop offset="0.7418" stop-color="white"/>
<stop offset="0.7898" stop-color="#FBFBFB"/>
<stop offset="0.8422" stop-color="#EDEDED"/>
<stop offset="0.8967" stop-color="#D8D8D8"/>
<stop offset="0.9522" stop-color="#B9B9B9"/>
<stop offset="1" stop-color="#999999"/>
</radialGradient>
<linearGradient id="paint14_linear_3365_4284" x1="19.7694" y1="5.21309" x2="81.4769" y2="22.9264" gradientUnits="userSpaceOnUse">
<stop stop-color="white"/>
<stop offset="0.6214" stop-color="#CCCCCC"/>
</linearGradient>
<radialGradient id="paint15_radial_3365_4284" cx="0" cy="0" r="1" gradientUnits="userSpaceOnUse" gradientTransform="translate(71.3704 19.8922) scale(4.79003 4.70295)">
<stop offset="0.7418" stop-color="white"/>
<stop offset="0.7898" stop-color="#FBFBFB"/>
<stop offset="0.8422" stop-color="#EDEDED"/>
<stop offset="0.8967" stop-color="#D8D8D8"/>
<stop offset="0.9522" stop-color="#B9B9B9"/>
<stop offset="1" stop-color="#999999"/>
</radialGradient>
<linearGradient id="paint16_linear_3365_4284" x1="20.5774" y1="2.39775" x2="82.2848" y2="20.111" gradientUnits="userSpaceOnUse">
<stop stop-color="white"/>
<stop offset="0.6232" stop-color="#C3C3C3"/>
</linearGradient>
<radialGradient id="paint17_radial_3365_4284" cx="0" cy="0" r="1" gradientUnits="userSpaceOnUse" gradientTransform="translate(81.9448 19.8922) scale(5.18338 5.08914)">
<stop offset="0.7418" stop-color="white"/>
<stop offset="0.7898" stop-color="#FBFBFB"/>
<stop offset="0.8422" stop-color="#EDEDED"/>
<stop offset="0.8967" stop-color="#D8D8D8"/>
<stop offset="0.9522" stop-color="#B9B9B9"/>
<stop offset="1" stop-color="#999999"/>
</radialGradient>
<linearGradient id="paint18_linear_3365_4284" x1="21.954" y1="43.7138" x2="21.954" y2="17.8911" gradientUnits="userSpaceOnUse">
<stop offset="0.7859" stop-color="white"/>
<stop offset="0.8257" stop-color="#FBFBFB"/>
<stop offset="0.8692" stop-color="#EDEDED"/>
<stop offset="0.9143" stop-color="#D8D8D8"/>
<stop offset="0.9604" stop-color="#B9B9B9"/>
<stop offset="1" stop-color="#999999"/>
</linearGradient>
<linearGradient id="paint19_linear_3365_4284" x1="29.0731" y1="43.714" x2="29.0731" y2="17.8913" gradientUnits="userSpaceOnUse">
<stop offset="0.7935" stop-color="white"/>
<stop offset="0.8319" stop-color="#FBFBFB"/>
<stop offset="0.8738" stop-color="#EDEDED"/>
<stop offset="0.9174" stop-color="#D8D8D8"/>
<stop offset="0.9618" stop-color="#B9B9B9"/>
<stop offset="1" stop-color="#999999"/>
</linearGradient>
<linearGradient id="paint20_linear_3365_4284" x1="37.4635" y1="43.7147" x2="37.4635" y2="17.8921" gradientUnits="userSpaceOnUse">
<stop offset="0.7727" stop-color="white"/>
<stop offset="0.8149" stop-color="#FBFBFB"/>
<stop offset="0.8611" stop-color="#EDEDED"/>
<stop offset="0.909" stop-color="#D8D8D8"/>
<stop offset="0.9579" stop-color="#B9B9B9"/>
<stop offset="1" stop-color="#999999"/>
</linearGradient>
<linearGradient id="paint21_linear_3365_4284" x1="47.934" y1="43.7138" x2="47.934" y2="17.8911" gradientUnits="userSpaceOnUse">
<stop offset="0.7187" stop-color="white"/>
<stop offset="0.771" stop-color="#FBFBFB"/>
<stop offset="0.8281" stop-color="#EDEDED"/>
<stop offset="0.8874" stop-color="#D8D8D8"/>
<stop offset="0.9479" stop-color="#B9B9B9"/>
<stop offset="1" stop-color="#999999"/>
</linearGradient>
<linearGradient id="paint22_linear_3365_4284" x1="57.2603" y1="43.7141" x2="57.2603" y2="17.8914" gradientUnits="userSpaceOnUse">
<stop offset="0.7187" stop-color="white"/>
<stop offset="0.771" stop-color="#FBFBFB"/>
<stop offset="0.8281" stop-color="#EDEDED"/>
<stop offset="0.8874" stop-color="#D8D8D8"/>
<stop offset="0.9479" stop-color="#B9B9B9"/>
<stop offset="1" stop-color="#999999"/>
</linearGradient>
<linearGradient id="paint23_linear_3365_4284" x1="64.0273" y1="43.7146" x2="64.0273" y2="17.892" gradientUnits="userSpaceOnUse">
<stop offset="0.6757" stop-color="white"/>
<stop offset="0.736" stop-color="#FBFBFB"/>
<stop offset="0.8018" stop-color="#EDEDED"/>
<stop offset="0.8702" stop-color="#D8D8D8"/>
<stop offset="0.94" stop-color="#B9B9B9"/>
<stop offset="1" stop-color="#999999"/>
</linearGradient>
<linearGradient id="paint24_linear_3365_4284" x1="71.3702" y1="43.713" x2="71.3702" y2="17.8903" gradientUnits="userSpaceOnUse">
<stop offset="0.6236" stop-color="white"/>
<stop offset="0.6936" stop-color="#FBFBFB"/>
<stop offset="0.77" stop-color="#EDEDED"/>
<stop offset="0.8494" stop-color="#D8D8D8"/>
<stop offset="0.9303" stop-color="#B9B9B9"/>
<stop offset="1" stop-color="#999999"/>
</linearGradient>
<linearGradient id="paint25_linear_3365_4284" x1="81.7939" y1="43.7138" x2="81.7939" y2="17.8911" gradientUnits="userSpaceOnUse">
<stop offset="0.3999" stop-color="white"/>
<stop offset="0.4979" stop-color="#FBFBFB"/>
<stop offset="0.6048" stop-color="#EDEDED"/>
<stop offset="0.716" stop-color="#D8D8D8"/>
<stop offset="0.8295" stop-color="#B9B9B9"/>
<stop offset="0.85" stop-color="#B3B3B3"/>
</linearGradient>
<linearGradient id="paint26_linear_3365_4284" x1="20.9345" y1="69.7073" x2="20.9345" y2="22.1034" gradientUnits="userSpaceOnUse">
<stop offset="0.7187" stop-color="white"/>
<stop offset="0.771" stop-color="#FBFBFB"/>
<stop offset="0.8281" stop-color="#EDEDED"/>
<stop offset="0.8874" stop-color="#D8D8D8"/>
<stop offset="0.9479" stop-color="#B9B9B9"/>
<stop offset="1" stop-color="#999999"/>
</linearGradient>
<clipPath id="clip0_3365_4284">
<rect width="88" height="46" fill="white"/>
</clipPath>
</defs>
</svg>
